%TF.GenerationSoftware,KiCad,Pcbnew,8.0.7*%
%TF.CreationDate,2025-09-19T21:14:16-06:00*%
%TF.ProjectId,MiniBall,4d696e69-4261-46c6-9c2e-6b696361645f,rev?*%
%TF.SameCoordinates,Original*%
%TF.FileFunction,Soldermask,Top*%
%TF.FilePolarity,Negative*%
%FSLAX46Y46*%
G04 Gerber Fmt 4.6, Leading zero omitted, Abs format (unit mm)*
G04 Created by KiCad (PCBNEW 8.0.7) date 2025-09-19 21:14:16*
%MOMM*%
%LPD*%
G01*
G04 APERTURE LIST*
G04 Aperture macros list*
%AMRoundRect*
0 Rectangle with rounded corners*
0 $1 Rounding radius*
0 $2 $3 $4 $5 $6 $7 $8 $9 X,Y pos of 4 corners*
0 Add a 4 corners polygon primitive as box body*
4,1,4,$2,$3,$4,$5,$6,$7,$8,$9,$2,$3,0*
0 Add four circle primitives for the rounded corners*
1,1,$1+$1,$2,$3*
1,1,$1+$1,$4,$5*
1,1,$1+$1,$6,$7*
1,1,$1+$1,$8,$9*
0 Add four rect primitives between the rounded corners*
20,1,$1+$1,$2,$3,$4,$5,0*
20,1,$1+$1,$4,$5,$6,$7,0*
20,1,$1+$1,$6,$7,$8,$9,0*
20,1,$1+$1,$8,$9,$2,$3,0*%
G04 Aperture macros list end*
%ADD10RoundRect,0.277860X-2.048340X-0.648340X2.048340X-0.648340X2.048340X0.648340X-2.048340X0.648340X0*%
%ADD11RoundRect,0.101600X0.718420X0.000000X0.000000X0.718420X-0.718420X0.000000X0.000000X-0.718420X0*%
%ADD12RoundRect,0.187860X-0.438340X0.688340X-0.438340X-0.688340X0.438340X-0.688340X0.438340X0.688340X0*%
%ADD13RoundRect,0.310480X0.465720X-0.565720X0.465720X0.565720X-0.465720X0.565720X-0.465720X-0.565720X0*%
%ADD14RoundRect,0.172860X-0.403340X0.653340X-0.403340X-0.653340X0.403340X-0.653340X0.403340X0.653340X0*%
%ADD15RoundRect,0.187860X0.688340X0.438340X-0.688340X0.438340X-0.688340X-0.438340X0.688340X-0.438340X0*%
%ADD16RoundRect,0.187860X0.438340X-0.688340X0.438340X0.688340X-0.438340X0.688340X-0.438340X-0.688340X0*%
%ADD17RoundRect,0.172860X0.653340X0.403340X-0.653340X0.403340X-0.653340X-0.403340X0.653340X-0.403340X0*%
%ADD18C,2.540000*%
%ADD19RoundRect,0.482600X-0.482600X-0.482600X0.482600X-0.482600X0.482600X0.482600X-0.482600X0.482600X0*%
%ADD20C,1.930400*%
%ADD21RoundRect,0.076200X0.889000X-0.889000X0.889000X0.889000X-0.889000X0.889000X-0.889000X-0.889000X0*%
%ADD22RoundRect,0.288000X-0.397000X0.072000X-0.397000X-0.072000X0.397000X-0.072000X0.397000X0.072000X0*%
%ADD23RoundRect,0.172860X0.403340X-0.653340X0.403340X0.653340X-0.403340X0.653340X-0.403340X-0.653340X0*%
%ADD24C,10.002400*%
%ADD25O,1.552400X1.952400*%
%ADD26RoundRect,0.187860X-0.688340X-0.438340X0.688340X-0.438340X0.688340X0.438340X-0.688340X0.438340X0*%
%ADD27RoundRect,0.073500X-0.171500X-0.896500X0.171500X-0.896500X0.171500X0.896500X-0.171500X0.896500X0*%
%ADD28RoundRect,0.215240X-0.860960X-0.860960X0.860960X-0.860960X0.860960X0.860960X-0.860960X0.860960X0*%
%ADD29RoundRect,0.175240X-0.700960X-0.700960X0.700960X-0.700960X0.700960X0.700960X-0.700960X0.700960X0*%
%ADD30RoundRect,0.276200X-0.000010X-0.550000X0.000010X-0.550000X0.000010X0.550000X-0.000010X0.550000X0*%
%ADD31RoundRect,0.276200X-0.550000X0.000010X-0.550000X-0.000010X0.550000X-0.000010X0.550000X0.000010X0*%
G04 APERTURE END LIST*
D10*
%TO.C,MOS.D.1*%
X166701110Y-103703600D03*
X166701110Y-106303600D03*
%TD*%
D11*
%TO.C,MCH.SP.10*%
X165001100Y-84503600D03*
%TD*%
%TO.C,MCH.SP.9*%
X168301110Y-120503600D03*
%TD*%
D12*
%TO.C,MCU.C.22*%
X143753510Y-82003600D03*
X141648710Y-82003600D03*
%TD*%
D13*
%TO.C,MCU.Y.1*%
X133301100Y-87503600D03*
X133301100Y-91703610D03*
X136101100Y-91703610D03*
X136101100Y-87503600D03*
%TD*%
D14*
%TO.C,USB.R.6*%
X145703510Y-122303600D03*
X143698710Y-122303600D03*
%TD*%
D11*
%TO.C,MCH.SP.2*%
X157301100Y-117403600D03*
%TD*%
D12*
%TO.C,MCU.C.1*%
X149853510Y-79703600D03*
X147748710Y-79703600D03*
%TD*%
D15*
%TO.C,MCU.C.7*%
X138101110Y-87856000D03*
X138101110Y-85751200D03*
%TD*%
D11*
%TO.C,MCH.SP.3*%
X138501100Y-80503600D03*
%TD*%
D16*
%TO.C,MOS.C.2*%
X148248700Y-113703600D03*
X150353500Y-113703600D03*
%TD*%
D15*
%TO.C,MCU.C.4*%
X157101100Y-88456000D03*
X157101100Y-86351200D03*
%TD*%
D17*
%TO.C,USB.FB.3*%
X151201100Y-126206000D03*
X151201100Y-124201200D03*
%TD*%
D14*
%TO.C,MOS.R.3*%
X168303510Y-110203600D03*
X166298710Y-110203600D03*
%TD*%
D18*
%TO.C,MCH.FID.2*%
X166501110Y-88103600D03*
%TD*%
D11*
%TO.C,MCH.SP.11*%
X161401100Y-127903600D03*
%TD*%
D14*
%TO.C,USB.FB.2*%
X149303510Y-122303600D03*
X147298710Y-122303600D03*
%TD*%
D11*
%TO.C,MCH.SP.5*%
X131501110Y-84503600D03*
%TD*%
D16*
%TO.C,MCU.C.5*%
X141848700Y-94803600D03*
X143953500Y-94803600D03*
%TD*%
D11*
%TO.C,MCH.SP.12*%
X128501100Y-92503600D03*
%TD*%
D12*
%TO.C,MOS.C.10*%
X146653510Y-115803600D03*
X144548700Y-115803600D03*
%TD*%
D19*
%TO.C,MCU.J.1*%
X146901110Y-85863600D03*
D20*
X149441110Y-85863600D03*
X146901110Y-88403600D03*
X149441110Y-88403600D03*
X146901110Y-90943600D03*
X149441110Y-90943600D03*
%TD*%
D15*
%TO.C,MCU.C.8*%
X157101100Y-84756000D03*
X157101100Y-82651200D03*
%TD*%
D21*
%TO.C,MCU.J.3*%
X160511100Y-94003600D03*
D20*
X163051100Y-94003600D03*
%TD*%
D18*
%TO.C,MCH.FID.1*%
X130001100Y-121603600D03*
%TD*%
D16*
%TO.C,MOS.C.3*%
X148248700Y-115803600D03*
X150353500Y-115803600D03*
%TD*%
D11*
%TO.C,MCH.SP.8*%
X156501100Y-79503600D03*
%TD*%
D22*
%TO.C,USB.Z.1*%
X149251100Y-126153600D03*
X149251100Y-125203600D03*
X149251100Y-124253600D03*
X146351100Y-124253600D03*
X146351100Y-125203600D03*
X146351100Y-126153600D03*
%TD*%
D23*
%TO.C,MOS.R.4*%
X166298700Y-99803600D03*
X168303500Y-99803600D03*
%TD*%
D24*
%TO.C,MOS.U.2*%
X151201100Y-105003600D03*
D25*
X150501120Y-98703600D03*
X148501120Y-98703600D03*
X146501120Y-98703600D03*
X144501120Y-98703600D03*
X145501120Y-111303600D03*
X147501120Y-111303600D03*
X149501120Y-111303600D03*
X151501120Y-111303600D03*
%TD*%
D26*
%TO.C,MCU.C.9*%
X157101100Y-90051200D03*
X157101100Y-92156000D03*
%TD*%
D17*
%TO.C,USB.R.7*%
X151201100Y-122606000D03*
X151201100Y-120601200D03*
%TD*%
D23*
%TO.C,MCU.R.5*%
X155298700Y-94003600D03*
X157303500Y-94003600D03*
%TD*%
D11*
%TO.C,MCH.SP.6*%
X134301110Y-127503600D03*
%TD*%
%TO.C,MCH.SP.7*%
X163701100Y-115603600D03*
%TD*%
%TO.C,MCH.SP.1*%
X168701100Y-95103600D03*
%TD*%
D14*
%TO.C,MCU.R.1*%
X141603510Y-84003600D03*
X139598710Y-84003600D03*
%TD*%
D11*
%TO.C,MCH.SP.4*%
X156301100Y-123903600D03*
%TD*%
D27*
%TO.C,USB.J.2*%
X147201110Y-128278600D03*
X147851100Y-128275410D03*
X148501110Y-128278600D03*
X149151110Y-128278600D03*
X149801110Y-128278600D03*
D28*
X152401100Y-130803610D03*
D29*
X151701100Y-128203610D03*
D28*
X149751180Y-130956850D03*
X147251180Y-130956850D03*
D29*
X145301110Y-128203610D03*
D28*
X144601100Y-130803610D03*
%TD*%
D15*
%TO.C,MCU.C.6*%
X140201110Y-87856000D03*
X140201110Y-85751200D03*
%TD*%
D12*
%TO.C,MOS.C.11*%
X146653510Y-113703600D03*
X144548700Y-113703600D03*
%TD*%
D14*
%TO.C,USB.FB.1*%
X144603510Y-124403600D03*
X142598710Y-124403600D03*
%TD*%
D30*
%TO.C,MCU.U.1*%
X153301110Y-82653600D03*
X152501100Y-82653600D03*
X151701100Y-82653600D03*
X150901100Y-82653600D03*
X150101100Y-82653600D03*
X149301100Y-82653600D03*
X148501100Y-82653600D03*
X147701100Y-82653600D03*
X146901110Y-82653600D03*
X146101100Y-82653600D03*
X145301100Y-82653600D03*
D31*
X143551100Y-84403600D03*
X143551100Y-85203600D03*
X143551100Y-86003600D03*
X143551100Y-86803600D03*
X143551100Y-87603600D03*
X143551100Y-88403600D03*
X143551100Y-89203600D03*
X143551100Y-90003600D03*
X143551100Y-90803600D03*
X143551100Y-91603600D03*
X143551100Y-92403600D03*
D30*
X145301100Y-94153600D03*
X146101100Y-94153600D03*
X146901110Y-94153600D03*
X147701100Y-94153600D03*
X148501100Y-94153600D03*
X149301100Y-94153600D03*
X150101100Y-94153600D03*
X150901100Y-94153600D03*
X151701100Y-94153600D03*
X152501100Y-94153600D03*
X153301110Y-94153600D03*
D31*
X155051100Y-92403600D03*
X155051100Y-91603600D03*
X155051100Y-90803600D03*
X155051100Y-90003600D03*
X155051100Y-89203600D03*
X155051100Y-88403600D03*
X155051100Y-87603600D03*
X155051100Y-86803600D03*
X155051100Y-86003600D03*
X155051100Y-85203600D03*
X155051100Y-84403600D03*
%TD*%
M02*
