%TF.GenerationSoftware,KiCad,Pcbnew,8.0.7*%
%TF.CreationDate,2025-09-19T21:14:15-06:00*%
%TF.ProjectId,MiniBall,4d696e69-4261-46c6-9c2e-6b696361645f,rev?*%
%TF.SameCoordinates,Original*%
%TF.FileFunction,Paste,Top*%
%TF.FilePolarity,Positive*%
%FSLAX46Y46*%
G04 Gerber Fmt 4.6, Leading zero omitted, Abs format (unit mm)*
G04 Created by KiCad (PCBNEW 8.0.7) date 2025-09-19 21:14:15*
%MOMM*%
%LPD*%
G01*
G04 APERTURE LIST*
G04 Aperture macros list*
%AMRoundRect*
0 Rectangle with rounded corners*
0 $1 Rounding radius*
0 $2 $3 $4 $5 $6 $7 $8 $9 X,Y pos of 4 corners*
0 Add a 4 corners polygon primitive as box body*
4,1,4,$2,$3,$4,$5,$6,$7,$8,$9,$2,$3,0*
0 Add four circle primitives for the rounded corners*
1,1,$1+$1,$2,$3*
1,1,$1+$1,$4,$5*
1,1,$1+$1,$6,$7*
1,1,$1+$1,$8,$9*
0 Add four rect primitives between the rounded corners*
20,1,$1+$1,$2,$3,$4,$5,0*
20,1,$1+$1,$4,$5,$6,$7,0*
20,1,$1+$1,$6,$7,$8,$9,0*
20,1,$1+$1,$8,$9,$2,$3,0*%
G04 Aperture macros list end*
%ADD10RoundRect,0.243000X-1.967000X-0.567000X1.967000X-0.567000X1.967000X0.567000X-1.967000X0.567000X0*%
%ADD11RoundRect,0.153000X-0.357000X0.607000X-0.357000X-0.607000X0.357000X-0.607000X0.357000X0.607000X0*%
%ADD12RoundRect,0.260000X0.390000X-0.490000X0.390000X0.490000X-0.390000X0.490000X-0.390000X-0.490000X0*%
%ADD13RoundRect,0.138000X-0.322000X0.572000X-0.322000X-0.572000X0.322000X-0.572000X0.322000X0.572000X0*%
%ADD14RoundRect,0.153000X0.607000X0.357000X-0.607000X0.357000X-0.607000X-0.357000X0.607000X-0.357000X0*%
%ADD15RoundRect,0.153000X0.357000X-0.607000X0.357000X0.607000X-0.357000X0.607000X-0.357000X-0.607000X0*%
%ADD16RoundRect,0.138000X0.572000X0.322000X-0.572000X0.322000X-0.572000X-0.322000X0.572000X-0.322000X0*%
%ADD17RoundRect,0.184000X-0.371000X0.046000X-0.371000X-0.046000X0.371000X-0.046000X0.371000X0.046000X0*%
%ADD18RoundRect,0.138000X0.322000X-0.572000X0.322000X0.572000X-0.322000X0.572000X-0.322000X-0.572000X0*%
%ADD19RoundRect,0.153000X-0.607000X-0.357000X0.607000X-0.357000X0.607000X0.357000X-0.607000X0.357000X0*%
%ADD20RoundRect,0.040500X-0.094500X-0.819500X0.094500X-0.819500X0.094500X0.819500X-0.094500X0.819500X0*%
%ADD21RoundRect,0.140000X-0.560000X-0.560000X0.560000X-0.560000X0.560000X0.560000X-0.560000X0.560000X0*%
%ADD22RoundRect,0.100000X-0.400000X-0.400000X0.400000X-0.400000X0.400000X0.400000X-0.400000X0.400000X0*%
%ADD23RoundRect,0.140000X-0.000010X-0.550000X0.000010X-0.550000X0.000010X0.550000X-0.000010X0.550000X0*%
%ADD24RoundRect,0.140000X-0.550000X0.000010X-0.550000X-0.000010X0.550000X-0.000010X0.550000X0.000010X0*%
G04 APERTURE END LIST*
D10*
%TO.C,MOS.D.1*%
X166701110Y-103703600D03*
X166701110Y-106303600D03*
%TD*%
D11*
%TO.C,MCU.C.22*%
X143753510Y-82003600D03*
X141648710Y-82003600D03*
%TD*%
D12*
%TO.C,MCU.Y.1*%
X133301100Y-87503600D03*
X133301100Y-91703610D03*
X136101100Y-91703610D03*
X136101100Y-87503600D03*
%TD*%
D13*
%TO.C,USB.R.6*%
X145703510Y-122303600D03*
X143698710Y-122303600D03*
%TD*%
D11*
%TO.C,MCU.C.1*%
X149853510Y-79703600D03*
X147748710Y-79703600D03*
%TD*%
D14*
%TO.C,MCU.C.7*%
X138101110Y-87856000D03*
X138101110Y-85751200D03*
%TD*%
D15*
%TO.C,MOS.C.2*%
X148248700Y-113703600D03*
X150353500Y-113703600D03*
%TD*%
D14*
%TO.C,MCU.C.4*%
X157101100Y-88456000D03*
X157101100Y-86351200D03*
%TD*%
D16*
%TO.C,USB.FB.3*%
X151201100Y-126206000D03*
X151201100Y-124201200D03*
%TD*%
D13*
%TO.C,MOS.R.3*%
X168303510Y-110203600D03*
X166298710Y-110203600D03*
%TD*%
%TO.C,USB.FB.2*%
X149303510Y-122303600D03*
X147298710Y-122303600D03*
%TD*%
D15*
%TO.C,MCU.C.5*%
X141848700Y-94803600D03*
X143953500Y-94803600D03*
%TD*%
D11*
%TO.C,MOS.C.10*%
X146653510Y-115803600D03*
X144548700Y-115803600D03*
%TD*%
D14*
%TO.C,MCU.C.8*%
X157101100Y-84756000D03*
X157101100Y-82651200D03*
%TD*%
D15*
%TO.C,MOS.C.3*%
X148248700Y-115803600D03*
X150353500Y-115803600D03*
%TD*%
D17*
%TO.C,USB.Z.1*%
X149251100Y-126153600D03*
X149251100Y-125203600D03*
X149251100Y-124253600D03*
X146351100Y-124253600D03*
X146351100Y-125203600D03*
X146351100Y-126153600D03*
%TD*%
D18*
%TO.C,MOS.R.4*%
X166298700Y-99803600D03*
X168303500Y-99803600D03*
%TD*%
D19*
%TO.C,MCU.C.9*%
X157101100Y-90051200D03*
X157101100Y-92156000D03*
%TD*%
D16*
%TO.C,USB.R.7*%
X151201100Y-122606000D03*
X151201100Y-120601200D03*
%TD*%
D18*
%TO.C,MCU.R.5*%
X155298700Y-94003600D03*
X157303500Y-94003600D03*
%TD*%
D13*
%TO.C,MCU.R.1*%
X141603510Y-84003600D03*
X139598710Y-84003600D03*
%TD*%
D20*
%TO.C,USB.J.2*%
X147201110Y-128278600D03*
X147851100Y-128275410D03*
X148501110Y-128278600D03*
X149151110Y-128278600D03*
X149801110Y-128278600D03*
D21*
X152401100Y-130803610D03*
D22*
X151701100Y-128203610D03*
D21*
X149751180Y-130956850D03*
X147251180Y-130956850D03*
D22*
X145301110Y-128203610D03*
D21*
X144601100Y-130803610D03*
%TD*%
D14*
%TO.C,MCU.C.6*%
X140201110Y-87856000D03*
X140201110Y-85751200D03*
%TD*%
D11*
%TO.C,MOS.C.11*%
X146653510Y-113703600D03*
X144548700Y-113703600D03*
%TD*%
D13*
%TO.C,USB.FB.1*%
X144603510Y-124403600D03*
X142598710Y-124403600D03*
%TD*%
D23*
%TO.C,MCU.U.1*%
X153301110Y-82653600D03*
X152501100Y-82653600D03*
X151701100Y-82653600D03*
X150901100Y-82653600D03*
X150101100Y-82653600D03*
X149301100Y-82653600D03*
X148501100Y-82653600D03*
X147701100Y-82653600D03*
X146901110Y-82653600D03*
X146101100Y-82653600D03*
X145301100Y-82653600D03*
D24*
X143551100Y-84403600D03*
X143551100Y-85203600D03*
X143551100Y-86003600D03*
X143551100Y-86803600D03*
X143551100Y-87603600D03*
X143551100Y-88403600D03*
X143551100Y-89203600D03*
X143551100Y-90003600D03*
X143551100Y-90803600D03*
X143551100Y-91603600D03*
X143551100Y-92403600D03*
D23*
X145301100Y-94153600D03*
X146101100Y-94153600D03*
X146901110Y-94153600D03*
X147701100Y-94153600D03*
X148501100Y-94153600D03*
X149301100Y-94153600D03*
X150101100Y-94153600D03*
X150901100Y-94153600D03*
X151701100Y-94153600D03*
X152501100Y-94153600D03*
X153301110Y-94153600D03*
D24*
X155051100Y-92403600D03*
X155051100Y-91603600D03*
X155051100Y-90803600D03*
X155051100Y-90003600D03*
X155051100Y-89203600D03*
X155051100Y-88403600D03*
X155051100Y-87603600D03*
X155051100Y-86803600D03*
X155051100Y-86003600D03*
X155051100Y-85203600D03*
X155051100Y-84403600D03*
%TD*%
M02*
