%TF.GenerationSoftware,KiCad,Pcbnew,8.0.7*%
%TF.CreationDate,2025-09-19T21:14:15-06:00*%
%TF.ProjectId,MiniBall,4d696e69-4261-46c6-9c2e-6b696361645f,rev?*%
%TF.SameCoordinates,Original*%
%TF.FileFunction,Copper,L2,Inr*%
%TF.FilePolarity,Positive*%
%FSLAX46Y46*%
G04 Gerber Fmt 4.6, Leading zero omitted, Abs format (unit mm)*
G04 Created by KiCad (PCBNEW 8.0.7) date 2025-09-19 21:14:15*
%MOMM*%
%LPD*%
G01*
G04 APERTURE LIST*
G04 Aperture macros list*
%AMRoundRect*
0 Rectangle with rounded corners*
0 $1 Rounding radius*
0 $2 $3 $4 $5 $6 $7 $8 $9 X,Y pos of 4 corners*
0 Add a 4 corners polygon primitive as box body*
4,1,4,$2,$3,$4,$5,$6,$7,$8,$9,$2,$3,0*
0 Add four circle primitives for the rounded corners*
1,1,$1+$1,$2,$3*
1,1,$1+$1,$4,$5*
1,1,$1+$1,$6,$7*
1,1,$1+$1,$8,$9*
0 Add four rect primitives between the rounded corners*
20,1,$1+$1,$2,$3,$4,$5,0*
20,1,$1+$1,$4,$5,$6,$7,0*
20,1,$1+$1,$6,$7,$8,$9,0*
20,1,$1+$1,$8,$9,$2,$3,0*%
G04 Aperture macros list end*
%TA.AperFunction,ComponentPad*%
%ADD10RoundRect,0.444500X-0.444500X-0.444500X0.444500X-0.444500X0.444500X0.444500X-0.444500X0.444500X0*%
%TD*%
%TA.AperFunction,ComponentPad*%
%ADD11C,1.778000*%
%TD*%
%TA.AperFunction,ComponentPad*%
%ADD12R,1.778000X1.778000*%
%TD*%
%TA.AperFunction,ComponentPad*%
%ADD13O,1.400000X1.800000*%
%TD*%
%TA.AperFunction,ViaPad*%
%ADD14C,1.400000*%
%TD*%
%TA.AperFunction,ViaPad*%
%ADD15C,0.600000*%
%TD*%
%TA.AperFunction,ViaPad*%
%ADD16C,1.000000*%
%TD*%
%TA.AperFunction,ViaPad*%
%ADD17C,1.016000*%
%TD*%
G04 APERTURE END LIST*
D10*
%TO.N,MISO*%
%TO.C,MCU.J.1*%
X146901110Y-85863600D03*
D11*
%TO.N,V_USB*%
X149441110Y-85863600D03*
%TO.N,SCLK*%
X146901110Y-88403600D03*
%TO.N,MOSI*%
X149441110Y-88403600D03*
%TO.N,~{RESET}*%
X146901110Y-90943600D03*
%TO.N,GND*%
X149441110Y-90943600D03*
%TD*%
D12*
%TO.N,NetMCU.J.3_1*%
%TO.C,MCU.J.3*%
X160511100Y-94003600D03*
D11*
%TO.N,GND*%
X163051100Y-94003600D03*
%TD*%
D13*
%TO.N,NetMCU.U.1_31*%
%TO.C,MOS.U.2*%
X150501120Y-98703600D03*
%TO.N,NetMOS.D.1_C*%
X148501120Y-98703600D03*
%TO.N,~{RESET}*%
X146501120Y-98703600D03*
%TO.N,NetMCU.U.1_28*%
X144501120Y-98703600D03*
%TO.N,V_USB*%
X145501120Y-111303600D03*
%TO.N,GND*%
X147501120Y-111303600D03*
%TO.N,NetMOS.C.2_2*%
X149501120Y-111303600D03*
%TO.N,NetMCU.U.1_12*%
X151501120Y-111303600D03*
%TD*%
D14*
%TO.N,NetMOS.D.1_C*%
X164576100Y-98528600D03*
D15*
%TO.N,NetMCU.U.1_12*%
X143501100Y-83603600D03*
%TO.N,V_USB*%
X152501100Y-81103600D03*
X145601110Y-95703600D03*
X158801100Y-92203600D03*
X155601110Y-83403600D03*
X148501100Y-81303600D03*
X141801110Y-86003600D03*
D16*
X165101100Y-108403600D03*
%TO.N,NetMOS.R.3_1*%
X168301110Y-96803600D03*
X168301110Y-113303600D03*
D15*
%TO.N,NetMCU.U.1_4*%
X143201110Y-120603600D03*
X150901100Y-80903600D03*
%TO.N,NetMCU.U.1_3*%
X151701100Y-80103600D03*
X142601110Y-122303600D03*
%TO.N,GND*%
X131501110Y-91503600D03*
D17*
X156501100Y-79503600D03*
X161401100Y-127903600D03*
D15*
X128401100Y-101803600D03*
D17*
X157301100Y-117403600D03*
X156301100Y-123903600D03*
D15*
X153501100Y-129003600D03*
X140501110Y-96303600D03*
X153001100Y-87503600D03*
X167001100Y-112003600D03*
X140001100Y-121503600D03*
X135501110Y-115503600D03*
X131601110Y-115903600D03*
X137501100Y-101503600D03*
X133501100Y-107003600D03*
X143501100Y-127503600D03*
X146001100Y-78503600D03*
X156801100Y-127803600D03*
X155101100Y-112203600D03*
X162301100Y-112603600D03*
X138601100Y-98603600D03*
X146001100Y-81003600D03*
X142001100Y-87003600D03*
X143001110Y-119503600D03*
X162701100Y-87603600D03*
X135501110Y-96003600D03*
X134501100Y-85503600D03*
X133101100Y-119703600D03*
X134001110Y-111503600D03*
X131301100Y-125103600D03*
X143001110Y-96503600D03*
X151301100Y-92203600D03*
X164501110Y-96403600D03*
X148801100Y-117203600D03*
D17*
X165001100Y-84503600D03*
D15*
X137501100Y-119003600D03*
X133001110Y-85503600D03*
X147101100Y-117203600D03*
X153501100Y-126003600D03*
X133501100Y-103503600D03*
X137501100Y-105503600D03*
X131501110Y-90003600D03*
X142501100Y-130003600D03*
X131501110Y-93003600D03*
X153001100Y-91503600D03*
X143501100Y-129003600D03*
X141001100Y-117703600D03*
X167001100Y-117003600D03*
X142001100Y-79003600D03*
X131501110Y-87003600D03*
X137501100Y-108503600D03*
X154501110Y-130003600D03*
X160801110Y-89703600D03*
X167001100Y-90903600D03*
X142001100Y-92503600D03*
X159001100Y-88503600D03*
X142501100Y-131503600D03*
X153001100Y-89503600D03*
X137501100Y-112503600D03*
X139501100Y-115503600D03*
X153001100Y-124503600D03*
X152401100Y-114003600D03*
X147801100Y-119703600D03*
X134501100Y-93503600D03*
D17*
X138501100Y-80503600D03*
D15*
X139201110Y-127203600D03*
X135301110Y-82203600D03*
D17*
X163701100Y-115603600D03*
D15*
X151501100Y-78503600D03*
X128401100Y-96803600D03*
X153401100Y-95803600D03*
X131501110Y-88503600D03*
X147601100Y-95703600D03*
D17*
X134301110Y-127503600D03*
X168301110Y-120503600D03*
X168701100Y-95103600D03*
D15*
X142001100Y-90503600D03*
X128701100Y-112903600D03*
D17*
X131501110Y-84503600D03*
D15*
X158901100Y-96403600D03*
X153501100Y-127503600D03*
X159001100Y-84503600D03*
X136001100Y-85503600D03*
X137501100Y-93003600D03*
X159001100Y-80503600D03*
X153901100Y-118803600D03*
X154501110Y-131503600D03*
X138501100Y-90503600D03*
X136001100Y-93503600D03*
X135701100Y-123003600D03*
X142901110Y-113703600D03*
D17*
X128501100Y-92503600D03*
D15*
X160001100Y-115003600D03*
X133001110Y-93503600D03*
X154001100Y-81003600D03*
X128501100Y-106703600D03*
X138001110Y-91503600D03*
X133501100Y-99503600D03*
%TD*%
%TA.AperFunction,Conductor*%
%TO.N,GND*%
G36*
X152715780Y-78004134D02*
G01*
X153160036Y-78014634D01*
X153165860Y-78014909D01*
X153607732Y-78046284D01*
X153613529Y-78046834D01*
X154053417Y-78099047D01*
X154059169Y-78099868D01*
X154496097Y-78172804D01*
X154501827Y-78173900D01*
X154935704Y-78267585D01*
X154940646Y-78268759D01*
X155131696Y-78318321D01*
X155870806Y-78510058D01*
X155875003Y-78511226D01*
X156797051Y-78785332D01*
X156801127Y-78786622D01*
X157712960Y-79092947D01*
X157717044Y-79094398D01*
X157717131Y-79094431D01*
X158617573Y-79432575D01*
X158621625Y-79434179D01*
X159509653Y-79803757D01*
X159513645Y-79805501D01*
X159773112Y-79924345D01*
X160388195Y-80206073D01*
X160392082Y-80207937D01*
X161176911Y-80601337D01*
X161251992Y-80638972D01*
X161255852Y-80640992D01*
X162100093Y-81101974D01*
X162103880Y-81104129D01*
X162931404Y-81594484D01*
X162935098Y-81596761D01*
X163744895Y-82115894D01*
X163748481Y-82118283D01*
X164395811Y-82566110D01*
X164539561Y-82665558D01*
X164543100Y-82668100D01*
X164684943Y-82773784D01*
X165289657Y-83224345D01*
X165314420Y-83242795D01*
X165317867Y-83245459D01*
X166067895Y-83846396D01*
X166072340Y-83850131D01*
X166189202Y-83953123D01*
X166485527Y-84214279D01*
X166490840Y-84219246D01*
X166601942Y-84329388D01*
X166861568Y-84586772D01*
X166881386Y-84606418D01*
X166886394Y-84611683D01*
X167008146Y-84747438D01*
X167253580Y-85021101D01*
X167258275Y-85026656D01*
X167600811Y-85456881D01*
X167605173Y-85462702D01*
X167921898Y-85912273D01*
X167925911Y-85918339D01*
X168215738Y-86385716D01*
X168219388Y-86392007D01*
X168481308Y-86875563D01*
X168484583Y-86882057D01*
X168717702Y-87380138D01*
X168720591Y-87386813D01*
X168924110Y-87897718D01*
X168926602Y-87904551D01*
X169098255Y-88421802D01*
X169099816Y-88426504D01*
X169101903Y-88433472D01*
X169244206Y-88964656D01*
X169245882Y-88971733D01*
X169356808Y-89510392D01*
X169358065Y-89517556D01*
X169437215Y-90061767D01*
X169438050Y-90068993D01*
X169485155Y-90616908D01*
X169485565Y-90624170D01*
X169500548Y-91177020D01*
X169500594Y-91180655D01*
X169500439Y-91250070D01*
X169500600Y-91252560D01*
X169500600Y-96475231D01*
X169480915Y-96542270D01*
X169428111Y-96588025D01*
X169358953Y-96597969D01*
X169295397Y-96568944D01*
X169257940Y-96511227D01*
X169233114Y-96429389D01*
X169229924Y-96418873D01*
X169137020Y-96245062D01*
X169137019Y-96245060D01*
X169011993Y-96092716D01*
X168859649Y-95967690D01*
X168859642Y-95967686D01*
X168685843Y-95874788D01*
X168685837Y-95874786D01*
X168497242Y-95817576D01*
X168497239Y-95817575D01*
X168301110Y-95798259D01*
X168104980Y-95817575D01*
X167916376Y-95874788D01*
X167742577Y-95967686D01*
X167742570Y-95967690D01*
X167590226Y-96092716D01*
X167465200Y-96245060D01*
X167465196Y-96245067D01*
X167372298Y-96418866D01*
X167315085Y-96607470D01*
X167295769Y-96803600D01*
X167315085Y-96999729D01*
X167372298Y-97188333D01*
X167465196Y-97362132D01*
X167465200Y-97362139D01*
X167590226Y-97514483D01*
X167742570Y-97639509D01*
X167742577Y-97639513D01*
X167916376Y-97732411D01*
X167916379Y-97732411D01*
X167916383Y-97732414D01*
X168104978Y-97789624D01*
X168301110Y-97808941D01*
X168497242Y-97789624D01*
X168685837Y-97732414D01*
X168715865Y-97716364D01*
X168859642Y-97639513D01*
X168859648Y-97639510D01*
X169011993Y-97514483D01*
X169137020Y-97362138D01*
X169229924Y-97188327D01*
X169257940Y-97095969D01*
X169296237Y-97037534D01*
X169360049Y-97009077D01*
X169429116Y-97019638D01*
X169481510Y-97065862D01*
X169500600Y-97131968D01*
X169500600Y-112975231D01*
X169480915Y-113042270D01*
X169428111Y-113088025D01*
X169358953Y-113097969D01*
X169295397Y-113068944D01*
X169257940Y-113011227D01*
X169229923Y-112918871D01*
X169137023Y-112745067D01*
X169137019Y-112745060D01*
X169011993Y-112592716D01*
X168859649Y-112467690D01*
X168859642Y-112467686D01*
X168685843Y-112374788D01*
X168685837Y-112374786D01*
X168497242Y-112317576D01*
X168497239Y-112317575D01*
X168301110Y-112298259D01*
X168104980Y-112317575D01*
X167916376Y-112374788D01*
X167742577Y-112467686D01*
X167742570Y-112467690D01*
X167590226Y-112592716D01*
X167465200Y-112745060D01*
X167465196Y-112745067D01*
X167372298Y-112918866D01*
X167315085Y-113107470D01*
X167295769Y-113303600D01*
X167315085Y-113499729D01*
X167372298Y-113688333D01*
X167465196Y-113862132D01*
X167465200Y-113862139D01*
X167590226Y-114014483D01*
X167742570Y-114139509D01*
X167742577Y-114139513D01*
X167916376Y-114232411D01*
X167916379Y-114232411D01*
X167916383Y-114232414D01*
X168104978Y-114289624D01*
X168301110Y-114308941D01*
X168497242Y-114289624D01*
X168685837Y-114232414D01*
X168859648Y-114139510D01*
X169011993Y-114014483D01*
X169137020Y-113862138D01*
X169229924Y-113688327D01*
X169257940Y-113595969D01*
X169296237Y-113537534D01*
X169360049Y-113509077D01*
X169429116Y-113519638D01*
X169481510Y-113565862D01*
X169500600Y-113631968D01*
X169500600Y-118756620D01*
X169500452Y-118758905D01*
X169500597Y-118829685D01*
X169500551Y-118833320D01*
X169485504Y-119384791D01*
X169485092Y-119392051D01*
X169437906Y-119939824D01*
X169437070Y-119947048D01*
X169357851Y-120491129D01*
X169356593Y-120498291D01*
X169245617Y-121036797D01*
X169243941Y-121043873D01*
X169101590Y-121574942D01*
X169099502Y-121581908D01*
X168926264Y-122103721D01*
X168923771Y-122110553D01*
X168720241Y-122621316D01*
X168717352Y-122627989D01*
X168484237Y-123125930D01*
X168480963Y-123132423D01*
X168219056Y-123615852D01*
X168215405Y-123622141D01*
X167925607Y-124089389D01*
X167921595Y-124095454D01*
X167604908Y-124544908D01*
X167600547Y-124550728D01*
X167258059Y-124980842D01*
X167253364Y-124986395D01*
X166886253Y-125395692D01*
X166881241Y-125400961D01*
X166490767Y-125788035D01*
X166485455Y-125793001D01*
X166072430Y-126156989D01*
X166067979Y-126160729D01*
X165317849Y-126761745D01*
X165314401Y-126764409D01*
X164543095Y-127339092D01*
X164539557Y-127341634D01*
X163748497Y-127888895D01*
X163744870Y-127891310D01*
X162935118Y-128410412D01*
X162931410Y-128412699D01*
X162103876Y-128903059D01*
X162100089Y-128905214D01*
X161255849Y-129366195D01*
X161251989Y-129368215D01*
X160392101Y-129799240D01*
X160388172Y-129801124D01*
X159513644Y-130201686D01*
X159509652Y-130203430D01*
X158621610Y-130573015D01*
X158617559Y-130574618D01*
X157717073Y-130912780D01*
X157712967Y-130914240D01*
X156801178Y-131220551D01*
X156797025Y-131221866D01*
X155875000Y-131495967D01*
X155870802Y-131497135D01*
X154940044Y-131738590D01*
X154935075Y-131739770D01*
X154501774Y-131833316D01*
X154496019Y-131834417D01*
X154059101Y-131907339D01*
X154053302Y-131908167D01*
X153613415Y-131960372D01*
X153607582Y-131960925D01*
X153165709Y-131992295D01*
X153159858Y-131992571D01*
X152725575Y-132002833D01*
X152715834Y-132003064D01*
X152712906Y-132003099D01*
X152640612Y-132003099D01*
X152640596Y-132003100D01*
X144289348Y-132003100D01*
X144286419Y-132003065D01*
X144271642Y-132002715D01*
X143842187Y-131992567D01*
X143836335Y-131992291D01*
X143394503Y-131960922D01*
X143388671Y-131960369D01*
X142948833Y-131908167D01*
X142943033Y-131907339D01*
X142506157Y-131834421D01*
X142500402Y-131833320D01*
X142067132Y-131739775D01*
X142062164Y-131738595D01*
X141131393Y-131497141D01*
X141127196Y-131495973D01*
X140205184Y-131221880D01*
X140201030Y-131220565D01*
X139289246Y-130914260D01*
X139285141Y-130912801D01*
X138384611Y-130574626D01*
X138380560Y-130573022D01*
X137492550Y-130203454D01*
X137488557Y-130201710D01*
X136614018Y-129801144D01*
X136610089Y-129799260D01*
X135750198Y-129368236D01*
X135746338Y-129366216D01*
X134902096Y-128905235D01*
X134898309Y-128903080D01*
X134070774Y-128412719D01*
X134067066Y-128410432D01*
X133257326Y-127891337D01*
X133253700Y-127888922D01*
X132462612Y-127341642D01*
X132459073Y-127339100D01*
X131687779Y-126764425D01*
X131684331Y-126761761D01*
X130934608Y-126161068D01*
X130930155Y-126157326D01*
X130516675Y-125792920D01*
X130511362Y-125787953D01*
X130120816Y-125400781D01*
X130115803Y-125395511D01*
X129985920Y-125250690D01*
X129748620Y-124986097D01*
X129743927Y-124980544D01*
X129401390Y-124550318D01*
X129397028Y-124544497D01*
X129080304Y-124094927D01*
X129076291Y-124088861D01*
X128786461Y-123621480D01*
X128782814Y-123615193D01*
X128617392Y-123309791D01*
X128520889Y-123131628D01*
X128517618Y-123125142D01*
X128510140Y-123109165D01*
X128284494Y-122627048D01*
X128281606Y-122620373D01*
X128155417Y-122303596D01*
X141795545Y-122303596D01*
X141795545Y-122303603D01*
X141815740Y-122482849D01*
X141815741Y-122482854D01*
X141875321Y-122653123D01*
X141929699Y-122739664D01*
X141971294Y-122805862D01*
X142098848Y-122933416D01*
X142251588Y-123029389D01*
X142421855Y-123088968D01*
X142421860Y-123088969D01*
X142601106Y-123109165D01*
X142601110Y-123109165D01*
X142601114Y-123109165D01*
X142780359Y-123088969D01*
X142780362Y-123088968D01*
X142780365Y-123088968D01*
X142950632Y-123029389D01*
X143103372Y-122933416D01*
X143230926Y-122805862D01*
X143326899Y-122653122D01*
X143386478Y-122482855D01*
X143406675Y-122303600D01*
X143390458Y-122159671D01*
X143386479Y-122124350D01*
X143386478Y-122124345D01*
X143331222Y-121966433D01*
X143326899Y-121954078D01*
X143230926Y-121801338D01*
X143103372Y-121673784D01*
X143028867Y-121626969D01*
X142982577Y-121574635D01*
X142972251Y-121507672D01*
X156591646Y-121507672D01*
X156591646Y-121507685D01*
X156611132Y-121966420D01*
X156669456Y-122421882D01*
X156766193Y-122870743D01*
X156766195Y-122870751D01*
X156900648Y-123309785D01*
X156900650Y-123309791D01*
X157071846Y-123735829D01*
X157071850Y-123735840D01*
X157278560Y-124145824D01*
X157278570Y-124145842D01*
X157519315Y-124536837D01*
X157792351Y-124906006D01*
X157792359Y-124906015D01*
X157792362Y-124906019D01*
X158095710Y-125250688D01*
X158095712Y-125250690D01*
X158427210Y-125568406D01*
X158784459Y-125856864D01*
X159164884Y-126113987D01*
X159343044Y-126213512D01*
X159565734Y-126337915D01*
X159565756Y-126337926D01*
X159984144Y-126527050D01*
X159984149Y-126527052D01*
X160183687Y-126597553D01*
X160417089Y-126680019D01*
X160861440Y-126795719D01*
X161314003Y-126873319D01*
X161455632Y-126885373D01*
X161771497Y-126912258D01*
X161771514Y-126912258D01*
X161771516Y-126912259D01*
X161771517Y-126912259D01*
X162230683Y-126912259D01*
X162230684Y-126912259D01*
X162230685Y-126912258D01*
X162230702Y-126912258D01*
X162503004Y-126889081D01*
X162688197Y-126873319D01*
X163140760Y-126795719D01*
X163585111Y-126680019D01*
X164018050Y-126527052D01*
X164018055Y-126527050D01*
X164436443Y-126337926D01*
X164436445Y-126337924D01*
X164436456Y-126337920D01*
X164837316Y-126113987D01*
X165217741Y-125856864D01*
X165574990Y-125568406D01*
X165906488Y-125250690D01*
X166209849Y-124906006D01*
X166482885Y-124536837D01*
X166723630Y-124145842D01*
X166930349Y-123735840D01*
X167101552Y-123309783D01*
X167236007Y-122870743D01*
X167332744Y-122421881D01*
X167391066Y-121966433D01*
X167392773Y-121926266D01*
X167410554Y-121507685D01*
X167410554Y-121507672D01*
X167391067Y-121048937D01*
X167391066Y-121048931D01*
X167391066Y-121048925D01*
X167332744Y-120593477D01*
X167236007Y-120144615D01*
X167101552Y-119705575D01*
X167101551Y-119705572D01*
X167101549Y-119705566D01*
X166930353Y-119279528D01*
X166930349Y-119279517D01*
X166723639Y-118869533D01*
X166723628Y-118869513D01*
X166699089Y-118829659D01*
X166482885Y-118478521D01*
X166209849Y-118109352D01*
X166043751Y-117920629D01*
X165906489Y-117764669D01*
X165906488Y-117764668D01*
X165574992Y-117446954D01*
X165574990Y-117446952D01*
X165217741Y-117158494D01*
X164837316Y-116901371D01*
X164826792Y-116895492D01*
X164436465Y-116677442D01*
X164436443Y-116677431D01*
X164018055Y-116488307D01*
X164018050Y-116488305D01*
X163585106Y-116335337D01*
X163140758Y-116219638D01*
X162688207Y-116142040D01*
X162688181Y-116142037D01*
X162230702Y-116103099D01*
X162230684Y-116103099D01*
X161771516Y-116103099D01*
X161771497Y-116103099D01*
X161314018Y-116142037D01*
X161313992Y-116142040D01*
X160861441Y-116219638D01*
X160417093Y-116335337D01*
X159984149Y-116488305D01*
X159984144Y-116488307D01*
X159565756Y-116677431D01*
X159565734Y-116677442D01*
X159164892Y-116901366D01*
X159164873Y-116901378D01*
X158784464Y-117158490D01*
X158427207Y-117446954D01*
X158095711Y-117764668D01*
X158095710Y-117764669D01*
X157792362Y-118109338D01*
X157792355Y-118109347D01*
X157792351Y-118109352D01*
X157597788Y-118372417D01*
X157519314Y-118478522D01*
X157278571Y-118869513D01*
X157278560Y-118869533D01*
X157071850Y-119279517D01*
X157071846Y-119279528D01*
X156900650Y-119705566D01*
X156900648Y-119705572D01*
X156766195Y-120144606D01*
X156766193Y-120144614D01*
X156669456Y-120593475D01*
X156611132Y-121048937D01*
X156591646Y-121507672D01*
X142972251Y-121507672D01*
X142971929Y-121505581D01*
X143000304Y-121441733D01*
X143058694Y-121403361D01*
X143108723Y-121398756D01*
X143201106Y-121409165D01*
X143201110Y-121409165D01*
X143201114Y-121409165D01*
X143380359Y-121388969D01*
X143380362Y-121388968D01*
X143380365Y-121388968D01*
X143550632Y-121329389D01*
X143703372Y-121233416D01*
X143830926Y-121105862D01*
X143926899Y-120953122D01*
X143986478Y-120782855D01*
X144006675Y-120603600D01*
X144005534Y-120593477D01*
X143986479Y-120424350D01*
X143986478Y-120424345D01*
X143926898Y-120254076D01*
X143830925Y-120101337D01*
X143703372Y-119973784D01*
X143550633Y-119877811D01*
X143380364Y-119818231D01*
X143380359Y-119818230D01*
X143201114Y-119798035D01*
X143201106Y-119798035D01*
X143021860Y-119818230D01*
X143021855Y-119818231D01*
X142851586Y-119877811D01*
X142698847Y-119973784D01*
X142571294Y-120101337D01*
X142475321Y-120254076D01*
X142415741Y-120424345D01*
X142415740Y-120424350D01*
X142395545Y-120603596D01*
X142395545Y-120603603D01*
X142415740Y-120782849D01*
X142415741Y-120782854D01*
X142475321Y-120953123D01*
X142560757Y-121089092D01*
X142571294Y-121105862D01*
X142698848Y-121233416D01*
X142773351Y-121280229D01*
X142819642Y-121332564D01*
X142830290Y-121401617D01*
X142801915Y-121465466D01*
X142743526Y-121503838D01*
X142693497Y-121508443D01*
X142601115Y-121498035D01*
X142601106Y-121498035D01*
X142421860Y-121518230D01*
X142421855Y-121518231D01*
X142251586Y-121577811D01*
X142098847Y-121673784D01*
X141971294Y-121801337D01*
X141875321Y-121954076D01*
X141815741Y-122124345D01*
X141815740Y-122124350D01*
X141795545Y-122303596D01*
X128155417Y-122303596D01*
X128098584Y-122160925D01*
X128078092Y-122109483D01*
X128075604Y-122102663D01*
X127902377Y-121580666D01*
X127900307Y-121573755D01*
X127757993Y-121042537D01*
X127756318Y-121035463D01*
X127645388Y-120496787D01*
X127644139Y-120489664D01*
X127564983Y-119945408D01*
X127564153Y-119938231D01*
X127517045Y-119390280D01*
X127516636Y-119383029D01*
X127501652Y-118830110D01*
X127501606Y-118826474D01*
X127501697Y-118785566D01*
X127501746Y-118763767D01*
X127501745Y-118763764D01*
X127501760Y-118757145D01*
X127501600Y-118754650D01*
X127501600Y-111009113D01*
X144300620Y-111009113D01*
X144300620Y-111598086D01*
X144330179Y-111784718D01*
X144388574Y-111964436D01*
X144474360Y-112132799D01*
X144585430Y-112285673D01*
X144719047Y-112419290D01*
X144871921Y-112530360D01*
X144951467Y-112570890D01*
X145040283Y-112616145D01*
X145040285Y-112616145D01*
X145040288Y-112616147D01*
X145136617Y-112647446D01*
X145220001Y-112674540D01*
X145406634Y-112704100D01*
X145406639Y-112704100D01*
X145595606Y-112704100D01*
X145782238Y-112674540D01*
X145961952Y-112616147D01*
X146130319Y-112530360D01*
X146283193Y-112419290D01*
X146416810Y-112285673D01*
X146527880Y-112132799D01*
X146613667Y-111964432D01*
X146672060Y-111784718D01*
X146701620Y-111598086D01*
X146701620Y-111009113D01*
X146672060Y-110822481D01*
X146613665Y-110642763D01*
X146527879Y-110474400D01*
X146416810Y-110321527D01*
X146283193Y-110187910D01*
X146130319Y-110076840D01*
X145961956Y-109991054D01*
X145782238Y-109932659D01*
X145595606Y-109903100D01*
X145595601Y-109903100D01*
X145406639Y-109903100D01*
X145406634Y-109903100D01*
X145220001Y-109932659D01*
X145040283Y-109991054D01*
X144871920Y-110076840D01*
X144851703Y-110091529D01*
X144719047Y-110187910D01*
X144719045Y-110187912D01*
X144719044Y-110187912D01*
X144585432Y-110321524D01*
X144585432Y-110321525D01*
X144585430Y-110321527D01*
X144537730Y-110387179D01*
X144474360Y-110474400D01*
X144388574Y-110642763D01*
X144330179Y-110822481D01*
X144300620Y-111009113D01*
X127501600Y-111009113D01*
X127501600Y-98409113D01*
X143300620Y-98409113D01*
X143300620Y-98998086D01*
X143330179Y-99184718D01*
X143388574Y-99364436D01*
X143452921Y-99490723D01*
X143474360Y-99532799D01*
X143585430Y-99685673D01*
X143719047Y-99819290D01*
X143871921Y-99930360D01*
X143902548Y-99945965D01*
X144040283Y-100016145D01*
X144040285Y-100016145D01*
X144040288Y-100016147D01*
X144136617Y-100047446D01*
X144220001Y-100074540D01*
X144406634Y-100104100D01*
X144406639Y-100104100D01*
X144595606Y-100104100D01*
X144782238Y-100074540D01*
X144817954Y-100062935D01*
X144961952Y-100016147D01*
X145130319Y-99930360D01*
X145283193Y-99819290D01*
X145413439Y-99689044D01*
X145474762Y-99655559D01*
X145544454Y-99660543D01*
X145588801Y-99689044D01*
X145719047Y-99819290D01*
X145871921Y-99930360D01*
X145902548Y-99945965D01*
X146040283Y-100016145D01*
X146040285Y-100016145D01*
X146040288Y-100016147D01*
X146136617Y-100047446D01*
X146220001Y-100074540D01*
X146406634Y-100104100D01*
X146406639Y-100104100D01*
X146595606Y-100104100D01*
X146782238Y-100074540D01*
X146817954Y-100062935D01*
X146961952Y-100016147D01*
X147130319Y-99930360D01*
X147283193Y-99819290D01*
X147413439Y-99689044D01*
X147474762Y-99655559D01*
X147544454Y-99660543D01*
X147588801Y-99689044D01*
X147719047Y-99819290D01*
X147871921Y-99930360D01*
X147902548Y-99945965D01*
X148040283Y-100016145D01*
X148040285Y-100016145D01*
X148040288Y-100016147D01*
X148136617Y-100047446D01*
X148220001Y-100074540D01*
X148406634Y-100104100D01*
X148406639Y-100104100D01*
X148595606Y-100104100D01*
X148782238Y-100074540D01*
X148817954Y-100062935D01*
X148961952Y-100016147D01*
X149130319Y-99930360D01*
X149283193Y-99819290D01*
X149413439Y-99689044D01*
X149474762Y-99655559D01*
X149544454Y-99660543D01*
X149588801Y-99689044D01*
X149719047Y-99819290D01*
X149733315Y-99829656D01*
X149775981Y-99884984D01*
X149781961Y-99954598D01*
X149749355Y-100016393D01*
X149692526Y-100049748D01*
X149643323Y-100062932D01*
X149643310Y-100062936D01*
X149530214Y-100104100D01*
X149218635Y-100217506D01*
X149218631Y-100217507D01*
X149218625Y-100217510D01*
X149218617Y-100217513D01*
X148809052Y-100408497D01*
X148809036Y-100408505D01*
X148417664Y-100634464D01*
X148417638Y-100634480D01*
X148047451Y-100893688D01*
X147701249Y-101184188D01*
X147381688Y-101503749D01*
X147091188Y-101849951D01*
X146831980Y-102220138D01*
X146831964Y-102220164D01*
X146606005Y-102611536D01*
X146605997Y-102611552D01*
X146415013Y-103021117D01*
X146415010Y-103021125D01*
X146260431Y-103445824D01*
X146143468Y-103882342D01*
X146143465Y-103882355D01*
X146064988Y-104327415D01*
X146025600Y-104777628D01*
X146025600Y-105229571D01*
X146064988Y-105679784D01*
X146143465Y-106124844D01*
X146143468Y-106124857D01*
X146260431Y-106561375D01*
X146260434Y-106561385D01*
X146260435Y-106561386D01*
X146415006Y-106986065D01*
X146415009Y-106986072D01*
X146415010Y-106986074D01*
X146415013Y-106986082D01*
X146605997Y-107395647D01*
X146606005Y-107395663D01*
X146651687Y-107474786D01*
X146831969Y-107787044D01*
X146831973Y-107787050D01*
X146831980Y-107787061D01*
X147091188Y-108157248D01*
X147133330Y-108207470D01*
X147381686Y-108503448D01*
X147701252Y-108823014D01*
X147845197Y-108943798D01*
X148047451Y-109113511D01*
X148417638Y-109372719D01*
X148417645Y-109372723D01*
X148417656Y-109372731D01*
X148784468Y-109584509D01*
X148809036Y-109598694D01*
X148809051Y-109598702D01*
X149114586Y-109741175D01*
X149167025Y-109787347D01*
X149186177Y-109854541D01*
X149165961Y-109921422D01*
X149112796Y-109966756D01*
X149100502Y-109971487D01*
X149040286Y-109991053D01*
X148871920Y-110076840D01*
X148851703Y-110091529D01*
X148719047Y-110187910D01*
X148719045Y-110187912D01*
X148719044Y-110187912D01*
X148585432Y-110321524D01*
X148585432Y-110321525D01*
X148585430Y-110321527D01*
X148537730Y-110387179D01*
X148474360Y-110474400D01*
X148388574Y-110642763D01*
X148330179Y-110822481D01*
X148300620Y-111009113D01*
X148300620Y-111598086D01*
X148330179Y-111784718D01*
X148388574Y-111964436D01*
X148474360Y-112132799D01*
X148585430Y-112285673D01*
X148719047Y-112419290D01*
X148871921Y-112530360D01*
X148951467Y-112570890D01*
X149040283Y-112616145D01*
X149040285Y-112616145D01*
X149040288Y-112616147D01*
X149136617Y-112647446D01*
X149220001Y-112674540D01*
X149406634Y-112704100D01*
X149406639Y-112704100D01*
X149595606Y-112704100D01*
X149782238Y-112674540D01*
X149961952Y-112616147D01*
X150130319Y-112530360D01*
X150283193Y-112419290D01*
X150413439Y-112289044D01*
X150474762Y-112255559D01*
X150544454Y-112260543D01*
X150588801Y-112289044D01*
X150719047Y-112419290D01*
X150871921Y-112530360D01*
X150951467Y-112570890D01*
X151040283Y-112616145D01*
X151040285Y-112616145D01*
X151040288Y-112616147D01*
X151136617Y-112647446D01*
X151220001Y-112674540D01*
X151406634Y-112704100D01*
X151406639Y-112704100D01*
X151595606Y-112704100D01*
X151782238Y-112674540D01*
X151961952Y-112616147D01*
X152130319Y-112530360D01*
X152283193Y-112419290D01*
X152416810Y-112285673D01*
X152527880Y-112132799D01*
X152613667Y-111964432D01*
X152672060Y-111784718D01*
X152701620Y-111598086D01*
X152701620Y-111009113D01*
X152672060Y-110822481D01*
X152613665Y-110642763D01*
X152527879Y-110474400D01*
X152416810Y-110321527D01*
X152343429Y-110248146D01*
X152309944Y-110186823D01*
X152314928Y-110117131D01*
X152356800Y-110061198D01*
X152399011Y-110040692D01*
X152758886Y-109944265D01*
X153183565Y-109789694D01*
X153593157Y-109598698D01*
X153984544Y-109372731D01*
X154354747Y-109113512D01*
X154700948Y-108823014D01*
X155020514Y-108503448D01*
X155104297Y-108403600D01*
X164095759Y-108403600D01*
X164115075Y-108599729D01*
X164172288Y-108788333D01*
X164265186Y-108962132D01*
X164265190Y-108962139D01*
X164390216Y-109114483D01*
X164542560Y-109239509D01*
X164542567Y-109239513D01*
X164716366Y-109332411D01*
X164716369Y-109332411D01*
X164716373Y-109332414D01*
X164904968Y-109389624D01*
X165101100Y-109408941D01*
X165297232Y-109389624D01*
X165485827Y-109332414D01*
X165659638Y-109239510D01*
X165811983Y-109114483D01*
X165937010Y-108962138D01*
X165983462Y-108875232D01*
X166029911Y-108788333D01*
X166029911Y-108788332D01*
X166029914Y-108788327D01*
X166087124Y-108599732D01*
X166106441Y-108403600D01*
X166087124Y-108207468D01*
X166029914Y-108018873D01*
X166029911Y-108018869D01*
X166029911Y-108018866D01*
X165937013Y-107845067D01*
X165937009Y-107845060D01*
X165811983Y-107692716D01*
X165659639Y-107567690D01*
X165659632Y-107567686D01*
X165485833Y-107474788D01*
X165485827Y-107474786D01*
X165297232Y-107417576D01*
X165297229Y-107417575D01*
X165101100Y-107398259D01*
X164904970Y-107417575D01*
X164716366Y-107474788D01*
X164542567Y-107567686D01*
X164542560Y-107567690D01*
X164390216Y-107692716D01*
X164265190Y-107845060D01*
X164265186Y-107845067D01*
X164172288Y-108018866D01*
X164115075Y-108207470D01*
X164095759Y-108403600D01*
X155104297Y-108403600D01*
X155311012Y-108157247D01*
X155570231Y-107787044D01*
X155796198Y-107395657D01*
X155987194Y-106986065D01*
X156141765Y-106561386D01*
X156258734Y-106124850D01*
X156337212Y-105679782D01*
X156376600Y-105229567D01*
X156376600Y-104777633D01*
X156337212Y-104327418D01*
X156258734Y-103882350D01*
X156141765Y-103445814D01*
X155987194Y-103021135D01*
X155796198Y-102611543D01*
X155570231Y-102220156D01*
X155570223Y-102220145D01*
X155570219Y-102220138D01*
X155311011Y-101849951D01*
X155020511Y-101503749D01*
X154700950Y-101184188D01*
X154354748Y-100893688D01*
X153984561Y-100634480D01*
X153984550Y-100634473D01*
X153984544Y-100634469D01*
X153868266Y-100567336D01*
X153593163Y-100408505D01*
X153593147Y-100408497D01*
X153183582Y-100217513D01*
X153183574Y-100217510D01*
X153183572Y-100217509D01*
X153183565Y-100217506D01*
X152758886Y-100062935D01*
X152758885Y-100062934D01*
X152758875Y-100062931D01*
X152322357Y-99945968D01*
X152322360Y-99945968D01*
X152322350Y-99945966D01*
X152233839Y-99930359D01*
X151877284Y-99867488D01*
X151538463Y-99837845D01*
X151473394Y-99812393D01*
X151432415Y-99755802D01*
X151428537Y-99686040D01*
X151448950Y-99641435D01*
X151527880Y-99532799D01*
X151613667Y-99364432D01*
X151672060Y-99184718D01*
X151675455Y-99163283D01*
X151701620Y-98998086D01*
X151701620Y-98528599D01*
X163370457Y-98528599D01*
X163370457Y-98528600D01*
X163390984Y-98750135D01*
X163390985Y-98750137D01*
X163451869Y-98964123D01*
X163451875Y-98964138D01*
X163551038Y-99163283D01*
X163551043Y-99163291D01*
X163685120Y-99340838D01*
X163849537Y-99490723D01*
X163849539Y-99490725D01*
X164038695Y-99607845D01*
X164038696Y-99607845D01*
X164038699Y-99607847D01*
X164246160Y-99688218D01*
X164464857Y-99729100D01*
X164464859Y-99729100D01*
X164687341Y-99729100D01*
X164687343Y-99729100D01*
X164906040Y-99688218D01*
X165113501Y-99607847D01*
X165302662Y-99490724D01*
X165467081Y-99340836D01*
X165601158Y-99163289D01*
X165700329Y-98964128D01*
X165761215Y-98750136D01*
X165781743Y-98528600D01*
X165761215Y-98307064D01*
X165700329Y-98093072D01*
X165700324Y-98093061D01*
X165601161Y-97893916D01*
X165601156Y-97893908D01*
X165467079Y-97716361D01*
X165302662Y-97566476D01*
X165302660Y-97566474D01*
X165113504Y-97449354D01*
X165113498Y-97449352D01*
X164906040Y-97368982D01*
X164687343Y-97328100D01*
X164464857Y-97328100D01*
X164246160Y-97368982D01*
X164189186Y-97391054D01*
X164038701Y-97449352D01*
X164038695Y-97449354D01*
X163849539Y-97566474D01*
X163849537Y-97566476D01*
X163685120Y-97716361D01*
X163551043Y-97893908D01*
X163551038Y-97893916D01*
X163451875Y-98093061D01*
X163451869Y-98093076D01*
X163390985Y-98307062D01*
X163390984Y-98307064D01*
X163370457Y-98528599D01*
X151701620Y-98528599D01*
X151701620Y-98409113D01*
X151672060Y-98222481D01*
X151613665Y-98042763D01*
X151537823Y-97893916D01*
X151527880Y-97874401D01*
X151416810Y-97721527D01*
X151283193Y-97587910D01*
X151130319Y-97476840D01*
X151076371Y-97449352D01*
X150961956Y-97391054D01*
X150782238Y-97332659D01*
X150595606Y-97303100D01*
X150595601Y-97303100D01*
X150406639Y-97303100D01*
X150406634Y-97303100D01*
X150220001Y-97332659D01*
X150040283Y-97391054D01*
X149871920Y-97476840D01*
X149820110Y-97514483D01*
X149719047Y-97587910D01*
X149719045Y-97587912D01*
X149719044Y-97587912D01*
X149588801Y-97718156D01*
X149527478Y-97751641D01*
X149457786Y-97746657D01*
X149413439Y-97718156D01*
X149283195Y-97587912D01*
X149283193Y-97587910D01*
X149130319Y-97476840D01*
X149076371Y-97449352D01*
X148961956Y-97391054D01*
X148782238Y-97332659D01*
X148595606Y-97303100D01*
X148595601Y-97303100D01*
X148406639Y-97303100D01*
X148406634Y-97303100D01*
X148220001Y-97332659D01*
X148040283Y-97391054D01*
X147871920Y-97476840D01*
X147820110Y-97514483D01*
X147719047Y-97587910D01*
X147719045Y-97587912D01*
X147719044Y-97587912D01*
X147588801Y-97718156D01*
X147527478Y-97751641D01*
X147457786Y-97746657D01*
X147413439Y-97718156D01*
X147283195Y-97587912D01*
X147283193Y-97587910D01*
X147130319Y-97476840D01*
X147076371Y-97449352D01*
X146961956Y-97391054D01*
X146782238Y-97332659D01*
X146595606Y-97303100D01*
X146595601Y-97303100D01*
X146406639Y-97303100D01*
X146406634Y-97303100D01*
X146220001Y-97332659D01*
X146040283Y-97391054D01*
X145871920Y-97476840D01*
X145820110Y-97514483D01*
X145719047Y-97587910D01*
X145719045Y-97587912D01*
X145719044Y-97587912D01*
X145588801Y-97718156D01*
X145527478Y-97751641D01*
X145457786Y-97746657D01*
X145413439Y-97718156D01*
X145283195Y-97587912D01*
X145283193Y-97587910D01*
X145130319Y-97476840D01*
X145076371Y-97449352D01*
X144961956Y-97391054D01*
X144782238Y-97332659D01*
X144595606Y-97303100D01*
X144595601Y-97303100D01*
X144406639Y-97303100D01*
X144406634Y-97303100D01*
X144220001Y-97332659D01*
X144040283Y-97391054D01*
X143871920Y-97476840D01*
X143820110Y-97514483D01*
X143719047Y-97587910D01*
X143719045Y-97587912D01*
X143719044Y-97587912D01*
X143585432Y-97721524D01*
X143585432Y-97721525D01*
X143585430Y-97721527D01*
X143567172Y-97746657D01*
X143474360Y-97874400D01*
X143388574Y-98042763D01*
X143330179Y-98222481D01*
X143300620Y-98409113D01*
X127501600Y-98409113D01*
X127501600Y-95703596D01*
X144795545Y-95703596D01*
X144795545Y-95703603D01*
X144815740Y-95882849D01*
X144815741Y-95882854D01*
X144875321Y-96053123D01*
X144900200Y-96092717D01*
X144971294Y-96205862D01*
X145098848Y-96333416D01*
X145189190Y-96390182D01*
X145234848Y-96418871D01*
X145251588Y-96429389D01*
X145382597Y-96475231D01*
X145421855Y-96488968D01*
X145421860Y-96488969D01*
X145601106Y-96509165D01*
X145601110Y-96509165D01*
X145601114Y-96509165D01*
X145780359Y-96488969D01*
X145780362Y-96488968D01*
X145780365Y-96488968D01*
X145950632Y-96429389D01*
X146103372Y-96333416D01*
X146230926Y-96205862D01*
X146326899Y-96053122D01*
X146386478Y-95882855D01*
X146393833Y-95817576D01*
X146406675Y-95703603D01*
X146406675Y-95703596D01*
X146386479Y-95524350D01*
X146386478Y-95524345D01*
X146340553Y-95393099D01*
X146326899Y-95354078D01*
X146230926Y-95201338D01*
X146103372Y-95073784D01*
X145986078Y-95000083D01*
X145950633Y-94977811D01*
X145780364Y-94918231D01*
X145780359Y-94918230D01*
X145601114Y-94898035D01*
X145601106Y-94898035D01*
X145421860Y-94918230D01*
X145421855Y-94918231D01*
X145251586Y-94977811D01*
X145098847Y-95073784D01*
X144971294Y-95201337D01*
X144875321Y-95354076D01*
X144815741Y-95524345D01*
X144815740Y-95524350D01*
X144795545Y-95703596D01*
X127501600Y-95703596D01*
X127501600Y-91157966D01*
X127501653Y-91154339D01*
X127507820Y-90943605D01*
X127517753Y-90604204D01*
X127518174Y-90597008D01*
X127566268Y-90050510D01*
X127567107Y-90043373D01*
X127647077Y-89500642D01*
X127648331Y-89493568D01*
X127759903Y-88956451D01*
X127761572Y-88949448D01*
X127904370Y-88419759D01*
X127906460Y-88412824D01*
X127909538Y-88403594D01*
X145506848Y-88403594D01*
X145506848Y-88403605D01*
X145525863Y-88633084D01*
X145582392Y-88856314D01*
X145674892Y-89067194D01*
X145800838Y-89259970D01*
X145800841Y-89259973D01*
X145956802Y-89429392D01*
X146039212Y-89493534D01*
X146142569Y-89573980D01*
X146141586Y-89575241D01*
X146182293Y-89622949D01*
X146191710Y-89692181D01*
X146162202Y-89755514D01*
X146142246Y-89772805D01*
X146142569Y-89773220D01*
X145956804Y-89917806D01*
X145956799Y-89917811D01*
X145800838Y-90087229D01*
X145674892Y-90280005D01*
X145582392Y-90490885D01*
X145525863Y-90714115D01*
X145506848Y-90943594D01*
X145506848Y-90943605D01*
X145525863Y-91173084D01*
X145582392Y-91396314D01*
X145674892Y-91607194D01*
X145800838Y-91799970D01*
X145800841Y-91799973D01*
X145956802Y-91969392D01*
X146138521Y-92110829D01*
X146341041Y-92220428D01*
X146454135Y-92259253D01*
X146558835Y-92295197D01*
X146558837Y-92295197D01*
X146558839Y-92295198D01*
X146785973Y-92333100D01*
X146785974Y-92333100D01*
X147016246Y-92333100D01*
X147016247Y-92333100D01*
X147243381Y-92295198D01*
X147461179Y-92220428D01*
X147492282Y-92203596D01*
X157995535Y-92203596D01*
X157995535Y-92203603D01*
X158015730Y-92382849D01*
X158015731Y-92382854D01*
X158075311Y-92553123D01*
X158149257Y-92670806D01*
X158171284Y-92705862D01*
X158298838Y-92833416D01*
X158451578Y-92929389D01*
X158620762Y-92988589D01*
X158621845Y-92988968D01*
X158621850Y-92988969D01*
X158801096Y-93009165D01*
X158801100Y-93009165D01*
X158801103Y-93009165D01*
X158896390Y-92998428D01*
X158980355Y-92988968D01*
X158980356Y-92988967D01*
X158983716Y-92988589D01*
X159052538Y-93000643D01*
X159103918Y-93047992D01*
X159121600Y-93111809D01*
X159121600Y-94940470D01*
X159121601Y-94940476D01*
X159128008Y-95000083D01*
X159178302Y-95134928D01*
X159178306Y-95134935D01*
X159264552Y-95250144D01*
X159264555Y-95250147D01*
X159379764Y-95336393D01*
X159379771Y-95336397D01*
X159514617Y-95386691D01*
X159514616Y-95386691D01*
X159521544Y-95387435D01*
X159574227Y-95393100D01*
X161447972Y-95393099D01*
X161507583Y-95386691D01*
X161642431Y-95336396D01*
X161757646Y-95250146D01*
X161843896Y-95134931D01*
X161894191Y-95000083D01*
X161900600Y-94940473D01*
X161900599Y-93066728D01*
X161894191Y-93007117D01*
X161891776Y-93000643D01*
X161843897Y-92872271D01*
X161843893Y-92872264D01*
X161757647Y-92757055D01*
X161757644Y-92757052D01*
X161642435Y-92670806D01*
X161642428Y-92670802D01*
X161507582Y-92620508D01*
X161507583Y-92620508D01*
X161447983Y-92614101D01*
X161447981Y-92614100D01*
X161447973Y-92614100D01*
X161447965Y-92614100D01*
X159680313Y-92614100D01*
X159613274Y-92594415D01*
X159567519Y-92541611D01*
X159557575Y-92472453D01*
X159563272Y-92449144D01*
X159586467Y-92382858D01*
X159586469Y-92382849D01*
X159606665Y-92203603D01*
X159606665Y-92203596D01*
X159586469Y-92024350D01*
X159586468Y-92024345D01*
X159526888Y-91854076D01*
X159430915Y-91701337D01*
X159303362Y-91573784D01*
X159150623Y-91477811D01*
X158980354Y-91418231D01*
X158980349Y-91418230D01*
X158801104Y-91398035D01*
X158801096Y-91398035D01*
X158621850Y-91418230D01*
X158621845Y-91418231D01*
X158451576Y-91477811D01*
X158298837Y-91573784D01*
X158171284Y-91701337D01*
X158075311Y-91854076D01*
X158015731Y-92024345D01*
X158015730Y-92024350D01*
X157995535Y-92203596D01*
X147492282Y-92203596D01*
X147663699Y-92110829D01*
X147845418Y-91969392D01*
X148001379Y-91799973D01*
X148127327Y-91607195D01*
X148219827Y-91396316D01*
X148276356Y-91173088D01*
X148295372Y-90943600D01*
X148276356Y-90714112D01*
X148219827Y-90490884D01*
X148127327Y-90280005D01*
X148098097Y-90235265D01*
X148001381Y-90087229D01*
X147960977Y-90043339D01*
X147845418Y-89917808D01*
X147663699Y-89776371D01*
X147663700Y-89776371D01*
X147659651Y-89773220D01*
X147660635Y-89771954D01*
X147619934Y-89724270D01*
X147610506Y-89655039D01*
X147640003Y-89591702D01*
X147659975Y-89574396D01*
X147659651Y-89573980D01*
X147736780Y-89513948D01*
X147845418Y-89429392D01*
X148001379Y-89259973D01*
X148067301Y-89159072D01*
X148120447Y-89113715D01*
X148189679Y-89104291D01*
X148253015Y-89133793D01*
X148274919Y-89159072D01*
X148340838Y-89259970D01*
X148340841Y-89259973D01*
X148496802Y-89429392D01*
X148678521Y-89570829D01*
X148881041Y-89680428D01*
X148994135Y-89719253D01*
X149098835Y-89755197D01*
X149098837Y-89755197D01*
X149098839Y-89755198D01*
X149325973Y-89793100D01*
X149325974Y-89793100D01*
X149556246Y-89793100D01*
X149556247Y-89793100D01*
X149783381Y-89755198D01*
X150001179Y-89680428D01*
X150203699Y-89570829D01*
X150385418Y-89429392D01*
X150541379Y-89259973D01*
X150667327Y-89067195D01*
X150759827Y-88856316D01*
X150816356Y-88633088D01*
X150835372Y-88403600D01*
X150816356Y-88174112D01*
X150759827Y-87950884D01*
X150667327Y-87740005D01*
X150643090Y-87702908D01*
X150541381Y-87547229D01*
X150514465Y-87517990D01*
X150385418Y-87377808D01*
X150203699Y-87236371D01*
X150203700Y-87236371D01*
X150199651Y-87233220D01*
X150200635Y-87231954D01*
X150159934Y-87184270D01*
X150150506Y-87115039D01*
X150180003Y-87051702D01*
X150199975Y-87034396D01*
X150199651Y-87033980D01*
X150269311Y-86979761D01*
X150385418Y-86889392D01*
X150541379Y-86719973D01*
X150667327Y-86527195D01*
X150759827Y-86316316D01*
X150816356Y-86093088D01*
X150831339Y-85912273D01*
X150835372Y-85863605D01*
X150835372Y-85863594D01*
X150816356Y-85634115D01*
X150816356Y-85634112D01*
X150759827Y-85410884D01*
X150667327Y-85200005D01*
X150602117Y-85100193D01*
X150541381Y-85007229D01*
X150439347Y-84896391D01*
X150385418Y-84837808D01*
X150269310Y-84747438D01*
X150203701Y-84696372D01*
X150001179Y-84586772D01*
X150001171Y-84586769D01*
X149783384Y-84512002D01*
X149613030Y-84483575D01*
X149556247Y-84474100D01*
X149325973Y-84474100D01*
X149280546Y-84481680D01*
X149098835Y-84512002D01*
X148881048Y-84586769D01*
X148881040Y-84586772D01*
X148678518Y-84696372D01*
X148496804Y-84837806D01*
X148496798Y-84837812D01*
X148368298Y-84977399D01*
X148308411Y-85013389D01*
X148238573Y-85011288D01*
X148180957Y-84971763D01*
X148167164Y-84950832D01*
X148138727Y-84896392D01*
X148017272Y-84747438D01*
X147868318Y-84625983D01*
X147697965Y-84536998D01*
X147697959Y-84536996D01*
X147513183Y-84484125D01*
X147442976Y-84477883D01*
X147400419Y-84474100D01*
X147400414Y-84474100D01*
X146401809Y-84474100D01*
X146401803Y-84474100D01*
X146401802Y-84474101D01*
X146390799Y-84475079D01*
X146289036Y-84484125D01*
X146104258Y-84536996D01*
X146019078Y-84581490D01*
X145933902Y-84625983D01*
X145933900Y-84625984D01*
X145933899Y-84625985D01*
X145784948Y-84747438D01*
X145711262Y-84837808D01*
X145663493Y-84896392D01*
X145595449Y-85026656D01*
X145574507Y-85066747D01*
X145521635Y-85251526D01*
X145511610Y-85364294D01*
X145511610Y-86362900D01*
X145511611Y-86362906D01*
X145521635Y-86475673D01*
X145574506Y-86660451D01*
X145574507Y-86660454D01*
X145574508Y-86660455D01*
X145663493Y-86830808D01*
X145784948Y-86979762D01*
X145933902Y-87101217D01*
X145989303Y-87130156D01*
X146039610Y-87178642D01*
X146055717Y-87246629D01*
X146032511Y-87312533D01*
X146008054Y-87337917D01*
X145956804Y-87377806D01*
X145956799Y-87377811D01*
X145800838Y-87547229D01*
X145674892Y-87740005D01*
X145582392Y-87950885D01*
X145525863Y-88174115D01*
X145506848Y-88403594D01*
X127909538Y-88403594D01*
X128079975Y-87892441D01*
X128082448Y-87885688D01*
X128286121Y-87376291D01*
X128288992Y-87369681D01*
X128522091Y-86873105D01*
X128525346Y-86866667D01*
X128787091Y-86384566D01*
X128790735Y-86378301D01*
X129023529Y-86003596D01*
X140995545Y-86003596D01*
X140995545Y-86003603D01*
X141015740Y-86182849D01*
X141015741Y-86182854D01*
X141075321Y-86353123D01*
X141095801Y-86385716D01*
X141171294Y-86505862D01*
X141298848Y-86633416D01*
X141389190Y-86690182D01*
X141436602Y-86719973D01*
X141451588Y-86729389D01*
X141621855Y-86788968D01*
X141621860Y-86788969D01*
X141801106Y-86809165D01*
X141801110Y-86809165D01*
X141801114Y-86809165D01*
X141980359Y-86788969D01*
X141980362Y-86788968D01*
X141980365Y-86788968D01*
X142150632Y-86729389D01*
X142303372Y-86633416D01*
X142430926Y-86505862D01*
X142526899Y-86353122D01*
X142586478Y-86182855D01*
X142586479Y-86182849D01*
X142606675Y-86003603D01*
X142606675Y-86003596D01*
X142586479Y-85824350D01*
X142586478Y-85824345D01*
X142526898Y-85654076D01*
X142430925Y-85501337D01*
X142303372Y-85373784D01*
X142150633Y-85277811D01*
X141980364Y-85218231D01*
X141980359Y-85218230D01*
X141801114Y-85198035D01*
X141801106Y-85198035D01*
X141621860Y-85218230D01*
X141621855Y-85218231D01*
X141451586Y-85277811D01*
X141298847Y-85373784D01*
X141171294Y-85501337D01*
X141075321Y-85654076D01*
X141015741Y-85824345D01*
X141015740Y-85824350D01*
X140995545Y-86003596D01*
X129023529Y-86003596D01*
X129080215Y-85912354D01*
X129084197Y-85906343D01*
X129400472Y-85458066D01*
X129404775Y-85452332D01*
X129746714Y-85023334D01*
X129751347Y-85017858D01*
X130117803Y-84609578D01*
X130122754Y-84604377D01*
X130512422Y-84218265D01*
X130517716Y-84213318D01*
X130930346Y-83849733D01*
X130934736Y-83846045D01*
X131237337Y-83603596D01*
X142695535Y-83603596D01*
X142695535Y-83603603D01*
X142715730Y-83782849D01*
X142715731Y-83782854D01*
X142775311Y-83953123D01*
X142825762Y-84033415D01*
X142871284Y-84105862D01*
X142998838Y-84233416D01*
X143151578Y-84329389D01*
X143321845Y-84388968D01*
X143321850Y-84388969D01*
X143501096Y-84409165D01*
X143501100Y-84409165D01*
X143501104Y-84409165D01*
X143680349Y-84388969D01*
X143680352Y-84388968D01*
X143680355Y-84388968D01*
X143850622Y-84329389D01*
X144003362Y-84233416D01*
X144130916Y-84105862D01*
X144226889Y-83953122D01*
X144286468Y-83782855D01*
X144289818Y-83753122D01*
X144306665Y-83603603D01*
X144306665Y-83603596D01*
X144286469Y-83424350D01*
X144286468Y-83424345D01*
X144279208Y-83403596D01*
X154795545Y-83403596D01*
X154795545Y-83403603D01*
X154815740Y-83582849D01*
X154815741Y-83582854D01*
X154875321Y-83753123D01*
X154935101Y-83848261D01*
X154971294Y-83905862D01*
X155098848Y-84033416D01*
X155251588Y-84129389D01*
X155288503Y-84142306D01*
X155421855Y-84188968D01*
X155421860Y-84188969D01*
X155601106Y-84209165D01*
X155601110Y-84209165D01*
X155601114Y-84209165D01*
X155780359Y-84188969D01*
X155780362Y-84188968D01*
X155780365Y-84188968D01*
X155950632Y-84129389D01*
X156103372Y-84033416D01*
X156230926Y-83905862D01*
X156326899Y-83753122D01*
X156386478Y-83582855D01*
X156406675Y-83403600D01*
X156392189Y-83275036D01*
X156386479Y-83224350D01*
X156386478Y-83224345D01*
X156326899Y-83054078D01*
X156230926Y-82901338D01*
X156103372Y-82773784D01*
X156078648Y-82758249D01*
X155950633Y-82677811D01*
X155780364Y-82618231D01*
X155780359Y-82618230D01*
X155601114Y-82598035D01*
X155601106Y-82598035D01*
X155421860Y-82618230D01*
X155421855Y-82618231D01*
X155251586Y-82677811D01*
X155098847Y-82773784D01*
X154971294Y-82901337D01*
X154875321Y-83054076D01*
X154815741Y-83224345D01*
X154815740Y-83224350D01*
X154795545Y-83403596D01*
X144279208Y-83403596D01*
X144226889Y-83254078D01*
X144221473Y-83245459D01*
X144130915Y-83101337D01*
X144003362Y-82973784D01*
X143850623Y-82877811D01*
X143680354Y-82818231D01*
X143680349Y-82818230D01*
X143501104Y-82798035D01*
X143501096Y-82798035D01*
X143321850Y-82818230D01*
X143321845Y-82818231D01*
X143151576Y-82877811D01*
X142998837Y-82973784D01*
X142871284Y-83101337D01*
X142775311Y-83254076D01*
X142715731Y-83424345D01*
X142715730Y-83424350D01*
X142695535Y-83603596D01*
X131237337Y-83603596D01*
X131684369Y-83245427D01*
X131687777Y-83242795D01*
X132459123Y-82668081D01*
X132462617Y-82665570D01*
X133253747Y-82118263D01*
X133257281Y-82115910D01*
X134067115Y-81596757D01*
X134070780Y-81594497D01*
X134561707Y-81303596D01*
X147695535Y-81303596D01*
X147695535Y-81303603D01*
X147715730Y-81482849D01*
X147715731Y-81482854D01*
X147775311Y-81653123D01*
X147797835Y-81688969D01*
X147871284Y-81805862D01*
X147998838Y-81933416D01*
X148151578Y-82029389D01*
X148321845Y-82088968D01*
X148321850Y-82088969D01*
X148501096Y-82109165D01*
X148501100Y-82109165D01*
X148501104Y-82109165D01*
X148680349Y-82088969D01*
X148680352Y-82088968D01*
X148680355Y-82088968D01*
X148850622Y-82029389D01*
X149003362Y-81933416D01*
X149130916Y-81805862D01*
X149226889Y-81653122D01*
X149286468Y-81482855D01*
X149289818Y-81453122D01*
X149306665Y-81303603D01*
X149306665Y-81303596D01*
X149286469Y-81124350D01*
X149286468Y-81124345D01*
X149226888Y-80954076D01*
X149195169Y-80903596D01*
X150095535Y-80903596D01*
X150095535Y-80903603D01*
X150115730Y-81082849D01*
X150115731Y-81082854D01*
X150175311Y-81253123D01*
X150207026Y-81303596D01*
X150271284Y-81405862D01*
X150398838Y-81533416D01*
X150551578Y-81629389D01*
X150619406Y-81653123D01*
X150721845Y-81688968D01*
X150721850Y-81688969D01*
X150901096Y-81709165D01*
X150901100Y-81709165D01*
X150901104Y-81709165D01*
X151080349Y-81688969D01*
X151080352Y-81688968D01*
X151080355Y-81688968D01*
X151250622Y-81629389D01*
X151403362Y-81533416D01*
X151530916Y-81405862D01*
X151540278Y-81390961D01*
X151592610Y-81344671D01*
X151661664Y-81334021D01*
X151725513Y-81362395D01*
X151762314Y-81415979D01*
X151775310Y-81453121D01*
X151825762Y-81533415D01*
X151871284Y-81605862D01*
X151998838Y-81733416D01*
X152151578Y-81829389D01*
X152321845Y-81888968D01*
X152321850Y-81888969D01*
X152501096Y-81909165D01*
X152501100Y-81909165D01*
X152501104Y-81909165D01*
X152680349Y-81888969D01*
X152680352Y-81888968D01*
X152680355Y-81888968D01*
X152850622Y-81829389D01*
X153003362Y-81733416D01*
X153130916Y-81605862D01*
X153226889Y-81453122D01*
X153286468Y-81282855D01*
X153304328Y-81124345D01*
X153306665Y-81103603D01*
X153306665Y-81103596D01*
X153286469Y-80924350D01*
X153286468Y-80924345D01*
X153243426Y-80801338D01*
X153226889Y-80754078D01*
X153208206Y-80724345D01*
X153130915Y-80601337D01*
X153003362Y-80473784D01*
X152850623Y-80377811D01*
X152680354Y-80318231D01*
X152680350Y-80318230D01*
X152608182Y-80310099D01*
X152543768Y-80283032D01*
X152504213Y-80225437D01*
X152498846Y-80172995D01*
X152506665Y-80103602D01*
X152506665Y-80103596D01*
X152486469Y-79924350D01*
X152486468Y-79924345D01*
X152444889Y-79805519D01*
X152426889Y-79754078D01*
X152330916Y-79601338D01*
X152203362Y-79473784D01*
X152140331Y-79434179D01*
X152050623Y-79377811D01*
X151880354Y-79318231D01*
X151880349Y-79318230D01*
X151701104Y-79298035D01*
X151701096Y-79298035D01*
X151521850Y-79318230D01*
X151521845Y-79318231D01*
X151351576Y-79377811D01*
X151198837Y-79473784D01*
X151071284Y-79601337D01*
X150975310Y-79754078D01*
X150915730Y-79924350D01*
X150907169Y-80000333D01*
X150880102Y-80064747D01*
X150822507Y-80104302D01*
X150797833Y-80109669D01*
X150721850Y-80118230D01*
X150551578Y-80177810D01*
X150398837Y-80273784D01*
X150271284Y-80401337D01*
X150175311Y-80554076D01*
X150115731Y-80724345D01*
X150115730Y-80724350D01*
X150095535Y-80903596D01*
X149195169Y-80903596D01*
X149130915Y-80801337D01*
X149003362Y-80673784D01*
X148850623Y-80577811D01*
X148680354Y-80518231D01*
X148680349Y-80518230D01*
X148501104Y-80498035D01*
X148501096Y-80498035D01*
X148321850Y-80518230D01*
X148321845Y-80518231D01*
X148151576Y-80577811D01*
X147998837Y-80673784D01*
X147871284Y-80801337D01*
X147775311Y-80954076D01*
X147715731Y-81124345D01*
X147715730Y-81124350D01*
X147695535Y-81303596D01*
X134561707Y-81303596D01*
X134898336Y-81104125D01*
X134902075Y-81101997D01*
X135746400Y-80640972D01*
X135750165Y-80639002D01*
X136610148Y-80207934D01*
X136613990Y-80206091D01*
X137488597Y-79805497D01*
X137492494Y-79803794D01*
X138380664Y-79434161D01*
X138384585Y-79432609D01*
X139285147Y-79094425D01*
X139289220Y-79092976D01*
X140201104Y-78786640D01*
X140205191Y-78785347D01*
X141127238Y-78511246D01*
X141131394Y-78510090D01*
X141614365Y-78384802D01*
X142063035Y-78268414D01*
X142067991Y-78267235D01*
X142500483Y-78173867D01*
X142506181Y-78172778D01*
X142943154Y-78099849D01*
X142948913Y-78099026D01*
X143388871Y-78046815D01*
X143394636Y-78046269D01*
X143836583Y-78014897D01*
X143842394Y-78014622D01*
X144286418Y-78004134D01*
X144289344Y-78004100D01*
X144354087Y-78004101D01*
X144354091Y-78004100D01*
X152648408Y-78004100D01*
X152712851Y-78004100D01*
X152715780Y-78004134D01*
G37*
%TD.AperFunction*%
%TD*%
M02*
