%TF.GenerationSoftware,KiCad,Pcbnew,8.0.7*%
%TF.CreationDate,2025-09-19T21:14:15-06:00*%
%TF.ProjectId,MiniBall,4d696e69-4261-46c6-9c2e-6b696361645f,rev?*%
%TF.SameCoordinates,Original*%
%TF.FileFunction,Copper,L3,Inr*%
%TF.FilePolarity,Positive*%
%FSLAX46Y46*%
G04 Gerber Fmt 4.6, Leading zero omitted, Abs format (unit mm)*
G04 Created by KiCad (PCBNEW 8.0.7) date 2025-09-19 21:14:15*
%MOMM*%
%LPD*%
G01*
G04 APERTURE LIST*
G04 Aperture macros list*
%AMRoundRect*
0 Rectangle with rounded corners*
0 $1 Rounding radius*
0 $2 $3 $4 $5 $6 $7 $8 $9 X,Y pos of 4 corners*
0 Add a 4 corners polygon primitive as box body*
4,1,4,$2,$3,$4,$5,$6,$7,$8,$9,$2,$3,0*
0 Add four circle primitives for the rounded corners*
1,1,$1+$1,$2,$3*
1,1,$1+$1,$4,$5*
1,1,$1+$1,$6,$7*
1,1,$1+$1,$8,$9*
0 Add four rect primitives between the rounded corners*
20,1,$1+$1,$2,$3,$4,$5,0*
20,1,$1+$1,$4,$5,$6,$7,0*
20,1,$1+$1,$6,$7,$8,$9,0*
20,1,$1+$1,$8,$9,$2,$3,0*%
G04 Aperture macros list end*
%TA.AperFunction,ComponentPad*%
%ADD10RoundRect,0.444500X-0.444500X-0.444500X0.444500X-0.444500X0.444500X0.444500X-0.444500X0.444500X0*%
%TD*%
%TA.AperFunction,ComponentPad*%
%ADD11C,1.778000*%
%TD*%
%TA.AperFunction,ComponentPad*%
%ADD12R,1.778000X1.778000*%
%TD*%
%TA.AperFunction,ComponentPad*%
%ADD13O,1.400000X1.800000*%
%TD*%
%TA.AperFunction,ViaPad*%
%ADD14C,1.400000*%
%TD*%
%TA.AperFunction,ViaPad*%
%ADD15C,0.600000*%
%TD*%
%TA.AperFunction,ViaPad*%
%ADD16C,1.000000*%
%TD*%
%TA.AperFunction,ViaPad*%
%ADD17C,1.016000*%
%TD*%
%TA.AperFunction,Conductor*%
%ADD18C,1.400000*%
%TD*%
%TA.AperFunction,Conductor*%
%ADD19C,0.350000*%
%TD*%
%TA.AperFunction,Conductor*%
%ADD20C,1.000000*%
%TD*%
%TA.AperFunction,Conductor*%
%ADD21C,0.500000*%
%TD*%
G04 APERTURE END LIST*
D10*
%TO.N,MISO*%
%TO.C,MCU.J.1*%
X146901110Y-85863600D03*
D11*
%TO.N,V_USB*%
X149441110Y-85863600D03*
%TO.N,SCLK*%
X146901110Y-88403600D03*
%TO.N,MOSI*%
X149441110Y-88403600D03*
%TO.N,~{RESET}*%
X146901110Y-90943600D03*
%TO.N,GND*%
X149441110Y-90943600D03*
%TD*%
D12*
%TO.N,NetMCU.J.3_1*%
%TO.C,MCU.J.3*%
X160511100Y-94003600D03*
D11*
%TO.N,GND*%
X163051100Y-94003600D03*
%TD*%
D13*
%TO.N,NetMCU.U.1_31*%
%TO.C,MOS.U.2*%
X150501120Y-98703600D03*
%TO.N,NetMOS.D.1_C*%
X148501120Y-98703600D03*
%TO.N,~{RESET}*%
X146501120Y-98703600D03*
%TO.N,NetMCU.U.1_28*%
X144501120Y-98703600D03*
%TO.N,V_USB*%
X145501120Y-111303600D03*
%TO.N,GND*%
X147501120Y-111303600D03*
%TO.N,NetMOS.C.2_2*%
X149501120Y-111303600D03*
%TO.N,NetMCU.U.1_12*%
X151501120Y-111303600D03*
%TD*%
D14*
%TO.N,NetMOS.D.1_C*%
X164576100Y-98528600D03*
D15*
%TO.N,NetMCU.U.1_12*%
X143501100Y-83603600D03*
%TO.N,V_USB*%
X152501100Y-81103600D03*
X145601110Y-95703600D03*
X158801100Y-92203600D03*
X155601110Y-83403600D03*
X148501100Y-81303600D03*
X141801110Y-86003600D03*
D16*
X165101100Y-108403600D03*
%TO.N,NetMOS.R.3_1*%
X168301110Y-96803600D03*
X168301110Y-113303600D03*
D15*
%TO.N,NetMCU.U.1_4*%
X143201110Y-120603600D03*
X150901100Y-80903600D03*
%TO.N,NetMCU.U.1_3*%
X151701100Y-80103600D03*
X142601110Y-122303600D03*
%TO.N,GND*%
X131501110Y-91503600D03*
D17*
X156501100Y-79503600D03*
X161401100Y-127903600D03*
D15*
X128401100Y-101803600D03*
D17*
X157301100Y-117403600D03*
X156301100Y-123903600D03*
D15*
X153501100Y-129003600D03*
X140501110Y-96303600D03*
X153001100Y-87503600D03*
X167001100Y-112003600D03*
X140001100Y-121503600D03*
X135501110Y-115503600D03*
X131601110Y-115903600D03*
X137501100Y-101503600D03*
X133501100Y-107003600D03*
X143501100Y-127503600D03*
X146001100Y-78503600D03*
X156801100Y-127803600D03*
X155101100Y-112203600D03*
X162301100Y-112603600D03*
X138601100Y-98603600D03*
X146001100Y-81003600D03*
X142001100Y-87003600D03*
X143001110Y-119503600D03*
X162701100Y-87603600D03*
X135501110Y-96003600D03*
X134501100Y-85503600D03*
X133101100Y-119703600D03*
X134001110Y-111503600D03*
X131301100Y-125103600D03*
X143001110Y-96503600D03*
X151301100Y-92203600D03*
X164501110Y-96403600D03*
X148801100Y-117203600D03*
D17*
X165001100Y-84503600D03*
D15*
X137501100Y-119003600D03*
X133001110Y-85503600D03*
X147101100Y-117203600D03*
X153501100Y-126003600D03*
X133501100Y-103503600D03*
X137501100Y-105503600D03*
X131501110Y-90003600D03*
X142501100Y-130003600D03*
X131501110Y-93003600D03*
X153001100Y-91503600D03*
X143501100Y-129003600D03*
X141001100Y-117703600D03*
X167001100Y-117003600D03*
X142001100Y-79003600D03*
X131501110Y-87003600D03*
X137501100Y-108503600D03*
X154501110Y-130003600D03*
X160801110Y-89703600D03*
X167001100Y-90903600D03*
X142001100Y-92503600D03*
X159001100Y-88503600D03*
X142501100Y-131503600D03*
X153001100Y-89503600D03*
X137501100Y-112503600D03*
X139501100Y-115503600D03*
X153001100Y-124503600D03*
X152401100Y-114003600D03*
X147801100Y-119703600D03*
X134501100Y-93503600D03*
D17*
X138501100Y-80503600D03*
D15*
X139201110Y-127203600D03*
X135301110Y-82203600D03*
D17*
X163701100Y-115603600D03*
D15*
X151501100Y-78503600D03*
X128401100Y-96803600D03*
X153401100Y-95803600D03*
X131501110Y-88503600D03*
X147601100Y-95703600D03*
D17*
X134301110Y-127503600D03*
X168301110Y-120503600D03*
X168701100Y-95103600D03*
D15*
X142001100Y-90503600D03*
X128701100Y-112903600D03*
D17*
X131501110Y-84503600D03*
D15*
X158901100Y-96403600D03*
X153501100Y-127503600D03*
X159001100Y-84503600D03*
X136001100Y-85503600D03*
X137501100Y-93003600D03*
X159001100Y-80503600D03*
X153901100Y-118803600D03*
X154501110Y-131503600D03*
X138501100Y-90503600D03*
X136001100Y-93503600D03*
X135701100Y-123003600D03*
X142901110Y-113703600D03*
D17*
X128501100Y-92503600D03*
D15*
X160001100Y-115003600D03*
X133001110Y-93503600D03*
X154001100Y-81003600D03*
X128501100Y-106703600D03*
X138001110Y-91503600D03*
X133501100Y-99503600D03*
%TD*%
D18*
%TO.N,NetMOS.D.1_C*%
X152551690Y-97154190D02*
X153376100Y-97978600D01*
X148976100Y-97278600D02*
X149059240Y-97195460D01*
X154703920Y-98528600D02*
X164576100Y-98528600D01*
X148501120Y-98703600D02*
X148501120Y-98425320D01*
X154703920Y-98528600D02*
G75*
G02*
X153376095Y-97978605I-20J1877800D01*
G01*
X150855290Y-96451510D02*
G75*
G02*
X152551698Y-97154172I10J-2399090D01*
G01*
X149059239Y-97195469D02*
G75*
G02*
X150855290Y-96451507I1796061J-1796031D01*
G01*
X148501120Y-98425320D02*
G75*
G02*
X148976099Y-97278599I1621680J20D01*
G01*
D19*
%TO.N,NetMCU.U.1_12*%
X161794410Y-89596910D02*
X161796030Y-89598520D01*
X166401100Y-106813650D02*
X166401100Y-100699580D01*
X161796030Y-89598520D02*
X161807300Y-89609790D01*
X161807300Y-89609790D02*
X161807880Y-89610390D01*
X145251420Y-84328600D02*
X149074070Y-84328600D01*
X151501120Y-111303600D02*
X163694000Y-111303600D01*
X166401100Y-100697690D02*
X166401100Y-100699580D01*
X149074070Y-84328600D02*
X149075950Y-84328600D01*
X164715502Y-110881245D02*
G75*
G02*
X163694000Y-111303621I-1021502J1024045D01*
G01*
X149075958Y-84328610D02*
G75*
G02*
X161794393Y-89596937I-58J-17986290D01*
G01*
X145251420Y-84328600D02*
G75*
G02*
X143501104Y-83603606I-20J2475300D01*
G01*
X166401100Y-106813650D02*
G75*
G02*
X164715467Y-110881210I-5750600J50D01*
G01*
X161807879Y-89610383D02*
G75*
G02*
X166401081Y-100697684I-11084979J-11087317D01*
G01*
%TO.N,~{RESET}*%
X146501120Y-98703600D02*
X146501120Y-91909250D01*
X146501120Y-91909250D02*
G75*
G02*
X146901073Y-90943563I1365680J50D01*
G01*
D20*
%TO.N,NetMOS.R.3_1*%
X168301110Y-113303600D02*
X168301110Y-96803600D01*
D21*
%TO.N,NetMCU.U.1_4*%
X145553210Y-80203600D02*
X149301110Y-80203600D01*
X140201110Y-93051490D02*
X140201110Y-85555700D01*
X140195330Y-118297820D02*
X142006130Y-120108630D01*
X140194960Y-118297460D02*
X140195330Y-118297820D01*
X135501100Y-102124930D02*
X135501110Y-102127180D01*
X140945060Y-83759650D02*
X143757150Y-80947550D01*
X135501110Y-106965800D02*
X135501110Y-102127180D01*
X135501100Y-106968060D02*
X135501110Y-106965800D01*
X150837500Y-80840000D02*
X150901100Y-80903600D01*
X137851080Y-96453630D02*
X139457160Y-94847550D01*
X140194956Y-118297461D02*
G75*
G02*
X135501121Y-106968060I11325744J11329361D01*
G01*
X140201110Y-85555700D02*
G75*
G02*
X140945061Y-83759651I2539990J0D01*
G01*
X135501110Y-102124928D02*
G75*
G02*
X137851071Y-96453614I8018390J28D01*
G01*
X143201110Y-120603610D02*
G75*
G02*
X142006138Y-120108632I-10J1689910D01*
G01*
X143757159Y-80947549D02*
G75*
G02*
X145553210Y-80203607I1796041J-1796051D01*
G01*
X140201110Y-93051490D02*
G75*
G02*
X139457168Y-94847548I-2540010J-10D01*
G01*
X149301110Y-80203600D02*
G75*
G02*
X150837507Y-80840003I-10J-2172800D01*
G01*
%TO.N,NetMCU.U.1_3*%
X134701100Y-106741460D02*
X134701100Y-102351450D01*
X134701100Y-106743710D02*
X134701100Y-106741460D01*
X140331290Y-120333800D02*
X140331660Y-120334160D01*
X134701100Y-102349190D02*
X134701100Y-102351450D01*
X140331660Y-120334160D02*
X142122830Y-122125330D01*
X140145050Y-83459650D02*
X143457160Y-80147550D01*
X145253210Y-79403600D02*
X150011150Y-79403600D01*
X137563210Y-95441490D02*
X138657160Y-94347550D01*
X139401110Y-92551500D02*
X139401110Y-85255710D01*
X142553210Y-122303600D02*
X142601110Y-122303600D01*
X140331294Y-120333800D02*
G75*
G02*
X134701079Y-106743708I13586406J13590000D01*
G01*
X150011150Y-79403590D02*
G75*
G02*
X151701092Y-80103608I-50J-2390010D01*
G01*
X142553203Y-122303600D02*
G75*
G02*
X142122835Y-122125326I-3J608600D01*
G01*
X139401110Y-92551500D02*
G75*
G02*
X138657163Y-94347553I-2540010J0D01*
G01*
X139401110Y-85255710D02*
G75*
G02*
X140145056Y-83459656I2539990J10D01*
G01*
X143457159Y-80147549D02*
G75*
G02*
X145253210Y-79403607I1796041J-1796051D01*
G01*
X134701100Y-102349188D02*
G75*
G02*
X137563218Y-95441500I9766900J-12D01*
G01*
%TD*%
%TA.AperFunction,Conductor*%
%TO.N,GND*%
G36*
X152715780Y-78004134D02*
G01*
X153160036Y-78014634D01*
X153165860Y-78014909D01*
X153607732Y-78046284D01*
X153613529Y-78046834D01*
X154053417Y-78099047D01*
X154059169Y-78099868D01*
X154496097Y-78172804D01*
X154501827Y-78173900D01*
X154935704Y-78267585D01*
X154940646Y-78268759D01*
X155131696Y-78318321D01*
X155870806Y-78510058D01*
X155875003Y-78511226D01*
X156797051Y-78785332D01*
X156801127Y-78786622D01*
X157712960Y-79092947D01*
X157717044Y-79094398D01*
X157779464Y-79117839D01*
X158617573Y-79432575D01*
X158621625Y-79434179D01*
X159509653Y-79803757D01*
X159513645Y-79805501D01*
X159773112Y-79924345D01*
X160388195Y-80206073D01*
X160392082Y-80207937D01*
X160730979Y-80377811D01*
X161251992Y-80638972D01*
X161255852Y-80640992D01*
X162100093Y-81101974D01*
X162103880Y-81104129D01*
X162137992Y-81124342D01*
X162931404Y-81594484D01*
X162935098Y-81596761D01*
X163744895Y-82115894D01*
X163748481Y-82118283D01*
X164395811Y-82566110D01*
X164539561Y-82665558D01*
X164543100Y-82668100D01*
X164684943Y-82773784D01*
X165289657Y-83224345D01*
X165314420Y-83242795D01*
X165317849Y-83245445D01*
X165712972Y-83562025D01*
X166067895Y-83846396D01*
X166072340Y-83850131D01*
X166189202Y-83953123D01*
X166485527Y-84214279D01*
X166490840Y-84219246D01*
X166562549Y-84290335D01*
X166833655Y-84559100D01*
X166881386Y-84606418D01*
X166886399Y-84611688D01*
X167253580Y-85021101D01*
X167258275Y-85026656D01*
X167600811Y-85456881D01*
X167605173Y-85462702D01*
X167921898Y-85912273D01*
X167925911Y-85918339D01*
X168215738Y-86385716D01*
X168219388Y-86392007D01*
X168481308Y-86875563D01*
X168484583Y-86882057D01*
X168717702Y-87380138D01*
X168720591Y-87386813D01*
X168924110Y-87897718D01*
X168926602Y-87904551D01*
X169098255Y-88421802D01*
X169099816Y-88426504D01*
X169101901Y-88433465D01*
X169120413Y-88502565D01*
X169244206Y-88964656D01*
X169245882Y-88971733D01*
X169356808Y-89510392D01*
X169358065Y-89517556D01*
X169437215Y-90061767D01*
X169438050Y-90068993D01*
X169485155Y-90616908D01*
X169485565Y-90624170D01*
X169500548Y-91177020D01*
X169500594Y-91180655D01*
X169500439Y-91250070D01*
X169500600Y-91252560D01*
X169500600Y-96461603D01*
X169480915Y-96528642D01*
X169428111Y-96574397D01*
X169358953Y-96584341D01*
X169295397Y-96555316D01*
X169262040Y-96509057D01*
X169246593Y-96471766D01*
X169242493Y-96460310D01*
X169229924Y-96418873D01*
X169209514Y-96380691D01*
X169204313Y-96369695D01*
X169187742Y-96329686D01*
X169163682Y-96293678D01*
X169157426Y-96283240D01*
X169137021Y-96245064D01*
X169137020Y-96245062D01*
X169109548Y-96211588D01*
X169102304Y-96201819D01*
X169078250Y-96165819D01*
X169078246Y-96165814D01*
X169047630Y-96135199D01*
X169039456Y-96126181D01*
X169011994Y-96092718D01*
X168978526Y-96065251D01*
X168969511Y-96057079D01*
X168938897Y-96026465D01*
X168938893Y-96026462D01*
X168938890Y-96026460D01*
X168922249Y-96015340D01*
X168902882Y-96002399D01*
X168893112Y-95995152D01*
X168859653Y-95967694D01*
X168859645Y-95967688D01*
X168837549Y-95955878D01*
X168821460Y-95947278D01*
X168811028Y-95941025D01*
X168775028Y-95916970D01*
X168775024Y-95916968D01*
X168735025Y-95900400D01*
X168724023Y-95895197D01*
X168685839Y-95874787D01*
X168685838Y-95874786D01*
X168685837Y-95874786D01*
X168644387Y-95862212D01*
X168632944Y-95858117D01*
X168592944Y-95841548D01*
X168592937Y-95841546D01*
X168550488Y-95833103D01*
X168538685Y-95830147D01*
X168497244Y-95817576D01*
X168497240Y-95817575D01*
X168454145Y-95813330D01*
X168442116Y-95811545D01*
X168399654Y-95803100D01*
X168399651Y-95803100D01*
X168356354Y-95803100D01*
X168344200Y-95802503D01*
X168301110Y-95798259D01*
X168258020Y-95802503D01*
X168245866Y-95803100D01*
X168202563Y-95803100D01*
X168160101Y-95811545D01*
X168148073Y-95813330D01*
X168104977Y-95817576D01*
X168063537Y-95830146D01*
X168051736Y-95833102D01*
X168009276Y-95841548D01*
X168009271Y-95841549D01*
X167969269Y-95858118D01*
X167957817Y-95862216D01*
X167916382Y-95874786D01*
X167878201Y-95895194D01*
X167867203Y-95900395D01*
X167827201Y-95916964D01*
X167791190Y-95941026D01*
X167780755Y-95947280D01*
X167742575Y-95967687D01*
X167742570Y-95967691D01*
X167709100Y-95995157D01*
X167699335Y-96002399D01*
X167663335Y-96026455D01*
X167663329Y-96026460D01*
X167632705Y-96057083D01*
X167623694Y-96065250D01*
X167590227Y-96092717D01*
X167562760Y-96126184D01*
X167554593Y-96135195D01*
X167523970Y-96165819D01*
X167523965Y-96165825D01*
X167499909Y-96201825D01*
X167492667Y-96211590D01*
X167465201Y-96245060D01*
X167465197Y-96245065D01*
X167444790Y-96283245D01*
X167438536Y-96293680D01*
X167414474Y-96329691D01*
X167397905Y-96369693D01*
X167392704Y-96380691D01*
X167372296Y-96418872D01*
X167359726Y-96460307D01*
X167355628Y-96471759D01*
X167339059Y-96511761D01*
X167339058Y-96511766D01*
X167330612Y-96554226D01*
X167327656Y-96566027D01*
X167315086Y-96607467D01*
X167310840Y-96650563D01*
X167309055Y-96662591D01*
X167300610Y-96705053D01*
X167300610Y-96748354D01*
X167300013Y-96760507D01*
X167295769Y-96803599D01*
X167300013Y-96846690D01*
X167300610Y-96858844D01*
X167300610Y-99798588D01*
X167280925Y-99865627D01*
X167228121Y-99911382D01*
X167158963Y-99921326D01*
X167095407Y-99892301D01*
X167057633Y-99833523D01*
X167052742Y-99804321D01*
X167041669Y-99564830D01*
X166971925Y-98812282D01*
X166867495Y-98063759D01*
X166728603Y-97320858D01*
X166555545Y-96585165D01*
X166348691Y-95858251D01*
X166108481Y-95141667D01*
X165835429Y-94436943D01*
X165530117Y-93745584D01*
X165193198Y-93069064D01*
X165019382Y-92757055D01*
X164825401Y-92408848D01*
X164825381Y-92408814D01*
X164481844Y-91854076D01*
X164427479Y-91766288D01*
X164427474Y-91766281D01*
X164427468Y-91766271D01*
X164069629Y-91243982D01*
X164000313Y-91142811D01*
X163544806Y-90539731D01*
X163061928Y-89958334D01*
X162892762Y-89772805D01*
X162552731Y-89399882D01*
X162552722Y-89399873D01*
X162552712Y-89399862D01*
X162336036Y-89183229D01*
X162335981Y-89183169D01*
X162324929Y-89172118D01*
X162321911Y-89168798D01*
X162319391Y-89166293D01*
X162319390Y-89166292D01*
X162287385Y-89134483D01*
X162285720Y-89132795D01*
X162246738Y-89092470D01*
X162242096Y-89088527D01*
X162242373Y-89088199D01*
X162234104Y-89081293D01*
X162222543Y-89069732D01*
X162221975Y-89069218D01*
X162190188Y-89037430D01*
X161984117Y-88831349D01*
X161383674Y-88281122D01*
X161383670Y-88281119D01*
X161383665Y-88281114D01*
X160759797Y-87757607D01*
X160113697Y-87261818D01*
X159446549Y-86794659D01*
X158759695Y-86357069D01*
X158054389Y-85949847D01*
X157505805Y-85664263D01*
X157331989Y-85573777D01*
X157331982Y-85573774D01*
X157331973Y-85573769D01*
X156593877Y-85229577D01*
X155841456Y-84917904D01*
X155076168Y-84639352D01*
X155076156Y-84639348D01*
X155076150Y-84639346D01*
X154299425Y-84394437D01*
X154299411Y-84394433D01*
X154299404Y-84394431D01*
X153512756Y-84183641D01*
X152717648Y-84007363D01*
X151915593Y-83865933D01*
X151202079Y-83771993D01*
X151108140Y-83759625D01*
X150837699Y-83735963D01*
X150296819Y-83688640D01*
X149483170Y-83653111D01*
X149148590Y-83653110D01*
X149148383Y-83653100D01*
X149142481Y-83653100D01*
X149140601Y-83653100D01*
X145255480Y-83653100D01*
X145247371Y-83652835D01*
X145024601Y-83638235D01*
X145008519Y-83636117D01*
X144793560Y-83593360D01*
X144777894Y-83589163D01*
X144570351Y-83518714D01*
X144555365Y-83512506D01*
X144358794Y-83415569D01*
X144344747Y-83407459D01*
X144338966Y-83403596D01*
X154795545Y-83403596D01*
X154795545Y-83403603D01*
X154815740Y-83582849D01*
X154815741Y-83582854D01*
X154875321Y-83753123D01*
X154971294Y-83905862D01*
X155098848Y-84033416D01*
X155251588Y-84129389D01*
X155298594Y-84145837D01*
X155421855Y-84188968D01*
X155421860Y-84188969D01*
X155601106Y-84209165D01*
X155601110Y-84209165D01*
X155601114Y-84209165D01*
X155780359Y-84188969D01*
X155780362Y-84188968D01*
X155780365Y-84188968D01*
X155950632Y-84129389D01*
X156103372Y-84033416D01*
X156230926Y-83905862D01*
X156326899Y-83753122D01*
X156386478Y-83582855D01*
X156388825Y-83562025D01*
X156406675Y-83403603D01*
X156406675Y-83403596D01*
X156386479Y-83224350D01*
X156386478Y-83224345D01*
X156377855Y-83199701D01*
X156326899Y-83054078D01*
X156230926Y-82901338D01*
X156103372Y-82773784D01*
X156060663Y-82746948D01*
X155950633Y-82677811D01*
X155780364Y-82618231D01*
X155780359Y-82618230D01*
X155601114Y-82598035D01*
X155601106Y-82598035D01*
X155421860Y-82618230D01*
X155421855Y-82618231D01*
X155251586Y-82677811D01*
X155098847Y-82773784D01*
X154971294Y-82901337D01*
X154875321Y-83054076D01*
X154815741Y-83224345D01*
X154815740Y-83224350D01*
X154795545Y-83403596D01*
X144338966Y-83403596D01*
X144295435Y-83374510D01*
X144250629Y-83320898D01*
X144247283Y-83312362D01*
X144247164Y-83312021D01*
X144226889Y-83254078D01*
X144221473Y-83245459D01*
X144130915Y-83101337D01*
X144003362Y-82973784D01*
X143850623Y-82877811D01*
X143680354Y-82818231D01*
X143680349Y-82818230D01*
X143501104Y-82798035D01*
X143501096Y-82798035D01*
X143321850Y-82818230D01*
X143321839Y-82818233D01*
X143259317Y-82840110D01*
X143189539Y-82843671D01*
X143128912Y-82808942D01*
X143096685Y-82746948D01*
X143103091Y-82677372D01*
X143130681Y-82635389D01*
X144227234Y-81538832D01*
X144227302Y-81538772D01*
X144232061Y-81534012D01*
X144232064Y-81534011D01*
X144284963Y-81481111D01*
X144290860Y-81475588D01*
X144457726Y-81329250D01*
X144470587Y-81319383D01*
X144651706Y-81198364D01*
X144665740Y-81190261D01*
X144861119Y-81093911D01*
X144876079Y-81087715D01*
X145082365Y-81017691D01*
X145098012Y-81013498D01*
X145311666Y-80971000D01*
X145327721Y-80968885D01*
X145549291Y-80954364D01*
X145557389Y-80954100D01*
X145632088Y-80954100D01*
X147600541Y-80954100D01*
X147667580Y-80973785D01*
X147713335Y-81026589D01*
X147723279Y-81095747D01*
X147717583Y-81119054D01*
X147715732Y-81124342D01*
X147715730Y-81124350D01*
X147695535Y-81303596D01*
X147695535Y-81303603D01*
X147715730Y-81482849D01*
X147715731Y-81482854D01*
X147775311Y-81653123D01*
X147797835Y-81688969D01*
X147871284Y-81805862D01*
X147998838Y-81933416D01*
X148151578Y-82029389D01*
X148321845Y-82088968D01*
X148321850Y-82088969D01*
X148501096Y-82109165D01*
X148501100Y-82109165D01*
X148501104Y-82109165D01*
X148680349Y-82088969D01*
X148680352Y-82088968D01*
X148680355Y-82088968D01*
X148850622Y-82029389D01*
X149003362Y-81933416D01*
X149130916Y-81805862D01*
X149226889Y-81653122D01*
X149286468Y-81482855D01*
X149289818Y-81453122D01*
X149306665Y-81303603D01*
X149306665Y-81303596D01*
X149286469Y-81124350D01*
X149284918Y-81117553D01*
X149286619Y-81117164D01*
X149283509Y-81056300D01*
X149318234Y-80995670D01*
X149380226Y-80963440D01*
X149412219Y-80961383D01*
X149478649Y-80965737D01*
X149494718Y-80967853D01*
X149661262Y-81000981D01*
X149676906Y-81005173D01*
X149837701Y-81059756D01*
X149852682Y-81065961D01*
X150004969Y-81141061D01*
X150019007Y-81149167D01*
X150153820Y-81239247D01*
X150189922Y-81276376D01*
X150243971Y-81362395D01*
X150271284Y-81405862D01*
X150398838Y-81533416D01*
X150551578Y-81629389D01*
X150619406Y-81653123D01*
X150721845Y-81688968D01*
X150721850Y-81688969D01*
X150901096Y-81709165D01*
X150901100Y-81709165D01*
X150901104Y-81709165D01*
X151080349Y-81688969D01*
X151080352Y-81688968D01*
X151080355Y-81688968D01*
X151250622Y-81629389D01*
X151403362Y-81533416D01*
X151530916Y-81405862D01*
X151540278Y-81390961D01*
X151592610Y-81344671D01*
X151661664Y-81334021D01*
X151725513Y-81362395D01*
X151762314Y-81415979D01*
X151775310Y-81453121D01*
X151829172Y-81538841D01*
X151871284Y-81605862D01*
X151998838Y-81733416D01*
X152151578Y-81829389D01*
X152321845Y-81888968D01*
X152321850Y-81888969D01*
X152501096Y-81909165D01*
X152501100Y-81909165D01*
X152501104Y-81909165D01*
X152680349Y-81888969D01*
X152680352Y-81888968D01*
X152680355Y-81888968D01*
X152850622Y-81829389D01*
X153003362Y-81733416D01*
X153130916Y-81605862D01*
X153226889Y-81453122D01*
X153286468Y-81282855D01*
X153289818Y-81253122D01*
X153306665Y-81103603D01*
X153306665Y-81103596D01*
X153286469Y-80924350D01*
X153286468Y-80924345D01*
X153226888Y-80754076D01*
X153130915Y-80601337D01*
X153003362Y-80473784D01*
X152850623Y-80377811D01*
X152680354Y-80318231D01*
X152680350Y-80318230D01*
X152608182Y-80310099D01*
X152543768Y-80283032D01*
X152504213Y-80225437D01*
X152498846Y-80172995D01*
X152506665Y-80103602D01*
X152506665Y-80103596D01*
X152486469Y-79924350D01*
X152486468Y-79924345D01*
X152444889Y-79805519D01*
X152426889Y-79754078D01*
X152330916Y-79601338D01*
X152203362Y-79473784D01*
X152139013Y-79433351D01*
X152050624Y-79377812D01*
X152050623Y-79377811D01*
X152014251Y-79365084D01*
X151976542Y-79343896D01*
X151884170Y-79268088D01*
X151884169Y-79268087D01*
X151884165Y-79268084D01*
X151627609Y-79096657D01*
X151627608Y-79096656D01*
X151627606Y-79096655D01*
X151355490Y-78951203D01*
X151355488Y-78951202D01*
X151355486Y-78951201D01*
X151070417Y-78833118D01*
X151070413Y-78833116D01*
X151070404Y-78833113D01*
X151070397Y-78833111D01*
X150775151Y-78743546D01*
X150472524Y-78683344D01*
X150472520Y-78683343D01*
X150472517Y-78683343D01*
X150340008Y-78670289D01*
X150165439Y-78653092D01*
X150011167Y-78653090D01*
X150011166Y-78653090D01*
X149932285Y-78653088D01*
X149932284Y-78653088D01*
X149925850Y-78653088D01*
X149925624Y-78653100D01*
X145173250Y-78653100D01*
X145173087Y-78653108D01*
X145091561Y-78653108D01*
X145006201Y-78661514D01*
X144769826Y-78684794D01*
X144769824Y-78684794D01*
X144452728Y-78747866D01*
X144324871Y-78786651D01*
X144143341Y-78841717D01*
X144143339Y-78841717D01*
X144143335Y-78841719D01*
X143844660Y-78965433D01*
X143844646Y-78965439D01*
X143559523Y-79117839D01*
X143559512Y-79117845D01*
X143290690Y-79297465D01*
X143040783Y-79502559D01*
X142926476Y-79616864D01*
X142870701Y-79672640D01*
X142870696Y-79672645D01*
X139558373Y-82984957D01*
X139558250Y-82985091D01*
X139500070Y-83043273D01*
X139294969Y-83293190D01*
X139294959Y-83293204D01*
X139115351Y-83562007D01*
X139115340Y-83562025D01*
X138962947Y-83847135D01*
X138962940Y-83847149D01*
X138839220Y-84145835D01*
X138745369Y-84455228D01*
X138745366Y-84455240D01*
X138682299Y-84772307D01*
X138682296Y-84772325D01*
X138668406Y-84913366D01*
X138650760Y-85092544D01*
X138650610Y-85094064D01*
X138650610Y-92547433D01*
X138650345Y-92555543D01*
X138635832Y-92776973D01*
X138633714Y-92793055D01*
X138591220Y-93006681D01*
X138587023Y-93022347D01*
X138517004Y-93228621D01*
X138510796Y-93243607D01*
X138414457Y-93438962D01*
X138406347Y-93453009D01*
X138285331Y-93634123D01*
X138275457Y-93646991D01*
X138129203Y-93813761D01*
X138123656Y-93819684D01*
X137040783Y-94902550D01*
X137040767Y-94902565D01*
X136996411Y-94946904D01*
X136996321Y-94947010D01*
X136991133Y-94952198D01*
X136991116Y-94952216D01*
X136823878Y-95119386D01*
X136430450Y-95559459D01*
X136430422Y-95559492D01*
X136062277Y-96020959D01*
X135720587Y-96502357D01*
X135406439Y-97002153D01*
X135293626Y-97206208D01*
X135120806Y-97518801D01*
X135120801Y-97518809D01*
X135120800Y-97518813D01*
X134864605Y-98050640D01*
X134638642Y-98596002D01*
X134638631Y-98596029D01*
X134443610Y-99153202D01*
X134280138Y-99720459D01*
X134280134Y-99720475D01*
X134148745Y-100295968D01*
X134148736Y-100296011D01*
X134049829Y-100877973D01*
X133983715Y-101464589D01*
X133983713Y-101464610D01*
X133973558Y-101645388D01*
X133950602Y-102054024D01*
X133950601Y-102054033D01*
X133950600Y-102275269D01*
X133950600Y-106692320D01*
X133950578Y-106692391D01*
X133950578Y-107156523D01*
X133984700Y-107981463D01*
X134052887Y-108804274D01*
X134155026Y-109623561D01*
X134290941Y-110437939D01*
X134460401Y-111246005D01*
X134663113Y-112046366D01*
X134898731Y-112837663D01*
X135166853Y-113618542D01*
X135467030Y-114387693D01*
X135798743Y-115143784D01*
X136161408Y-115885484D01*
X136554428Y-116611582D01*
X136977118Y-117320804D01*
X137428770Y-118011962D01*
X137548541Y-118179675D01*
X137908599Y-118683858D01*
X138022714Y-118830440D01*
X138415788Y-119335346D01*
X138949474Y-119965317D01*
X139508722Y-120572671D01*
X139744085Y-120807973D01*
X139751179Y-120815693D01*
X139754942Y-120820152D01*
X139803858Y-120867746D01*
X139804995Y-120868866D01*
X139820603Y-120884471D01*
X139820614Y-120884482D01*
X141532006Y-122595874D01*
X141532016Y-122595885D01*
X141632101Y-122695981D01*
X141632142Y-122696011D01*
X141648712Y-122712581D01*
X141648775Y-122712637D01*
X141655118Y-122718981D01*
X141655123Y-122718986D01*
X141796465Y-122827449D01*
X141796467Y-122827450D01*
X141950766Y-122916540D01*
X142115374Y-122984727D01*
X142210892Y-123010322D01*
X142244762Y-123025100D01*
X142251588Y-123029389D01*
X142251590Y-123029390D01*
X142421847Y-123088966D01*
X142421853Y-123088967D01*
X142421855Y-123088968D01*
X142421856Y-123088968D01*
X142421860Y-123088969D01*
X142601106Y-123109165D01*
X142601110Y-123109165D01*
X142601114Y-123109165D01*
X142780359Y-123088969D01*
X142780362Y-123088968D01*
X142780365Y-123088968D01*
X142950632Y-123029389D01*
X143103372Y-122933416D01*
X143230926Y-122805862D01*
X143326899Y-122653122D01*
X143386478Y-122482855D01*
X143406675Y-122303600D01*
X143390458Y-122159671D01*
X143386479Y-122124350D01*
X143386478Y-122124345D01*
X143331222Y-121966433D01*
X143326899Y-121954078D01*
X143230926Y-121801338D01*
X143103372Y-121673784D01*
X143028867Y-121626969D01*
X142982577Y-121574635D01*
X142972251Y-121507672D01*
X156591646Y-121507672D01*
X156591646Y-121507685D01*
X156611132Y-121966420D01*
X156669456Y-122421882D01*
X156766193Y-122870743D01*
X156766195Y-122870751D01*
X156900648Y-123309785D01*
X156900650Y-123309791D01*
X157071846Y-123735829D01*
X157071850Y-123735840D01*
X157278560Y-124145824D01*
X157278570Y-124145842D01*
X157519315Y-124536837D01*
X157792351Y-124906006D01*
X157792359Y-124906015D01*
X157792362Y-124906019D01*
X158095710Y-125250688D01*
X158095712Y-125250690D01*
X158427210Y-125568406D01*
X158784459Y-125856864D01*
X159164884Y-126113987D01*
X159343044Y-126213512D01*
X159565734Y-126337915D01*
X159565756Y-126337926D01*
X159984144Y-126527050D01*
X159984149Y-126527052D01*
X160183687Y-126597553D01*
X160417089Y-126680019D01*
X160861440Y-126795719D01*
X161314003Y-126873319D01*
X161455632Y-126885373D01*
X161771497Y-126912258D01*
X161771514Y-126912258D01*
X161771516Y-126912259D01*
X161771517Y-126912259D01*
X162230683Y-126912259D01*
X162230684Y-126912259D01*
X162230685Y-126912258D01*
X162230702Y-126912258D01*
X162503004Y-126889081D01*
X162688197Y-126873319D01*
X163140760Y-126795719D01*
X163585111Y-126680019D01*
X164018050Y-126527052D01*
X164018055Y-126527050D01*
X164436443Y-126337926D01*
X164436445Y-126337924D01*
X164436456Y-126337920D01*
X164837316Y-126113987D01*
X165217741Y-125856864D01*
X165574990Y-125568406D01*
X165906488Y-125250690D01*
X166209849Y-124906006D01*
X166482885Y-124536837D01*
X166723630Y-124145842D01*
X166930349Y-123735840D01*
X167101552Y-123309783D01*
X167236007Y-122870743D01*
X167332744Y-122421881D01*
X167391066Y-121966433D01*
X167392773Y-121926266D01*
X167410554Y-121507685D01*
X167410554Y-121507672D01*
X167391067Y-121048937D01*
X167391066Y-121048931D01*
X167391066Y-121048925D01*
X167332744Y-120593477D01*
X167236007Y-120144615D01*
X167101552Y-119705575D01*
X167101551Y-119705572D01*
X167101549Y-119705566D01*
X166930353Y-119279528D01*
X166930349Y-119279517D01*
X166723639Y-118869533D01*
X166723628Y-118869513D01*
X166699367Y-118830110D01*
X166482885Y-118478521D01*
X166209849Y-118109352D01*
X166043751Y-117920629D01*
X165906489Y-117764669D01*
X165906488Y-117764668D01*
X165574992Y-117446954D01*
X165574990Y-117446952D01*
X165217741Y-117158494D01*
X164837316Y-116901371D01*
X164826792Y-116895492D01*
X164436465Y-116677442D01*
X164436443Y-116677431D01*
X164018055Y-116488307D01*
X164018050Y-116488305D01*
X163585106Y-116335337D01*
X163140758Y-116219638D01*
X162688207Y-116142040D01*
X162688181Y-116142037D01*
X162230702Y-116103099D01*
X162230684Y-116103099D01*
X161771516Y-116103099D01*
X161771497Y-116103099D01*
X161314018Y-116142037D01*
X161313992Y-116142040D01*
X160861441Y-116219638D01*
X160417093Y-116335337D01*
X159984149Y-116488305D01*
X159984144Y-116488307D01*
X159565756Y-116677431D01*
X159565734Y-116677442D01*
X159164892Y-116901366D01*
X159164873Y-116901378D01*
X158784464Y-117158490D01*
X158427207Y-117446954D01*
X158095711Y-117764668D01*
X158095710Y-117764669D01*
X157792362Y-118109338D01*
X157792355Y-118109347D01*
X157792351Y-118109352D01*
X157597788Y-118372417D01*
X157519314Y-118478522D01*
X157278571Y-118869513D01*
X157278560Y-118869533D01*
X157071850Y-119279517D01*
X157071846Y-119279528D01*
X156900650Y-119705566D01*
X156900648Y-119705572D01*
X156766195Y-120144606D01*
X156766193Y-120144614D01*
X156669456Y-120593475D01*
X156611132Y-121048937D01*
X156591646Y-121507672D01*
X142972251Y-121507672D01*
X142971929Y-121505581D01*
X143000304Y-121441733D01*
X143058694Y-121403361D01*
X143108723Y-121398756D01*
X143201106Y-121409165D01*
X143201110Y-121409165D01*
X143201114Y-121409165D01*
X143380359Y-121388969D01*
X143380362Y-121388968D01*
X143380365Y-121388968D01*
X143550632Y-121329389D01*
X143703372Y-121233416D01*
X143830926Y-121105862D01*
X143926899Y-120953122D01*
X143986478Y-120782855D01*
X144006675Y-120603600D01*
X144005534Y-120593477D01*
X143986479Y-120424350D01*
X143986478Y-120424345D01*
X143926898Y-120254076D01*
X143830925Y-120101337D01*
X143703372Y-119973784D01*
X143550633Y-119877811D01*
X143380364Y-119818231D01*
X143380359Y-119818230D01*
X143201114Y-119798035D01*
X143201106Y-119798035D01*
X143021857Y-119818231D01*
X143016928Y-119819356D01*
X142960397Y-119819037D01*
X142920296Y-119809410D01*
X142901789Y-119803397D01*
X142783627Y-119754452D01*
X142766290Y-119745618D01*
X142657244Y-119678794D01*
X142641501Y-119667356D01*
X142540492Y-119581084D01*
X142533342Y-119574475D01*
X142475677Y-119516808D01*
X142475660Y-119516793D01*
X140786730Y-117827854D01*
X140786676Y-117827793D01*
X140782581Y-117823700D01*
X140775468Y-117815961D01*
X140771679Y-117811471D01*
X140771674Y-117811464D01*
X140725939Y-117766965D01*
X140722618Y-117763608D01*
X140210694Y-117226084D01*
X140206605Y-117221574D01*
X139720888Y-116658658D01*
X139717025Y-116653953D01*
X139587716Y-116488305D01*
X139259505Y-116067857D01*
X139255884Y-116062976D01*
X139130849Y-115885487D01*
X138827684Y-115455138D01*
X138824302Y-115450077D01*
X138426459Y-114821972D01*
X138423329Y-114816751D01*
X138180211Y-114387693D01*
X138056782Y-114169865D01*
X138053930Y-114164531D01*
X137719555Y-113500396D01*
X137716959Y-113494908D01*
X137699990Y-113456635D01*
X137415599Y-112815201D01*
X137413277Y-112809597D01*
X137372573Y-112704100D01*
X137262685Y-112419287D01*
X137145635Y-112115913D01*
X137143584Y-112110182D01*
X137105858Y-111996009D01*
X136910303Y-111404180D01*
X136908557Y-111398425D01*
X136800798Y-111009113D01*
X144300620Y-111009113D01*
X144300620Y-111598086D01*
X144330179Y-111784718D01*
X144388574Y-111964436D01*
X144462836Y-112110182D01*
X144474360Y-112132799D01*
X144585430Y-112285673D01*
X144719047Y-112419290D01*
X144871921Y-112530360D01*
X144951467Y-112570890D01*
X145040283Y-112616145D01*
X145040285Y-112616145D01*
X145040288Y-112616147D01*
X145136617Y-112647446D01*
X145220001Y-112674540D01*
X145406634Y-112704100D01*
X145406639Y-112704100D01*
X145595606Y-112704100D01*
X145782238Y-112674540D01*
X145961952Y-112616147D01*
X146130319Y-112530360D01*
X146283193Y-112419290D01*
X146416810Y-112285673D01*
X146527880Y-112132799D01*
X146613667Y-111964432D01*
X146672060Y-111784718D01*
X146682611Y-111718100D01*
X146701620Y-111598086D01*
X146701620Y-111009113D01*
X146672060Y-110822481D01*
X146613665Y-110642763D01*
X146527879Y-110474400D01*
X146501390Y-110437941D01*
X146416810Y-110321527D01*
X146283193Y-110187910D01*
X146130319Y-110076840D01*
X145961956Y-109991054D01*
X145782238Y-109932659D01*
X145595606Y-109903100D01*
X145595601Y-109903100D01*
X145406639Y-109903100D01*
X145406634Y-109903100D01*
X145220001Y-109932659D01*
X145040283Y-109991054D01*
X144871920Y-110076840D01*
X144816465Y-110117131D01*
X144719047Y-110187910D01*
X144719045Y-110187912D01*
X144719044Y-110187912D01*
X144585432Y-110321524D01*
X144585432Y-110321525D01*
X144585430Y-110321527D01*
X144537730Y-110387179D01*
X144474360Y-110474400D01*
X144388574Y-110642763D01*
X144330179Y-110822481D01*
X144300620Y-111009113D01*
X136800798Y-111009113D01*
X136710209Y-110681835D01*
X136708731Y-110675937D01*
X136693881Y-110609819D01*
X136545788Y-109950470D01*
X136544609Y-109944540D01*
X136417465Y-109211936D01*
X136416575Y-109205933D01*
X136386500Y-108962139D01*
X136325544Y-108468015D01*
X136324949Y-108461969D01*
X136292259Y-108018873D01*
X136270243Y-107720461D01*
X136269945Y-107714396D01*
X136269413Y-107692716D01*
X136251652Y-106969296D01*
X136251617Y-106965828D01*
X136251930Y-106895204D01*
X136251929Y-106895200D01*
X136251939Y-106893007D01*
X136251610Y-106885983D01*
X136251610Y-102206992D01*
X136251940Y-102199947D01*
X136251930Y-102197765D01*
X136251931Y-102197762D01*
X136251617Y-102127259D01*
X136251681Y-102122747D01*
X136267047Y-101653484D01*
X136267578Y-101645388D01*
X136313427Y-101180005D01*
X136314487Y-101171957D01*
X136390684Y-100710582D01*
X136392268Y-100702621D01*
X136392872Y-100700032D01*
X136498494Y-100247186D01*
X136500587Y-100239381D01*
X136636381Y-99791877D01*
X136638988Y-99784203D01*
X136803770Y-99346537D01*
X136806851Y-99339100D01*
X136999922Y-98913135D01*
X137003510Y-98905864D01*
X137224025Y-98493464D01*
X137228064Y-98486472D01*
X137475090Y-98089380D01*
X137479580Y-98082661D01*
X137752059Y-97702576D01*
X137756999Y-97696143D01*
X137838782Y-97596535D01*
X138053745Y-97334717D01*
X138059093Y-97328623D01*
X138379827Y-96986344D01*
X138382620Y-96983459D01*
X138437426Y-96928682D01*
X138437428Y-96928678D01*
X138442006Y-96924103D01*
X138442285Y-96923791D01*
X139951528Y-95414547D01*
X139951547Y-95414537D01*
X139987854Y-95378228D01*
X139987855Y-95378229D01*
X140102159Y-95263923D01*
X140307260Y-95014004D01*
X140486877Y-94745186D01*
X140639280Y-94460056D01*
X140763001Y-94161362D01*
X140856850Y-93851979D01*
X140919922Y-93534886D01*
X140951610Y-93213139D01*
X140951610Y-93051487D01*
X140951610Y-92972606D01*
X140951610Y-86584758D01*
X140971295Y-86517719D01*
X141024099Y-86471964D01*
X141093257Y-86462020D01*
X141156813Y-86491045D01*
X141166339Y-86500968D01*
X141166370Y-86500938D01*
X141171294Y-86505862D01*
X141298848Y-86633416D01*
X141389190Y-86690182D01*
X141436602Y-86719973D01*
X141451588Y-86729389D01*
X141621855Y-86788968D01*
X141621860Y-86788969D01*
X141801106Y-86809165D01*
X141801110Y-86809165D01*
X141801114Y-86809165D01*
X141980359Y-86788969D01*
X141980362Y-86788968D01*
X141980365Y-86788968D01*
X142150632Y-86729389D01*
X142303372Y-86633416D01*
X142430926Y-86505862D01*
X142526899Y-86353122D01*
X142586478Y-86182855D01*
X142587449Y-86174236D01*
X142606675Y-86003603D01*
X142606675Y-86003596D01*
X142586479Y-85824350D01*
X142586478Y-85824345D01*
X142526899Y-85654078D01*
X142514355Y-85634115D01*
X142430925Y-85501337D01*
X142303372Y-85373784D01*
X142150633Y-85277811D01*
X141980364Y-85218231D01*
X141980359Y-85218230D01*
X141801114Y-85198035D01*
X141801106Y-85198035D01*
X141621860Y-85218230D01*
X141621855Y-85218231D01*
X141451586Y-85277811D01*
X141298849Y-85373783D01*
X141172977Y-85499655D01*
X141111654Y-85533139D01*
X141041962Y-85528155D01*
X140986029Y-85486283D01*
X140961612Y-85420819D01*
X140961561Y-85403872D01*
X140966388Y-85330217D01*
X140968503Y-85314160D01*
X141011001Y-85100508D01*
X141015198Y-85084848D01*
X141085219Y-84878573D01*
X141091416Y-84863613D01*
X141187766Y-84668235D01*
X141195869Y-84654200D01*
X141316897Y-84473069D01*
X141326754Y-84460224D01*
X141473096Y-84293353D01*
X141478617Y-84287459D01*
X142532888Y-83233184D01*
X142594209Y-83199701D01*
X142663900Y-83204685D01*
X142719834Y-83246556D01*
X142744251Y-83312021D01*
X142737609Y-83361820D01*
X142715733Y-83424339D01*
X142715730Y-83424350D01*
X142695535Y-83603596D01*
X142695535Y-83603603D01*
X142715730Y-83782849D01*
X142715731Y-83782854D01*
X142775311Y-83953123D01*
X142809392Y-84007362D01*
X142871284Y-84105862D01*
X142998838Y-84233416D01*
X143151578Y-84329389D01*
X143321845Y-84388968D01*
X143355835Y-84392797D01*
X143410840Y-84412913D01*
X143629624Y-84559098D01*
X143902649Y-84705032D01*
X144188664Y-84823501D01*
X144484914Y-84913366D01*
X144788546Y-84973760D01*
X145096636Y-85004101D01*
X145251425Y-85004100D01*
X145427976Y-85004100D01*
X145495015Y-85023785D01*
X145540770Y-85076589D01*
X145550714Y-85145747D01*
X145547193Y-85162203D01*
X145532431Y-85213796D01*
X145521635Y-85251526D01*
X145511610Y-85364294D01*
X145511610Y-86362900D01*
X145511611Y-86362906D01*
X145521635Y-86475673D01*
X145574506Y-86660451D01*
X145574507Y-86660454D01*
X145574508Y-86660455D01*
X145663493Y-86830808D01*
X145784948Y-86979762D01*
X145933902Y-87101217D01*
X145989303Y-87130156D01*
X146039610Y-87178642D01*
X146055717Y-87246629D01*
X146032511Y-87312533D01*
X146008054Y-87337917D01*
X145956804Y-87377806D01*
X145956799Y-87377811D01*
X145800838Y-87547229D01*
X145674892Y-87740005D01*
X145582392Y-87950885D01*
X145525863Y-88174115D01*
X145506848Y-88403594D01*
X145506848Y-88403605D01*
X145525863Y-88633084D01*
X145582392Y-88856314D01*
X145674892Y-89067194D01*
X145800838Y-89259970D01*
X145800841Y-89259973D01*
X145956802Y-89429392D01*
X146039212Y-89493534D01*
X146142569Y-89573980D01*
X146141586Y-89575241D01*
X146182293Y-89622949D01*
X146191710Y-89692181D01*
X146162202Y-89755514D01*
X146142246Y-89772805D01*
X146142569Y-89773220D01*
X145956804Y-89917806D01*
X145956799Y-89917811D01*
X145800838Y-90087229D01*
X145674892Y-90280005D01*
X145582392Y-90490885D01*
X145525863Y-90714115D01*
X145506848Y-90943594D01*
X145506848Y-90943605D01*
X145525863Y-91173084D01*
X145582392Y-91396314D01*
X145674892Y-91607194D01*
X145803646Y-91804267D01*
X145802229Y-91805192D01*
X145825116Y-91863229D01*
X145825618Y-91874367D01*
X145825620Y-91899072D01*
X145825620Y-94784574D01*
X145805935Y-94851613D01*
X145753131Y-94897368D01*
X145687738Y-94907794D01*
X145601115Y-94898035D01*
X145601106Y-94898035D01*
X145421860Y-94918230D01*
X145421855Y-94918231D01*
X145251586Y-94977811D01*
X145098847Y-95073784D01*
X144971294Y-95201337D01*
X144875321Y-95354076D01*
X144815741Y-95524345D01*
X144815740Y-95524350D01*
X144795545Y-95703596D01*
X144795545Y-95703603D01*
X144815740Y-95882849D01*
X144815741Y-95882854D01*
X144875321Y-96053123D01*
X144946133Y-96165819D01*
X144971294Y-96205862D01*
X145098848Y-96333416D01*
X145251588Y-96429389D01*
X145421855Y-96488968D01*
X145421860Y-96488969D01*
X145601106Y-96509165D01*
X145601110Y-96509165D01*
X145601114Y-96509165D01*
X145687737Y-96499405D01*
X145756558Y-96511459D01*
X145807938Y-96558809D01*
X145825620Y-96622625D01*
X145825620Y-97447298D01*
X145805935Y-97514337D01*
X145774507Y-97547615D01*
X145719047Y-97587909D01*
X145719044Y-97587912D01*
X145588801Y-97718156D01*
X145527478Y-97751641D01*
X145457786Y-97746657D01*
X145413439Y-97718156D01*
X145283195Y-97587912D01*
X145283193Y-97587910D01*
X145130319Y-97476840D01*
X145076373Y-97449353D01*
X144961956Y-97391054D01*
X144782238Y-97332659D01*
X144595606Y-97303100D01*
X144595601Y-97303100D01*
X144406639Y-97303100D01*
X144406634Y-97303100D01*
X144220001Y-97332659D01*
X144040283Y-97391054D01*
X143871920Y-97476840D01*
X143825621Y-97510479D01*
X143719047Y-97587910D01*
X143719045Y-97587912D01*
X143719044Y-97587912D01*
X143585432Y-97721524D01*
X143585432Y-97721525D01*
X143585430Y-97721527D01*
X143567172Y-97746657D01*
X143474360Y-97874400D01*
X143388574Y-98042763D01*
X143330179Y-98222481D01*
X143300620Y-98409113D01*
X143300620Y-98998086D01*
X143330179Y-99184718D01*
X143388574Y-99364436D01*
X143435540Y-99456611D01*
X143474360Y-99532799D01*
X143585430Y-99685673D01*
X143719047Y-99819290D01*
X143871921Y-99930360D01*
X143902548Y-99945965D01*
X144040283Y-100016145D01*
X144040285Y-100016145D01*
X144040288Y-100016147D01*
X144136617Y-100047446D01*
X144220001Y-100074540D01*
X144406634Y-100104100D01*
X144406639Y-100104100D01*
X144595606Y-100104100D01*
X144782238Y-100074540D01*
X144817954Y-100062935D01*
X144961952Y-100016147D01*
X145130319Y-99930360D01*
X145283193Y-99819290D01*
X145413439Y-99689044D01*
X145474762Y-99655559D01*
X145544454Y-99660543D01*
X145588801Y-99689044D01*
X145719047Y-99819290D01*
X145871921Y-99930360D01*
X145902548Y-99945965D01*
X146040283Y-100016145D01*
X146040285Y-100016145D01*
X146040288Y-100016147D01*
X146136617Y-100047446D01*
X146220001Y-100074540D01*
X146406634Y-100104100D01*
X146406639Y-100104100D01*
X146595606Y-100104100D01*
X146782238Y-100074540D01*
X146817954Y-100062935D01*
X146961952Y-100016147D01*
X147130319Y-99930360D01*
X147283193Y-99819290D01*
X147413439Y-99689044D01*
X147474762Y-99655559D01*
X147544454Y-99660543D01*
X147588801Y-99689044D01*
X147719047Y-99819290D01*
X147871921Y-99930360D01*
X147902548Y-99945965D01*
X148040283Y-100016145D01*
X148040285Y-100016145D01*
X148040288Y-100016147D01*
X148136617Y-100047446D01*
X148220001Y-100074540D01*
X148406634Y-100104100D01*
X148406639Y-100104100D01*
X148595606Y-100104100D01*
X148782238Y-100074540D01*
X148817954Y-100062935D01*
X148961952Y-100016147D01*
X149130319Y-99930360D01*
X149283193Y-99819290D01*
X149413439Y-99689044D01*
X149474762Y-99655559D01*
X149544454Y-99660543D01*
X149588801Y-99689044D01*
X149719047Y-99819290D01*
X149733315Y-99829656D01*
X149775981Y-99884984D01*
X149781961Y-99954598D01*
X149749355Y-100016393D01*
X149692526Y-100049748D01*
X149643323Y-100062932D01*
X149643310Y-100062936D01*
X149530214Y-100104100D01*
X149218635Y-100217506D01*
X149218631Y-100217507D01*
X149218625Y-100217510D01*
X149218617Y-100217513D01*
X148809052Y-100408497D01*
X148809036Y-100408505D01*
X148417664Y-100634464D01*
X148417638Y-100634480D01*
X148047451Y-100893688D01*
X147701249Y-101184188D01*
X147381688Y-101503749D01*
X147091188Y-101849951D01*
X146831980Y-102220138D01*
X146831964Y-102220164D01*
X146606005Y-102611536D01*
X146605997Y-102611552D01*
X146415013Y-103021117D01*
X146415010Y-103021125D01*
X146260431Y-103445824D01*
X146143468Y-103882342D01*
X146143465Y-103882355D01*
X146064988Y-104327415D01*
X146025600Y-104777628D01*
X146025600Y-105229571D01*
X146064988Y-105679784D01*
X146143465Y-106124844D01*
X146143468Y-106124857D01*
X146260431Y-106561375D01*
X146260434Y-106561385D01*
X146260435Y-106561386D01*
X146415006Y-106986065D01*
X146415009Y-106986072D01*
X146415010Y-106986074D01*
X146415013Y-106986082D01*
X146605997Y-107395647D01*
X146606005Y-107395663D01*
X146666985Y-107501283D01*
X146831969Y-107787044D01*
X146831973Y-107787050D01*
X146831980Y-107787061D01*
X147091188Y-108157248D01*
X147133330Y-108207470D01*
X147381686Y-108503448D01*
X147701252Y-108823014D01*
X147845197Y-108943798D01*
X148047451Y-109113511D01*
X148417638Y-109372719D01*
X148417645Y-109372723D01*
X148417656Y-109372731D01*
X148713236Y-109543384D01*
X148809036Y-109598694D01*
X148809051Y-109598702D01*
X149114586Y-109741175D01*
X149167025Y-109787347D01*
X149186177Y-109854541D01*
X149165961Y-109921422D01*
X149112796Y-109966756D01*
X149100502Y-109971487D01*
X149040286Y-109991053D01*
X148871920Y-110076840D01*
X148816465Y-110117131D01*
X148719047Y-110187910D01*
X148719045Y-110187912D01*
X148719044Y-110187912D01*
X148585432Y-110321524D01*
X148585432Y-110321525D01*
X148585430Y-110321527D01*
X148537730Y-110387179D01*
X148474360Y-110474400D01*
X148388574Y-110642763D01*
X148330179Y-110822481D01*
X148300620Y-111009113D01*
X148300620Y-111598086D01*
X148330179Y-111784718D01*
X148388574Y-111964436D01*
X148462836Y-112110182D01*
X148474360Y-112132799D01*
X148585430Y-112285673D01*
X148719047Y-112419290D01*
X148871921Y-112530360D01*
X148951467Y-112570890D01*
X149040283Y-112616145D01*
X149040285Y-112616145D01*
X149040288Y-112616147D01*
X149136617Y-112647446D01*
X149220001Y-112674540D01*
X149406634Y-112704100D01*
X149406639Y-112704100D01*
X149595606Y-112704100D01*
X149782238Y-112674540D01*
X149961952Y-112616147D01*
X150130319Y-112530360D01*
X150283193Y-112419290D01*
X150413439Y-112289044D01*
X150474762Y-112255559D01*
X150544454Y-112260543D01*
X150588801Y-112289044D01*
X150719047Y-112419290D01*
X150871921Y-112530360D01*
X150951467Y-112570890D01*
X151040283Y-112616145D01*
X151040285Y-112616145D01*
X151040288Y-112616147D01*
X151136617Y-112647446D01*
X151220001Y-112674540D01*
X151406634Y-112704100D01*
X151406639Y-112704100D01*
X151595606Y-112704100D01*
X151782238Y-112674540D01*
X151961952Y-112616147D01*
X152130319Y-112530360D01*
X152283193Y-112419290D01*
X152416810Y-112285673D01*
X152527880Y-112132799D01*
X152571696Y-112046805D01*
X152619671Y-111996009D01*
X152682181Y-111979100D01*
X163610865Y-111979100D01*
X163611044Y-111979110D01*
X163617889Y-111979110D01*
X163642623Y-111979110D01*
X163642646Y-111979117D01*
X163694000Y-111979120D01*
X163694000Y-111979121D01*
X163812976Y-111979131D01*
X164049437Y-111952531D01*
X164281442Y-111899664D01*
X164506083Y-111821193D01*
X164720543Y-111718102D01*
X164922136Y-111591683D01*
X165108332Y-111443520D01*
X165133846Y-111418063D01*
X165134589Y-111417402D01*
X165139147Y-111412846D01*
X165139153Y-111412843D01*
X165183272Y-111368752D01*
X165192558Y-111359489D01*
X165246443Y-111305738D01*
X165246444Y-111305734D01*
X165250538Y-111301652D01*
X165252036Y-111299975D01*
X165355365Y-111196713D01*
X165656181Y-110849760D01*
X165811224Y-110642763D01*
X165931459Y-110482238D01*
X165931462Y-110482232D01*
X165931469Y-110482224D01*
X166179825Y-110095977D01*
X166399982Y-109692991D01*
X166590817Y-109275321D01*
X166751357Y-108845096D01*
X166880784Y-108404511D01*
X166978437Y-107955812D01*
X167043818Y-107501288D01*
X167052926Y-107374010D01*
X167077346Y-107308548D01*
X167133281Y-107266679D01*
X167202973Y-107261697D01*
X167264295Y-107295184D01*
X167297777Y-107356509D01*
X167300610Y-107382862D01*
X167300610Y-113248354D01*
X167300013Y-113260507D01*
X167295769Y-113303599D01*
X167300013Y-113346690D01*
X167300610Y-113358844D01*
X167300610Y-113402144D01*
X167309055Y-113444606D01*
X167310840Y-113456635D01*
X167315085Y-113499730D01*
X167315086Y-113499734D01*
X167327657Y-113541175D01*
X167330613Y-113552978D01*
X167339056Y-113595427D01*
X167339058Y-113595434D01*
X167355627Y-113635434D01*
X167359722Y-113646877D01*
X167372296Y-113688326D01*
X167372297Y-113688329D01*
X167392707Y-113726513D01*
X167397910Y-113737515D01*
X167414478Y-113777514D01*
X167414480Y-113777518D01*
X167438535Y-113813518D01*
X167444788Y-113823950D01*
X167456058Y-113845036D01*
X167465198Y-113862135D01*
X167465204Y-113862143D01*
X167492662Y-113895602D01*
X167499909Y-113905372D01*
X167523970Y-113941381D01*
X167523972Y-113941383D01*
X167523975Y-113941387D01*
X167554589Y-113972001D01*
X167562761Y-113981016D01*
X167590227Y-114014483D01*
X167623689Y-114041945D01*
X167623691Y-114041946D01*
X167632709Y-114050120D01*
X167663324Y-114080736D01*
X167663327Y-114080738D01*
X167663328Y-114080739D01*
X167699327Y-114104793D01*
X167699329Y-114104794D01*
X167709098Y-114112038D01*
X167742572Y-114139510D01*
X167780750Y-114159916D01*
X167791188Y-114166172D01*
X167792764Y-114167225D01*
X167827196Y-114190232D01*
X167867205Y-114206803D01*
X167878201Y-114212004D01*
X167916383Y-114232414D01*
X167957820Y-114244983D01*
X167969270Y-114249080D01*
X168009275Y-114265651D01*
X168051750Y-114274099D01*
X168063524Y-114277048D01*
X168104978Y-114289624D01*
X168148074Y-114293868D01*
X168160100Y-114295652D01*
X168190590Y-114301717D01*
X168202568Y-114304100D01*
X168202569Y-114304100D01*
X168245866Y-114304100D01*
X168258019Y-114304696D01*
X168301110Y-114308941D01*
X168344200Y-114304696D01*
X168356354Y-114304100D01*
X168399652Y-114304100D01*
X168415564Y-114300934D01*
X168442115Y-114295653D01*
X168454147Y-114293868D01*
X168497242Y-114289624D01*
X168538690Y-114277050D01*
X168550463Y-114274100D01*
X168592945Y-114265651D01*
X168632957Y-114249076D01*
X168644390Y-114244986D01*
X168685837Y-114232414D01*
X168724028Y-114211999D01*
X168735020Y-114206801D01*
X168775024Y-114190232D01*
X168811048Y-114166160D01*
X168821461Y-114159920D01*
X168847701Y-114145895D01*
X168859645Y-114139512D01*
X168859649Y-114139509D01*
X168893115Y-114112044D01*
X168902892Y-114104793D01*
X168938891Y-114080740D01*
X168938893Y-114080738D01*
X168938895Y-114080736D01*
X168969518Y-114050112D01*
X168978512Y-114041959D01*
X169011993Y-114014483D01*
X169039469Y-113981002D01*
X169047622Y-113972008D01*
X169078249Y-113941382D01*
X169102310Y-113905372D01*
X169109554Y-113895605D01*
X169137019Y-113862139D01*
X169137022Y-113862135D01*
X169143405Y-113850191D01*
X169157430Y-113823951D01*
X169163670Y-113813538D01*
X169187742Y-113777514D01*
X169204312Y-113737506D01*
X169209512Y-113726513D01*
X169229924Y-113688327D01*
X169242496Y-113646880D01*
X169246586Y-113635447D01*
X169262041Y-113598138D01*
X169305883Y-113543738D01*
X169372178Y-113521675D01*
X169439876Y-113538956D01*
X169487485Y-113590095D01*
X169500600Y-113645596D01*
X169500600Y-118756620D01*
X169500452Y-118758905D01*
X169500597Y-118829681D01*
X169500551Y-118833316D01*
X169485504Y-119384791D01*
X169485092Y-119392051D01*
X169437906Y-119939824D01*
X169437070Y-119947048D01*
X169357851Y-120491129D01*
X169356593Y-120498291D01*
X169245617Y-121036797D01*
X169243941Y-121043873D01*
X169101590Y-121574942D01*
X169099502Y-121581908D01*
X168926264Y-122103721D01*
X168923771Y-122110553D01*
X168720241Y-122621316D01*
X168717352Y-122627989D01*
X168484237Y-123125930D01*
X168480963Y-123132423D01*
X168219056Y-123615852D01*
X168215405Y-123622141D01*
X167925607Y-124089389D01*
X167921595Y-124095454D01*
X167604908Y-124544908D01*
X167600547Y-124550728D01*
X167258059Y-124980842D01*
X167253364Y-124986395D01*
X166886253Y-125395692D01*
X166881241Y-125400961D01*
X166490767Y-125788035D01*
X166485455Y-125793001D01*
X166072430Y-126156989D01*
X166067979Y-126160729D01*
X165317849Y-126761745D01*
X165314401Y-126764409D01*
X164543095Y-127339092D01*
X164539557Y-127341634D01*
X163748497Y-127888895D01*
X163744870Y-127891310D01*
X162935118Y-128410412D01*
X162931410Y-128412699D01*
X162103876Y-128903059D01*
X162100089Y-128905214D01*
X161255849Y-129366195D01*
X161251989Y-129368215D01*
X160392101Y-129799240D01*
X160388172Y-129801124D01*
X159513644Y-130201686D01*
X159509652Y-130203430D01*
X158621610Y-130573015D01*
X158617559Y-130574618D01*
X157717073Y-130912780D01*
X157712967Y-130914240D01*
X156801178Y-131220551D01*
X156797025Y-131221866D01*
X155875000Y-131495967D01*
X155870802Y-131497135D01*
X154940044Y-131738590D01*
X154935075Y-131739770D01*
X154501774Y-131833316D01*
X154496019Y-131834417D01*
X154059101Y-131907339D01*
X154053302Y-131908167D01*
X153613415Y-131960372D01*
X153607582Y-131960925D01*
X153165709Y-131992295D01*
X153159858Y-131992571D01*
X152725575Y-132002833D01*
X152715834Y-132003064D01*
X152712906Y-132003099D01*
X152640612Y-132003099D01*
X152640596Y-132003100D01*
X144289348Y-132003100D01*
X144286419Y-132003065D01*
X144271642Y-132002715D01*
X143842187Y-131992567D01*
X143836335Y-131992291D01*
X143394503Y-131960922D01*
X143388671Y-131960369D01*
X142948833Y-131908167D01*
X142943033Y-131907339D01*
X142506157Y-131834421D01*
X142500402Y-131833320D01*
X142067132Y-131739775D01*
X142062164Y-131738595D01*
X141131393Y-131497141D01*
X141127196Y-131495973D01*
X140205184Y-131221880D01*
X140201030Y-131220565D01*
X139289246Y-130914260D01*
X139285141Y-130912801D01*
X138384611Y-130574626D01*
X138380560Y-130573022D01*
X137492550Y-130203454D01*
X137488557Y-130201710D01*
X136614018Y-129801144D01*
X136610089Y-129799260D01*
X135750198Y-129368236D01*
X135746338Y-129366216D01*
X134902096Y-128905235D01*
X134898309Y-128903080D01*
X134070774Y-128412719D01*
X134067066Y-128410432D01*
X133257326Y-127891337D01*
X133253700Y-127888922D01*
X132462612Y-127341642D01*
X132459073Y-127339100D01*
X131687779Y-126764425D01*
X131684331Y-126761761D01*
X130934608Y-126161068D01*
X130930155Y-126157326D01*
X130516675Y-125792920D01*
X130511362Y-125787953D01*
X130120816Y-125400781D01*
X130115803Y-125395511D01*
X129985920Y-125250690D01*
X129748620Y-124986097D01*
X129743927Y-124980544D01*
X129401390Y-124550318D01*
X129397028Y-124544497D01*
X129080304Y-124094927D01*
X129076291Y-124088861D01*
X128786461Y-123621480D01*
X128782814Y-123615193D01*
X128617392Y-123309791D01*
X128520889Y-123131628D01*
X128517618Y-123125142D01*
X128510140Y-123109165D01*
X128284494Y-122627048D01*
X128281606Y-122620373D01*
X128098584Y-122160925D01*
X128078092Y-122109483D01*
X128075604Y-122102663D01*
X127902377Y-121580666D01*
X127900307Y-121573755D01*
X127757993Y-121042537D01*
X127756318Y-121035463D01*
X127645388Y-120496787D01*
X127644139Y-120489664D01*
X127564983Y-119945408D01*
X127564153Y-119938231D01*
X127517045Y-119390280D01*
X127516636Y-119383029D01*
X127501652Y-118830110D01*
X127501606Y-118826474D01*
X127501697Y-118785566D01*
X127501746Y-118763767D01*
X127501745Y-118763764D01*
X127501760Y-118757145D01*
X127501600Y-118754650D01*
X127501600Y-91157966D01*
X127501653Y-91154339D01*
X127507820Y-90943605D01*
X127517753Y-90604204D01*
X127518174Y-90597008D01*
X127566268Y-90050510D01*
X127567107Y-90043373D01*
X127647077Y-89500642D01*
X127648331Y-89493568D01*
X127759903Y-88956451D01*
X127761572Y-88949448D01*
X127904370Y-88419759D01*
X127906460Y-88412824D01*
X127909538Y-88403594D01*
X128079975Y-87892441D01*
X128082448Y-87885688D01*
X128286121Y-87376291D01*
X128288992Y-87369681D01*
X128522091Y-86873105D01*
X128525346Y-86866667D01*
X128787091Y-86384566D01*
X128790735Y-86378301D01*
X129080215Y-85912354D01*
X129084197Y-85906343D01*
X129400472Y-85458066D01*
X129404775Y-85452332D01*
X129746714Y-85023334D01*
X129751347Y-85017858D01*
X130117803Y-84609578D01*
X130122754Y-84604377D01*
X130512422Y-84218265D01*
X130517716Y-84213318D01*
X130930346Y-83849733D01*
X130934736Y-83846045D01*
X131684369Y-83245427D01*
X131687777Y-83242795D01*
X132459123Y-82668081D01*
X132462617Y-82665570D01*
X133253747Y-82118263D01*
X133257281Y-82115910D01*
X134067115Y-81596757D01*
X134070780Y-81594497D01*
X134898336Y-81104125D01*
X134902075Y-81101997D01*
X135746400Y-80640972D01*
X135750165Y-80639002D01*
X136610148Y-80207934D01*
X136613990Y-80206091D01*
X137488597Y-79805497D01*
X137492494Y-79803794D01*
X138380664Y-79434161D01*
X138384585Y-79432609D01*
X139285147Y-79094425D01*
X139289220Y-79092976D01*
X140201104Y-78786640D01*
X140205191Y-78785347D01*
X141127238Y-78511246D01*
X141131394Y-78510090D01*
X141614365Y-78384802D01*
X142063035Y-78268414D01*
X142067991Y-78267235D01*
X142500483Y-78173867D01*
X142506181Y-78172778D01*
X142943154Y-78099849D01*
X142948913Y-78099026D01*
X143388871Y-78046815D01*
X143394636Y-78046269D01*
X143836583Y-78014897D01*
X143842394Y-78014622D01*
X144286418Y-78004134D01*
X144289344Y-78004100D01*
X144354087Y-78004101D01*
X144354091Y-78004100D01*
X152648408Y-78004100D01*
X152712851Y-78004100D01*
X152715780Y-78004134D01*
G37*
%TD.AperFunction*%
%TA.AperFunction,Conductor*%
G36*
X151464784Y-85169800D02*
G01*
X151470431Y-85170589D01*
X152254049Y-85298421D01*
X152259649Y-85299468D01*
X153036587Y-85463367D01*
X153042116Y-85464668D01*
X153810644Y-85664272D01*
X153816088Y-85665821D01*
X154574541Y-85900696D01*
X154579972Y-85902516D01*
X154884800Y-86012582D01*
X155326782Y-86172172D01*
X155332107Y-86174236D01*
X156065647Y-86478089D01*
X156070881Y-86480399D01*
X156601263Y-86729388D01*
X156789608Y-86817807D01*
X156794737Y-86820361D01*
X157497091Y-87190591D01*
X157502073Y-87193365D01*
X158104208Y-87547230D01*
X158186625Y-87595665D01*
X158191491Y-87598678D01*
X158351445Y-87702908D01*
X158856688Y-88032136D01*
X158861414Y-88035373D01*
X159505927Y-88499121D01*
X159510475Y-88502556D01*
X159905012Y-88815077D01*
X160132838Y-88995543D01*
X160137245Y-88999202D01*
X160736207Y-89520432D01*
X160740440Y-89524292D01*
X161316553Y-90074408D01*
X161318600Y-90076408D01*
X161325342Y-90083150D01*
X161326815Y-90084648D01*
X161339258Y-90097520D01*
X161339836Y-90098122D01*
X161760364Y-90539725D01*
X161836061Y-90619216D01*
X161840149Y-90623726D01*
X162317260Y-91176724D01*
X162321122Y-91181429D01*
X162770513Y-91757164D01*
X162774139Y-91762051D01*
X163157536Y-92306338D01*
X163194760Y-92359182D01*
X163198139Y-92364239D01*
X163251914Y-92449144D01*
X163588935Y-92981269D01*
X163592065Y-92986490D01*
X163952119Y-93621971D01*
X163954988Y-93627339D01*
X164283410Y-94279699D01*
X164286013Y-94285202D01*
X164489941Y-94745186D01*
X164576523Y-94940483D01*
X164582025Y-94952892D01*
X164584352Y-94958508D01*
X164605764Y-95014007D01*
X164847251Y-95639947D01*
X164849302Y-95645678D01*
X165078441Y-96339188D01*
X165080208Y-96345013D01*
X165275035Y-97048928D01*
X165276514Y-97054833D01*
X165341084Y-97342338D01*
X165336568Y-97412062D01*
X165295074Y-97468275D01*
X165229775Y-97493132D01*
X165161404Y-97478739D01*
X165154821Y-97474937D01*
X165113504Y-97449354D01*
X165113501Y-97449353D01*
X165072596Y-97433506D01*
X165061096Y-97428365D01*
X165036935Y-97416054D01*
X165036925Y-97416050D01*
X164981987Y-97398199D01*
X164975514Y-97395896D01*
X164906040Y-97368982D01*
X164906037Y-97368981D01*
X164906036Y-97368981D01*
X164906032Y-97368980D01*
X164881020Y-97364304D01*
X164865495Y-97360349D01*
X164857224Y-97357662D01*
X164857218Y-97357660D01*
X164841811Y-97355219D01*
X164782043Y-97345753D01*
X164778658Y-97345169D01*
X164705423Y-97331479D01*
X164687343Y-97328100D01*
X164687342Y-97328100D01*
X154814071Y-97328100D01*
X154814047Y-97328099D01*
X154709997Y-97328099D01*
X154697845Y-97327502D01*
X154583927Y-97316284D01*
X154560084Y-97311542D01*
X154456396Y-97280089D01*
X154433938Y-97270786D01*
X154338385Y-97219712D01*
X154318174Y-97206208D01*
X154229746Y-97133637D01*
X154220737Y-97125471D01*
X154147111Y-97051845D01*
X154147073Y-97051810D01*
X153478763Y-96383499D01*
X153478645Y-96383370D01*
X153436893Y-96341620D01*
X153436871Y-96341580D01*
X153275534Y-96180247D01*
X153002138Y-95955879D01*
X153002131Y-95955874D01*
X152708069Y-95759392D01*
X152708055Y-95759384D01*
X152396166Y-95592678D01*
X152396159Y-95592675D01*
X152396157Y-95592674D01*
X152069407Y-95457333D01*
X151808619Y-95378225D01*
X151730958Y-95354667D01*
X151496528Y-95308038D01*
X151384089Y-95285673D01*
X151384085Y-95285672D01*
X151384077Y-95285671D01*
X151125496Y-95260205D01*
X151032120Y-95251009D01*
X151032117Y-95251009D01*
X150906648Y-95251009D01*
X150906645Y-95251008D01*
X150855285Y-95251008D01*
X150691971Y-95251008D01*
X150691970Y-95251008D01*
X150366581Y-95279477D01*
X150044923Y-95336196D01*
X150044922Y-95336196D01*
X149729413Y-95420739D01*
X149422490Y-95532452D01*
X149126473Y-95670489D01*
X149126468Y-95670491D01*
X148843601Y-95833808D01*
X148576039Y-96021158D01*
X148576031Y-96021164D01*
X148325845Y-96231099D01*
X148325821Y-96231121D01*
X148280067Y-96276875D01*
X148279974Y-96276962D01*
X148163537Y-96393399D01*
X148163534Y-96393400D01*
X148029179Y-96527754D01*
X147853266Y-96742106D01*
X147853263Y-96742110D01*
X147699213Y-96972663D01*
X147699211Y-96972666D01*
X147568492Y-97217228D01*
X147462382Y-97473405D01*
X147462380Y-97473412D01*
X147452140Y-97507169D01*
X147413842Y-97565608D01*
X147350030Y-97594064D01*
X147280963Y-97583503D01*
X147260593Y-97571490D01*
X147227733Y-97547615D01*
X147185068Y-97492284D01*
X147176620Y-97447298D01*
X147176620Y-92406651D01*
X147196305Y-92339612D01*
X147249109Y-92293857D01*
X147260358Y-92289370D01*
X147461168Y-92220432D01*
X147461170Y-92220431D01*
X147461179Y-92220428D01*
X147492282Y-92203596D01*
X157995535Y-92203596D01*
X157995535Y-92203603D01*
X158015730Y-92382849D01*
X158015731Y-92382854D01*
X158075311Y-92553123D01*
X158149257Y-92670806D01*
X158171284Y-92705862D01*
X158298838Y-92833416D01*
X158451578Y-92929389D01*
X158614763Y-92986490D01*
X158621845Y-92988968D01*
X158621850Y-92988969D01*
X158801096Y-93009165D01*
X158801100Y-93009165D01*
X158801103Y-93009165D01*
X158896390Y-92998428D01*
X158980355Y-92988968D01*
X158980356Y-92988967D01*
X158983716Y-92988589D01*
X159052538Y-93000643D01*
X159103918Y-93047992D01*
X159121600Y-93111809D01*
X159121600Y-94940470D01*
X159121601Y-94940476D01*
X159128008Y-95000083D01*
X159178302Y-95134928D01*
X159178306Y-95134935D01*
X159264552Y-95250144D01*
X159264555Y-95250147D01*
X159379764Y-95336393D01*
X159379771Y-95336397D01*
X159514617Y-95386691D01*
X159514616Y-95386691D01*
X159521544Y-95387435D01*
X159574227Y-95393100D01*
X161447972Y-95393099D01*
X161507583Y-95386691D01*
X161642431Y-95336396D01*
X161757646Y-95250146D01*
X161843896Y-95134931D01*
X161894191Y-95000083D01*
X161900600Y-94940473D01*
X161900599Y-93066728D01*
X161894191Y-93007117D01*
X161894028Y-93006681D01*
X161843897Y-92872271D01*
X161843893Y-92872264D01*
X161757647Y-92757055D01*
X161757644Y-92757052D01*
X161642435Y-92670806D01*
X161642428Y-92670802D01*
X161507582Y-92620508D01*
X161507583Y-92620508D01*
X161447983Y-92614101D01*
X161447981Y-92614100D01*
X161447973Y-92614100D01*
X161447965Y-92614100D01*
X159680313Y-92614100D01*
X159613274Y-92594415D01*
X159567519Y-92541611D01*
X159557575Y-92472453D01*
X159563272Y-92449144D01*
X159577373Y-92408848D01*
X159586468Y-92382855D01*
X159588565Y-92364243D01*
X159606665Y-92203603D01*
X159606665Y-92203596D01*
X159586469Y-92024350D01*
X159586468Y-92024345D01*
X159526888Y-91854076D01*
X159430915Y-91701337D01*
X159303362Y-91573784D01*
X159150623Y-91477811D01*
X158980354Y-91418231D01*
X158980349Y-91418230D01*
X158801104Y-91398035D01*
X158801096Y-91398035D01*
X158621850Y-91418230D01*
X158621845Y-91418231D01*
X158451576Y-91477811D01*
X158298837Y-91573784D01*
X158171284Y-91701337D01*
X158075311Y-91854076D01*
X158015731Y-92024345D01*
X158015730Y-92024350D01*
X157995535Y-92203596D01*
X147492282Y-92203596D01*
X147663699Y-92110829D01*
X147845418Y-91969392D01*
X148001379Y-91799973D01*
X148127327Y-91607195D01*
X148219827Y-91396316D01*
X148276356Y-91173088D01*
X148295372Y-90943600D01*
X148276356Y-90714112D01*
X148219827Y-90490884D01*
X148127327Y-90280005D01*
X148098097Y-90235265D01*
X148001381Y-90087229D01*
X147960977Y-90043339D01*
X147845418Y-89917808D01*
X147663699Y-89776371D01*
X147663700Y-89776371D01*
X147659651Y-89773220D01*
X147660635Y-89771954D01*
X147619934Y-89724270D01*
X147610506Y-89655039D01*
X147640003Y-89591702D01*
X147659975Y-89574396D01*
X147659651Y-89573980D01*
X147736780Y-89513948D01*
X147845418Y-89429392D01*
X148001379Y-89259973D01*
X148051512Y-89183239D01*
X148067301Y-89159072D01*
X148120447Y-89113715D01*
X148189679Y-89104291D01*
X148253015Y-89133793D01*
X148274919Y-89159072D01*
X148340838Y-89259970D01*
X148340841Y-89259973D01*
X148496802Y-89429392D01*
X148678521Y-89570829D01*
X148881041Y-89680428D01*
X148994135Y-89719253D01*
X149098835Y-89755197D01*
X149098837Y-89755197D01*
X149098839Y-89755198D01*
X149325973Y-89793100D01*
X149325974Y-89793100D01*
X149556246Y-89793100D01*
X149556247Y-89793100D01*
X149783381Y-89755198D01*
X150001179Y-89680428D01*
X150203699Y-89570829D01*
X150385418Y-89429392D01*
X150541379Y-89259973D01*
X150667327Y-89067195D01*
X150759827Y-88856316D01*
X150816356Y-88633088D01*
X150824807Y-88531093D01*
X150835372Y-88403605D01*
X150835372Y-88403594D01*
X150816356Y-88174115D01*
X150816356Y-88174112D01*
X150759827Y-87950884D01*
X150667327Y-87740005D01*
X150643090Y-87702908D01*
X150541381Y-87547229D01*
X150514465Y-87517990D01*
X150385418Y-87377808D01*
X150245157Y-87268639D01*
X150199651Y-87233220D01*
X150200635Y-87231954D01*
X150159934Y-87184270D01*
X150150506Y-87115039D01*
X150180003Y-87051702D01*
X150199975Y-87034396D01*
X150199651Y-87033980D01*
X150269311Y-86979761D01*
X150385418Y-86889392D01*
X150541379Y-86719973D01*
X150667327Y-86527195D01*
X150759827Y-86316316D01*
X150816356Y-86093088D01*
X150831339Y-85912273D01*
X150835372Y-85863605D01*
X150835372Y-85863594D01*
X150816356Y-85634115D01*
X150816356Y-85634112D01*
X150759827Y-85410884D01*
X150697409Y-85268585D01*
X150688506Y-85199285D01*
X150718483Y-85136173D01*
X150777823Y-85099286D01*
X150825253Y-85095601D01*
X151464784Y-85169800D01*
G37*
%TD.AperFunction*%
%TD*%
M02*
