%TF.GenerationSoftware,KiCad,Pcbnew,8.0.7*%
%TF.CreationDate,2025-09-19T21:14:15-06:00*%
%TF.ProjectId,MiniBall,4d696e69-4261-46c6-9c2e-6b696361645f,rev?*%
%TF.SameCoordinates,Original*%
%TF.FileFunction,Copper,L4,Bot*%
%TF.FilePolarity,Positive*%
%FSLAX46Y46*%
G04 Gerber Fmt 4.6, Leading zero omitted, Abs format (unit mm)*
G04 Created by KiCad (PCBNEW 8.0.7) date 2025-09-19 21:14:15*
%MOMM*%
%LPD*%
G01*
G04 APERTURE LIST*
G04 Aperture macros list*
%AMRoundRect*
0 Rectangle with rounded corners*
0 $1 Rounding radius*
0 $2 $3 $4 $5 $6 $7 $8 $9 X,Y pos of 4 corners*
0 Add a 4 corners polygon primitive as box body*
4,1,4,$2,$3,$4,$5,$6,$7,$8,$9,$2,$3,0*
0 Add four circle primitives for the rounded corners*
1,1,$1+$1,$2,$3*
1,1,$1+$1,$4,$5*
1,1,$1+$1,$6,$7*
1,1,$1+$1,$8,$9*
0 Add four rect primitives between the rounded corners*
20,1,$1+$1,$2,$3,$4,$5,0*
20,1,$1+$1,$4,$5,$6,$7,0*
20,1,$1+$1,$6,$7,$8,$9,0*
20,1,$1+$1,$8,$9,$2,$3,0*%
%AMRotRect*
0 Rectangle, with rotation*
0 The origin of the aperture is its center*
0 $1 length*
0 $2 width*
0 $3 Rotation angle, in degrees counterclockwise*
0 Add horizontal line*
21,1,$1,$2,0,0,$3*%
G04 Aperture macros list end*
%TA.AperFunction,SMDPad,CuDef*%
%ADD10RotRect,1.016000X1.016000X135.000000*%
%TD*%
%TA.AperFunction,ComponentPad*%
%ADD11RoundRect,0.444500X-0.444500X-0.444500X0.444500X-0.444500X0.444500X0.444500X-0.444500X0.444500X0*%
%TD*%
%TA.AperFunction,ComponentPad*%
%ADD12C,1.778000*%
%TD*%
%TA.AperFunction,ComponentPad*%
%ADD13R,1.778000X1.778000*%
%TD*%
%TA.AperFunction,ComponentPad*%
%ADD14O,1.400000X1.800000*%
%TD*%
%TA.AperFunction,ViaPad*%
%ADD15C,1.400000*%
%TD*%
%TA.AperFunction,ViaPad*%
%ADD16C,0.600000*%
%TD*%
%TA.AperFunction,ViaPad*%
%ADD17C,1.000000*%
%TD*%
%TA.AperFunction,ViaPad*%
%ADD18C,1.016000*%
%TD*%
%TA.AperFunction,Conductor*%
%ADD19C,1.100000*%
%TD*%
G04 APERTURE END LIST*
D10*
%TO.P,MCH.SP.10,1*%
%TO.N,GND*%
X165001100Y-84503600D03*
%TD*%
%TO.P,MCH.SP.9,1*%
%TO.N,GND*%
X168301110Y-120503600D03*
%TD*%
%TO.P,MCH.SP.2,1*%
%TO.N,GND*%
X157301100Y-117403600D03*
%TD*%
%TO.P,MCH.SP.3,1*%
%TO.N,GND*%
X138501100Y-80503600D03*
%TD*%
%TO.P,MCH.SP.11,1*%
%TO.N,GND*%
X161401100Y-127903600D03*
%TD*%
%TO.P,MCH.SP.5,1*%
%TO.N,GND*%
X131501110Y-84503600D03*
%TD*%
%TO.P,MCH.SP.12,1*%
%TO.N,GND*%
X128501100Y-92503600D03*
%TD*%
D11*
%TO.P,MCU.J.1,1*%
%TO.N,MISO*%
X146901110Y-85863600D03*
D12*
%TO.P,MCU.J.1,2*%
%TO.N,V_USB*%
X149441110Y-85863600D03*
%TO.P,MCU.J.1,3*%
%TO.N,SCLK*%
X146901110Y-88403600D03*
%TO.P,MCU.J.1,4*%
%TO.N,MOSI*%
X149441110Y-88403600D03*
%TO.P,MCU.J.1,5*%
%TO.N,~{RESET}*%
X146901110Y-90943600D03*
%TO.P,MCU.J.1,6*%
%TO.N,GND*%
X149441110Y-90943600D03*
%TD*%
D13*
%TO.P,MCU.J.3,1*%
%TO.N,NetMCU.J.3_1*%
X160511100Y-94003600D03*
D12*
%TO.P,MCU.J.3,2*%
%TO.N,GND*%
X163051100Y-94003600D03*
%TD*%
D10*
%TO.P,MCH.SP.8,1*%
%TO.N,GND*%
X156501100Y-79503600D03*
%TD*%
D14*
%TO.P,MOS.U.2,1*%
%TO.N,NetMCU.U.1_31*%
X150501120Y-98703600D03*
%TO.P,MOS.U.2,2*%
%TO.N,NetMOS.D.1_C*%
X148501120Y-98703600D03*
%TO.P,MOS.U.2,3*%
%TO.N,~{RESET}*%
X146501120Y-98703600D03*
%TO.P,MOS.U.2,4*%
%TO.N,NetMCU.U.1_28*%
X144501120Y-98703600D03*
%TO.P,MOS.U.2,5*%
%TO.N,V_USB*%
X145501120Y-111303600D03*
%TO.P,MOS.U.2,6*%
%TO.N,GND*%
X147501120Y-111303600D03*
%TO.P,MOS.U.2,7*%
%TO.N,NetMOS.C.2_2*%
X149501120Y-111303600D03*
%TO.P,MOS.U.2,8*%
%TO.N,NetMCU.U.1_12*%
X151501120Y-111303600D03*
%TD*%
D10*
%TO.P,MCH.SP.6,1*%
%TO.N,GND*%
X134301110Y-127503600D03*
%TD*%
%TO.P,MCH.SP.7,1*%
%TO.N,GND*%
X163701100Y-115603600D03*
%TD*%
%TO.P,MCH.SP.1,1*%
%TO.N,GND*%
X168701100Y-95103600D03*
%TD*%
%TO.P,MCH.SP.4,1*%
%TO.N,GND*%
X156301100Y-123903600D03*
%TD*%
D15*
%TO.N,NetMOS.D.1_C*%
X164576100Y-98528600D03*
D16*
%TO.N,NetMCU.U.1_12*%
X143501100Y-83603600D03*
%TO.N,V_USB*%
X152501100Y-81103600D03*
X145601110Y-95703600D03*
X158801100Y-92203600D03*
X155601110Y-83403600D03*
X148501100Y-81303600D03*
X141801110Y-86003600D03*
D17*
X165101100Y-108403600D03*
%TO.N,NetMOS.R.3_1*%
X168301110Y-96803600D03*
X168301110Y-113303600D03*
D16*
%TO.N,NetMCU.U.1_4*%
X143201110Y-120603600D03*
X150901100Y-80903600D03*
%TO.N,NetMCU.U.1_3*%
X151701100Y-80103600D03*
X142601110Y-122303600D03*
%TO.N,GND*%
X131501110Y-91503600D03*
D18*
X156501100Y-79503600D03*
X161401100Y-127903600D03*
D16*
X128401100Y-101803600D03*
D18*
X157301100Y-117403600D03*
X156301100Y-123903600D03*
D16*
X153501100Y-129003600D03*
X140501110Y-96303600D03*
X153001100Y-87503600D03*
X167001100Y-112003600D03*
X140001100Y-121503600D03*
X135501110Y-115503600D03*
X131601110Y-115903600D03*
X137501100Y-101503600D03*
X133501100Y-107003600D03*
X143501100Y-127503600D03*
X146001100Y-78503600D03*
X156801100Y-127803600D03*
X155101100Y-112203600D03*
X162301100Y-112603600D03*
X138601100Y-98603600D03*
X146001100Y-81003600D03*
X142001100Y-87003600D03*
X143001110Y-119503600D03*
X162701100Y-87603600D03*
X135501110Y-96003600D03*
X134501100Y-85503600D03*
X133101100Y-119703600D03*
X134001110Y-111503600D03*
X131301100Y-125103600D03*
X143001110Y-96503600D03*
X151301100Y-92203600D03*
X164501110Y-96403600D03*
X148801100Y-117203600D03*
D18*
X165001100Y-84503600D03*
D16*
X137501100Y-119003600D03*
X133001110Y-85503600D03*
X147101100Y-117203600D03*
X153501100Y-126003600D03*
X133501100Y-103503600D03*
X137501100Y-105503600D03*
X131501110Y-90003600D03*
X142501100Y-130003600D03*
X131501110Y-93003600D03*
X153001100Y-91503600D03*
X143501100Y-129003600D03*
X141001100Y-117703600D03*
X167001100Y-117003600D03*
X142001100Y-79003600D03*
X131501110Y-87003600D03*
X137501100Y-108503600D03*
X154501110Y-130003600D03*
X160801110Y-89703600D03*
X167001100Y-90903600D03*
X142001100Y-92503600D03*
X159001100Y-88503600D03*
X142501100Y-131503600D03*
X153001100Y-89503600D03*
X137501100Y-112503600D03*
X139501100Y-115503600D03*
X153001100Y-124503600D03*
X152401100Y-114003600D03*
X147801100Y-119703600D03*
X134501100Y-93503600D03*
D18*
X138501100Y-80503600D03*
D16*
X139201110Y-127203600D03*
X135301110Y-82203600D03*
D18*
X163701100Y-115603600D03*
D16*
X151501100Y-78503600D03*
X128401100Y-96803600D03*
X153401100Y-95803600D03*
X131501110Y-88503600D03*
X147601100Y-95703600D03*
D18*
X134301110Y-127503600D03*
X168301110Y-120503600D03*
X168701100Y-95103600D03*
D16*
X142001100Y-90503600D03*
X128701100Y-112903600D03*
D18*
X131501110Y-84503600D03*
D16*
X158901100Y-96403600D03*
X153501100Y-127503600D03*
X159001100Y-84503600D03*
X136001100Y-85503600D03*
X137501100Y-93003600D03*
X159001100Y-80503600D03*
X153901100Y-118803600D03*
X154501110Y-131503600D03*
X138501100Y-90503600D03*
X136001100Y-93503600D03*
X135701100Y-123003600D03*
X142901110Y-113703600D03*
D18*
X128501100Y-92503600D03*
D16*
X160001100Y-115003600D03*
X133001110Y-93503600D03*
X154001100Y-81003600D03*
X128501100Y-106703600D03*
X138001110Y-91503600D03*
X133501100Y-99503600D03*
%TD*%
D19*
%TO.N,V_USB*%
X165101100Y-108403600D02*
X165101100Y-103055700D01*
X136745050Y-110247550D02*
X137057160Y-110559650D01*
X165845050Y-101259650D02*
X165901110Y-101203600D01*
X164445050Y-91747550D02*
X165657160Y-92959650D01*
X136001100Y-102624930D02*
X136001100Y-102628270D01*
X136001100Y-108451500D02*
X136001100Y-102628270D01*
X166401100Y-99996490D02*
X166401100Y-94755700D01*
X138563890Y-96440810D02*
X140501110Y-94503600D01*
X158601100Y-91003600D02*
X162649000Y-91003600D01*
X138853210Y-111303600D02*
X145501120Y-111303600D01*
X162649000Y-91003600D02*
G75*
G02*
X164445051Y-91747549I0J-2540000D01*
G01*
X166401100Y-99996490D02*
G75*
G02*
X165901107Y-101203597I-1707100J-10D01*
G01*
X136001100Y-102624928D02*
G75*
G02*
X138563886Y-96440812I8742600J28D01*
G01*
X138853210Y-111303600D02*
G75*
G02*
X137057154Y-110559656I-10J2540000D01*
G01*
X165657151Y-92959649D02*
G75*
G02*
X166401100Y-94755700I-1796051J-1796051D01*
G01*
X165101100Y-103055700D02*
G75*
G02*
X165845049Y-101259649I2540000J0D01*
G01*
X136745049Y-110247551D02*
G75*
G02*
X136001100Y-108451500I1796051J1796051D01*
G01*
%TD*%
%TA.AperFunction,Conductor*%
%TO.N,GND*%
G36*
X152715780Y-78004134D02*
G01*
X153160036Y-78014634D01*
X153165860Y-78014909D01*
X153607732Y-78046284D01*
X153613529Y-78046834D01*
X154053417Y-78099047D01*
X154059169Y-78099868D01*
X154496097Y-78172804D01*
X154501827Y-78173900D01*
X154935704Y-78267585D01*
X154940646Y-78268759D01*
X155131696Y-78318321D01*
X155870806Y-78510058D01*
X155875003Y-78511226D01*
X156797051Y-78785332D01*
X156801127Y-78786622D01*
X157712960Y-79092947D01*
X157717044Y-79094398D01*
X157977621Y-79192253D01*
X158617573Y-79432575D01*
X158621625Y-79434179D01*
X159509653Y-79803757D01*
X159513645Y-79805501D01*
X159693539Y-79887898D01*
X160388195Y-80206073D01*
X160392082Y-80207937D01*
X160936265Y-80480712D01*
X161251992Y-80638972D01*
X161255852Y-80640992D01*
X162100093Y-81101974D01*
X162103880Y-81104129D01*
X162171561Y-81144234D01*
X162931404Y-81594484D01*
X162935098Y-81596761D01*
X163744895Y-82115894D01*
X163748481Y-82118283D01*
X164096853Y-82359289D01*
X164539561Y-82665558D01*
X164543100Y-82668100D01*
X164785165Y-82848458D01*
X165174884Y-83138830D01*
X165314420Y-83242795D01*
X165317849Y-83245445D01*
X165573334Y-83450144D01*
X166067895Y-83846396D01*
X166072340Y-83850131D01*
X166226684Y-83986157D01*
X166485527Y-84214279D01*
X166490840Y-84219246D01*
X166580995Y-84308622D01*
X166857606Y-84582844D01*
X166881386Y-84606418D01*
X166886394Y-84611683D01*
X167058948Y-84804083D01*
X167253580Y-85021101D01*
X167258275Y-85026656D01*
X167600811Y-85456881D01*
X167605173Y-85462702D01*
X167921898Y-85912273D01*
X167925911Y-85918339D01*
X168215738Y-86385716D01*
X168219388Y-86392007D01*
X168481308Y-86875563D01*
X168484583Y-86882057D01*
X168717702Y-87380138D01*
X168720591Y-87386813D01*
X168924110Y-87897718D01*
X168926602Y-87904551D01*
X169099103Y-88424357D01*
X169099816Y-88426504D01*
X169101901Y-88433465D01*
X169114367Y-88479999D01*
X169244206Y-88964656D01*
X169245882Y-88971733D01*
X169356808Y-89510392D01*
X169358065Y-89517556D01*
X169437215Y-90061767D01*
X169438050Y-90068993D01*
X169485155Y-90616908D01*
X169485565Y-90624170D01*
X169500548Y-91177020D01*
X169500594Y-91180655D01*
X169500439Y-91250070D01*
X169500600Y-91252560D01*
X169500600Y-96475231D01*
X169480915Y-96542270D01*
X169428111Y-96588025D01*
X169358953Y-96597969D01*
X169295397Y-96568944D01*
X169257940Y-96511227D01*
X169239390Y-96450077D01*
X169229924Y-96418873D01*
X169219661Y-96399673D01*
X169137023Y-96245067D01*
X169137019Y-96245060D01*
X169011993Y-96092716D01*
X168859649Y-95967690D01*
X168859642Y-95967686D01*
X168685843Y-95874788D01*
X168685837Y-95874786D01*
X168497242Y-95817576D01*
X168497239Y-95817575D01*
X168301110Y-95798259D01*
X168104980Y-95817575D01*
X167916376Y-95874788D01*
X167742577Y-95967686D01*
X167742570Y-95967691D01*
X167654265Y-96040161D01*
X167589955Y-96067474D01*
X167521087Y-96055683D01*
X167469527Y-96008531D01*
X167451600Y-95944308D01*
X167451600Y-94647125D01*
X167451599Y-94647099D01*
X167451599Y-94579313D01*
X167436250Y-94423478D01*
X167417020Y-94228229D01*
X167382363Y-94053996D01*
X167348201Y-93882248D01*
X167348198Y-93882237D01*
X167348197Y-93882234D01*
X167348196Y-93882228D01*
X167245790Y-93544639D01*
X167110787Y-93218713D01*
X167029549Y-93066728D01*
X166944494Y-92907600D01*
X166944493Y-92907598D01*
X166944488Y-92907589D01*
X166748494Y-92614263D01*
X166562788Y-92387979D01*
X166524698Y-92341566D01*
X166524688Y-92341555D01*
X166477911Y-92294779D01*
X166477842Y-92294702D01*
X166473134Y-92289994D01*
X166473133Y-92289992D01*
X165255454Y-91072322D01*
X165187867Y-91004733D01*
X165063140Y-90880007D01*
X165022560Y-90846704D01*
X164790443Y-90656209D01*
X164790442Y-90656208D01*
X164790438Y-90656205D01*
X164497112Y-90460211D01*
X164497107Y-90460208D01*
X164497100Y-90460204D01*
X164185995Y-90293915D01*
X164185990Y-90293913D01*
X164163692Y-90284677D01*
X164090528Y-90254371D01*
X163860063Y-90158909D01*
X163522462Y-90056500D01*
X163522451Y-90056497D01*
X163176477Y-89987680D01*
X163176460Y-89987677D01*
X162910972Y-89961529D01*
X162825390Y-89953100D01*
X162825387Y-89953100D01*
X160630600Y-89953100D01*
X160563561Y-89933415D01*
X160517806Y-89880611D01*
X160506600Y-89829100D01*
X160506600Y-89759859D01*
X160506130Y-89743129D01*
X160505804Y-89731509D01*
X160505024Y-89717625D01*
X160504719Y-89714008D01*
X160504720Y-89693172D01*
X160505024Y-89689574D01*
X160505804Y-89675690D01*
X160506600Y-89647336D01*
X160506600Y-88799285D01*
X160489597Y-88669281D01*
X160486276Y-88656804D01*
X160473198Y-88607659D01*
X160473195Y-88607652D01*
X160473194Y-88607646D01*
X160449276Y-88549486D01*
X160441985Y-88479999D01*
X160451163Y-88450817D01*
X160466438Y-88417373D01*
X160486123Y-88350334D01*
X160486124Y-88350330D01*
X160506600Y-88207914D01*
X160506600Y-85556687D01*
X160506582Y-85552448D01*
X160506565Y-85550421D01*
X160506515Y-85546395D01*
X160503929Y-85388244D01*
X160502628Y-85359335D01*
X160501584Y-85345177D01*
X160498628Y-85316370D01*
X160470168Y-85100193D01*
X160457203Y-85001715D01*
X160451820Y-84969109D01*
X160451818Y-84969095D01*
X160448654Y-84953186D01*
X160441139Y-84920954D01*
X160409823Y-84804083D01*
X160407503Y-84795714D01*
X160406342Y-84791661D01*
X160406329Y-84791615D01*
X160403934Y-84783512D01*
X160403932Y-84783507D01*
X160342832Y-84653250D01*
X160336910Y-84644239D01*
X160304459Y-84594858D01*
X160304453Y-84594851D01*
X160209135Y-84487089D01*
X160209130Y-84487085D01*
X160152384Y-84451429D01*
X160087307Y-84410538D01*
X160087304Y-84410536D01*
X160026035Y-84383307D01*
X160024295Y-84382486D01*
X160023457Y-84382161D01*
X159884996Y-84343037D01*
X159741123Y-84344506D01*
X159672470Y-84355093D01*
X159672074Y-84355152D01*
X159534434Y-84397098D01*
X159414207Y-84476110D01*
X159414187Y-84476125D01*
X159361874Y-84522398D01*
X159361862Y-84522410D01*
X159268764Y-84632093D01*
X159240629Y-84676868D01*
X159223318Y-84698574D01*
X159196075Y-84725817D01*
X159174366Y-84743129D01*
X159141736Y-84763632D01*
X159116718Y-84775681D01*
X159080343Y-84788409D01*
X159053272Y-84794587D01*
X159014982Y-84798901D01*
X158987216Y-84798901D01*
X158948926Y-84794587D01*
X158921854Y-84788408D01*
X158885480Y-84775680D01*
X158860464Y-84763633D01*
X158827833Y-84743130D01*
X158806123Y-84725817D01*
X158778880Y-84698574D01*
X158761567Y-84676865D01*
X158752178Y-84661922D01*
X158752178Y-84661921D01*
X158741061Y-84644229D01*
X158729019Y-84619224D01*
X158716287Y-84582838D01*
X158710111Y-84555775D01*
X158705796Y-84517470D01*
X158705797Y-84489711D01*
X158710110Y-84451425D01*
X158716286Y-84424361D01*
X158729019Y-84387973D01*
X158741066Y-84362961D01*
X158761569Y-84330331D01*
X158778877Y-84308626D01*
X158806126Y-84281377D01*
X158827831Y-84264069D01*
X158860461Y-84243566D01*
X158885478Y-84231518D01*
X158921857Y-84218788D01*
X158948922Y-84212611D01*
X158976574Y-84209496D01*
X159106258Y-84177100D01*
X159166684Y-84153147D01*
X159283334Y-84087898D01*
X159385074Y-83986161D01*
X159426946Y-83930228D01*
X159426952Y-83930220D01*
X159495905Y-83803939D01*
X159526488Y-83663347D01*
X159531472Y-83593655D01*
X159521208Y-83450144D01*
X159470926Y-83315335D01*
X159437441Y-83254012D01*
X159437439Y-83254009D01*
X159351223Y-83138837D01*
X159351207Y-83138819D01*
X158732754Y-82520368D01*
X156103215Y-79890830D01*
X156100260Y-79887898D01*
X156098813Y-79886474D01*
X156095855Y-79883588D01*
X155982184Y-79773574D01*
X155960848Y-79754074D01*
X155950124Y-79744822D01*
X155947433Y-79742632D01*
X155927627Y-79726512D01*
X155904505Y-79708770D01*
X155675841Y-79533310D01*
X155657456Y-79520136D01*
X155652243Y-79513466D01*
X155456254Y-79400312D01*
X155456249Y-79400310D01*
X155333407Y-79329386D01*
X155304243Y-79313797D01*
X155289683Y-79306617D01*
X155259558Y-79292967D01*
X155234000Y-79282381D01*
X155233997Y-79282380D01*
X154967295Y-79171909D01*
X154936335Y-79160255D01*
X154920998Y-79155048D01*
X154889336Y-79145443D01*
X154889329Y-79145441D01*
X154889322Y-79145439D01*
X154705749Y-79096251D01*
X154583722Y-79063554D01*
X154551489Y-79056039D01*
X154535591Y-79052878D01*
X154503006Y-79047499D01*
X154188316Y-79006069D01*
X154159522Y-79003114D01*
X154145431Y-79002074D01*
X154127480Y-79001265D01*
X154116466Y-79000770D01*
X154116458Y-79000769D01*
X154116439Y-79000769D01*
X153958419Y-78998185D01*
X153953988Y-78998131D01*
X153952039Y-78998116D01*
X153948127Y-78998100D01*
X153948013Y-78998100D01*
X152493865Y-78998100D01*
X152471845Y-79000410D01*
X152388936Y-79009110D01*
X152338577Y-79019796D01*
X152238214Y-79052349D01*
X152116392Y-79128895D01*
X152063126Y-79174106D01*
X152063118Y-79174114D01*
X151973339Y-79275614D01*
X151914179Y-79312786D01*
X151866577Y-79316679D01*
X151701104Y-79298035D01*
X151701096Y-79298035D01*
X151531575Y-79317134D01*
X151462753Y-79305079D01*
X151413377Y-79260954D01*
X151403163Y-79245062D01*
X151403160Y-79245057D01*
X151401489Y-79243128D01*
X151357411Y-79192259D01*
X151357407Y-79192256D01*
X151357405Y-79192253D01*
X151248671Y-79098033D01*
X151248668Y-79098031D01*
X151248666Y-79098030D01*
X151117800Y-79038264D01*
X151117795Y-79038262D01*
X151117794Y-79038262D01*
X151054910Y-79019797D01*
X151050752Y-79018576D01*
X150963768Y-79006070D01*
X150908335Y-78998100D01*
X142684540Y-78998100D01*
X142684538Y-78998100D01*
X142630489Y-79000997D01*
X142630488Y-79000997D01*
X142604155Y-79003829D01*
X142604128Y-79003832D01*
X142550732Y-79012485D01*
X142550730Y-79012485D01*
X142415925Y-79062766D01*
X142354600Y-79096251D01*
X142239422Y-79182473D01*
X142239409Y-79182484D01*
X142196074Y-79225818D01*
X142174368Y-79243128D01*
X142141737Y-79263632D01*
X142116718Y-79275681D01*
X142080343Y-79288409D01*
X142053272Y-79294587D01*
X142014982Y-79298901D01*
X141987216Y-79298901D01*
X141948926Y-79294587D01*
X141921856Y-79288409D01*
X141893001Y-79278312D01*
X141892998Y-79278312D01*
X141892995Y-79278311D01*
X141885478Y-79275680D01*
X141860464Y-79263634D01*
X141781674Y-79214126D01*
X141770996Y-79206604D01*
X141751172Y-79191014D01*
X141751167Y-79191011D01*
X141751166Y-79191010D01*
X141701241Y-79160579D01*
X141701242Y-79160579D01*
X141701238Y-79160577D01*
X141631862Y-79128895D01*
X141592064Y-79110720D01*
X141506025Y-79096251D01*
X141450183Y-79086860D01*
X141450180Y-79086859D01*
X141450176Y-79086859D01*
X141380329Y-79085196D01*
X141380326Y-79085196D01*
X141237463Y-79102278D01*
X141237462Y-79102278D01*
X141101207Y-79138788D01*
X141069537Y-79148394D01*
X141054230Y-79153590D01*
X141023278Y-79165239D01*
X140746168Y-79280022D01*
X140716067Y-79293660D01*
X140701499Y-79300845D01*
X140672345Y-79316429D01*
X140412633Y-79466374D01*
X140384500Y-79483870D01*
X140371016Y-79492881D01*
X140344161Y-79512126D01*
X140105462Y-79695287D01*
X140082842Y-79713703D01*
X140072060Y-79723012D01*
X140050615Y-79742632D01*
X140050588Y-79742657D01*
X139942808Y-79847116D01*
X139942661Y-79847258D01*
X139942644Y-79847276D01*
X139939959Y-79849897D01*
X139938865Y-79850973D01*
X139935863Y-79853951D01*
X139475740Y-80314074D01*
X139475741Y-80314075D01*
X139388273Y-80401543D01*
X139388135Y-80401681D01*
X139388115Y-80401702D01*
X139385554Y-80404280D01*
X139384141Y-80405715D01*
X139381045Y-80408886D01*
X139271091Y-80522496D01*
X139251560Y-80543867D01*
X139242301Y-80554600D01*
X139224032Y-80577045D01*
X139132858Y-80695866D01*
X139132857Y-80695865D01*
X139030800Y-80828869D01*
X139011506Y-80855794D01*
X139002526Y-80869237D01*
X138985061Y-80897325D01*
X138923706Y-81003596D01*
X138826882Y-81171299D01*
X138811285Y-81200477D01*
X138804121Y-81215004D01*
X138790469Y-81245138D01*
X138669397Y-81537431D01*
X138657752Y-81568371D01*
X138652544Y-81583716D01*
X138652542Y-81583722D01*
X138648584Y-81596769D01*
X138642942Y-81615370D01*
X138561052Y-81920986D01*
X138553540Y-81953204D01*
X138550382Y-81969085D01*
X138544996Y-82001706D01*
X138503571Y-82316367D01*
X138500613Y-82345184D01*
X138499574Y-82359261D01*
X138498269Y-82388259D01*
X138495686Y-82546323D01*
X138495635Y-82550339D01*
X138495617Y-82552477D01*
X138495600Y-82556707D01*
X138495600Y-89820162D01*
X138498497Y-89874210D01*
X138498497Y-89874211D01*
X138501329Y-89900544D01*
X138501332Y-89900571D01*
X138509985Y-89953967D01*
X138509985Y-89953969D01*
X138546717Y-90052449D01*
X138560268Y-90088779D01*
X138593753Y-90150102D01*
X138679977Y-90265283D01*
X138679986Y-90265292D01*
X138723316Y-90308622D01*
X138740629Y-90330332D01*
X138761132Y-90362962D01*
X138773181Y-90387980D01*
X138785909Y-90424355D01*
X138792087Y-90451425D01*
X138796401Y-90489712D01*
X138796401Y-90517480D01*
X138792086Y-90555775D01*
X138785908Y-90582844D01*
X138773181Y-90619217D01*
X138761132Y-90644236D01*
X138740629Y-90676866D01*
X138723318Y-90698574D01*
X138679982Y-90741909D01*
X138679982Y-90741911D01*
X138643828Y-90782158D01*
X138643818Y-90782170D01*
X138627176Y-90802821D01*
X138595533Y-90846703D01*
X138535763Y-90977577D01*
X138516076Y-91044622D01*
X138509610Y-91089594D01*
X138496986Y-91177404D01*
X138495600Y-91187041D01*
X138495600Y-93450491D01*
X138495617Y-93454721D01*
X138495635Y-93456859D01*
X138495686Y-93460875D01*
X138498269Y-93618935D01*
X138499574Y-93647931D01*
X138500614Y-93662022D01*
X138503569Y-93690816D01*
X138544999Y-94005506D01*
X138550378Y-94038091D01*
X138553541Y-94053996D01*
X138561052Y-94086216D01*
X138561055Y-94086226D01*
X138642937Y-94391814D01*
X138642942Y-94391832D01*
X138642943Y-94391834D01*
X138652543Y-94423481D01*
X138657749Y-94438816D01*
X138669408Y-94469794D01*
X138748962Y-94661854D01*
X138756431Y-94731324D01*
X138725156Y-94793803D01*
X138722082Y-94796988D01*
X137822787Y-95696279D01*
X137822758Y-95696308D01*
X137611933Y-95906993D01*
X137611911Y-95907016D01*
X137219153Y-96350063D01*
X137219151Y-96350065D01*
X136853852Y-96816054D01*
X136517374Y-97303249D01*
X136345199Y-97587910D01*
X136211510Y-97808941D01*
X136210937Y-97809888D01*
X135935679Y-98334078D01*
X135935666Y-98334105D01*
X135692574Y-98873965D01*
X135692569Y-98873978D01*
X135482524Y-99427554D01*
X135482520Y-99427566D01*
X135401940Y-99686040D01*
X135306296Y-99992831D01*
X135173440Y-100531613D01*
X135164537Y-100567716D01*
X135057768Y-101150081D01*
X135057765Y-101150103D01*
X134986368Y-101737852D01*
X134986368Y-101737856D01*
X134986367Y-101737865D01*
X134986367Y-101737869D01*
X134979545Y-101850609D01*
X134950603Y-102328880D01*
X134950602Y-102328893D01*
X134950601Y-102516330D01*
X134950600Y-102516356D01*
X134950600Y-108561078D01*
X134950601Y-108561099D01*
X134950601Y-108627890D01*
X134958690Y-108710020D01*
X134985178Y-108978960D01*
X134985181Y-108978977D01*
X135053998Y-109324951D01*
X135054001Y-109324962D01*
X135156410Y-109662562D01*
X135221460Y-109819606D01*
X135284371Y-109971487D01*
X135291414Y-109988489D01*
X135291416Y-109988494D01*
X135457705Y-110299599D01*
X135457716Y-110299617D01*
X135653700Y-110592928D01*
X135653710Y-110592942D01*
X135877501Y-110865633D01*
X135877511Y-110865644D01*
X135923696Y-110911828D01*
X135923719Y-110911854D01*
X135965912Y-110954045D01*
X135965914Y-110954049D01*
X136002233Y-110990366D01*
X136002233Y-110990367D01*
X136071066Y-111059198D01*
X136071068Y-111059199D01*
X136076033Y-111064164D01*
X136076053Y-111064182D01*
X136259194Y-111247317D01*
X136278021Y-111266144D01*
X136278034Y-111266168D01*
X136314340Y-111302473D01*
X136314340Y-111302474D01*
X136439067Y-111427200D01*
X136711770Y-111651000D01*
X136711773Y-111651003D01*
X137005088Y-111846988D01*
X137005094Y-111846991D01*
X137005098Y-111846994D01*
X137316223Y-112013293D01*
X137642150Y-112148295D01*
X137979740Y-112250701D01*
X138325742Y-112319523D01*
X138676824Y-112354101D01*
X138853214Y-112354100D01*
X144602495Y-112354100D01*
X144669534Y-112373785D01*
X144690176Y-112390419D01*
X144719047Y-112419290D01*
X144871921Y-112530360D01*
X144951467Y-112570890D01*
X145040283Y-112616145D01*
X145040285Y-112616145D01*
X145040288Y-112616147D01*
X145136617Y-112647446D01*
X145220001Y-112674540D01*
X145406634Y-112704100D01*
X145406639Y-112704100D01*
X145595606Y-112704100D01*
X145782238Y-112674540D01*
X145961952Y-112616147D01*
X146130319Y-112530360D01*
X146283193Y-112419290D01*
X146416810Y-112285673D01*
X146527880Y-112132799D01*
X146613667Y-111964432D01*
X146672060Y-111784718D01*
X146701620Y-111598086D01*
X146701620Y-111009113D01*
X146672060Y-110822481D01*
X146613665Y-110642763D01*
X146527879Y-110474400D01*
X146416810Y-110321527D01*
X146283193Y-110187910D01*
X146130319Y-110076840D01*
X145961956Y-109991054D01*
X145782238Y-109932659D01*
X145595606Y-109903100D01*
X145595601Y-109903100D01*
X145406639Y-109903100D01*
X145406634Y-109903100D01*
X145220001Y-109932659D01*
X145040283Y-109991054D01*
X144871920Y-110076840D01*
X144851703Y-110091529D01*
X144719047Y-110187910D01*
X144719045Y-110187912D01*
X144719044Y-110187912D01*
X144690176Y-110216781D01*
X144628853Y-110250266D01*
X144602495Y-110253100D01*
X138857272Y-110253100D01*
X138849163Y-110252835D01*
X138666891Y-110240889D01*
X138650809Y-110238771D01*
X138475666Y-110203933D01*
X138459999Y-110199735D01*
X138290897Y-110142333D01*
X138275912Y-110136126D01*
X138115737Y-110057137D01*
X138101690Y-110049027D01*
X137953214Y-109949819D01*
X137940345Y-109939945D01*
X137803124Y-109819606D01*
X137797203Y-109814061D01*
X137490721Y-109507589D01*
X137485173Y-109501665D01*
X137364756Y-109364356D01*
X137354885Y-109351491D01*
X137255671Y-109203006D01*
X137247561Y-109188960D01*
X137210354Y-109113512D01*
X137168573Y-109028789D01*
X137162369Y-109013810D01*
X137104966Y-108844704D01*
X137100768Y-108829037D01*
X137077094Y-108710020D01*
X137065928Y-108653885D01*
X137063813Y-108637827D01*
X137051864Y-108455526D01*
X137051600Y-108447419D01*
X137051600Y-102626967D01*
X137051666Y-102622909D01*
X137054766Y-102528239D01*
X137067950Y-102125644D01*
X137068479Y-102117575D01*
X137117065Y-101624483D01*
X137118120Y-101616474D01*
X137198869Y-101127596D01*
X137200443Y-101119685D01*
X137313010Y-100637125D01*
X137315098Y-100629336D01*
X137458996Y-100155186D01*
X137461598Y-100147527D01*
X137636197Y-99683846D01*
X137639300Y-99676359D01*
X137646470Y-99660543D01*
X137843883Y-99225059D01*
X137847448Y-99217833D01*
X138081132Y-98780866D01*
X138085160Y-98773894D01*
X138312119Y-98409113D01*
X143300620Y-98409113D01*
X143300620Y-98998086D01*
X143330179Y-99184718D01*
X143388574Y-99364436D01*
X143452921Y-99490723D01*
X143474360Y-99532799D01*
X143585430Y-99685673D01*
X143719047Y-99819290D01*
X143871921Y-99930360D01*
X143902548Y-99945965D01*
X144040283Y-100016145D01*
X144040285Y-100016145D01*
X144040288Y-100016147D01*
X144136617Y-100047446D01*
X144220001Y-100074540D01*
X144406634Y-100104100D01*
X144406639Y-100104100D01*
X144595606Y-100104100D01*
X144782238Y-100074540D01*
X144817954Y-100062935D01*
X144961952Y-100016147D01*
X145130319Y-99930360D01*
X145283193Y-99819290D01*
X145413439Y-99689044D01*
X145474762Y-99655559D01*
X145544454Y-99660543D01*
X145588801Y-99689044D01*
X145719047Y-99819290D01*
X145871921Y-99930360D01*
X145902548Y-99945965D01*
X146040283Y-100016145D01*
X146040285Y-100016145D01*
X146040288Y-100016147D01*
X146136617Y-100047446D01*
X146220001Y-100074540D01*
X146406634Y-100104100D01*
X146406639Y-100104100D01*
X146595606Y-100104100D01*
X146782238Y-100074540D01*
X146817954Y-100062935D01*
X146961952Y-100016147D01*
X147130319Y-99930360D01*
X147283193Y-99819290D01*
X147413439Y-99689044D01*
X147474762Y-99655559D01*
X147544454Y-99660543D01*
X147588801Y-99689044D01*
X147719047Y-99819290D01*
X147871921Y-99930360D01*
X147902548Y-99945965D01*
X148040283Y-100016145D01*
X148040285Y-100016145D01*
X148040288Y-100016147D01*
X148136617Y-100047446D01*
X148220001Y-100074540D01*
X148406634Y-100104100D01*
X148406639Y-100104100D01*
X148595606Y-100104100D01*
X148782238Y-100074540D01*
X148817954Y-100062935D01*
X148961952Y-100016147D01*
X149130319Y-99930360D01*
X149283193Y-99819290D01*
X149413439Y-99689044D01*
X149474762Y-99655559D01*
X149544454Y-99660543D01*
X149588801Y-99689044D01*
X149719047Y-99819290D01*
X149733315Y-99829656D01*
X149775981Y-99884984D01*
X149781961Y-99954598D01*
X149749355Y-100016393D01*
X149692526Y-100049748D01*
X149643323Y-100062932D01*
X149643310Y-100062936D01*
X149410939Y-100147513D01*
X149218635Y-100217506D01*
X149218631Y-100217507D01*
X149218625Y-100217510D01*
X149218617Y-100217513D01*
X148809052Y-100408497D01*
X148809036Y-100408505D01*
X148417664Y-100634464D01*
X148417638Y-100634480D01*
X148047451Y-100893688D01*
X147701249Y-101184188D01*
X147381688Y-101503749D01*
X147091188Y-101849951D01*
X146831980Y-102220138D01*
X146831964Y-102220164D01*
X146606005Y-102611536D01*
X146605997Y-102611552D01*
X146415013Y-103021117D01*
X146415010Y-103021125D01*
X146415007Y-103021131D01*
X146415006Y-103021135D01*
X146337720Y-103233474D01*
X146260431Y-103445824D01*
X146143468Y-103882342D01*
X146143465Y-103882355D01*
X146064988Y-104327415D01*
X146025600Y-104777628D01*
X146025600Y-105229571D01*
X146064988Y-105679784D01*
X146143465Y-106124844D01*
X146143468Y-106124857D01*
X146260431Y-106561375D01*
X146260434Y-106561385D01*
X146260435Y-106561386D01*
X146415006Y-106986065D01*
X146415009Y-106986072D01*
X146415010Y-106986074D01*
X146415013Y-106986082D01*
X146605997Y-107395647D01*
X146606002Y-107395657D01*
X146831969Y-107787044D01*
X146831973Y-107787050D01*
X146831980Y-107787061D01*
X147091188Y-108157248D01*
X147301162Y-108407484D01*
X147381686Y-108503448D01*
X147701252Y-108823014D01*
X147794428Y-108901198D01*
X148047451Y-109113511D01*
X148417638Y-109372719D01*
X148417645Y-109372723D01*
X148417656Y-109372731D01*
X148784468Y-109584509D01*
X148809036Y-109598694D01*
X148809051Y-109598702D01*
X149114586Y-109741175D01*
X149167025Y-109787347D01*
X149186177Y-109854541D01*
X149165961Y-109921422D01*
X149112796Y-109966756D01*
X149100502Y-109971487D01*
X149040286Y-109991053D01*
X148871920Y-110076840D01*
X148851703Y-110091529D01*
X148719047Y-110187910D01*
X148719045Y-110187912D01*
X148719044Y-110187912D01*
X148585432Y-110321524D01*
X148585432Y-110321525D01*
X148585430Y-110321527D01*
X148537730Y-110387179D01*
X148474360Y-110474400D01*
X148388574Y-110642763D01*
X148330179Y-110822481D01*
X148300620Y-111009113D01*
X148300620Y-111598086D01*
X148330179Y-111784718D01*
X148388574Y-111964436D01*
X148413471Y-112013298D01*
X148474360Y-112132799D01*
X148585430Y-112285673D01*
X148719047Y-112419290D01*
X148871921Y-112530360D01*
X148951467Y-112570890D01*
X149040283Y-112616145D01*
X149040285Y-112616145D01*
X149040288Y-112616147D01*
X149136617Y-112647446D01*
X149220001Y-112674540D01*
X149406634Y-112704100D01*
X149406639Y-112704100D01*
X149595606Y-112704100D01*
X149782238Y-112674540D01*
X149961952Y-112616147D01*
X150130319Y-112530360D01*
X150283193Y-112419290D01*
X150413439Y-112289044D01*
X150474762Y-112255559D01*
X150544454Y-112260543D01*
X150588801Y-112289044D01*
X150719047Y-112419290D01*
X150871921Y-112530360D01*
X150951467Y-112570890D01*
X151040283Y-112616145D01*
X151040285Y-112616145D01*
X151040288Y-112616147D01*
X151136617Y-112647446D01*
X151220001Y-112674540D01*
X151406634Y-112704100D01*
X151406639Y-112704100D01*
X151595606Y-112704100D01*
X151782238Y-112674540D01*
X151961952Y-112616147D01*
X152130319Y-112530360D01*
X152283193Y-112419290D01*
X152416810Y-112285673D01*
X152527880Y-112132799D01*
X152613667Y-111964432D01*
X152672060Y-111784718D01*
X152701620Y-111598086D01*
X152701620Y-111009113D01*
X152672060Y-110822481D01*
X152613665Y-110642763D01*
X152527879Y-110474400D01*
X152416810Y-110321527D01*
X152343429Y-110248146D01*
X152309944Y-110186823D01*
X152314928Y-110117131D01*
X152356800Y-110061198D01*
X152399011Y-110040692D01*
X152758886Y-109944265D01*
X153183565Y-109789694D01*
X153593157Y-109598698D01*
X153984544Y-109372731D01*
X154354747Y-109113512D01*
X154700948Y-108823014D01*
X155020514Y-108503448D01*
X155311012Y-108157247D01*
X155570231Y-107787044D01*
X155796198Y-107395657D01*
X155987194Y-106986065D01*
X156141765Y-106561386D01*
X156258734Y-106124850D01*
X156337212Y-105679782D01*
X156376600Y-105229567D01*
X156376600Y-104777633D01*
X156337212Y-104327418D01*
X156258734Y-103882350D01*
X156141765Y-103445814D01*
X155987194Y-103021135D01*
X155955065Y-102952235D01*
X155796202Y-102611552D01*
X155796194Y-102611536D01*
X155746120Y-102524805D01*
X155570231Y-102220156D01*
X155570223Y-102220145D01*
X155570219Y-102220138D01*
X155311011Y-101849951D01*
X155020511Y-101503749D01*
X154700950Y-101184188D01*
X154692307Y-101176936D01*
X154604984Y-101103662D01*
X154354748Y-100893688D01*
X153984561Y-100634480D01*
X153984550Y-100634473D01*
X153984544Y-100634469D01*
X153806366Y-100531598D01*
X153593163Y-100408505D01*
X153593147Y-100408497D01*
X153183582Y-100217513D01*
X153183574Y-100217510D01*
X153183572Y-100217509D01*
X153183565Y-100217506D01*
X152758886Y-100062935D01*
X152758885Y-100062934D01*
X152758875Y-100062931D01*
X152322357Y-99945968D01*
X152322360Y-99945968D01*
X152322350Y-99945966D01*
X152233839Y-99930359D01*
X151877284Y-99867488D01*
X151538463Y-99837845D01*
X151473394Y-99812393D01*
X151432415Y-99755802D01*
X151428537Y-99686040D01*
X151448950Y-99641435D01*
X151527880Y-99532799D01*
X151613667Y-99364432D01*
X151672060Y-99184718D01*
X151675455Y-99163283D01*
X151701620Y-98998086D01*
X151701620Y-98409113D01*
X151672060Y-98222481D01*
X151613665Y-98042763D01*
X151537823Y-97893916D01*
X151527880Y-97874401D01*
X151416810Y-97721527D01*
X151283193Y-97587910D01*
X151130319Y-97476840D01*
X151076371Y-97449352D01*
X150961956Y-97391054D01*
X150782238Y-97332659D01*
X150595606Y-97303100D01*
X150595601Y-97303100D01*
X150406639Y-97303100D01*
X150406634Y-97303100D01*
X150220001Y-97332659D01*
X150040283Y-97391054D01*
X149871920Y-97476840D01*
X149820110Y-97514483D01*
X149719047Y-97587910D01*
X149719045Y-97587912D01*
X149719044Y-97587912D01*
X149588801Y-97718156D01*
X149527478Y-97751641D01*
X149457786Y-97746657D01*
X149413439Y-97718156D01*
X149283195Y-97587912D01*
X149283193Y-97587910D01*
X149130319Y-97476840D01*
X149076371Y-97449352D01*
X148961956Y-97391054D01*
X148782238Y-97332659D01*
X148595606Y-97303100D01*
X148595601Y-97303100D01*
X148406639Y-97303100D01*
X148406634Y-97303100D01*
X148220001Y-97332659D01*
X148040283Y-97391054D01*
X147871920Y-97476840D01*
X147820110Y-97514483D01*
X147719047Y-97587910D01*
X147719045Y-97587912D01*
X147719044Y-97587912D01*
X147588801Y-97718156D01*
X147527478Y-97751641D01*
X147457786Y-97746657D01*
X147413439Y-97718156D01*
X147283195Y-97587912D01*
X147283193Y-97587910D01*
X147130319Y-97476840D01*
X147076371Y-97449352D01*
X146961956Y-97391054D01*
X146782238Y-97332659D01*
X146595606Y-97303100D01*
X146595601Y-97303100D01*
X146406639Y-97303100D01*
X146406634Y-97303100D01*
X146220001Y-97332659D01*
X146040283Y-97391054D01*
X145871920Y-97476840D01*
X145820110Y-97514483D01*
X145719047Y-97587910D01*
X145719045Y-97587912D01*
X145719044Y-97587912D01*
X145588801Y-97718156D01*
X145527478Y-97751641D01*
X145457786Y-97746657D01*
X145413439Y-97718156D01*
X145283195Y-97587912D01*
X145283193Y-97587910D01*
X145130319Y-97476840D01*
X145076371Y-97449352D01*
X144961956Y-97391054D01*
X144782238Y-97332659D01*
X144595606Y-97303100D01*
X144595601Y-97303100D01*
X144406639Y-97303100D01*
X144406634Y-97303100D01*
X144220001Y-97332659D01*
X144040283Y-97391054D01*
X143871920Y-97476840D01*
X143820110Y-97514483D01*
X143719047Y-97587910D01*
X143719045Y-97587912D01*
X143719044Y-97587912D01*
X143585432Y-97721524D01*
X143585432Y-97721525D01*
X143585430Y-97721527D01*
X143567172Y-97746657D01*
X143474360Y-97874400D01*
X143388574Y-98042763D01*
X143330179Y-98222481D01*
X143300620Y-98409113D01*
X138312119Y-98409113D01*
X138346912Y-98353191D01*
X138351423Y-98346445D01*
X138440305Y-98222482D01*
X138640134Y-97943781D01*
X138645065Y-97937360D01*
X138959511Y-97554443D01*
X138964865Y-97548342D01*
X138972540Y-97540153D01*
X139305006Y-97185416D01*
X139307796Y-97182536D01*
X139358398Y-97131968D01*
X139375301Y-97115077D01*
X139375302Y-97115075D01*
X139379208Y-97111172D01*
X139379703Y-97110626D01*
X140443152Y-96047183D01*
X140504474Y-96013699D01*
X140544713Y-96011645D01*
X140553285Y-96012610D01*
X140580347Y-96018787D01*
X140616730Y-96031518D01*
X140641746Y-96043566D01*
X140674376Y-96064069D01*
X140696085Y-96081381D01*
X140723327Y-96108623D01*
X140740639Y-96130332D01*
X140761142Y-96162962D01*
X140773191Y-96187980D01*
X140785919Y-96224355D01*
X140792097Y-96251425D01*
X140804978Y-96365752D01*
X140806701Y-96379367D01*
X140807642Y-96386077D01*
X140809738Y-96399673D01*
X140809738Y-96399674D01*
X140853545Y-96536717D01*
X140853547Y-96536722D01*
X140853548Y-96536724D01*
X140884077Y-96599571D01*
X140912187Y-96641104D01*
X140961679Y-96714230D01*
X140964722Y-96718725D01*
X141075671Y-96810333D01*
X141112752Y-96832935D01*
X141135331Y-96846698D01*
X141135351Y-96846707D01*
X141267590Y-96903336D01*
X141267596Y-96903337D01*
X141267597Y-96903338D01*
X141327493Y-96919387D01*
X141327494Y-96919387D01*
X141418449Y-96943758D01*
X141450677Y-96951272D01*
X141466581Y-96954435D01*
X141499205Y-96959821D01*
X141813825Y-97001240D01*
X141842785Y-97004207D01*
X141857030Y-97005253D01*
X141857041Y-97005253D01*
X141857048Y-97005254D01*
X141886119Y-97006547D01*
X141886142Y-97006548D01*
X142028622Y-97008776D01*
X142041650Y-97008980D01*
X142041650Y-97008981D01*
X142044330Y-97009023D01*
X142048341Y-97009070D01*
X142050280Y-97009085D01*
X142053923Y-97009098D01*
X142054174Y-97009100D01*
X142054190Y-97009100D01*
X142084724Y-97009100D01*
X142084732Y-97009100D01*
X142164324Y-97002795D01*
X142202884Y-96996647D01*
X142236076Y-96988624D01*
X142280481Y-96977891D01*
X142280482Y-96977890D01*
X142280484Y-96977890D01*
X142409471Y-96914143D01*
X142460004Y-96879436D01*
X142460242Y-96879297D01*
X142467069Y-96874586D01*
X142531789Y-96814940D01*
X142572870Y-96777081D01*
X142646917Y-96653718D01*
X142673983Y-96589304D01*
X142673985Y-96589299D01*
X142710275Y-96450070D01*
X142710276Y-96450062D01*
X142711086Y-96445704D01*
X142711414Y-96445765D01*
X142716302Y-96424345D01*
X142718217Y-96418873D01*
X142729029Y-96387973D01*
X142741071Y-96362967D01*
X142761581Y-96330326D01*
X142778887Y-96308626D01*
X142806136Y-96281377D01*
X142827841Y-96264069D01*
X142860471Y-96243566D01*
X142885483Y-96231519D01*
X142921871Y-96218786D01*
X142948932Y-96212610D01*
X142987228Y-96208296D01*
X143014990Y-96208296D01*
X143053283Y-96212610D01*
X143080347Y-96218787D01*
X143116730Y-96231518D01*
X143141746Y-96243566D01*
X143174376Y-96264069D01*
X143196085Y-96281381D01*
X143223325Y-96308621D01*
X143240634Y-96330325D01*
X143261143Y-96362963D01*
X143273192Y-96387983D01*
X143285920Y-96424359D01*
X143291255Y-96447714D01*
X143291480Y-96447671D01*
X143291482Y-96447681D01*
X143291578Y-96447667D01*
X143291948Y-96450088D01*
X143296816Y-96475231D01*
X143307122Y-96528462D01*
X143317548Y-96566090D01*
X143317550Y-96566096D01*
X143317553Y-96566106D01*
X143344872Y-96641096D01*
X143344875Y-96641104D01*
X143399349Y-96725866D01*
X143422659Y-96762137D01*
X143422667Y-96762148D01*
X143468411Y-96814940D01*
X143468414Y-96814943D01*
X143468418Y-96814947D01*
X143577152Y-96909167D01*
X143577155Y-96909168D01*
X143577156Y-96909169D01*
X143688061Y-96959819D01*
X143708029Y-96968938D01*
X143775068Y-96988623D01*
X143775072Y-96988624D01*
X143917488Y-97009100D01*
X143917491Y-97009100D01*
X146969679Y-97009100D01*
X146987661Y-97008779D01*
X146987671Y-97008778D01*
X146987706Y-97008778D01*
X146996552Y-97008462D01*
X147014569Y-97007496D01*
X147155161Y-96976912D01*
X147220625Y-96952495D01*
X147346900Y-96883544D01*
X147448640Y-96781807D01*
X147490512Y-96725874D01*
X147490518Y-96725866D01*
X147493200Y-96720955D01*
X147542604Y-96671548D01*
X147610876Y-96656694D01*
X147676341Y-96681109D01*
X147706349Y-96713338D01*
X147737710Y-96762137D01*
X147737719Y-96762148D01*
X147783463Y-96814940D01*
X147783466Y-96814943D01*
X147783470Y-96814947D01*
X147892204Y-96909167D01*
X147892207Y-96909168D01*
X147892208Y-96909169D01*
X148003113Y-96959819D01*
X148023081Y-96968938D01*
X148090120Y-96988623D01*
X148090124Y-96988624D01*
X148232540Y-97009100D01*
X148232543Y-97009100D01*
X152671483Y-97009100D01*
X152671486Y-97009100D01*
X152803955Y-96991434D01*
X152866674Y-96974403D01*
X152989890Y-96922637D01*
X153102388Y-96832938D01*
X153150263Y-96782048D01*
X153232928Y-96664297D01*
X153276128Y-96536722D01*
X153279074Y-96528022D01*
X153279075Y-96528016D01*
X153279586Y-96525268D01*
X153280010Y-96524430D01*
X153280192Y-96523735D01*
X153280343Y-96523774D01*
X153311180Y-96462950D01*
X153371451Y-96427606D01*
X153441263Y-96430458D01*
X153498450Y-96470600D01*
X153520478Y-96512974D01*
X153558101Y-96641103D01*
X153558103Y-96641107D01*
X153635885Y-96762137D01*
X153635893Y-96762148D01*
X153681637Y-96814940D01*
X153681640Y-96814943D01*
X153681644Y-96814947D01*
X153790378Y-96909167D01*
X153790381Y-96909168D01*
X153790382Y-96909169D01*
X153901287Y-96959819D01*
X153921255Y-96968938D01*
X153988294Y-96988623D01*
X153988298Y-96988624D01*
X154130714Y-97009100D01*
X154130717Y-97009100D01*
X155947993Y-97009100D01*
X155948013Y-97009100D01*
X155952252Y-97009082D01*
X155954279Y-97009065D01*
X155954348Y-97009064D01*
X155954365Y-97009064D01*
X155954585Y-97009061D01*
X155958305Y-97009015D01*
X156116455Y-97006429D01*
X156145364Y-97005128D01*
X156149874Y-97004795D01*
X156159513Y-97004085D01*
X156188329Y-97001128D01*
X156502983Y-96959703D01*
X156511377Y-96958317D01*
X156535604Y-96954318D01*
X156551513Y-96951154D01*
X156583744Y-96943639D01*
X156889315Y-96861761D01*
X156920978Y-96852156D01*
X156936337Y-96846942D01*
X156967288Y-96835293D01*
X157259558Y-96714230D01*
X157289692Y-96700576D01*
X157304239Y-96693402D01*
X157333407Y-96677811D01*
X157607373Y-96519637D01*
X157635463Y-96502170D01*
X157648949Y-96493159D01*
X157675837Y-96473891D01*
X157927621Y-96280691D01*
X157950072Y-96262419D01*
X157960822Y-96253146D01*
X157982194Y-96233615D01*
X158095887Y-96123580D01*
X158098900Y-96120640D01*
X158100345Y-96119218D01*
X158103223Y-96116363D01*
X159037025Y-95182564D01*
X159098347Y-95149080D01*
X159168039Y-95154064D01*
X159223971Y-95195935D01*
X159264552Y-95250144D01*
X159264555Y-95250147D01*
X159379764Y-95336393D01*
X159379771Y-95336397D01*
X159514617Y-95386691D01*
X159514616Y-95386691D01*
X159521544Y-95387435D01*
X159574227Y-95393100D01*
X161447972Y-95393099D01*
X161507583Y-95386691D01*
X161642431Y-95336396D01*
X161757646Y-95250146D01*
X161843896Y-95134931D01*
X161894191Y-95000083D01*
X161900600Y-94940473D01*
X161900599Y-93066728D01*
X161894191Y-93007117D01*
X161857069Y-92907589D01*
X161843897Y-92872271D01*
X161843893Y-92872264D01*
X161757647Y-92757055D01*
X161757644Y-92757052D01*
X161642435Y-92670806D01*
X161642428Y-92670802D01*
X161507582Y-92620508D01*
X161507583Y-92620508D01*
X161447983Y-92614101D01*
X161447981Y-92614100D01*
X161447973Y-92614100D01*
X161447965Y-92614100D01*
X160630052Y-92614100D01*
X160563013Y-92594415D01*
X160517258Y-92541611D01*
X160506069Y-92488072D01*
X160506514Y-92460858D01*
X160506564Y-92456875D01*
X160506582Y-92454714D01*
X160506600Y-92450490D01*
X160506600Y-92178100D01*
X160526285Y-92111061D01*
X160579089Y-92065306D01*
X160630600Y-92054100D01*
X162551657Y-92054100D01*
X162644933Y-92054100D01*
X162653042Y-92054365D01*
X162668532Y-92055380D01*
X162835325Y-92066312D01*
X162851385Y-92068427D01*
X162986605Y-92095324D01*
X163026537Y-92103267D01*
X163042204Y-92107465D01*
X163164811Y-92149084D01*
X163211312Y-92164869D01*
X163226289Y-92171072D01*
X163313693Y-92214175D01*
X163386460Y-92250060D01*
X163400506Y-92258170D01*
X163548991Y-92357384D01*
X163561857Y-92367256D01*
X163597570Y-92398575D01*
X163699153Y-92487660D01*
X163705075Y-92493206D01*
X164841412Y-93629534D01*
X164841475Y-93629603D01*
X164911469Y-93699600D01*
X164917014Y-93705520D01*
X165037442Y-93842842D01*
X165047316Y-93855711D01*
X165146526Y-94004190D01*
X165154636Y-94018236D01*
X165233623Y-94178404D01*
X165239830Y-94193390D01*
X165297233Y-94362495D01*
X165301431Y-94378162D01*
X165336269Y-94553303D01*
X165338386Y-94569384D01*
X165350334Y-94751670D01*
X165350600Y-94759780D01*
X165350600Y-97373535D01*
X165330915Y-97440574D01*
X165278111Y-97486329D01*
X165208953Y-97496273D01*
X165161324Y-97478963D01*
X165113501Y-97449353D01*
X165113498Y-97449352D01*
X164906040Y-97368982D01*
X164687343Y-97328100D01*
X164464857Y-97328100D01*
X164246160Y-97368982D01*
X164189186Y-97391054D01*
X164038701Y-97449352D01*
X164038695Y-97449354D01*
X163849539Y-97566474D01*
X163849537Y-97566476D01*
X163685120Y-97716361D01*
X163551043Y-97893908D01*
X163551038Y-97893916D01*
X163451875Y-98093061D01*
X163451869Y-98093076D01*
X163390985Y-98307062D01*
X163390984Y-98307064D01*
X163370457Y-98528599D01*
X163370457Y-98528600D01*
X163390984Y-98750135D01*
X163390985Y-98750137D01*
X163451869Y-98964123D01*
X163451875Y-98964138D01*
X163551038Y-99163283D01*
X163551043Y-99163291D01*
X163685120Y-99340838D01*
X163849537Y-99490723D01*
X163849539Y-99490725D01*
X164038695Y-99607845D01*
X164038696Y-99607845D01*
X164038699Y-99607847D01*
X164246160Y-99688218D01*
X164464857Y-99729100D01*
X164464859Y-99729100D01*
X164687341Y-99729100D01*
X164687343Y-99729100D01*
X164906040Y-99688218D01*
X165113501Y-99607847D01*
X165161323Y-99578236D01*
X165228683Y-99559681D01*
X165295382Y-99580489D01*
X165340244Y-99634055D01*
X165350600Y-99683664D01*
X165350600Y-99990403D01*
X165350003Y-100002558D01*
X165339180Y-100112440D01*
X165334438Y-100136279D01*
X165304165Y-100236080D01*
X165294863Y-100258538D01*
X165245703Y-100350512D01*
X165232197Y-100370725D01*
X165162197Y-100456019D01*
X165154027Y-100465033D01*
X165087465Y-100531598D01*
X165087449Y-100531612D01*
X165087450Y-100531613D01*
X165025455Y-100593599D01*
X165025341Y-100593723D01*
X164977507Y-100641559D01*
X164753709Y-100914256D01*
X164753699Y-100914270D01*
X164557715Y-101207581D01*
X164557704Y-101207599D01*
X164391415Y-101518704D01*
X164391413Y-101518709D01*
X164256409Y-101844636D01*
X164154000Y-102182237D01*
X164153997Y-102182248D01*
X164085180Y-102528222D01*
X164085177Y-102528239D01*
X164050600Y-102879313D01*
X164050600Y-108507069D01*
X164090968Y-108710012D01*
X164090970Y-108710020D01*
X164170158Y-108901196D01*
X164285124Y-109073257D01*
X164431442Y-109219575D01*
X164431445Y-109219577D01*
X164603502Y-109334541D01*
X164794680Y-109413730D01*
X164997630Y-109454099D01*
X164997634Y-109454100D01*
X164997635Y-109454100D01*
X165204566Y-109454100D01*
X165204567Y-109454099D01*
X165407520Y-109413730D01*
X165598698Y-109334541D01*
X165770755Y-109219577D01*
X165917077Y-109073255D01*
X166032041Y-108901198D01*
X166111230Y-108710020D01*
X166151600Y-108507065D01*
X166151600Y-103059766D01*
X166151865Y-103051657D01*
X166151944Y-103050440D01*
X166163812Y-102869372D01*
X166165927Y-102853316D01*
X166200767Y-102678160D01*
X166204965Y-102662495D01*
X166222263Y-102611536D01*
X166262371Y-102493381D01*
X166268569Y-102478416D01*
X166347563Y-102318233D01*
X166355670Y-102304193D01*
X166411816Y-102220164D01*
X166454887Y-102155703D01*
X166464750Y-102142849D01*
X166585171Y-102005532D01*
X166590698Y-101999632D01*
X166717027Y-101873327D01*
X166717030Y-101873321D01*
X166721525Y-101868828D01*
X166721693Y-101868640D01*
X166739719Y-101850616D01*
X166911604Y-101641172D01*
X167062132Y-101415889D01*
X167189853Y-101176936D01*
X167293538Y-100926615D01*
X167372188Y-100667336D01*
X167425045Y-100401597D01*
X167451601Y-100131956D01*
X167451600Y-99996484D01*
X167451600Y-99992831D01*
X167451600Y-97662891D01*
X167471285Y-97595852D01*
X167524089Y-97550097D01*
X167593247Y-97540153D01*
X167654265Y-97567038D01*
X167742570Y-97639509D01*
X167742577Y-97639513D01*
X167916376Y-97732411D01*
X167916379Y-97732411D01*
X167916383Y-97732414D01*
X168104978Y-97789624D01*
X168301110Y-97808941D01*
X168497242Y-97789624D01*
X168685837Y-97732414D01*
X168715865Y-97716364D01*
X168859642Y-97639513D01*
X168859648Y-97639510D01*
X169011993Y-97514483D01*
X169137020Y-97362138D01*
X169229924Y-97188327D01*
X169257940Y-97095969D01*
X169296237Y-97037534D01*
X169360049Y-97009077D01*
X169429116Y-97019638D01*
X169481510Y-97065862D01*
X169500600Y-97131968D01*
X169500600Y-112975231D01*
X169480915Y-113042270D01*
X169428111Y-113088025D01*
X169358953Y-113097969D01*
X169295397Y-113068944D01*
X169257940Y-113011227D01*
X169229923Y-112918871D01*
X169137023Y-112745067D01*
X169137019Y-112745060D01*
X169011993Y-112592716D01*
X168859649Y-112467690D01*
X168859642Y-112467686D01*
X168685843Y-112374788D01*
X168685837Y-112374786D01*
X168503664Y-112319524D01*
X168497239Y-112317575D01*
X168301110Y-112298259D01*
X168104980Y-112317575D01*
X167916376Y-112374788D01*
X167742577Y-112467686D01*
X167742570Y-112467690D01*
X167590226Y-112592716D01*
X167465200Y-112745060D01*
X167465196Y-112745067D01*
X167372298Y-112918866D01*
X167315085Y-113107470D01*
X167295769Y-113303600D01*
X167315085Y-113499729D01*
X167372298Y-113688333D01*
X167465196Y-113862132D01*
X167465200Y-113862139D01*
X167590226Y-114014483D01*
X167742570Y-114139509D01*
X167742577Y-114139513D01*
X167916376Y-114232411D01*
X167916379Y-114232411D01*
X167916383Y-114232414D01*
X168104978Y-114289624D01*
X168301110Y-114308941D01*
X168497242Y-114289624D01*
X168685837Y-114232414D01*
X168859648Y-114139510D01*
X169011993Y-114014483D01*
X169137020Y-113862138D01*
X169229924Y-113688327D01*
X169257940Y-113595969D01*
X169296237Y-113537534D01*
X169360049Y-113509077D01*
X169429116Y-113519638D01*
X169481510Y-113565862D01*
X169500600Y-113631968D01*
X169500600Y-118756620D01*
X169500452Y-118758905D01*
X169500597Y-118829685D01*
X169500551Y-118833320D01*
X169485504Y-119384791D01*
X169485092Y-119392051D01*
X169437906Y-119939824D01*
X169437070Y-119947048D01*
X169357851Y-120491129D01*
X169356593Y-120498291D01*
X169245617Y-121036797D01*
X169243941Y-121043873D01*
X169101590Y-121574942D01*
X169099502Y-121581908D01*
X168926264Y-122103721D01*
X168923771Y-122110553D01*
X168720241Y-122621316D01*
X168717352Y-122627989D01*
X168484237Y-123125930D01*
X168480963Y-123132423D01*
X168219056Y-123615852D01*
X168215405Y-123622141D01*
X167925607Y-124089389D01*
X167921595Y-124095454D01*
X167604908Y-124544908D01*
X167600547Y-124550728D01*
X167258059Y-124980842D01*
X167253364Y-124986395D01*
X166886253Y-125395692D01*
X166881241Y-125400961D01*
X166490767Y-125788035D01*
X166485455Y-125793001D01*
X166072430Y-126156989D01*
X166067979Y-126160729D01*
X165317849Y-126761745D01*
X165314401Y-126764409D01*
X164543095Y-127339092D01*
X164539557Y-127341634D01*
X163748497Y-127888895D01*
X163744870Y-127891310D01*
X162935118Y-128410412D01*
X162931410Y-128412699D01*
X162103876Y-128903059D01*
X162100089Y-128905214D01*
X161255849Y-129366195D01*
X161251989Y-129368215D01*
X160392101Y-129799240D01*
X160388172Y-129801124D01*
X159513644Y-130201686D01*
X159509652Y-130203430D01*
X158621610Y-130573015D01*
X158617559Y-130574618D01*
X157717073Y-130912780D01*
X157712967Y-130914240D01*
X156801178Y-131220551D01*
X156797025Y-131221866D01*
X155875000Y-131495967D01*
X155870802Y-131497135D01*
X154940044Y-131738590D01*
X154935075Y-131739770D01*
X154501774Y-131833316D01*
X154496019Y-131834417D01*
X154059101Y-131907339D01*
X154053302Y-131908167D01*
X153613415Y-131960372D01*
X153607582Y-131960925D01*
X153165709Y-131992295D01*
X153159858Y-131992571D01*
X152725575Y-132002833D01*
X152715834Y-132003064D01*
X152712906Y-132003099D01*
X152640612Y-132003099D01*
X152640596Y-132003100D01*
X144289348Y-132003100D01*
X144286419Y-132003065D01*
X144271642Y-132002715D01*
X143842187Y-131992567D01*
X143836335Y-131992291D01*
X143394503Y-131960922D01*
X143388671Y-131960369D01*
X142948833Y-131908167D01*
X142943033Y-131907339D01*
X142506157Y-131834421D01*
X142500402Y-131833320D01*
X142067132Y-131739775D01*
X142062164Y-131738595D01*
X141131393Y-131497141D01*
X141127196Y-131495973D01*
X140205184Y-131221880D01*
X140201030Y-131220565D01*
X139289246Y-130914260D01*
X139285141Y-130912801D01*
X138384611Y-130574626D01*
X138380560Y-130573022D01*
X137492550Y-130203454D01*
X137488557Y-130201710D01*
X136614018Y-129801144D01*
X136610089Y-129799260D01*
X135750198Y-129368236D01*
X135746338Y-129366216D01*
X134902096Y-128905235D01*
X134898309Y-128903080D01*
X134070774Y-128412719D01*
X134067066Y-128410432D01*
X133257326Y-127891337D01*
X133253700Y-127888922D01*
X132462612Y-127341642D01*
X132459073Y-127339100D01*
X131687779Y-126764425D01*
X131684331Y-126761761D01*
X130934608Y-126161068D01*
X130930155Y-126157326D01*
X130516675Y-125792920D01*
X130511362Y-125787953D01*
X130120816Y-125400781D01*
X130115803Y-125395511D01*
X129985920Y-125250690D01*
X129748620Y-124986097D01*
X129743927Y-124980544D01*
X129401390Y-124550318D01*
X129397028Y-124544497D01*
X129080304Y-124094927D01*
X129076291Y-124088861D01*
X128786461Y-123621480D01*
X128782814Y-123615193D01*
X128617392Y-123309791D01*
X128520889Y-123131628D01*
X128517618Y-123125142D01*
X128510140Y-123109165D01*
X128284494Y-122627048D01*
X128281606Y-122620373D01*
X128155417Y-122303596D01*
X141795545Y-122303596D01*
X141795545Y-122303603D01*
X141815740Y-122482849D01*
X141815741Y-122482854D01*
X141875321Y-122653123D01*
X141929699Y-122739664D01*
X141971294Y-122805862D01*
X142098848Y-122933416D01*
X142251588Y-123029389D01*
X142421855Y-123088968D01*
X142421860Y-123088969D01*
X142601106Y-123109165D01*
X142601110Y-123109165D01*
X142601114Y-123109165D01*
X142780359Y-123088969D01*
X142780362Y-123088968D01*
X142780365Y-123088968D01*
X142950632Y-123029389D01*
X143103372Y-122933416D01*
X143230926Y-122805862D01*
X143326899Y-122653122D01*
X143386478Y-122482855D01*
X143406675Y-122303600D01*
X143390458Y-122159671D01*
X143386479Y-122124350D01*
X143386478Y-122124345D01*
X143331222Y-121966433D01*
X143326899Y-121954078D01*
X143230926Y-121801338D01*
X143103372Y-121673784D01*
X143028867Y-121626969D01*
X142982577Y-121574635D01*
X142972251Y-121507672D01*
X156591646Y-121507672D01*
X156591646Y-121507685D01*
X156611132Y-121966420D01*
X156669456Y-122421882D01*
X156766193Y-122870743D01*
X156766195Y-122870751D01*
X156900648Y-123309785D01*
X156900650Y-123309791D01*
X157071846Y-123735829D01*
X157071850Y-123735840D01*
X157278560Y-124145824D01*
X157278570Y-124145842D01*
X157519315Y-124536837D01*
X157792351Y-124906006D01*
X157792359Y-124906015D01*
X157792362Y-124906019D01*
X158095710Y-125250688D01*
X158095712Y-125250690D01*
X158427210Y-125568406D01*
X158784459Y-125856864D01*
X159164884Y-126113987D01*
X159343044Y-126213512D01*
X159565734Y-126337915D01*
X159565756Y-126337926D01*
X159984144Y-126527050D01*
X159984149Y-126527052D01*
X160183687Y-126597553D01*
X160417089Y-126680019D01*
X160861440Y-126795719D01*
X161314003Y-126873319D01*
X161455632Y-126885373D01*
X161771497Y-126912258D01*
X161771514Y-126912258D01*
X161771516Y-126912259D01*
X161771517Y-126912259D01*
X162230683Y-126912259D01*
X162230684Y-126912259D01*
X162230685Y-126912258D01*
X162230702Y-126912258D01*
X162503004Y-126889081D01*
X162688197Y-126873319D01*
X163140760Y-126795719D01*
X163585111Y-126680019D01*
X164018050Y-126527052D01*
X164018055Y-126527050D01*
X164436443Y-126337926D01*
X164436445Y-126337924D01*
X164436456Y-126337920D01*
X164837316Y-126113987D01*
X165217741Y-125856864D01*
X165574990Y-125568406D01*
X165906488Y-125250690D01*
X166209849Y-124906006D01*
X166482885Y-124536837D01*
X166723630Y-124145842D01*
X166930349Y-123735840D01*
X167101552Y-123309783D01*
X167236007Y-122870743D01*
X167332744Y-122421881D01*
X167391066Y-121966433D01*
X167392773Y-121926266D01*
X167410554Y-121507685D01*
X167410554Y-121507672D01*
X167391067Y-121048937D01*
X167391066Y-121048931D01*
X167391066Y-121048925D01*
X167332744Y-120593477D01*
X167236007Y-120144615D01*
X167101552Y-119705575D01*
X167101551Y-119705572D01*
X167101549Y-119705566D01*
X166930353Y-119279528D01*
X166930349Y-119279517D01*
X166723639Y-118869533D01*
X166723628Y-118869513D01*
X166699089Y-118829659D01*
X166482885Y-118478521D01*
X166209849Y-118109352D01*
X166043751Y-117920629D01*
X165906489Y-117764669D01*
X165906488Y-117764668D01*
X165574992Y-117446954D01*
X165574990Y-117446952D01*
X165217741Y-117158494D01*
X164837316Y-116901371D01*
X164826792Y-116895492D01*
X164436465Y-116677442D01*
X164436443Y-116677431D01*
X164018055Y-116488307D01*
X164018050Y-116488305D01*
X163585106Y-116335337D01*
X163140758Y-116219638D01*
X162688207Y-116142040D01*
X162688181Y-116142037D01*
X162230702Y-116103099D01*
X162230684Y-116103099D01*
X161771516Y-116103099D01*
X161771497Y-116103099D01*
X161314018Y-116142037D01*
X161313992Y-116142040D01*
X160861441Y-116219638D01*
X160417093Y-116335337D01*
X159984149Y-116488305D01*
X159984144Y-116488307D01*
X159565756Y-116677431D01*
X159565734Y-116677442D01*
X159164892Y-116901366D01*
X159164873Y-116901378D01*
X158784464Y-117158490D01*
X158427207Y-117446954D01*
X158095711Y-117764668D01*
X158095710Y-117764669D01*
X157792362Y-118109338D01*
X157792355Y-118109347D01*
X157792351Y-118109352D01*
X157597788Y-118372417D01*
X157519314Y-118478522D01*
X157278571Y-118869513D01*
X157278560Y-118869533D01*
X157071850Y-119279517D01*
X157071846Y-119279528D01*
X156900650Y-119705566D01*
X156900648Y-119705572D01*
X156766195Y-120144606D01*
X156766193Y-120144614D01*
X156669456Y-120593475D01*
X156611132Y-121048937D01*
X156591646Y-121507672D01*
X142972251Y-121507672D01*
X142971929Y-121505581D01*
X143000304Y-121441733D01*
X143058694Y-121403361D01*
X143108723Y-121398756D01*
X143201106Y-121409165D01*
X143201110Y-121409165D01*
X143201114Y-121409165D01*
X143380359Y-121388969D01*
X143380362Y-121388968D01*
X143380365Y-121388968D01*
X143550632Y-121329389D01*
X143703372Y-121233416D01*
X143830926Y-121105862D01*
X143926899Y-120953122D01*
X143986478Y-120782855D01*
X144006675Y-120603600D01*
X144005534Y-120593477D01*
X143986479Y-120424350D01*
X143986478Y-120424345D01*
X143926898Y-120254076D01*
X143830925Y-120101337D01*
X143703372Y-119973784D01*
X143550633Y-119877811D01*
X143380364Y-119818231D01*
X143380359Y-119818230D01*
X143201114Y-119798035D01*
X143201106Y-119798035D01*
X143021860Y-119818230D01*
X143021855Y-119818231D01*
X142851586Y-119877811D01*
X142698847Y-119973784D01*
X142571294Y-120101337D01*
X142475321Y-120254076D01*
X142415741Y-120424345D01*
X142415740Y-120424350D01*
X142395545Y-120603596D01*
X142395545Y-120603603D01*
X142415740Y-120782849D01*
X142415741Y-120782854D01*
X142475321Y-120953123D01*
X142560757Y-121089092D01*
X142571294Y-121105862D01*
X142698848Y-121233416D01*
X142773351Y-121280229D01*
X142819642Y-121332564D01*
X142830290Y-121401617D01*
X142801915Y-121465466D01*
X142743526Y-121503838D01*
X142693497Y-121508443D01*
X142601115Y-121498035D01*
X142601106Y-121498035D01*
X142421860Y-121518230D01*
X142421855Y-121518231D01*
X142251586Y-121577811D01*
X142098847Y-121673784D01*
X141971294Y-121801337D01*
X141875321Y-121954076D01*
X141815741Y-122124345D01*
X141815740Y-122124350D01*
X141795545Y-122303596D01*
X128155417Y-122303596D01*
X128098584Y-122160925D01*
X128078092Y-122109483D01*
X128075604Y-122102663D01*
X127902377Y-121580666D01*
X127900307Y-121573755D01*
X127757993Y-121042537D01*
X127756318Y-121035463D01*
X127645388Y-120496787D01*
X127644139Y-120489664D01*
X127564983Y-119945408D01*
X127564153Y-119938231D01*
X127517045Y-119390280D01*
X127516636Y-119383029D01*
X127501652Y-118830110D01*
X127501606Y-118826474D01*
X127501697Y-118785566D01*
X127501746Y-118763767D01*
X127501745Y-118763764D01*
X127501760Y-118757145D01*
X127501600Y-118754650D01*
X127501600Y-91157966D01*
X127501653Y-91154339D01*
X127503548Y-91089594D01*
X127517753Y-90604204D01*
X127518174Y-90597008D01*
X127566268Y-90050510D01*
X127567107Y-90043373D01*
X127647077Y-89500642D01*
X127648331Y-89493568D01*
X127759903Y-88956451D01*
X127761572Y-88949448D01*
X127904370Y-88419759D01*
X127906460Y-88412824D01*
X127914744Y-88387980D01*
X128079975Y-87892441D01*
X128082448Y-87885688D01*
X128286121Y-87376291D01*
X128288992Y-87369681D01*
X128522091Y-86873105D01*
X128525346Y-86866667D01*
X128787091Y-86384566D01*
X128790735Y-86378301D01*
X129080215Y-85912354D01*
X129084197Y-85906343D01*
X129400472Y-85458066D01*
X129404775Y-85452332D01*
X129746714Y-85023334D01*
X129751347Y-85017858D01*
X130117803Y-84609578D01*
X130122754Y-84604377D01*
X130512422Y-84218265D01*
X130517716Y-84213318D01*
X130558821Y-84177099D01*
X130930346Y-83849733D01*
X130934736Y-83846045D01*
X131684369Y-83245427D01*
X131687777Y-83242795D01*
X132459123Y-82668081D01*
X132462617Y-82665570D01*
X133253747Y-82118263D01*
X133257281Y-82115910D01*
X134067115Y-81596757D01*
X134070780Y-81594497D01*
X134898336Y-81104125D01*
X134902075Y-81101997D01*
X135746400Y-80640972D01*
X135750165Y-80639002D01*
X136610148Y-80207934D01*
X136613990Y-80206091D01*
X137488597Y-79805497D01*
X137492494Y-79803794D01*
X138380664Y-79434161D01*
X138384585Y-79432609D01*
X139285147Y-79094425D01*
X139289220Y-79092976D01*
X140201104Y-78786640D01*
X140205191Y-78785347D01*
X141127238Y-78511246D01*
X141131394Y-78510090D01*
X141614365Y-78384802D01*
X142063035Y-78268414D01*
X142067991Y-78267235D01*
X142500483Y-78173867D01*
X142506181Y-78172778D01*
X142943154Y-78099849D01*
X142948913Y-78099026D01*
X143388871Y-78046815D01*
X143394636Y-78046269D01*
X143836583Y-78014897D01*
X143842394Y-78014622D01*
X144286418Y-78004134D01*
X144289344Y-78004100D01*
X144354087Y-78004101D01*
X144354091Y-78004100D01*
X152648408Y-78004100D01*
X152712851Y-78004100D01*
X152715780Y-78004134D01*
G37*
%TD.AperFunction*%
%TA.AperFunction,Conductor*%
G36*
X153453273Y-95512610D02*
G01*
X153480337Y-95518787D01*
X153516720Y-95531518D01*
X153541736Y-95543565D01*
X153572584Y-95562949D01*
X153572585Y-95562950D01*
X153574369Y-95564071D01*
X153596077Y-95581383D01*
X153623317Y-95608623D01*
X153640629Y-95630332D01*
X153661132Y-95662962D01*
X153673181Y-95687980D01*
X153685909Y-95724355D01*
X153692087Y-95751426D01*
X153696401Y-95789716D01*
X153696401Y-95817482D01*
X153692087Y-95855772D01*
X153685909Y-95882843D01*
X153673182Y-95919215D01*
X153661134Y-95944232D01*
X153599141Y-96042894D01*
X153599115Y-96042959D01*
X153565257Y-96106503D01*
X153565256Y-96106507D01*
X153562906Y-96114823D01*
X153557406Y-96130289D01*
X153543957Y-96161409D01*
X153519531Y-96247861D01*
X153482360Y-96307022D01*
X153419105Y-96336696D01*
X153349848Y-96327460D01*
X153296579Y-96282248D01*
X153279898Y-96244189D01*
X153277257Y-96233615D01*
X153262860Y-96175962D01*
X153240867Y-96122078D01*
X153230726Y-96097233D01*
X153228745Y-96095619D01*
X153217676Y-96075824D01*
X153202998Y-96042799D01*
X153194602Y-96029438D01*
X153187909Y-96018788D01*
X153148082Y-95955403D01*
X153148081Y-95955402D01*
X153147148Y-95953917D01*
X153144383Y-95949516D01*
X153141071Y-95944246D01*
X153129019Y-95919224D01*
X153116287Y-95882838D01*
X153110111Y-95855775D01*
X153105796Y-95817470D01*
X153105797Y-95789711D01*
X153106571Y-95782840D01*
X153110110Y-95751425D01*
X153116286Y-95724361D01*
X153129019Y-95687973D01*
X153141066Y-95662961D01*
X153161569Y-95630331D01*
X153178877Y-95608626D01*
X153206126Y-95581377D01*
X153227831Y-95564069D01*
X153260461Y-95543566D01*
X153285473Y-95531519D01*
X153321861Y-95518786D01*
X153348922Y-95512610D01*
X153387218Y-95508296D01*
X153414980Y-95508296D01*
X153453273Y-95512610D01*
G37*
%TD.AperFunction*%
%TA.AperFunction,Conductor*%
G36*
X147653273Y-95412610D02*
G01*
X147680337Y-95418787D01*
X147716720Y-95431518D01*
X147741739Y-95443567D01*
X147746008Y-95446250D01*
X147760825Y-95455561D01*
X147760829Y-95455562D01*
X147774366Y-95464068D01*
X147796074Y-95481380D01*
X147823317Y-95508623D01*
X147840630Y-95530332D01*
X147861134Y-95562964D01*
X147873181Y-95587981D01*
X147885908Y-95624352D01*
X147892086Y-95651420D01*
X147894720Y-95674792D01*
X147896402Y-95689721D01*
X147896402Y-95717484D01*
X147892088Y-95755770D01*
X147885910Y-95782840D01*
X147873181Y-95819218D01*
X147861132Y-95844237D01*
X147840628Y-95876868D01*
X147823319Y-95898574D01*
X147787408Y-95934486D01*
X147774904Y-95947442D01*
X147768888Y-95953903D01*
X147756793Y-95967367D01*
X147706738Y-96045256D01*
X147653934Y-96091011D01*
X147584775Y-96100955D01*
X147521219Y-96071930D01*
X147503155Y-96052528D01*
X147501007Y-96049658D01*
X147414783Y-95934477D01*
X147414778Y-95934472D01*
X147414774Y-95934467D01*
X147378882Y-95898576D01*
X147361569Y-95876866D01*
X147341066Y-95844236D01*
X147329018Y-95819219D01*
X147316290Y-95782845D01*
X147310111Y-95755775D01*
X147305796Y-95717470D01*
X147305797Y-95689711D01*
X147310110Y-95651429D01*
X147316286Y-95624361D01*
X147329019Y-95587973D01*
X147341066Y-95562961D01*
X147361569Y-95530331D01*
X147378877Y-95508626D01*
X147406126Y-95481377D01*
X147427831Y-95464069D01*
X147460461Y-95443566D01*
X147485473Y-95431519D01*
X147521861Y-95418786D01*
X147548922Y-95412610D01*
X147587218Y-95408296D01*
X147614980Y-95408296D01*
X147653273Y-95412610D01*
G37*
%TD.AperFunction*%
%TA.AperFunction,Conductor*%
G36*
X142053273Y-92212610D02*
G01*
X142080339Y-92218788D01*
X142116720Y-92231518D01*
X142141730Y-92243561D01*
X142174372Y-92264072D01*
X142196075Y-92281381D01*
X142223316Y-92308622D01*
X142240628Y-92330329D01*
X142261136Y-92362968D01*
X142273181Y-92387979D01*
X142276108Y-92396343D01*
X142276108Y-92396345D01*
X142285910Y-92424357D01*
X142285910Y-92424358D01*
X142292087Y-92451425D01*
X142296401Y-92489713D01*
X142296402Y-92517478D01*
X142293791Y-92540656D01*
X142293789Y-92540655D01*
X142293789Y-92540669D01*
X142292085Y-92555783D01*
X142285908Y-92582844D01*
X142273181Y-92619217D01*
X142261132Y-92644236D01*
X142240629Y-92676866D01*
X142223317Y-92698575D01*
X142196075Y-92725817D01*
X142174366Y-92743129D01*
X142141736Y-92763632D01*
X142116718Y-92775681D01*
X142080343Y-92788409D01*
X142053272Y-92794587D01*
X142014982Y-92798901D01*
X141987216Y-92798901D01*
X141948926Y-92794587D01*
X141921855Y-92788409D01*
X141885480Y-92775681D01*
X141860462Y-92763632D01*
X141827832Y-92743129D01*
X141806123Y-92725817D01*
X141778881Y-92698575D01*
X141761572Y-92676872D01*
X141741061Y-92644230D01*
X141729019Y-92619224D01*
X141716287Y-92582838D01*
X141710111Y-92555775D01*
X141705796Y-92517470D01*
X141705797Y-92489711D01*
X141707898Y-92471067D01*
X141710110Y-92451425D01*
X141716288Y-92424358D01*
X141729019Y-92387973D01*
X141741066Y-92362961D01*
X141761569Y-92330331D01*
X141778877Y-92308626D01*
X141806126Y-92281377D01*
X141827831Y-92264069D01*
X141860461Y-92243566D01*
X141885473Y-92231519D01*
X141921861Y-92218786D01*
X141948922Y-92212610D01*
X141987218Y-92208296D01*
X142014980Y-92208296D01*
X142053273Y-92212610D01*
G37*
%TD.AperFunction*%
%TA.AperFunction,Conductor*%
G36*
X151353273Y-91912610D02*
G01*
X151380337Y-91918787D01*
X151416720Y-91931518D01*
X151441736Y-91943566D01*
X151474366Y-91964069D01*
X151496075Y-91981381D01*
X151523319Y-92008625D01*
X151540628Y-92030328D01*
X151571648Y-92079696D01*
X151589874Y-92131781D01*
X151596108Y-92187112D01*
X151596402Y-92189721D01*
X151596402Y-92217484D01*
X151592089Y-92255769D01*
X151585910Y-92282841D01*
X151573183Y-92319214D01*
X151561134Y-92344234D01*
X151540629Y-92376867D01*
X151523317Y-92398575D01*
X151496075Y-92425817D01*
X151474366Y-92443129D01*
X151441736Y-92463632D01*
X151416718Y-92475681D01*
X151380343Y-92488409D01*
X151353272Y-92494587D01*
X151314982Y-92498901D01*
X151287216Y-92498901D01*
X151248926Y-92494587D01*
X151221855Y-92488409D01*
X151185480Y-92475681D01*
X151160462Y-92463632D01*
X151127832Y-92443129D01*
X151106123Y-92425817D01*
X151078881Y-92398575D01*
X151061572Y-92376872D01*
X151041061Y-92344230D01*
X151029019Y-92319224D01*
X151016287Y-92282838D01*
X151010111Y-92255773D01*
X151006752Y-92225961D01*
X151005704Y-92216652D01*
X151005512Y-92190725D01*
X151005862Y-92187136D01*
X151006474Y-92179723D01*
X151007488Y-92164729D01*
X151007488Y-92164728D01*
X151001211Y-92095324D01*
X151014777Y-92026784D01*
X151063245Y-91976459D01*
X151083751Y-91967114D01*
X151107979Y-91958636D01*
X151108054Y-91958613D01*
X151114463Y-91956368D01*
X151114514Y-91956350D01*
X151118529Y-91954944D01*
X151118530Y-91954945D01*
X151221862Y-91918786D01*
X151248920Y-91912611D01*
X151287218Y-91908296D01*
X151314980Y-91908296D01*
X151353273Y-91912610D01*
G37*
%TD.AperFunction*%
%TA.AperFunction,Conductor*%
G36*
X149561376Y-89794416D02*
G01*
X149623778Y-89807254D01*
X149673739Y-89856097D01*
X149684820Y-89882702D01*
X149698565Y-89930835D01*
X149698566Y-89930838D01*
X149775443Y-90052441D01*
X149775446Y-90052445D01*
X149775449Y-90052449D01*
X149816150Y-90100133D01*
X149816150Y-90100132D01*
X149832584Y-90119386D01*
X149838490Y-90121638D01*
X149852772Y-90134342D01*
X149889165Y-90172129D01*
X149904674Y-90184200D01*
X149946431Y-90216702D01*
X149946441Y-90216710D01*
X150033774Y-90284683D01*
X150048842Y-90298555D01*
X150088666Y-90341816D01*
X150088672Y-90341823D01*
X150134143Y-90391218D01*
X150146721Y-90407378D01*
X150181241Y-90460215D01*
X150215607Y-90512815D01*
X150225354Y-90530827D01*
X150275949Y-90646173D01*
X150282598Y-90665542D01*
X150313518Y-90787640D01*
X150316890Y-90807842D01*
X150327290Y-90933360D01*
X150327290Y-90953838D01*
X150316890Y-91079354D01*
X150313519Y-91099554D01*
X150287517Y-91202235D01*
X150287492Y-91202339D01*
X150284824Y-91212874D01*
X150269571Y-91351599D01*
X150269571Y-91351603D01*
X150271416Y-91415240D01*
X150253682Y-91482822D01*
X150202226Y-91530087D01*
X150184653Y-91537126D01*
X150182186Y-91537901D01*
X150182170Y-91537907D01*
X150182167Y-91537908D01*
X150157608Y-91547597D01*
X150117178Y-91563548D01*
X149992216Y-91634862D01*
X149934367Y-91679885D01*
X149917228Y-91691082D01*
X149806465Y-91751026D01*
X149787708Y-91759253D01*
X149668584Y-91800148D01*
X149648733Y-91805176D01*
X149560914Y-91819830D01*
X149524489Y-91825909D01*
X149504081Y-91827600D01*
X149378139Y-91827600D01*
X149357730Y-91825909D01*
X149321308Y-91819831D01*
X149233481Y-91805175D01*
X149213629Y-91800147D01*
X149094517Y-91759255D01*
X149075763Y-91751029D01*
X148964986Y-91691080D01*
X148947840Y-91679878D01*
X148848447Y-91602517D01*
X148833384Y-91588651D01*
X148748071Y-91495977D01*
X148735494Y-91479816D01*
X148698123Y-91422614D01*
X148698113Y-91422601D01*
X148698108Y-91422593D01*
X148656953Y-91368043D01*
X148656951Y-91368041D01*
X148656946Y-91368034D01*
X148635063Y-91342780D01*
X148635060Y-91342777D01*
X148635049Y-91342764D01*
X148622709Y-91330331D01*
X148586913Y-91294263D01*
X148552070Y-91271499D01*
X148466458Y-91215566D01*
X148450850Y-91208296D01*
X148438062Y-91202339D01*
X148404667Y-91186783D01*
X148403427Y-91186185D01*
X148403117Y-91186061D01*
X148374431Y-91177404D01*
X148315938Y-91139189D01*
X148287392Y-91075417D01*
X148286683Y-91048452D01*
X148287001Y-91044622D01*
X148292556Y-90977581D01*
X148295372Y-90943604D01*
X148295372Y-90943595D01*
X148289413Y-90871682D01*
X148286721Y-90839201D01*
X148300801Y-90770767D01*
X148349646Y-90720807D01*
X148376251Y-90709728D01*
X148428300Y-90694869D01*
X148549922Y-90617994D01*
X148603068Y-90572638D01*
X148603072Y-90572634D01*
X148698107Y-90464607D01*
X148735495Y-90407379D01*
X148748069Y-90391225D01*
X148804125Y-90330331D01*
X148833385Y-90298545D01*
X148848446Y-90284680D01*
X148977547Y-90184200D01*
X148980929Y-90182865D01*
X149013266Y-90154845D01*
X149013267Y-90154846D01*
X149033223Y-90137555D01*
X149081702Y-90089445D01*
X149160409Y-89969001D01*
X149189199Y-89907207D01*
X149189797Y-89905968D01*
X149189911Y-89905679D01*
X149189917Y-89905668D01*
X149189918Y-89905666D01*
X149197404Y-89880868D01*
X149235623Y-89822381D01*
X149299397Y-89793839D01*
X149320844Y-89793276D01*
X149320844Y-89793100D01*
X149561376Y-89793100D01*
X149561376Y-89794416D01*
G37*
%TD.AperFunction*%
%TA.AperFunction,Conductor*%
G36*
X153053273Y-91212610D02*
G01*
X153080339Y-91218788D01*
X153116723Y-91231519D01*
X153141736Y-91243564D01*
X153174364Y-91264066D01*
X153196072Y-91281378D01*
X153223319Y-91308625D01*
X153240632Y-91330334D01*
X153250348Y-91345797D01*
X153250347Y-91345797D01*
X153250350Y-91345801D01*
X153261133Y-91362963D01*
X153273179Y-91387977D01*
X153285908Y-91424354D01*
X153292086Y-91451422D01*
X153292088Y-91451428D01*
X153296402Y-91489720D01*
X153296402Y-91517483D01*
X153292089Y-91555770D01*
X153285910Y-91582843D01*
X153273183Y-91619215D01*
X153261134Y-91644234D01*
X153240629Y-91676867D01*
X153223317Y-91698575D01*
X153196075Y-91725817D01*
X153174366Y-91743129D01*
X153141736Y-91763632D01*
X153116718Y-91775681D01*
X153080343Y-91788409D01*
X153053272Y-91794587D01*
X153014982Y-91798901D01*
X152987217Y-91798901D01*
X152948925Y-91794587D01*
X152921852Y-91788408D01*
X152885478Y-91775680D01*
X152860471Y-91763639D01*
X152858131Y-91762169D01*
X152858120Y-91762162D01*
X152827833Y-91743131D01*
X152806125Y-91725819D01*
X152778879Y-91698573D01*
X152761566Y-91676864D01*
X152730550Y-91627502D01*
X152712323Y-91575413D01*
X152705796Y-91517469D01*
X152705796Y-91489714D01*
X152710111Y-91451423D01*
X152716286Y-91424361D01*
X152729019Y-91387973D01*
X152741066Y-91362961D01*
X152761569Y-91330331D01*
X152778879Y-91308625D01*
X152806126Y-91281377D01*
X152827831Y-91264069D01*
X152860461Y-91243566D01*
X152885473Y-91231519D01*
X152921861Y-91218786D01*
X152948922Y-91212610D01*
X152987218Y-91208296D01*
X153014980Y-91208296D01*
X153053273Y-91212610D01*
G37*
%TD.AperFunction*%
%TA.AperFunction,Conductor*%
G36*
X142053273Y-90212610D02*
G01*
X142080339Y-90218788D01*
X142116723Y-90231519D01*
X142141736Y-90243564D01*
X142174364Y-90264066D01*
X142196072Y-90281378D01*
X142223317Y-90308623D01*
X142240629Y-90330332D01*
X142261132Y-90362962D01*
X142273181Y-90387980D01*
X142285909Y-90424355D01*
X142292087Y-90451425D01*
X142296401Y-90489712D01*
X142296401Y-90517480D01*
X142292086Y-90555775D01*
X142285908Y-90582844D01*
X142273181Y-90619217D01*
X142261132Y-90644236D01*
X142240629Y-90676866D01*
X142223317Y-90698575D01*
X142196075Y-90725817D01*
X142174366Y-90743129D01*
X142141736Y-90763632D01*
X142116718Y-90775681D01*
X142080343Y-90788409D01*
X142053272Y-90794587D01*
X142014982Y-90798901D01*
X141987216Y-90798901D01*
X141948926Y-90794587D01*
X141921855Y-90788409D01*
X141885480Y-90775681D01*
X141860462Y-90763632D01*
X141827832Y-90743129D01*
X141806123Y-90725817D01*
X141778881Y-90698575D01*
X141761569Y-90676867D01*
X141743167Y-90647580D01*
X141743164Y-90647577D01*
X141741073Y-90644250D01*
X141729019Y-90619222D01*
X141716290Y-90582845D01*
X141710111Y-90555775D01*
X141705796Y-90517470D01*
X141705797Y-90489711D01*
X141708625Y-90464613D01*
X141710110Y-90451425D01*
X141716286Y-90424361D01*
X141729019Y-90387973D01*
X141741066Y-90362961D01*
X141761569Y-90330331D01*
X141778877Y-90308626D01*
X141806126Y-90281377D01*
X141827831Y-90264069D01*
X141860461Y-90243566D01*
X141885473Y-90231519D01*
X141921861Y-90218786D01*
X141948922Y-90212610D01*
X141987218Y-90208296D01*
X142014980Y-90208296D01*
X142053273Y-90212610D01*
G37*
%TD.AperFunction*%
%TA.AperFunction,Conductor*%
G36*
X153053273Y-89212610D02*
G01*
X153080338Y-89218788D01*
X153116715Y-89231516D01*
X153141731Y-89243562D01*
X153174367Y-89264069D01*
X153196075Y-89281381D01*
X153223317Y-89308623D01*
X153240624Y-89330323D01*
X153242664Y-89333569D01*
X153242671Y-89333582D01*
X153242672Y-89333582D01*
X153261132Y-89362961D01*
X153273180Y-89387979D01*
X153285909Y-89424357D01*
X153292087Y-89451427D01*
X153296401Y-89489715D01*
X153296401Y-89517482D01*
X153292087Y-89555771D01*
X153285909Y-89582841D01*
X153273181Y-89619217D01*
X153261132Y-89644236D01*
X153240629Y-89676866D01*
X153223317Y-89698575D01*
X153196075Y-89725817D01*
X153174366Y-89743129D01*
X153141736Y-89763632D01*
X153116718Y-89775681D01*
X153080343Y-89788409D01*
X153053272Y-89794587D01*
X153014982Y-89798901D01*
X152987216Y-89798901D01*
X152948926Y-89794587D01*
X152921855Y-89788409D01*
X152885480Y-89775681D01*
X152860462Y-89763632D01*
X152827832Y-89743129D01*
X152806123Y-89725817D01*
X152778881Y-89698575D01*
X152761572Y-89676872D01*
X152741061Y-89644230D01*
X152729019Y-89619224D01*
X152716287Y-89582838D01*
X152710111Y-89555775D01*
X152705796Y-89517470D01*
X152705797Y-89489711D01*
X152710110Y-89451429D01*
X152710111Y-89451427D01*
X152710110Y-89451425D01*
X152716286Y-89424361D01*
X152729019Y-89387973D01*
X152741066Y-89362961D01*
X152761569Y-89330331D01*
X152778877Y-89308626D01*
X152806126Y-89281377D01*
X152827831Y-89264069D01*
X152860461Y-89243566D01*
X152885473Y-89231519D01*
X152921861Y-89218786D01*
X152948922Y-89212610D01*
X152987218Y-89208296D01*
X153014980Y-89208296D01*
X153053273Y-89212610D01*
G37*
%TD.AperFunction*%
%TA.AperFunction,Conductor*%
G36*
X159053273Y-88212610D02*
G01*
X159080339Y-88218788D01*
X159116714Y-88231516D01*
X159141748Y-88243574D01*
X159146390Y-88246491D01*
X159146401Y-88246496D01*
X159174366Y-88264068D01*
X159196074Y-88281380D01*
X159223317Y-88308623D01*
X159240630Y-88330333D01*
X159261135Y-88362967D01*
X159273181Y-88387980D01*
X159278647Y-88403599D01*
X159282927Y-88415829D01*
X159285936Y-88421802D01*
X159299286Y-88448303D01*
X159311866Y-88517031D01*
X159298565Y-88561283D01*
X159282932Y-88591354D01*
X159282927Y-88591365D01*
X159273180Y-88619221D01*
X159261133Y-88644235D01*
X159240630Y-88676865D01*
X159223318Y-88698574D01*
X159196075Y-88725817D01*
X159174366Y-88743129D01*
X159141736Y-88763632D01*
X159116718Y-88775681D01*
X159080343Y-88788409D01*
X159053272Y-88794587D01*
X159014982Y-88798901D01*
X158987216Y-88798901D01*
X158948926Y-88794587D01*
X158921858Y-88788410D01*
X158905941Y-88782841D01*
X158905941Y-88782840D01*
X158905938Y-88782840D01*
X158885478Y-88775680D01*
X158860464Y-88763634D01*
X158827831Y-88743129D01*
X158806123Y-88725817D01*
X158778882Y-88698576D01*
X158761569Y-88676867D01*
X158756805Y-88669285D01*
X158741061Y-88644229D01*
X158729019Y-88619223D01*
X158716288Y-88582840D01*
X158710112Y-88555775D01*
X158705797Y-88517475D01*
X158705797Y-88489711D01*
X158710110Y-88451425D01*
X158716286Y-88424361D01*
X158729019Y-88387973D01*
X158741066Y-88362961D01*
X158761569Y-88330331D01*
X158778877Y-88308626D01*
X158806126Y-88281377D01*
X158827831Y-88264069D01*
X158860461Y-88243566D01*
X158885473Y-88231519D01*
X158921861Y-88218786D01*
X158948922Y-88212610D01*
X158987218Y-88208296D01*
X159014980Y-88208296D01*
X159053273Y-88212610D01*
G37*
%TD.AperFunction*%
%TA.AperFunction,Conductor*%
G36*
X153053273Y-87212610D02*
G01*
X153080337Y-87218787D01*
X153116720Y-87231518D01*
X153141736Y-87243566D01*
X153174366Y-87264069D01*
X153196075Y-87281381D01*
X153223317Y-87308623D01*
X153240631Y-87330334D01*
X153261135Y-87362967D01*
X153273179Y-87387976D01*
X153278549Y-87403320D01*
X153278550Y-87403331D01*
X153278553Y-87403331D01*
X153285910Y-87424358D01*
X153292087Y-87451426D01*
X153296401Y-87489716D01*
X153296402Y-87517481D01*
X153292088Y-87555774D01*
X153285909Y-87582846D01*
X153273183Y-87619215D01*
X153261134Y-87644234D01*
X153240629Y-87676867D01*
X153223317Y-87698575D01*
X153196075Y-87725817D01*
X153174366Y-87743129D01*
X153141736Y-87763632D01*
X153116718Y-87775681D01*
X153080343Y-87788409D01*
X153053272Y-87794587D01*
X153014982Y-87798901D01*
X152987216Y-87798901D01*
X152948926Y-87794587D01*
X152921855Y-87788409D01*
X152885480Y-87775681D01*
X152860462Y-87763632D01*
X152827832Y-87743129D01*
X152806123Y-87725817D01*
X152778881Y-87698575D01*
X152761572Y-87676872D01*
X152741061Y-87644230D01*
X152729019Y-87619224D01*
X152716287Y-87582838D01*
X152710111Y-87555774D01*
X152705796Y-87517470D01*
X152705797Y-87489711D01*
X152710110Y-87451429D01*
X152716288Y-87424358D01*
X152729019Y-87387973D01*
X152741066Y-87362961D01*
X152761569Y-87330331D01*
X152778877Y-87308626D01*
X152806126Y-87281377D01*
X152827831Y-87264069D01*
X152860461Y-87243566D01*
X152885473Y-87231519D01*
X152921861Y-87218786D01*
X152948922Y-87212610D01*
X152987218Y-87208296D01*
X153014980Y-87208296D01*
X153053273Y-87212610D01*
G37*
%TD.AperFunction*%
%TA.AperFunction,Conductor*%
G36*
X142200874Y-86786180D02*
G01*
X142223316Y-86808622D01*
X142240628Y-86830331D01*
X142261131Y-86862961D01*
X142273180Y-86887979D01*
X142285909Y-86924357D01*
X142292087Y-86951427D01*
X142296401Y-86989715D01*
X142296402Y-87017481D01*
X142292088Y-87055774D01*
X142285910Y-87082843D01*
X142273182Y-87119216D01*
X142261134Y-87144234D01*
X142240629Y-87176867D01*
X142223317Y-87198575D01*
X142196075Y-87225817D01*
X142174366Y-87243129D01*
X142141736Y-87263632D01*
X142116718Y-87275681D01*
X142080343Y-87288409D01*
X142053272Y-87294587D01*
X142014982Y-87298901D01*
X141987216Y-87298901D01*
X141948926Y-87294587D01*
X141921855Y-87288409D01*
X141885480Y-87275681D01*
X141860462Y-87263632D01*
X141827832Y-87243129D01*
X141806123Y-87225817D01*
X141778881Y-87198575D01*
X141761569Y-87176867D01*
X141741062Y-87144231D01*
X141729016Y-87119216D01*
X141716289Y-87082843D01*
X141710111Y-87055774D01*
X141705796Y-87017470D01*
X141705797Y-86989711D01*
X141710110Y-86951429D01*
X141710111Y-86951427D01*
X141710110Y-86951425D01*
X141716286Y-86924361D01*
X141729019Y-86887973D01*
X141741362Y-86862491D01*
X141741395Y-86862439D01*
X141793937Y-86816383D01*
X141832209Y-86805661D01*
X141980357Y-86788969D01*
X141980358Y-86788968D01*
X141980365Y-86788968D01*
X142072238Y-86756819D01*
X142142017Y-86753258D01*
X142200874Y-86786180D01*
G37*
%TD.AperFunction*%
%TA.AperFunction,Conductor*%
G36*
X146053273Y-80712610D02*
G01*
X146080337Y-80718787D01*
X146116720Y-80731518D01*
X146141736Y-80743566D01*
X146174366Y-80764069D01*
X146196075Y-80781381D01*
X146223317Y-80808623D01*
X146240630Y-80830332D01*
X146261131Y-80862959D01*
X146273178Y-80887974D01*
X146285908Y-80924352D01*
X146292086Y-80951422D01*
X146292088Y-80951429D01*
X146296402Y-80989720D01*
X146296402Y-81017483D01*
X146292089Y-81055770D01*
X146285910Y-81082843D01*
X146273183Y-81119215D01*
X146261134Y-81144234D01*
X146240629Y-81176867D01*
X146223317Y-81198575D01*
X146196075Y-81225817D01*
X146174366Y-81243129D01*
X146141736Y-81263632D01*
X146116718Y-81275681D01*
X146080343Y-81288409D01*
X146053272Y-81294587D01*
X146014982Y-81298901D01*
X145987215Y-81298901D01*
X145948927Y-81294587D01*
X145921859Y-81288409D01*
X145885479Y-81275680D01*
X145860463Y-81263633D01*
X145827828Y-81243127D01*
X145806124Y-81225818D01*
X145778881Y-81198575D01*
X145761569Y-81176866D01*
X145741066Y-81144236D01*
X145729018Y-81119219D01*
X145716290Y-81082845D01*
X145710111Y-81055775D01*
X145705796Y-81017470D01*
X145705797Y-80989711D01*
X145710110Y-80951429D01*
X145710111Y-80951427D01*
X145710110Y-80951425D01*
X145716286Y-80924361D01*
X145729019Y-80887973D01*
X145741066Y-80862961D01*
X145761569Y-80830331D01*
X145778877Y-80808626D01*
X145806126Y-80781377D01*
X145827831Y-80764069D01*
X145860461Y-80743566D01*
X145885473Y-80731519D01*
X145921861Y-80718786D01*
X145948922Y-80712610D01*
X145987218Y-80708296D01*
X146014980Y-80708296D01*
X146053273Y-80712610D01*
G37*
%TD.AperFunction*%
%TA.AperFunction,Conductor*%
G36*
X154053273Y-80712610D02*
G01*
X154080337Y-80718787D01*
X154116720Y-80731518D01*
X154141736Y-80743566D01*
X154174366Y-80764069D01*
X154196075Y-80781381D01*
X154223317Y-80808623D01*
X154240630Y-80830332D01*
X154261131Y-80862959D01*
X154273178Y-80887974D01*
X154285908Y-80924352D01*
X154292086Y-80951422D01*
X154292088Y-80951429D01*
X154296402Y-80989720D01*
X154296402Y-81017483D01*
X154292089Y-81055770D01*
X154285910Y-81082843D01*
X154273183Y-81119215D01*
X154261134Y-81144234D01*
X154240629Y-81176867D01*
X154223317Y-81198575D01*
X154196075Y-81225817D01*
X154174366Y-81243129D01*
X154141736Y-81263632D01*
X154116718Y-81275681D01*
X154080343Y-81288409D01*
X154053272Y-81294587D01*
X154014982Y-81298901D01*
X153987215Y-81298901D01*
X153948927Y-81294587D01*
X153921859Y-81288409D01*
X153885479Y-81275680D01*
X153860463Y-81263633D01*
X153827828Y-81243127D01*
X153806124Y-81225818D01*
X153778881Y-81198575D01*
X153761569Y-81176866D01*
X153741066Y-81144236D01*
X153729018Y-81119219D01*
X153716290Y-81082845D01*
X153710111Y-81055775D01*
X153705796Y-81017470D01*
X153705797Y-80989711D01*
X153710110Y-80951429D01*
X153710111Y-80951427D01*
X153710110Y-80951425D01*
X153716286Y-80924361D01*
X153729019Y-80887973D01*
X153741066Y-80862961D01*
X153761569Y-80830331D01*
X153778877Y-80808626D01*
X153806126Y-80781377D01*
X153827831Y-80764069D01*
X153860461Y-80743566D01*
X153885473Y-80731519D01*
X153921861Y-80718786D01*
X153948922Y-80712610D01*
X153987218Y-80708296D01*
X154014980Y-80708296D01*
X154053273Y-80712610D01*
G37*
%TD.AperFunction*%
%TD*%
%TA.AperFunction,Conductor*%
%TO.N,V_USB*%
G36*
X150975374Y-79523285D02*
G01*
X151021129Y-79576089D01*
X151031073Y-79645247D01*
X151013329Y-79693572D01*
X150975310Y-79754077D01*
X150915730Y-79924350D01*
X150907169Y-80000333D01*
X150880102Y-80064747D01*
X150822507Y-80104302D01*
X150797833Y-80109669D01*
X150721850Y-80118230D01*
X150551578Y-80177810D01*
X150398837Y-80273784D01*
X150271284Y-80401337D01*
X150175311Y-80554076D01*
X150115731Y-80724345D01*
X150115730Y-80724350D01*
X150095535Y-80903596D01*
X150095535Y-80903603D01*
X150115730Y-81082849D01*
X150115731Y-81082854D01*
X150175311Y-81253123D01*
X150210525Y-81309165D01*
X150271284Y-81405862D01*
X150398838Y-81533416D01*
X150551578Y-81629389D01*
X150563084Y-81633415D01*
X150721845Y-81688968D01*
X150721850Y-81688969D01*
X150901096Y-81709165D01*
X150901100Y-81709165D01*
X150901104Y-81709165D01*
X151080349Y-81688969D01*
X151080352Y-81688968D01*
X151080355Y-81688968D01*
X151250622Y-81629389D01*
X151403362Y-81533416D01*
X151530916Y-81405862D01*
X151626889Y-81253122D01*
X151686468Y-81082855D01*
X151695029Y-81006863D01*
X151696402Y-81003596D01*
X153195535Y-81003596D01*
X153195535Y-81003603D01*
X153215730Y-81182849D01*
X153215731Y-81182854D01*
X153275311Y-81353123D01*
X153371284Y-81505862D01*
X153498838Y-81633416D01*
X153651578Y-81729389D01*
X153699633Y-81746204D01*
X153821845Y-81788968D01*
X153821850Y-81788969D01*
X154001096Y-81809165D01*
X154001100Y-81809165D01*
X154001104Y-81809165D01*
X154180349Y-81788969D01*
X154180352Y-81788968D01*
X154180355Y-81788968D01*
X154350622Y-81729389D01*
X154503362Y-81633416D01*
X154630916Y-81505862D01*
X154726889Y-81353122D01*
X154786468Y-81182855D01*
X154790162Y-81150069D01*
X154806665Y-81003603D01*
X154806665Y-81003596D01*
X154786469Y-80824350D01*
X154786468Y-80824345D01*
X154764100Y-80760422D01*
X154726889Y-80654078D01*
X154630916Y-80501338D01*
X154503362Y-80373784D01*
X154483244Y-80361143D01*
X154350623Y-80277811D01*
X154180354Y-80218231D01*
X154180349Y-80218230D01*
X154001104Y-80198035D01*
X154001096Y-80198035D01*
X153821850Y-80218230D01*
X153821845Y-80218231D01*
X153651576Y-80277811D01*
X153498837Y-80373784D01*
X153371284Y-80501337D01*
X153275311Y-80654076D01*
X153215731Y-80824345D01*
X153215730Y-80824350D01*
X153195535Y-81003596D01*
X151696402Y-81003596D01*
X151722094Y-80942453D01*
X151779688Y-80902897D01*
X151804354Y-80897530D01*
X151880355Y-80888968D01*
X152050622Y-80829389D01*
X152203362Y-80733416D01*
X152330916Y-80605862D01*
X152426889Y-80453122D01*
X152486468Y-80282855D01*
X152486469Y-80282849D01*
X152506665Y-80103603D01*
X152506665Y-80103596D01*
X152486469Y-79924350D01*
X152486468Y-79924345D01*
X152446165Y-79809165D01*
X152426889Y-79754078D01*
X152411376Y-79729389D01*
X152388871Y-79693572D01*
X152369871Y-79626335D01*
X152390239Y-79559500D01*
X152443507Y-79514286D01*
X152493865Y-79503600D01*
X153948013Y-79503600D01*
X153950039Y-79503616D01*
X154108202Y-79506202D01*
X154122337Y-79507245D01*
X154437013Y-79548673D01*
X154452893Y-79551831D01*
X154758490Y-79633715D01*
X154773836Y-79638925D01*
X155051838Y-79754077D01*
X155066111Y-79759989D01*
X155080658Y-79767163D01*
X155217640Y-79846250D01*
X155333540Y-79913165D01*
X155354623Y-79925337D01*
X155368102Y-79934343D01*
X155619899Y-80127553D01*
X155630643Y-80136822D01*
X155744274Y-80246797D01*
X155745719Y-80248219D01*
X158375312Y-82877811D01*
X158993775Y-83496273D01*
X159027260Y-83557596D01*
X159022276Y-83627288D01*
X158980404Y-83683221D01*
X158919978Y-83707174D01*
X158821849Y-83718230D01*
X158821845Y-83718231D01*
X158651576Y-83777811D01*
X158498837Y-83873784D01*
X158371284Y-84001337D01*
X158275311Y-84154076D01*
X158215731Y-84324345D01*
X158215730Y-84324350D01*
X158195535Y-84503596D01*
X158195535Y-84503603D01*
X158215730Y-84682849D01*
X158215731Y-84682854D01*
X158275311Y-84853123D01*
X158324160Y-84930865D01*
X158371284Y-85005862D01*
X158498838Y-85133416D01*
X158651578Y-85229389D01*
X158714842Y-85251526D01*
X158821845Y-85288968D01*
X158821850Y-85288969D01*
X159001096Y-85309165D01*
X159001100Y-85309165D01*
X159001104Y-85309165D01*
X159180349Y-85288969D01*
X159180352Y-85288968D01*
X159180355Y-85288968D01*
X159350622Y-85229389D01*
X159503362Y-85133416D01*
X159630916Y-85005862D01*
X159696780Y-84901040D01*
X159749113Y-84854749D01*
X159818167Y-84844100D01*
X159882015Y-84872475D01*
X159920387Y-84930865D01*
X159921548Y-84934918D01*
X159952864Y-85051789D01*
X159956028Y-85067698D01*
X159997453Y-85382351D01*
X159998497Y-85396509D01*
X160001083Y-85554660D01*
X160001100Y-85556687D01*
X160001100Y-88207914D01*
X159981415Y-88274953D01*
X159928611Y-88320708D01*
X159859453Y-88330652D01*
X159795897Y-88301627D01*
X159760059Y-88248869D01*
X159726890Y-88154080D01*
X159726889Y-88154078D01*
X159630916Y-88001338D01*
X159503362Y-87873784D01*
X159400522Y-87809165D01*
X159350623Y-87777811D01*
X159180354Y-87718231D01*
X159180349Y-87718230D01*
X159001104Y-87698035D01*
X159001096Y-87698035D01*
X158821850Y-87718230D01*
X158821845Y-87718231D01*
X158651576Y-87777811D01*
X158498837Y-87873784D01*
X158371284Y-88001337D01*
X158275311Y-88154076D01*
X158215731Y-88324345D01*
X158215730Y-88324350D01*
X158195535Y-88503596D01*
X158195535Y-88503603D01*
X158215730Y-88682849D01*
X158215731Y-88682854D01*
X158275311Y-88853123D01*
X158353658Y-88977811D01*
X158371284Y-89005862D01*
X158498838Y-89133416D01*
X158651578Y-89229389D01*
X158738982Y-89259973D01*
X158821845Y-89288968D01*
X158821850Y-89288969D01*
X159001096Y-89309165D01*
X159001100Y-89309165D01*
X159001104Y-89309165D01*
X159180349Y-89288969D01*
X159180352Y-89288968D01*
X159180355Y-89288968D01*
X159350622Y-89229389D01*
X159503362Y-89133416D01*
X159630916Y-89005862D01*
X159726889Y-88853122D01*
X159748203Y-88792207D01*
X159760058Y-88758331D01*
X159800780Y-88701554D01*
X159865733Y-88675807D01*
X159934294Y-88689263D01*
X159984697Y-88737650D01*
X160001100Y-88799285D01*
X160001100Y-89647336D01*
X160000320Y-89661220D01*
X159995545Y-89703598D01*
X159995545Y-89703602D01*
X160000320Y-89745979D01*
X160001100Y-89759863D01*
X160001100Y-92450511D01*
X160001083Y-92452540D01*
X160000435Y-92492129D01*
X159979656Y-92558838D01*
X159926111Y-92603722D01*
X159876452Y-92614100D01*
X159574230Y-92614100D01*
X159574223Y-92614101D01*
X159514616Y-92620508D01*
X159379771Y-92670802D01*
X159379764Y-92670806D01*
X159264555Y-92757052D01*
X159264552Y-92757055D01*
X159178306Y-92872264D01*
X159178302Y-92872271D01*
X159128008Y-93007117D01*
X159121601Y-93066716D01*
X159121600Y-93066735D01*
X159121600Y-94331745D01*
X159101915Y-94398784D01*
X159085281Y-94419426D01*
X157745781Y-95758920D01*
X157744336Y-95760342D01*
X157630643Y-95870377D01*
X157619893Y-95879650D01*
X157368109Y-96072850D01*
X157354623Y-96081861D01*
X157080657Y-96240035D01*
X157066110Y-96247209D01*
X156773840Y-96368272D01*
X156758481Y-96373486D01*
X156452910Y-96455364D01*
X156437001Y-96458528D01*
X156122348Y-96499953D01*
X156108190Y-96500997D01*
X155950040Y-96503583D01*
X155948013Y-96503600D01*
X154130714Y-96503600D01*
X154063675Y-96483915D01*
X154017920Y-96431111D01*
X154007976Y-96361953D01*
X154029145Y-96312973D01*
X154027211Y-96311758D01*
X154032337Y-96303600D01*
X154126889Y-96153122D01*
X154186468Y-95982855D01*
X154186469Y-95982849D01*
X154206665Y-95803603D01*
X154206665Y-95803596D01*
X154186469Y-95624350D01*
X154186468Y-95624345D01*
X154170185Y-95577811D01*
X154126889Y-95454078D01*
X154030916Y-95301338D01*
X153903362Y-95173784D01*
X153841528Y-95134931D01*
X153750623Y-95077811D01*
X153580354Y-95018231D01*
X153580349Y-95018230D01*
X153401104Y-94998035D01*
X153401096Y-94998035D01*
X153221850Y-95018230D01*
X153221845Y-95018231D01*
X153051576Y-95077811D01*
X152898837Y-95173784D01*
X152771284Y-95301337D01*
X152675311Y-95454076D01*
X152615731Y-95624345D01*
X152615730Y-95624350D01*
X152595535Y-95803596D01*
X152595535Y-95803603D01*
X152615730Y-95982849D01*
X152615731Y-95982854D01*
X152675311Y-96153123D01*
X152720063Y-96224345D01*
X152766593Y-96298397D01*
X152774989Y-96311758D01*
X152772850Y-96313101D01*
X152794843Y-96366985D01*
X152782080Y-96435679D01*
X152734205Y-96486569D01*
X152671486Y-96503600D01*
X148232540Y-96503600D01*
X148165501Y-96483915D01*
X148119746Y-96431111D01*
X148109802Y-96361953D01*
X148138827Y-96298397D01*
X148144859Y-96291919D01*
X148230916Y-96205862D01*
X148326889Y-96053122D01*
X148386468Y-95882855D01*
X148387874Y-95870377D01*
X148406665Y-95703603D01*
X148406665Y-95703596D01*
X148386469Y-95524350D01*
X148386468Y-95524345D01*
X148377262Y-95498035D01*
X148326889Y-95354078D01*
X148230916Y-95201338D01*
X148103362Y-95073784D01*
X148014952Y-95018232D01*
X147950623Y-94977811D01*
X147780354Y-94918231D01*
X147780349Y-94918230D01*
X147601104Y-94898035D01*
X147601096Y-94898035D01*
X147421850Y-94918230D01*
X147421845Y-94918231D01*
X147251576Y-94977811D01*
X147098837Y-95073784D01*
X146971284Y-95201337D01*
X146875311Y-95354076D01*
X146815731Y-95524345D01*
X146815730Y-95524350D01*
X146795535Y-95703596D01*
X146795535Y-95703603D01*
X146815730Y-95882849D01*
X146815731Y-95882854D01*
X146875311Y-96053123D01*
X146971284Y-96205862D01*
X147057341Y-96291919D01*
X147090826Y-96353242D01*
X147085842Y-96422934D01*
X147043970Y-96478867D01*
X146978506Y-96503284D01*
X146969660Y-96503600D01*
X143917488Y-96503600D01*
X143850449Y-96483915D01*
X143804694Y-96431111D01*
X143794268Y-96393483D01*
X143786479Y-96324349D01*
X143786478Y-96324345D01*
X143781168Y-96309170D01*
X143726899Y-96154078D01*
X143726298Y-96153122D01*
X143630925Y-96001337D01*
X143503372Y-95873784D01*
X143350633Y-95777811D01*
X143180364Y-95718231D01*
X143180359Y-95718230D01*
X143001114Y-95698035D01*
X143001106Y-95698035D01*
X142821860Y-95718230D01*
X142821855Y-95718231D01*
X142651586Y-95777811D01*
X142498847Y-95873784D01*
X142371294Y-96001337D01*
X142275321Y-96154076D01*
X142215741Y-96324345D01*
X142215740Y-96324349D01*
X142207952Y-96393483D01*
X142180886Y-96457897D01*
X142123292Y-96497452D01*
X142084732Y-96503600D01*
X142054190Y-96503600D01*
X142052251Y-96503585D01*
X142049571Y-96503543D01*
X141894049Y-96501110D01*
X141879804Y-96500064D01*
X141565184Y-96458645D01*
X141549280Y-96455482D01*
X141458325Y-96431111D01*
X141398429Y-96415062D01*
X141338769Y-96378697D01*
X141308240Y-96315850D01*
X141307303Y-96309170D01*
X141286479Y-96124350D01*
X141286478Y-96124345D01*
X141268459Y-96072850D01*
X141226899Y-95954078D01*
X141130926Y-95801338D01*
X141003372Y-95673784D01*
X140850633Y-95577811D01*
X140680364Y-95518231D01*
X140680359Y-95518230D01*
X140501114Y-95498035D01*
X140501106Y-95498035D01*
X140321860Y-95518230D01*
X140321852Y-95518232D01*
X140168627Y-95571848D01*
X140098848Y-95575409D01*
X140039993Y-95542488D01*
X139745779Y-95248281D01*
X139744356Y-95246835D01*
X139634322Y-95133143D01*
X139625049Y-95122393D01*
X139431849Y-94870609D01*
X139422838Y-94857123D01*
X139264664Y-94583157D01*
X139257490Y-94568610D01*
X139136427Y-94276340D01*
X139131213Y-94260981D01*
X139049331Y-93955393D01*
X139046173Y-93939513D01*
X139004745Y-93624837D01*
X139003702Y-93610702D01*
X139001117Y-93452539D01*
X139001100Y-93450512D01*
X139001100Y-92503596D01*
X141195535Y-92503596D01*
X141195535Y-92503603D01*
X141215730Y-92682849D01*
X141215731Y-92682854D01*
X141275311Y-92853123D01*
X141360669Y-92988968D01*
X141371284Y-93005862D01*
X141498838Y-93133416D01*
X141651578Y-93229389D01*
X141821845Y-93288968D01*
X141821850Y-93288969D01*
X142001096Y-93309165D01*
X142001100Y-93309165D01*
X142001104Y-93309165D01*
X142180349Y-93288969D01*
X142180352Y-93288968D01*
X142180355Y-93288968D01*
X142350622Y-93229389D01*
X142503362Y-93133416D01*
X142630916Y-93005862D01*
X142726889Y-92853122D01*
X142786468Y-92682855D01*
X142795384Y-92603722D01*
X142806665Y-92503603D01*
X142806665Y-92503596D01*
X142786469Y-92324350D01*
X142786468Y-92324345D01*
X142753241Y-92229388D01*
X142726889Y-92154078D01*
X142630916Y-92001338D01*
X142503362Y-91873784D01*
X142453146Y-91842231D01*
X142350623Y-91777811D01*
X142180354Y-91718231D01*
X142180349Y-91718230D01*
X142001104Y-91698035D01*
X142001096Y-91698035D01*
X141821850Y-91718230D01*
X141821845Y-91718231D01*
X141651576Y-91777811D01*
X141498837Y-91873784D01*
X141371284Y-92001337D01*
X141275311Y-92154076D01*
X141215731Y-92324345D01*
X141215730Y-92324350D01*
X141195535Y-92503596D01*
X139001100Y-92503596D01*
X139001100Y-91187040D01*
X139020785Y-91120001D01*
X139037419Y-91099359D01*
X139130916Y-91005862D01*
X139226889Y-90853122D01*
X139286468Y-90682855D01*
X139306665Y-90503600D01*
X139306665Y-90503596D01*
X141195535Y-90503596D01*
X141195535Y-90503603D01*
X141215730Y-90682849D01*
X141215731Y-90682854D01*
X141275311Y-90853123D01*
X141332158Y-90943594D01*
X141371284Y-91005862D01*
X141498838Y-91133416D01*
X141651578Y-91229389D01*
X141821845Y-91288968D01*
X141821850Y-91288969D01*
X142001096Y-91309165D01*
X142001100Y-91309165D01*
X142001104Y-91309165D01*
X142180349Y-91288969D01*
X142180352Y-91288968D01*
X142180355Y-91288968D01*
X142350622Y-91229389D01*
X142503362Y-91133416D01*
X142630916Y-91005862D01*
X142726889Y-90853122D01*
X142786468Y-90682855D01*
X142806665Y-90503600D01*
X142805232Y-90490885D01*
X142786469Y-90324350D01*
X142786468Y-90324345D01*
X142745009Y-90205862D01*
X142726889Y-90154078D01*
X142630916Y-90001338D01*
X142503362Y-89873784D01*
X142470479Y-89853122D01*
X142350623Y-89777811D01*
X142180354Y-89718231D01*
X142180349Y-89718230D01*
X142001104Y-89698035D01*
X142001096Y-89698035D01*
X141821850Y-89718230D01*
X141821845Y-89718231D01*
X141651576Y-89777811D01*
X141498837Y-89873784D01*
X141371284Y-90001337D01*
X141275311Y-90154076D01*
X141215731Y-90324345D01*
X141215730Y-90324350D01*
X141195535Y-90503596D01*
X139306665Y-90503596D01*
X139305232Y-90490885D01*
X139286469Y-90324350D01*
X139286468Y-90324345D01*
X139245009Y-90205862D01*
X139226889Y-90154078D01*
X139130916Y-90001338D01*
X139037419Y-89907841D01*
X139003934Y-89846518D01*
X139001100Y-89820160D01*
X139001100Y-88403594D01*
X145506848Y-88403594D01*
X145506848Y-88403605D01*
X145525863Y-88633084D01*
X145582392Y-88856314D01*
X145674892Y-89067194D01*
X145800838Y-89259970D01*
X145800841Y-89259973D01*
X145956802Y-89429392D01*
X146052140Y-89503596D01*
X146142569Y-89573980D01*
X146141586Y-89575241D01*
X146182293Y-89622949D01*
X146191710Y-89692181D01*
X146162202Y-89755514D01*
X146142246Y-89772805D01*
X146142569Y-89773220D01*
X145956804Y-89917806D01*
X145956799Y-89917811D01*
X145800838Y-90087229D01*
X145674892Y-90280005D01*
X145582392Y-90490885D01*
X145525863Y-90714115D01*
X145506848Y-90943594D01*
X145506848Y-90943605D01*
X145525863Y-91173084D01*
X145582392Y-91396314D01*
X145674892Y-91607194D01*
X145800838Y-91799970D01*
X145800841Y-91799973D01*
X145956802Y-91969392D01*
X146138521Y-92110829D01*
X146341041Y-92220428D01*
X146367144Y-92229389D01*
X146558835Y-92295197D01*
X146558837Y-92295197D01*
X146558839Y-92295198D01*
X146785973Y-92333100D01*
X146785974Y-92333100D01*
X147016246Y-92333100D01*
X147016247Y-92333100D01*
X147243381Y-92295198D01*
X147461179Y-92220428D01*
X147663699Y-92110829D01*
X147845418Y-91969392D01*
X148001379Y-91799973D01*
X148065820Y-91701339D01*
X148067301Y-91699072D01*
X148120447Y-91653715D01*
X148189679Y-91644291D01*
X148253015Y-91673793D01*
X148274919Y-91699072D01*
X148340838Y-91799970D01*
X148340841Y-91799973D01*
X148496802Y-91969392D01*
X148678521Y-92110829D01*
X148881041Y-92220428D01*
X148907144Y-92229389D01*
X149098835Y-92295197D01*
X149098837Y-92295197D01*
X149098839Y-92295198D01*
X149325973Y-92333100D01*
X149325974Y-92333100D01*
X149556246Y-92333100D01*
X149556247Y-92333100D01*
X149783381Y-92295198D01*
X150001179Y-92220428D01*
X150203699Y-92110829D01*
X150302698Y-92033775D01*
X150367690Y-92008133D01*
X150436230Y-92021699D01*
X150486555Y-92070167D01*
X150502687Y-92138149D01*
X150502079Y-92145512D01*
X150495535Y-92203595D01*
X150495535Y-92203603D01*
X150515730Y-92382849D01*
X150515731Y-92382854D01*
X150575311Y-92553123D01*
X150649257Y-92670806D01*
X150671284Y-92705862D01*
X150798838Y-92833416D01*
X150951578Y-92929389D01*
X151121845Y-92988968D01*
X151121850Y-92988969D01*
X151301096Y-93009165D01*
X151301100Y-93009165D01*
X151301104Y-93009165D01*
X151480349Y-92988969D01*
X151480352Y-92988968D01*
X151480355Y-92988968D01*
X151650622Y-92929389D01*
X151803362Y-92833416D01*
X151930916Y-92705862D01*
X152026889Y-92553122D01*
X152086468Y-92382855D01*
X152093060Y-92324350D01*
X152106665Y-92203603D01*
X152106665Y-92203596D01*
X152086469Y-92024350D01*
X152086468Y-92024348D01*
X152086468Y-92024345D01*
X152077410Y-91998461D01*
X152073848Y-91928684D01*
X152107926Y-91869189D01*
X152062053Y-91864967D01*
X152027532Y-91838009D01*
X152194271Y-91838009D01*
X152240144Y-91842231D01*
X152295213Y-91885234D01*
X152299445Y-91891533D01*
X152371282Y-92005860D01*
X152371284Y-92005862D01*
X152498838Y-92133416D01*
X152589180Y-92190182D01*
X152637316Y-92220428D01*
X152651578Y-92229389D01*
X152821845Y-92288968D01*
X152821850Y-92288969D01*
X153001096Y-92309165D01*
X153001100Y-92309165D01*
X153001104Y-92309165D01*
X153180349Y-92288969D01*
X153180352Y-92288968D01*
X153180355Y-92288968D01*
X153350622Y-92229389D01*
X153503362Y-92133416D01*
X153630916Y-92005862D01*
X153726889Y-91853122D01*
X153786468Y-91682855D01*
X153787489Y-91673793D01*
X153806665Y-91503603D01*
X153806665Y-91503596D01*
X153786469Y-91324350D01*
X153786468Y-91324345D01*
X153726888Y-91154076D01*
X153687682Y-91091680D01*
X153630916Y-91001338D01*
X153503362Y-90873784D01*
X153470479Y-90853122D01*
X153350623Y-90777811D01*
X153180354Y-90718231D01*
X153180349Y-90718230D01*
X153001104Y-90698035D01*
X153001096Y-90698035D01*
X152821850Y-90718230D01*
X152821845Y-90718231D01*
X152651576Y-90777811D01*
X152498837Y-90873784D01*
X152371284Y-91001337D01*
X152275311Y-91154076D01*
X152215731Y-91324345D01*
X152215730Y-91324350D01*
X152195535Y-91503596D01*
X152195535Y-91503603D01*
X152215730Y-91682849D01*
X152215733Y-91682862D01*
X152224788Y-91708738D01*
X152228350Y-91778517D01*
X152194271Y-91838009D01*
X152027532Y-91838009D01*
X152006985Y-91821963D01*
X152002754Y-91815666D01*
X151930917Y-91701339D01*
X151803362Y-91573784D01*
X151650623Y-91477811D01*
X151480354Y-91418231D01*
X151480349Y-91418230D01*
X151301104Y-91398035D01*
X151301096Y-91398035D01*
X151121850Y-91418230D01*
X151121845Y-91418231D01*
X150951573Y-91477812D01*
X150948867Y-91479116D01*
X150946943Y-91479432D01*
X150945005Y-91480111D01*
X150944886Y-91479771D01*
X150879926Y-91490468D01*
X150815791Y-91462746D01*
X150776825Y-91404751D01*
X150774859Y-91336956D01*
X150778051Y-91324350D01*
X150816356Y-91173088D01*
X150835372Y-90943600D01*
X150816356Y-90714112D01*
X150759827Y-90490884D01*
X150667327Y-90280005D01*
X150643090Y-90242908D01*
X150541381Y-90087229D01*
X150466477Y-90005862D01*
X150385418Y-89917808D01*
X150259959Y-89820160D01*
X150199651Y-89773220D01*
X150200635Y-89771954D01*
X150159934Y-89724270D01*
X150150506Y-89655039D01*
X150180003Y-89591702D01*
X150199975Y-89574396D01*
X150199651Y-89573980D01*
X150290080Y-89503596D01*
X152195535Y-89503596D01*
X152195535Y-89503603D01*
X152215730Y-89682849D01*
X152215731Y-89682854D01*
X152275311Y-89853123D01*
X152368441Y-90001337D01*
X152371284Y-90005862D01*
X152498838Y-90133416D01*
X152651578Y-90229389D01*
X152796230Y-90280005D01*
X152821845Y-90288968D01*
X152821850Y-90288969D01*
X153001096Y-90309165D01*
X153001100Y-90309165D01*
X153001104Y-90309165D01*
X153180349Y-90288969D01*
X153180352Y-90288968D01*
X153180355Y-90288968D01*
X153350622Y-90229389D01*
X153503362Y-90133416D01*
X153630916Y-90005862D01*
X153726889Y-89853122D01*
X153786468Y-89682855D01*
X153793218Y-89622949D01*
X153806665Y-89503603D01*
X153806665Y-89503596D01*
X153786469Y-89324350D01*
X153786468Y-89324345D01*
X153726888Y-89154076D01*
X153672296Y-89067194D01*
X153630916Y-89001338D01*
X153503362Y-88873784D01*
X153384798Y-88799285D01*
X153350623Y-88777811D01*
X153180354Y-88718231D01*
X153180349Y-88718230D01*
X153001104Y-88698035D01*
X153001096Y-88698035D01*
X152821850Y-88718230D01*
X152821845Y-88718231D01*
X152651576Y-88777811D01*
X152498837Y-88873784D01*
X152371284Y-89001337D01*
X152275311Y-89154076D01*
X152215731Y-89324345D01*
X152215730Y-89324350D01*
X152195535Y-89503596D01*
X150290080Y-89503596D01*
X150385418Y-89429392D01*
X150541379Y-89259973D01*
X150667327Y-89067195D01*
X150759827Y-88856316D01*
X150816356Y-88633088D01*
X150824807Y-88531093D01*
X150835372Y-88403605D01*
X150835372Y-88403594D01*
X150816356Y-88174115D01*
X150816356Y-88174112D01*
X150759827Y-87950884D01*
X150667327Y-87740005D01*
X150639907Y-87698035D01*
X150541381Y-87547229D01*
X150501220Y-87503603D01*
X150501214Y-87503596D01*
X152195535Y-87503596D01*
X152195535Y-87503603D01*
X152215730Y-87682849D01*
X152215731Y-87682854D01*
X152275311Y-87853123D01*
X152368441Y-88001337D01*
X152371284Y-88005862D01*
X152498838Y-88133416D01*
X152651578Y-88229389D01*
X152821845Y-88288968D01*
X152821850Y-88288969D01*
X153001096Y-88309165D01*
X153001100Y-88309165D01*
X153001104Y-88309165D01*
X153180349Y-88288969D01*
X153180352Y-88288968D01*
X153180355Y-88288968D01*
X153350622Y-88229389D01*
X153503362Y-88133416D01*
X153630916Y-88005862D01*
X153726889Y-87853122D01*
X153786468Y-87682855D01*
X153790381Y-87648128D01*
X153806665Y-87503603D01*
X153806665Y-87503596D01*
X153786469Y-87324350D01*
X153786468Y-87324345D01*
X153755685Y-87236372D01*
X153726889Y-87154078D01*
X153709731Y-87126772D01*
X153632337Y-87003600D01*
X153630916Y-87001338D01*
X153503362Y-86873784D01*
X153350623Y-86777811D01*
X153180354Y-86718231D01*
X153180349Y-86718230D01*
X153001104Y-86698035D01*
X153001096Y-86698035D01*
X152821850Y-86718230D01*
X152821845Y-86718231D01*
X152651576Y-86777811D01*
X152498837Y-86873784D01*
X152371284Y-87001337D01*
X152275311Y-87154076D01*
X152215731Y-87324345D01*
X152215730Y-87324350D01*
X152195535Y-87503596D01*
X150501214Y-87503596D01*
X150385418Y-87377808D01*
X150216879Y-87246629D01*
X150203701Y-87236372D01*
X150001179Y-87126772D01*
X150001171Y-87126769D01*
X149783384Y-87052002D01*
X149613030Y-87023575D01*
X149556247Y-87014100D01*
X149325973Y-87014100D01*
X149280546Y-87021680D01*
X149098835Y-87052002D01*
X148881048Y-87126769D01*
X148881040Y-87126772D01*
X148678518Y-87236372D01*
X148496804Y-87377806D01*
X148496799Y-87377811D01*
X148340837Y-87547230D01*
X148274918Y-87648128D01*
X148221772Y-87693484D01*
X148152541Y-87702908D01*
X148089205Y-87673406D01*
X148067302Y-87648128D01*
X148001382Y-87547230D01*
X147961214Y-87503596D01*
X147845418Y-87377808D01*
X147794166Y-87337917D01*
X147753353Y-87281207D01*
X147749678Y-87211434D01*
X147784310Y-87150751D01*
X147812911Y-87130158D01*
X147868318Y-87101217D01*
X148017272Y-86979762D01*
X148138727Y-86830808D01*
X148227712Y-86660455D01*
X148280584Y-86475676D01*
X148290610Y-86362909D01*
X148290609Y-85364292D01*
X148280584Y-85251524D01*
X148227712Y-85066745D01*
X148138727Y-84896392D01*
X148017272Y-84747438D01*
X147868318Y-84625983D01*
X147697965Y-84536998D01*
X147697959Y-84536996D01*
X147513183Y-84484125D01*
X147442976Y-84477883D01*
X147400419Y-84474100D01*
X147400414Y-84474100D01*
X146401809Y-84474100D01*
X146401803Y-84474100D01*
X146401802Y-84474101D01*
X146390799Y-84475079D01*
X146289036Y-84484125D01*
X146104258Y-84536996D01*
X146019078Y-84581490D01*
X145933902Y-84625983D01*
X145933900Y-84625984D01*
X145933899Y-84625985D01*
X145784948Y-84747438D01*
X145663495Y-84896389D01*
X145574507Y-85066747D01*
X145521635Y-85251526D01*
X145511610Y-85364294D01*
X145511610Y-86362900D01*
X145511611Y-86362906D01*
X145521635Y-86475673D01*
X145574506Y-86660451D01*
X145574507Y-86660452D01*
X145574508Y-86660455D01*
X145663493Y-86830808D01*
X145784948Y-86979762D01*
X145933902Y-87101217D01*
X145989303Y-87130156D01*
X146039610Y-87178642D01*
X146055717Y-87246629D01*
X146032511Y-87312533D01*
X146008054Y-87337917D01*
X145956804Y-87377806D01*
X145956799Y-87377811D01*
X145800838Y-87547229D01*
X145674892Y-87740005D01*
X145582392Y-87950885D01*
X145525863Y-88174115D01*
X145506848Y-88403594D01*
X139001100Y-88403594D01*
X139001100Y-87003596D01*
X141195535Y-87003596D01*
X141195535Y-87003603D01*
X141215730Y-87182849D01*
X141215731Y-87182854D01*
X141275311Y-87353123D01*
X141290822Y-87377808D01*
X141371284Y-87505862D01*
X141498838Y-87633416D01*
X141522252Y-87648128D01*
X141633821Y-87718232D01*
X141651578Y-87729389D01*
X141681917Y-87740005D01*
X141821845Y-87788968D01*
X141821850Y-87788969D01*
X142001096Y-87809165D01*
X142001100Y-87809165D01*
X142001104Y-87809165D01*
X142180349Y-87788969D01*
X142180352Y-87788968D01*
X142180355Y-87788968D01*
X142350622Y-87729389D01*
X142503362Y-87633416D01*
X142630916Y-87505862D01*
X142726889Y-87353122D01*
X142786468Y-87182855D01*
X142786943Y-87178642D01*
X142806665Y-87003603D01*
X142806665Y-87003596D01*
X142786469Y-86824350D01*
X142786468Y-86824345D01*
X142726888Y-86654076D01*
X142630915Y-86501337D01*
X142503362Y-86373784D01*
X142350623Y-86277811D01*
X142180354Y-86218231D01*
X142180349Y-86218230D01*
X142001104Y-86198035D01*
X142001096Y-86198035D01*
X141821850Y-86218230D01*
X141821845Y-86218231D01*
X141651576Y-86277811D01*
X141498837Y-86373784D01*
X141371284Y-86501337D01*
X141275311Y-86654076D01*
X141215731Y-86824345D01*
X141215730Y-86824350D01*
X141195535Y-87003596D01*
X139001100Y-87003596D01*
X139001100Y-83603596D01*
X142695535Y-83603596D01*
X142695535Y-83603603D01*
X142715730Y-83782849D01*
X142715731Y-83782854D01*
X142775311Y-83953123D01*
X142805607Y-84001338D01*
X142871284Y-84105862D01*
X142998838Y-84233416D01*
X143089180Y-84290182D01*
X143143550Y-84324345D01*
X143151578Y-84329389D01*
X143321845Y-84388968D01*
X143321850Y-84388969D01*
X143501096Y-84409165D01*
X143501100Y-84409165D01*
X143501104Y-84409165D01*
X143680349Y-84388969D01*
X143680352Y-84388968D01*
X143680355Y-84388968D01*
X143850622Y-84329389D01*
X144003362Y-84233416D01*
X144130916Y-84105862D01*
X144226889Y-83953122D01*
X144286468Y-83782855D01*
X144286469Y-83782849D01*
X144306665Y-83603603D01*
X144306665Y-83603596D01*
X144286469Y-83424350D01*
X144286468Y-83424345D01*
X144226888Y-83254076D01*
X144130915Y-83101337D01*
X144003362Y-82973784D01*
X143850623Y-82877811D01*
X143680354Y-82818231D01*
X143680349Y-82818230D01*
X143501104Y-82798035D01*
X143501096Y-82798035D01*
X143321850Y-82818230D01*
X143321845Y-82818231D01*
X143151576Y-82877811D01*
X142998837Y-82973784D01*
X142871284Y-83101337D01*
X142775311Y-83254076D01*
X142715731Y-83424345D01*
X142715730Y-83424350D01*
X142695535Y-83603596D01*
X139001100Y-83603596D01*
X139001100Y-82556687D01*
X139001117Y-82554660D01*
X139003702Y-82396496D01*
X139004745Y-82382364D01*
X139046173Y-82067683D01*
X139049330Y-82051809D01*
X139131217Y-81746204D01*
X139136423Y-81730867D01*
X139257492Y-81438581D01*
X139264659Y-81424047D01*
X139422841Y-81150069D01*
X139431837Y-81136604D01*
X139533898Y-81003596D01*
X145195535Y-81003596D01*
X145195535Y-81003603D01*
X145215730Y-81182849D01*
X145215731Y-81182854D01*
X145275311Y-81353123D01*
X145371284Y-81505862D01*
X145498838Y-81633416D01*
X145651578Y-81729389D01*
X145699633Y-81746204D01*
X145821845Y-81788968D01*
X145821850Y-81788969D01*
X146001096Y-81809165D01*
X146001100Y-81809165D01*
X146001104Y-81809165D01*
X146180349Y-81788969D01*
X146180352Y-81788968D01*
X146180355Y-81788968D01*
X146350622Y-81729389D01*
X146503362Y-81633416D01*
X146630916Y-81505862D01*
X146726889Y-81353122D01*
X146786468Y-81182855D01*
X146790162Y-81150069D01*
X146806665Y-81003603D01*
X146806665Y-81003596D01*
X146786469Y-80824350D01*
X146786468Y-80824345D01*
X146764100Y-80760422D01*
X146726889Y-80654078D01*
X146630916Y-80501338D01*
X146503362Y-80373784D01*
X146483244Y-80361143D01*
X146350623Y-80277811D01*
X146180354Y-80218231D01*
X146180349Y-80218230D01*
X146001104Y-80198035D01*
X146001096Y-80198035D01*
X145821850Y-80218230D01*
X145821845Y-80218231D01*
X145651576Y-80277811D01*
X145498837Y-80373784D01*
X145371284Y-80501337D01*
X145275311Y-80654076D01*
X145215731Y-80824345D01*
X145215730Y-80824350D01*
X145195535Y-81003596D01*
X139533898Y-81003596D01*
X139625060Y-80884791D01*
X139634316Y-80874062D01*
X139744300Y-80760422D01*
X139745715Y-80758985D01*
X139850624Y-80654076D01*
X140293360Y-80211341D01*
X140294614Y-80210107D01*
X140402394Y-80105648D01*
X140413184Y-80096333D01*
X140651893Y-79913165D01*
X140665371Y-79904158D01*
X140925094Y-79754206D01*
X140939627Y-79747039D01*
X141216713Y-79632266D01*
X141232041Y-79627063D01*
X141368297Y-79590553D01*
X141438144Y-79592216D01*
X141488069Y-79622647D01*
X141498838Y-79633416D01*
X141499314Y-79633715D01*
X141633821Y-79718232D01*
X141651578Y-79729389D01*
X141726039Y-79755444D01*
X141821845Y-79788968D01*
X141821850Y-79788969D01*
X142001096Y-79809165D01*
X142001100Y-79809165D01*
X142001104Y-79809165D01*
X142180349Y-79788969D01*
X142180352Y-79788968D01*
X142180355Y-79788968D01*
X142350622Y-79729389D01*
X142503362Y-79633416D01*
X142596859Y-79539919D01*
X142658182Y-79506434D01*
X142684540Y-79503600D01*
X150908335Y-79503600D01*
X150975374Y-79523285D01*
G37*
%TD.AperFunction*%
%TD*%
M02*
