%TF.GenerationSoftware,KiCad,Pcbnew,8.0.7*%
%TF.CreationDate,2025-09-19T21:14:15-06:00*%
%TF.ProjectId,MiniBall,4d696e69-4261-46c6-9c2e-6b696361645f,rev?*%
%TF.SameCoordinates,Original*%
%TF.FileFunction,Copper,L1,Top*%
%TF.FilePolarity,Positive*%
%FSLAX46Y46*%
G04 Gerber Fmt 4.6, Leading zero omitted, Abs format (unit mm)*
G04 Created by KiCad (PCBNEW 8.0.7) date 2025-09-19 21:14:15*
%MOMM*%
%LPD*%
G01*
G04 APERTURE LIST*
G04 Aperture macros list*
%AMRoundRect*
0 Rectangle with rounded corners*
0 $1 Rounding radius*
0 $2 $3 $4 $5 $6 $7 $8 $9 X,Y pos of 4 corners*
0 Add a 4 corners polygon primitive as box body*
4,1,4,$2,$3,$4,$5,$6,$7,$8,$9,$2,$3,0*
0 Add four circle primitives for the rounded corners*
1,1,$1+$1,$2,$3*
1,1,$1+$1,$4,$5*
1,1,$1+$1,$6,$7*
1,1,$1+$1,$8,$9*
0 Add four rect primitives between the rounded corners*
20,1,$1+$1,$2,$3,$4,$5,0*
20,1,$1+$1,$4,$5,$6,$7,0*
20,1,$1+$1,$6,$7,$8,$9,0*
20,1,$1+$1,$8,$9,$2,$3,0*%
%AMRotRect*
0 Rectangle, with rotation*
0 The origin of the aperture is its center*
0 $1 length*
0 $2 width*
0 $3 Rotation angle, in degrees counterclockwise*
0 Add horizontal line*
21,1,$1,$2,0,0,$3*%
G04 Aperture macros list end*
%TA.AperFunction,SMDPad,CuDef*%
%ADD10RoundRect,0.255000X-1.995000X-0.595000X1.995000X-0.595000X1.995000X0.595000X-1.995000X0.595000X0*%
%TD*%
%TA.AperFunction,SMDPad,CuDef*%
%ADD11RotRect,1.016000X1.016000X135.000000*%
%TD*%
%TA.AperFunction,SMDPad,CuDef*%
%ADD12RoundRect,0.165000X-0.385000X0.635000X-0.385000X-0.635000X0.385000X-0.635000X0.385000X0.635000X0*%
%TD*%
%TA.AperFunction,SMDPad,CuDef*%
%ADD13RoundRect,0.280000X0.420000X-0.520000X0.420000X0.520000X-0.420000X0.520000X-0.420000X-0.520000X0*%
%TD*%
%TA.AperFunction,SMDPad,CuDef*%
%ADD14RoundRect,0.150000X-0.350000X0.600000X-0.350000X-0.600000X0.350000X-0.600000X0.350000X0.600000X0*%
%TD*%
%TA.AperFunction,SMDPad,CuDef*%
%ADD15RoundRect,0.165000X0.635000X0.385000X-0.635000X0.385000X-0.635000X-0.385000X0.635000X-0.385000X0*%
%TD*%
%TA.AperFunction,SMDPad,CuDef*%
%ADD16RoundRect,0.165000X0.385000X-0.635000X0.385000X0.635000X-0.385000X0.635000X-0.385000X-0.635000X0*%
%TD*%
%TA.AperFunction,SMDPad,CuDef*%
%ADD17RoundRect,0.150000X0.600000X0.350000X-0.600000X0.350000X-0.600000X-0.350000X0.600000X-0.350000X0*%
%TD*%
%TA.AperFunction,SMDPad,CuDef*%
%ADD18C,1.016000*%
%TD*%
%TA.AperFunction,ComponentPad*%
%ADD19RoundRect,0.444500X-0.444500X-0.444500X0.444500X-0.444500X0.444500X0.444500X-0.444500X0.444500X0*%
%TD*%
%TA.AperFunction,ComponentPad*%
%ADD20C,1.778000*%
%TD*%
%TA.AperFunction,ComponentPad*%
%ADD21R,1.778000X1.778000*%
%TD*%
%TA.AperFunction,SMDPad,CuDef*%
%ADD22RoundRect,0.220000X-0.380000X0.055000X-0.380000X-0.055000X0.380000X-0.055000X0.380000X0.055000X0*%
%TD*%
%TA.AperFunction,SMDPad,CuDef*%
%ADD23RoundRect,0.150000X0.350000X-0.600000X0.350000X0.600000X-0.350000X0.600000X-0.350000X-0.600000X0*%
%TD*%
%TA.AperFunction,ComponentPad*%
%ADD24O,1.400000X1.800000*%
%TD*%
%TA.AperFunction,SMDPad,CuDef*%
%ADD25RoundRect,0.165000X-0.635000X-0.385000X0.635000X-0.385000X0.635000X0.385000X-0.635000X0.385000X0*%
%TD*%
%TA.AperFunction,SMDPad,CuDef*%
%ADD26RoundRect,0.052500X-0.122500X-0.847500X0.122500X-0.847500X0.122500X0.847500X-0.122500X0.847500X0*%
%TD*%
%TA.AperFunction,SMDPad,CuDef*%
%ADD27RoundRect,0.200000X-0.800000X-0.800000X0.800000X-0.800000X0.800000X0.800000X-0.800000X0.800000X0*%
%TD*%
%TA.AperFunction,SMDPad,CuDef*%
%ADD28RoundRect,0.160000X-0.640000X-0.640000X0.640000X-0.640000X0.640000X0.640000X-0.640000X0.640000X0*%
%TD*%
%TA.AperFunction,SMDPad,CuDef*%
%ADD29RoundRect,0.200000X-0.000010X-0.550000X0.000010X-0.550000X0.000010X0.550000X-0.000010X0.550000X0*%
%TD*%
%TA.AperFunction,SMDPad,CuDef*%
%ADD30RoundRect,0.200000X-0.550000X0.000010X-0.550000X-0.000010X0.550000X-0.000010X0.550000X0.000010X0*%
%TD*%
%TA.AperFunction,ViaPad*%
%ADD31C,1.400000*%
%TD*%
%TA.AperFunction,ViaPad*%
%ADD32C,0.600000*%
%TD*%
%TA.AperFunction,ViaPad*%
%ADD33C,1.000000*%
%TD*%
%TA.AperFunction,ViaPad*%
%ADD34C,1.016000*%
%TD*%
%TA.AperFunction,Conductor*%
%ADD35C,0.500000*%
%TD*%
%TA.AperFunction,Conductor*%
%ADD36C,0.350000*%
%TD*%
%TA.AperFunction,Conductor*%
%ADD37C,1.100000*%
%TD*%
%TA.AperFunction,Conductor*%
%ADD38C,0.400000*%
%TD*%
%TA.AperFunction,Conductor*%
%ADD39C,0.550000*%
%TD*%
%TA.AperFunction,Conductor*%
%ADD40C,1.000000*%
%TD*%
%TA.AperFunction,Conductor*%
%ADD41C,0.300000*%
%TD*%
G04 APERTURE END LIST*
D10*
%TO.P,MOS.D.1,C*%
%TO.N,NetMOS.D.1_C*%
X166701110Y-103703600D03*
%TO.P,MOS.D.1,A*%
%TO.N,V_USB*%
X166701110Y-106303600D03*
%TD*%
D11*
%TO.P,MCH.SP.10,1*%
%TO.N,GND*%
X165001100Y-84503600D03*
%TD*%
%TO.P,MCH.SP.9,1*%
%TO.N,GND*%
X168301110Y-120503600D03*
%TD*%
D12*
%TO.P,MCU.C.22,1*%
%TO.N,GND*%
X143753510Y-82003600D03*
%TO.P,MCU.C.22,2*%
%TO.N,~{RESET}*%
X141648710Y-82003600D03*
%TD*%
D13*
%TO.P,MCU.Y.1,1*%
%TO.N,NetMCU.U.1_16*%
X133301100Y-87503600D03*
%TO.P,MCU.Y.1,2*%
%TO.N,GND*%
X133301100Y-91703610D03*
%TO.P,MCU.Y.1,3*%
%TO.N,NetMCU.U.1_17*%
X136101100Y-91703610D03*
%TO.P,MCU.Y.1,4*%
%TO.N,GND*%
X136101100Y-87503600D03*
%TD*%
D14*
%TO.P,USB.R.6,1*%
%TO.N,NetUSB.FB.2_2*%
X145703510Y-122303600D03*
%TO.P,USB.R.6,2*%
%TO.N,NetMCU.U.1_3*%
X143698710Y-122303600D03*
%TD*%
D11*
%TO.P,MCH.SP.2,1*%
%TO.N,GND*%
X157301100Y-117403600D03*
%TD*%
D12*
%TO.P,MCU.C.1,1*%
%TO.N,GND*%
X149853510Y-79703600D03*
%TO.P,MCU.C.1,2*%
%TO.N,NetMCU.C.1_2*%
X147748710Y-79703600D03*
%TD*%
D15*
%TO.P,MCU.C.7,1*%
%TO.N,GND*%
X138101110Y-87856000D03*
%TO.P,MCU.C.7,2*%
%TO.N,V_USB*%
X138101110Y-85751200D03*
%TD*%
D11*
%TO.P,MCH.SP.3,1*%
%TO.N,GND*%
X138501100Y-80503600D03*
%TD*%
D16*
%TO.P,MOS.C.2,1*%
%TO.N,GND*%
X148248700Y-113703600D03*
%TO.P,MOS.C.2,2*%
%TO.N,NetMOS.C.2_2*%
X150353500Y-113703600D03*
%TD*%
D15*
%TO.P,MCU.C.4,1*%
%TO.N,GND*%
X157101100Y-88456000D03*
%TO.P,MCU.C.4,2*%
%TO.N,NetMCU.C.4_2*%
X157101100Y-86351200D03*
%TD*%
D17*
%TO.P,USB.FB.3,1*%
%TO.N,NetUSB.FB.3_1*%
X151201100Y-126206000D03*
%TO.P,USB.FB.3,2*%
%TO.N,NetUSB.FB.3_2*%
X151201100Y-124201200D03*
%TD*%
D14*
%TO.P,MOS.R.3,1*%
%TO.N,NetMOS.R.3_1*%
X168303510Y-110203600D03*
%TO.P,MOS.R.3,2*%
%TO.N,V_USB*%
X166298710Y-110203600D03*
%TD*%
D18*
%TO.P,MCH.FID.2,1*%
%TO.N,N/C*%
X166501110Y-88103600D03*
%TD*%
D11*
%TO.P,MCH.SP.11,1*%
%TO.N,GND*%
X161401100Y-127903600D03*
%TD*%
D14*
%TO.P,USB.FB.2,1*%
%TO.N,NetUSB.FB.2_1*%
X149303510Y-122303600D03*
%TO.P,USB.FB.2,2*%
%TO.N,NetUSB.FB.2_2*%
X147298710Y-122303600D03*
%TD*%
D11*
%TO.P,MCH.SP.5,1*%
%TO.N,GND*%
X131501110Y-84503600D03*
%TD*%
D16*
%TO.P,MCU.C.5,1*%
%TO.N,GND*%
X141848700Y-94803600D03*
%TO.P,MCU.C.5,2*%
%TO.N,V_USB*%
X143953500Y-94803600D03*
%TD*%
D11*
%TO.P,MCH.SP.12,1*%
%TO.N,GND*%
X128501100Y-92503600D03*
%TD*%
D12*
%TO.P,MOS.C.10,1*%
%TO.N,GND*%
X146653510Y-115803600D03*
%TO.P,MOS.C.10,2*%
%TO.N,V_USB*%
X144548700Y-115803600D03*
%TD*%
D19*
%TO.P,MCU.J.1,1*%
%TO.N,MISO*%
X146901110Y-85863600D03*
D20*
%TO.P,MCU.J.1,2*%
%TO.N,V_USB*%
X149441110Y-85863600D03*
%TO.P,MCU.J.1,3*%
%TO.N,SCLK*%
X146901110Y-88403600D03*
%TO.P,MCU.J.1,4*%
%TO.N,MOSI*%
X149441110Y-88403600D03*
%TO.P,MCU.J.1,5*%
%TO.N,~{RESET}*%
X146901110Y-90943600D03*
%TO.P,MCU.J.1,6*%
%TO.N,GND*%
X149441110Y-90943600D03*
%TD*%
D15*
%TO.P,MCU.C.8,1*%
%TO.N,GND*%
X157101100Y-84756000D03*
%TO.P,MCU.C.8,2*%
%TO.N,V_USB*%
X157101100Y-82651200D03*
%TD*%
D21*
%TO.P,MCU.J.3,1*%
%TO.N,NetMCU.J.3_1*%
X160511100Y-94003600D03*
D20*
%TO.P,MCU.J.3,2*%
%TO.N,GND*%
X163051100Y-94003600D03*
%TD*%
D18*
%TO.P,MCH.FID.1,1*%
%TO.N,N/C*%
X130001100Y-121603600D03*
%TD*%
D16*
%TO.P,MOS.C.3,1*%
%TO.N,GND*%
X148248700Y-115803600D03*
%TO.P,MOS.C.3,2*%
%TO.N,NetMOS.C.2_2*%
X150353500Y-115803600D03*
%TD*%
D11*
%TO.P,MCH.SP.8,1*%
%TO.N,GND*%
X156501100Y-79503600D03*
%TD*%
D22*
%TO.P,USB.Z.1,1*%
%TO.N,NetUSB.FB.3_1*%
X149251100Y-126153600D03*
%TO.P,USB.Z.1,2*%
%TO.N,GND*%
X149251100Y-125203600D03*
%TO.P,USB.Z.1,3*%
%TO.N,NetUSB.FB.2_1*%
X149251100Y-124253600D03*
%TO.P,USB.Z.1,4*%
%TO.N,NetUSB.FB.1_1*%
X146351100Y-124253600D03*
%TO.P,USB.Z.1,5*%
X146351100Y-125203600D03*
%TO.P,USB.Z.1,6*%
X146351100Y-126153600D03*
%TD*%
D23*
%TO.P,MOS.R.4,1*%
%TO.N,NetMOS.D.1_C*%
X166298700Y-99803600D03*
%TO.P,MOS.R.4,2*%
%TO.N,NetMOS.R.3_1*%
X168303500Y-99803600D03*
%TD*%
D24*
%TO.P,MOS.U.2,1*%
%TO.N,NetMCU.U.1_31*%
X150501120Y-98703600D03*
%TO.P,MOS.U.2,2*%
%TO.N,NetMOS.D.1_C*%
X148501120Y-98703600D03*
%TO.P,MOS.U.2,3*%
%TO.N,~{RESET}*%
X146501120Y-98703600D03*
%TO.P,MOS.U.2,4*%
%TO.N,NetMCU.U.1_28*%
X144501120Y-98703600D03*
%TO.P,MOS.U.2,5*%
%TO.N,V_USB*%
X145501120Y-111303600D03*
%TO.P,MOS.U.2,6*%
%TO.N,GND*%
X147501120Y-111303600D03*
%TO.P,MOS.U.2,7*%
%TO.N,NetMOS.C.2_2*%
X149501120Y-111303600D03*
%TO.P,MOS.U.2,8*%
%TO.N,NetMCU.U.1_12*%
X151501120Y-111303600D03*
%TD*%
D25*
%TO.P,MCU.C.9,1*%
%TO.N,GND*%
X157101100Y-90051200D03*
%TO.P,MCU.C.9,2*%
%TO.N,V_USB*%
X157101100Y-92156000D03*
%TD*%
D17*
%TO.P,USB.R.7,1*%
%TO.N,NetUSB.FB.3_2*%
X151201100Y-122606000D03*
%TO.P,USB.R.7,2*%
%TO.N,NetMCU.U.1_4*%
X151201100Y-120601200D03*
%TD*%
D23*
%TO.P,MCU.R.5,1*%
%TO.N,NetMCU.J.3_1*%
X155298700Y-94003600D03*
%TO.P,MCU.R.5,2*%
%TO.N,V_USB*%
X157303500Y-94003600D03*
%TD*%
D11*
%TO.P,MCH.SP.6,1*%
%TO.N,GND*%
X134301110Y-127503600D03*
%TD*%
%TO.P,MCH.SP.7,1*%
%TO.N,GND*%
X163701100Y-115603600D03*
%TD*%
%TO.P,MCH.SP.1,1*%
%TO.N,GND*%
X168701100Y-95103600D03*
%TD*%
D14*
%TO.P,MCU.R.1,1*%
%TO.N,~{RESET}*%
X141603510Y-84003600D03*
%TO.P,MCU.R.1,2*%
%TO.N,V_USB*%
X139598710Y-84003600D03*
%TD*%
D11*
%TO.P,MCH.SP.4,1*%
%TO.N,GND*%
X156301100Y-123903600D03*
%TD*%
D26*
%TO.P,USB.J.2,1*%
%TO.N,NetUSB.FB.1_1*%
X147201110Y-128278600D03*
%TO.P,USB.J.2,2*%
%TO.N,NetUSB.FB.2_1*%
X147851100Y-128275410D03*
%TO.P,USB.J.2,3*%
%TO.N,NetUSB.FB.3_1*%
X148501110Y-128278600D03*
%TO.P,USB.J.2,4*%
%TO.N,N/C*%
X149151110Y-128278600D03*
%TO.P,USB.J.2,5*%
%TO.N,GND*%
X149801110Y-128278600D03*
D27*
%TO.P,USB.J.2,6*%
X152401100Y-130803610D03*
D28*
X151701100Y-128203610D03*
D27*
X149751180Y-130956850D03*
X147251180Y-130956850D03*
D28*
X145301110Y-128203610D03*
D27*
X144601100Y-130803610D03*
%TD*%
D15*
%TO.P,MCU.C.6,1*%
%TO.N,GND*%
X140201110Y-87856000D03*
%TO.P,MCU.C.6,2*%
%TO.N,V_USB*%
X140201110Y-85751200D03*
%TD*%
D12*
%TO.P,MOS.C.11,1*%
%TO.N,GND*%
X146653510Y-113703600D03*
%TO.P,MOS.C.11,2*%
%TO.N,V_USB*%
X144548700Y-113703600D03*
%TD*%
D14*
%TO.P,USB.FB.1,1*%
%TO.N,NetUSB.FB.1_1*%
X144603510Y-124403600D03*
%TO.P,USB.FB.1,2*%
%TO.N,V_USB*%
X142598710Y-124403600D03*
%TD*%
D29*
%TO.P,MCU.U.1,1*%
%TO.N,GND*%
X153301110Y-82653600D03*
%TO.P,MCU.U.1,2*%
%TO.N,V_USB*%
X152501100Y-82653600D03*
%TO.P,MCU.U.1,3*%
%TO.N,NetMCU.U.1_3*%
X151701100Y-82653600D03*
%TO.P,MCU.U.1,4*%
%TO.N,NetMCU.U.1_4*%
X150901100Y-82653600D03*
%TO.P,MCU.U.1,5*%
%TO.N,GND*%
X150101100Y-82653600D03*
%TO.P,MCU.U.1,6*%
%TO.N,NetMCU.C.1_2*%
X149301100Y-82653600D03*
%TO.P,MCU.U.1,7*%
%TO.N,V_USB*%
X148501100Y-82653600D03*
%TO.P,MCU.U.1,8*%
%TO.N,GND*%
X147701100Y-82653600D03*
%TO.P,MCU.U.1,9*%
%TO.N,SCLK*%
X146901110Y-82653600D03*
%TO.P,MCU.U.1,10*%
%TO.N,MOSI*%
X146101100Y-82653600D03*
%TO.P,MCU.U.1,11*%
%TO.N,MISO*%
X145301100Y-82653600D03*
D30*
%TO.P,MCU.U.1,12*%
%TO.N,NetMCU.U.1_12*%
X143551100Y-84403600D03*
%TO.P,MCU.U.1,13*%
%TO.N,~{RESET}*%
X143551100Y-85203600D03*
%TO.P,MCU.U.1,14*%
%TO.N,V_USB*%
X143551100Y-86003600D03*
%TO.P,MCU.U.1,15*%
%TO.N,GND*%
X143551100Y-86803600D03*
%TO.P,MCU.U.1,16*%
%TO.N,NetMCU.U.1_16*%
X143551100Y-87603600D03*
%TO.P,MCU.U.1,17*%
%TO.N,NetMCU.U.1_17*%
X143551100Y-88403600D03*
%TO.P,MCU.U.1,18*%
%TO.N,GND*%
X143551100Y-89203600D03*
%TO.P,MCU.U.1,19*%
X143551100Y-90003600D03*
%TO.P,MCU.U.1,20*%
X143551100Y-90803600D03*
%TO.P,MCU.U.1,21*%
X143551100Y-91603600D03*
%TO.P,MCU.U.1,22*%
X143551100Y-92403600D03*
D29*
%TO.P,MCU.U.1,23*%
X145301100Y-94153600D03*
%TO.P,MCU.U.1,24*%
%TO.N,V_USB*%
X146101100Y-94153600D03*
%TO.P,MCU.U.1,25*%
%TO.N,GND*%
X146901110Y-94153600D03*
%TO.P,MCU.U.1,26*%
X147701100Y-94153600D03*
%TO.P,MCU.U.1,27*%
X148501100Y-94153600D03*
%TO.P,MCU.U.1,28*%
%TO.N,NetMCU.U.1_28*%
X149301100Y-94153600D03*
%TO.P,MCU.U.1,29*%
%TO.N,GND*%
X150101100Y-94153600D03*
%TO.P,MCU.U.1,30*%
X150901100Y-94153600D03*
%TO.P,MCU.U.1,31*%
%TO.N,NetMCU.U.1_31*%
X151701100Y-94153600D03*
%TO.P,MCU.U.1,32*%
%TO.N,GND*%
X152501100Y-94153600D03*
%TO.P,MCU.U.1,33*%
%TO.N,NetMCU.J.3_1*%
X153301110Y-94153600D03*
D30*
%TO.P,MCU.U.1,34*%
%TO.N,V_USB*%
X155051100Y-92403600D03*
%TO.P,MCU.U.1,35*%
%TO.N,GND*%
X155051100Y-91603600D03*
%TO.P,MCU.U.1,36*%
X155051100Y-90803600D03*
%TO.P,MCU.U.1,37*%
X155051100Y-90003600D03*
%TO.P,MCU.U.1,38*%
X155051100Y-89203600D03*
%TO.P,MCU.U.1,39*%
X155051100Y-88403600D03*
%TO.P,MCU.U.1,40*%
X155051100Y-87603600D03*
%TO.P,MCU.U.1,41*%
X155051100Y-86803600D03*
%TO.P,MCU.U.1,42*%
%TO.N,NetMCU.C.4_2*%
X155051100Y-86003600D03*
%TO.P,MCU.U.1,43*%
%TO.N,GND*%
X155051100Y-85203600D03*
%TO.P,MCU.U.1,44*%
%TO.N,V_USB*%
X155051100Y-84403600D03*
%TD*%
D31*
%TO.N,NetMOS.D.1_C*%
X164576100Y-98528600D03*
D32*
%TO.N,NetMCU.U.1_12*%
X143501100Y-83603600D03*
%TO.N,V_USB*%
X152501100Y-81103600D03*
X145601110Y-95703600D03*
X158801100Y-92203600D03*
X155601110Y-83403600D03*
X148501100Y-81303600D03*
X141801110Y-86003600D03*
D33*
X165101100Y-108403600D03*
%TO.N,NetMOS.R.3_1*%
X168301110Y-96803600D03*
X168301110Y-113303600D03*
D32*
%TO.N,NetMCU.U.1_4*%
X143201110Y-120603600D03*
X150901100Y-80903600D03*
%TO.N,NetMCU.U.1_3*%
X151701100Y-80103600D03*
X142601110Y-122303600D03*
%TO.N,GND*%
X131501110Y-91503600D03*
D34*
X156501100Y-79503600D03*
X161401100Y-127903600D03*
D32*
X128401100Y-101803600D03*
D34*
X157301100Y-117403600D03*
X156301100Y-123903600D03*
D32*
X153501100Y-129003600D03*
X140501110Y-96303600D03*
X153001100Y-87503600D03*
X167001100Y-112003600D03*
X140001100Y-121503600D03*
X135501110Y-115503600D03*
X131601110Y-115903600D03*
X137501100Y-101503600D03*
X133501100Y-107003600D03*
X143501100Y-127503600D03*
X146001100Y-78503600D03*
X156801100Y-127803600D03*
X155101100Y-112203600D03*
X162301100Y-112603600D03*
X138601100Y-98603600D03*
X146001100Y-81003600D03*
X142001100Y-87003600D03*
X143001110Y-119503600D03*
X162701100Y-87603600D03*
X135501110Y-96003600D03*
X134501100Y-85503600D03*
X133101100Y-119703600D03*
X134001110Y-111503600D03*
X131301100Y-125103600D03*
X143001110Y-96503600D03*
X151301100Y-92203600D03*
X164501110Y-96403600D03*
X148801100Y-117203600D03*
D34*
X165001100Y-84503600D03*
D32*
X137501100Y-119003600D03*
X133001110Y-85503600D03*
X147101100Y-117203600D03*
X153501100Y-126003600D03*
X133501100Y-103503600D03*
X137501100Y-105503600D03*
X131501110Y-90003600D03*
X142501100Y-130003600D03*
X131501110Y-93003600D03*
X153001100Y-91503600D03*
X143501100Y-129003600D03*
X141001100Y-117703600D03*
X167001100Y-117003600D03*
X142001100Y-79003600D03*
X131501110Y-87003600D03*
X137501100Y-108503600D03*
X154501110Y-130003600D03*
X160801110Y-89703600D03*
X167001100Y-90903600D03*
X142001100Y-92503600D03*
X159001100Y-88503600D03*
X142501100Y-131503600D03*
X153001100Y-89503600D03*
X137501100Y-112503600D03*
X139501100Y-115503600D03*
X153001100Y-124503600D03*
X152401100Y-114003600D03*
X147801100Y-119703600D03*
X134501100Y-93503600D03*
D34*
X138501100Y-80503600D03*
D32*
X139201110Y-127203600D03*
X135301110Y-82203600D03*
D34*
X163701100Y-115603600D03*
D32*
X151501100Y-78503600D03*
X128401100Y-96803600D03*
X153401100Y-95803600D03*
X131501110Y-88503600D03*
X147601100Y-95703600D03*
D34*
X134301110Y-127503600D03*
X168301110Y-120503600D03*
X168701100Y-95103600D03*
D32*
X142001100Y-90503600D03*
X128701100Y-112903600D03*
D34*
X131501110Y-84503600D03*
D32*
X158901100Y-96403600D03*
X153501100Y-127503600D03*
X159001100Y-84503600D03*
X136001100Y-85503600D03*
X137501100Y-93003600D03*
X159001100Y-80503600D03*
X153901100Y-118803600D03*
X154501110Y-131503600D03*
X138501100Y-90503600D03*
X136001100Y-93503600D03*
X135701100Y-123003600D03*
X142901110Y-113703600D03*
D34*
X128501100Y-92503600D03*
D32*
X160001100Y-115003600D03*
X133001110Y-93503600D03*
X154001100Y-81003600D03*
X128501100Y-106703600D03*
X138001110Y-91503600D03*
X133501100Y-99503600D03*
%TD*%
D35*
%TO.N,NetMOS.D.1_C*%
X166298700Y-103301190D02*
X166701110Y-103703600D01*
X166298700Y-99803600D02*
X166298700Y-103301190D01*
D36*
%TO.N,NetMCU.J.3_1*%
X155298700Y-94003600D02*
X156243450Y-94948350D01*
X159955050Y-94559650D02*
X160511100Y-94003600D01*
X157101110Y-95303600D02*
X158159000Y-95303600D01*
X153663240Y-94003600D02*
X155298700Y-94003600D01*
X159955051Y-94559651D02*
G75*
G02*
X158159000Y-95303600I-1796051J1796051D01*
G01*
X157101110Y-95303600D02*
G75*
G02*
X156243450Y-94948350I-10J1212900D01*
G01*
X153301109Y-94153599D02*
G75*
G02*
X153663240Y-94003619I362091J-362101D01*
G01*
D37*
%TO.N,NetMOS.C.2_2*%
X150353500Y-115803600D02*
X150353500Y-113703600D01*
X149501120Y-111637960D02*
X149501120Y-111303600D01*
X150353500Y-113703600D02*
X150353500Y-113695790D01*
X149901100Y-112603600D02*
G75*
G02*
X150353504Y-113695790I-1092200J-1092200D01*
G01*
X149901101Y-112603599D02*
G75*
G02*
X149501137Y-111637960I965599J965599D01*
G01*
D36*
%TO.N,NetMCU.U.1_31*%
X150501120Y-98703600D02*
X150957160Y-98247570D01*
X151701100Y-96451520D02*
X151701100Y-94153600D01*
X151701100Y-96451520D02*
G75*
G02*
X150957141Y-98247561I-2540000J20D01*
G01*
%TO.N,NetMCU.U.1_28*%
X147076100Y-96678600D02*
X147246510Y-96678600D01*
X149301100Y-94977560D02*
X149301100Y-94153600D01*
X144801650Y-97978050D02*
X145411670Y-97368030D01*
X148876101Y-96003601D02*
G75*
G02*
X147246510Y-96678604I-1629601J1629601D01*
G01*
X145411670Y-97368030D02*
G75*
G02*
X147076100Y-96678612I1664430J-1664470D01*
G01*
X149301100Y-94977560D02*
G75*
G02*
X148876117Y-96003607I-1451000J-40D01*
G01*
X144501120Y-98703600D02*
G75*
G02*
X144801652Y-97978052I1026080J0D01*
G01*
%TO.N,NetMCU.U.1_12*%
X143551100Y-84403600D02*
X143551100Y-83724310D01*
X143501100Y-83603600D02*
G75*
G02*
X143551096Y-83724310I-120700J-120700D01*
G01*
%TO.N,NetMCU.U.1_17*%
X136101100Y-91703610D02*
X137412160Y-90392550D01*
X142118624Y-88927534D02*
X142118160Y-88927997D01*
X142404100Y-88642060D02*
X142404100Y-88642060D01*
X141944120Y-89102040D02*
X141944130Y-89102040D01*
X141944130Y-89102040D02*
X142118160Y-88928000D01*
X142118630Y-88927540D02*
X142404100Y-88642060D01*
X139208210Y-89648600D02*
X140626100Y-89648600D01*
X143085720Y-88403600D02*
X143551100Y-88403600D01*
X142448775Y-88604620D02*
G75*
G02*
X143085720Y-88403610I636925J-908580D01*
G01*
X141944117Y-89102038D02*
G75*
G02*
X140626100Y-89648588I-1318017J1315938D01*
G01*
X142404099Y-88642062D02*
G75*
G02*
X142448771Y-88604621I246501J-248738D01*
G01*
X137412159Y-90392549D02*
G75*
G02*
X139208210Y-89648607I1796041J-1796051D01*
G01*
D38*
%TO.N,NetMCU.U.1_16*%
X133301100Y-87503600D02*
X134107150Y-88309650D01*
X135903210Y-89053600D02*
X140626100Y-89053600D01*
X143025370Y-87603600D02*
X143551100Y-87603600D01*
X141522340Y-88682370D02*
X142301100Y-87903600D01*
X142301109Y-87903599D02*
G75*
G02*
X143025370Y-87603591I724291J-724301D01*
G01*
X135903210Y-89053600D02*
G75*
G02*
X134107154Y-88309656I-10J2540000D01*
G01*
X141522330Y-88682370D02*
G75*
G02*
X140626100Y-89053589I-896230J896270D01*
G01*
D36*
%TO.N,NetUSB.FB.3_1*%
X149251100Y-126153600D02*
X149251100Y-126153600D01*
X148501110Y-128278600D02*
X148501110Y-127469260D01*
D39*
X149251100Y-126153600D02*
X151074600Y-126153600D01*
D36*
X148901100Y-126503600D02*
X149251100Y-126153600D01*
X148501110Y-127469260D02*
G75*
G02*
X148901116Y-126503606I1365690J-40D01*
G01*
D39*
X151074600Y-126153590D02*
G75*
G02*
X151201108Y-126205992I0J-178910D01*
G01*
D35*
%TO.N,NetUSB.FB.3_2*%
X151201100Y-124201200D02*
X151201100Y-122606000D01*
D39*
%TO.N,NetUSB.FB.2_2*%
X145703510Y-122303600D02*
X147298710Y-122303600D01*
%TO.N,NetUSB.FB.2_1*%
X149251100Y-124253600D02*
X149251100Y-122430110D01*
D36*
X147851100Y-128275410D02*
X147851100Y-125448580D01*
X149046080Y-124253600D02*
X149251100Y-124253600D01*
X148201102Y-124603602D02*
G75*
G02*
X149046080Y-124253592I844998J-844998D01*
G01*
X147851100Y-125448580D02*
G75*
G02*
X148201107Y-124603607I1195000J-20D01*
G01*
D39*
X149251100Y-122430110D02*
G75*
G02*
X149303504Y-122303594I178900J10D01*
G01*
%TO.N,NetUSB.FB.1_1*%
X144965630Y-124253600D02*
X146351100Y-124253600D01*
D36*
X146351100Y-126153600D02*
X146951100Y-126753600D01*
X146951100Y-126753600D02*
X146951290Y-126753790D01*
D39*
X146351100Y-125203600D02*
X146351100Y-124253600D01*
D36*
X146951106Y-126753594D02*
X146951298Y-126753785D01*
X147201110Y-128278600D02*
X147201110Y-127357180D01*
D39*
X146351100Y-126153600D02*
X146351100Y-125203600D01*
D36*
X146951298Y-126753785D02*
G75*
G02*
X147201129Y-127357180I-603798J-603415D01*
G01*
D39*
X144603506Y-124403596D02*
G75*
G02*
X144965630Y-124253615I362094J-362104D01*
G01*
D36*
%TO.N,V_USB*%
X155051100Y-92403600D02*
X156503340Y-92403600D01*
D40*
X157303500Y-94003600D02*
X157303500Y-92644640D01*
X157216010Y-92203600D02*
X158801100Y-92203600D01*
D37*
X142145050Y-118207250D02*
X144500960Y-115851350D01*
D36*
X143953500Y-94803600D02*
X144324870Y-95174960D01*
D37*
X147241110Y-118303600D02*
X147241850Y-118303610D01*
X141401100Y-122153890D02*
X141401100Y-120003300D01*
X144548700Y-115803600D02*
X144548700Y-113703600D01*
D36*
X152501100Y-82653600D02*
X152501100Y-81103600D01*
D37*
X148807810Y-118303600D02*
X148807810Y-118303600D01*
X165842660Y-110659650D02*
X166298710Y-110203600D01*
X144548700Y-113703600D02*
X144548700Y-113308120D01*
D40*
X138101110Y-85751200D02*
X140201110Y-85751200D01*
D37*
X147247340Y-118303600D02*
X148807810Y-118303600D01*
X144914370Y-117078700D02*
X144914610Y-117079080D01*
X152039630Y-116965070D02*
X153972630Y-115032080D01*
X144548700Y-115899090D02*
X144548700Y-115803600D01*
X145292650Y-111512070D02*
X145501120Y-111303600D01*
X162732870Y-111403600D02*
X164046610Y-111403600D01*
X142145050Y-123949940D02*
X142598710Y-124403600D01*
D36*
X155051100Y-84403600D02*
X156593070Y-82861630D01*
D37*
X162730510Y-111403600D02*
X162732870Y-111403600D01*
D36*
X148501100Y-82653600D02*
X148501100Y-81303600D01*
D37*
X144500960Y-115851350D02*
X144548700Y-115803600D01*
D36*
X146101100Y-94496500D02*
X146101100Y-94153600D01*
X140810470Y-86003600D02*
X143551100Y-86003600D01*
D40*
X139598710Y-84296870D02*
X139598710Y-84003600D01*
D37*
X147241119Y-118303596D02*
G75*
G02*
X144914627Y-117079073I8981J2839396D01*
G01*
D40*
X157216010Y-92203600D02*
G75*
G02*
X157101096Y-92156006I-10J162500D01*
G01*
D37*
X144914360Y-117078695D02*
G75*
G02*
X144548686Y-115899092I1719740J1179595D01*
G01*
X142145049Y-123949941D02*
G75*
G02*
X141401107Y-122153890I1796051J1796041D01*
G01*
X165842661Y-110659651D02*
G75*
G02*
X164046610Y-111403607I-1796061J1796051D01*
G01*
X141401100Y-120003300D02*
G75*
G02*
X142145049Y-118207249I2540000J0D01*
G01*
D36*
X146101100Y-94496500D02*
G75*
G02*
X145989316Y-95104082I-1707100J0D01*
G01*
X156593065Y-82861635D02*
G75*
G02*
X157101100Y-82651209I508035J-508065D01*
G01*
X157101100Y-92156000D02*
G75*
G02*
X156503340Y-92403617I-597800J597800D01*
G01*
D40*
X140201102Y-85751197D02*
G75*
G02*
X139598713Y-84296870I1454298J1454297D01*
G01*
X157101109Y-92156001D02*
G75*
G02*
X157303490Y-92644640I-488609J-488599D01*
G01*
D37*
X144548700Y-113308120D02*
G75*
G02*
X145292639Y-111512059I2540000J20D01*
G01*
X152039629Y-116965069D02*
G75*
G02*
X148807813Y-118303646I-3228529J3224169D01*
G01*
D36*
X140810470Y-86003600D02*
G75*
G02*
X140201120Y-85751190I30J861800D01*
G01*
X145989316Y-95104082D02*
G75*
G02*
X145601102Y-95703602I-1595316J607582D01*
G01*
X145601110Y-95703600D02*
G75*
G02*
X144324863Y-95174977I-10J1804900D01*
G01*
D37*
X153972628Y-115032075D02*
G75*
G02*
X162730505Y-111403616I8756872J-8752625D01*
G01*
X147241843Y-118303614D02*
G75*
G02*
X147247340Y-118303600I5957J-1258486D01*
G01*
D41*
%TO.N,SCLK*%
X148576100Y-89678600D02*
X149978620Y-89678600D01*
X147893270Y-89395760D02*
X147893480Y-89395970D01*
X146901110Y-83043990D02*
X146901110Y-82653600D01*
X150495060Y-84797550D02*
X150501110Y-84803600D01*
X146901110Y-88403600D02*
X147893270Y-89395760D01*
X150901100Y-88296490D02*
X150901100Y-85769280D01*
X147769300Y-84053600D02*
X148699000Y-84053600D01*
X147893473Y-89395971D02*
X147893261Y-89395759D01*
X148699000Y-84053600D02*
G75*
G02*
X150495051Y-84797549I0J-2540000D01*
G01*
X150401109Y-89503599D02*
G75*
G02*
X149978620Y-89678611I-422509J422499D01*
G01*
X147226107Y-83828603D02*
G75*
G02*
X146901111Y-83043990I784593J784603D01*
G01*
X150495037Y-84797563D02*
G75*
G02*
X150501102Y-84803598I-1300937J-1313537D01*
G01*
X150501102Y-84803598D02*
G75*
G02*
X150901109Y-85769280I-965702J-965702D01*
G01*
X148576100Y-89678600D02*
G75*
G02*
X147893469Y-89395975I0J965700D01*
G01*
X147769300Y-84053600D02*
G75*
G02*
X147226101Y-83828599I0J768200D01*
G01*
X150901100Y-88296490D02*
G75*
G02*
X150401102Y-89503602I-1707100J-10D01*
G01*
D36*
%TO.N,~{RESET}*%
X143551100Y-85203600D02*
X144753620Y-85203600D01*
X145601110Y-88591500D02*
X145601110Y-86404640D01*
X141764300Y-84391800D02*
X142376110Y-85003600D01*
X142858940Y-85203600D02*
X143551100Y-85203600D01*
X141603510Y-84003600D02*
X141603510Y-82112720D01*
X146345050Y-90387550D02*
X146901110Y-90943600D01*
X145176100Y-85378600D02*
G75*
G02*
X145601083Y-86404640I-1026000J-1026000D01*
G01*
X142858940Y-85203600D02*
G75*
G02*
X142376092Y-85003618I-40J682800D01*
G01*
X144753620Y-85203600D02*
G75*
G02*
X145176096Y-85378604I-20J-597500D01*
G01*
X141603510Y-82112720D02*
G75*
G02*
X141648705Y-82003595I154290J20D01*
G01*
X141764298Y-84391802D02*
G75*
G02*
X141603499Y-84003600I388202J388202D01*
G01*
X146345059Y-90387551D02*
G75*
G02*
X145601107Y-88591500I1796041J1796051D01*
G01*
D40*
%TO.N,NetMOS.R.3_1*%
X168301110Y-113303600D02*
X168301110Y-110206000D01*
X168303500Y-99803600D02*
X168303500Y-96806000D01*
X168301110Y-110206000D02*
X168303510Y-110203600D01*
X168301110Y-96803600D02*
X168303500Y-96806000D01*
D36*
%TO.N,NetMCU.U.1_4*%
X150901100Y-82653600D02*
X150901100Y-80903600D01*
D35*
X143202310Y-120602400D02*
X151199900Y-120602400D01*
X143201110Y-120603600D02*
X143202310Y-120602400D01*
X151199900Y-120602400D02*
X151201100Y-120601200D01*
%TO.N,NetMCU.U.1_3*%
X142601110Y-122303600D02*
X143698710Y-122303600D01*
D36*
X151701100Y-82653600D02*
X151701100Y-80103600D01*
D38*
%TO.N,NetMCU.C.4_2*%
X155051100Y-86003600D02*
X156261920Y-86003600D01*
X156261920Y-86003600D02*
G75*
G02*
X157101094Y-86351206I-20J-1186800D01*
G01*
%TO.N,NetMCU.C.1_2*%
X148094220Y-79846710D02*
X149026100Y-80778600D01*
X149301100Y-82653600D02*
X149301100Y-81442510D01*
X147753077Y-79955563D02*
G75*
G02*
X147648699Y-79703600I251923J251963D01*
G01*
X149026103Y-80778607D02*
G75*
G02*
X149301094Y-81442510I-663903J-663893D01*
G01*
X147748710Y-79703590D02*
G75*
G02*
X148094214Y-79846716I-10J-488610D01*
G01*
D41*
%TO.N,MOSI*%
X147265010Y-84603600D02*
X147464740Y-84603600D01*
X148774580Y-87737080D02*
X149441110Y-88403600D01*
X147464740Y-84603600D02*
X147481110Y-84603600D01*
X148160110Y-86253600D02*
X148160110Y-85351650D01*
X146101100Y-83121500D02*
X146101100Y-82653600D01*
X146601108Y-84328602D02*
G75*
G02*
X146101107Y-83121500I1207092J1207102D01*
G01*
X148774585Y-87737075D02*
G75*
G02*
X148160121Y-86253600I1483515J1483475D01*
G01*
X147265010Y-84603600D02*
G75*
G02*
X146601102Y-84328608I-10J938900D01*
G01*
X147481106Y-84603591D02*
G75*
G02*
X148160124Y-85351650I-72606J-748109D01*
G01*
%TO.N,MISO*%
X145301100Y-83211490D02*
X145301100Y-82653600D01*
X146045050Y-85007550D02*
X146901110Y-85863600D01*
X146045049Y-85007541D02*
G75*
G02*
X145301107Y-83211490I1796051J1796041D01*
G01*
%TD*%
%TA.AperFunction,Conductor*%
%TO.N,V_USB*%
G36*
X164675466Y-105981091D02*
G01*
X167177598Y-107093150D01*
X167218501Y-107122518D01*
X167231852Y-107137033D01*
X167255150Y-107173528D01*
X167289871Y-107257358D01*
X167299201Y-107299625D01*
X167300992Y-107342436D01*
X167301100Y-107347619D01*
X167301103Y-110096353D01*
X167300610Y-110106418D01*
X167300610Y-111093025D01*
X167280925Y-111160064D01*
X167228121Y-111205819D01*
X167162727Y-111216245D01*
X167001104Y-111198035D01*
X167001096Y-111198035D01*
X166821850Y-111218230D01*
X166821845Y-111218231D01*
X166651576Y-111277811D01*
X166498837Y-111373784D01*
X166371284Y-111501337D01*
X166275311Y-111654076D01*
X166215731Y-111824345D01*
X166215730Y-111824350D01*
X166195535Y-112003596D01*
X166195535Y-112003603D01*
X166215730Y-112182849D01*
X166215731Y-112182854D01*
X166275311Y-112353123D01*
X166371284Y-112505862D01*
X166498838Y-112633416D01*
X166651578Y-112729389D01*
X166821845Y-112788968D01*
X166821850Y-112788969D01*
X167001096Y-112809165D01*
X167001100Y-112809165D01*
X167001103Y-112809165D01*
X167087709Y-112799406D01*
X167162727Y-112790954D01*
X167231548Y-112803008D01*
X167282928Y-112850357D01*
X167300610Y-112914174D01*
X167300610Y-113035333D01*
X167300555Y-113039031D01*
X167298859Y-113095869D01*
X167294690Y-113124260D01*
X167256307Y-113267530D01*
X167243919Y-113297439D01*
X167169767Y-113425880D01*
X167152625Y-113448921D01*
X167103620Y-113500927D01*
X167098429Y-113506119D01*
X167046437Y-113555129D01*
X167023380Y-113572286D01*
X166894946Y-113646434D01*
X166865037Y-113658822D01*
X166721775Y-113697203D01*
X166693361Y-113701373D01*
X166620081Y-113703546D01*
X166616406Y-113703600D01*
X165045160Y-113703600D01*
X165039966Y-113703491D01*
X165011457Y-113702293D01*
X164997125Y-113701691D01*
X164954885Y-113692363D01*
X164871035Y-113657636D01*
X164834549Y-113634349D01*
X164804134Y-113606381D01*
X164798249Y-113600596D01*
X164771303Y-113572286D01*
X164739055Y-113538405D01*
X164725780Y-113521816D01*
X164626666Y-113373486D01*
X164615208Y-113352052D01*
X164547526Y-113188665D01*
X164540469Y-113165404D01*
X164529508Y-113110307D01*
X164505661Y-112990441D01*
X164503318Y-112969308D01*
X164501147Y-112880846D01*
X164501110Y-112877805D01*
X164501110Y-106094406D01*
X164520795Y-106027367D01*
X164573599Y-105981612D01*
X164642757Y-105971668D01*
X164675466Y-105981091D01*
G37*
%TD.AperFunction*%
%TD*%
%TA.AperFunction,Conductor*%
%TO.N,GND*%
G36*
X167588862Y-111656720D02*
G01*
X167600610Y-111696728D01*
X167600610Y-112308888D01*
X167578936Y-112361214D01*
X167526610Y-112382888D01*
X167484718Y-112369888D01*
X167455510Y-112349829D01*
X167455507Y-112349827D01*
X167455506Y-112349827D01*
X167318759Y-112305088D01*
X167318754Y-112305087D01*
X167249948Y-112293035D01*
X167249930Y-112293033D01*
X167106136Y-112288631D01*
X167106127Y-112288632D01*
X167042287Y-112295825D01*
X167031114Y-112297084D01*
X167031106Y-112297085D01*
X167031104Y-112297085D01*
X167009381Y-112299532D01*
X166992813Y-112299532D01*
X166943323Y-112293956D01*
X166927167Y-112290268D01*
X166880162Y-112273820D01*
X166865233Y-112266631D01*
X166823063Y-112240133D01*
X166810109Y-112229803D01*
X166774895Y-112194589D01*
X166764565Y-112181636D01*
X166738065Y-112139461D01*
X166730877Y-112124534D01*
X166714426Y-112077520D01*
X166710742Y-112061378D01*
X166705166Y-112011877D01*
X166705166Y-111995312D01*
X166710742Y-111945816D01*
X166714426Y-111929679D01*
X166730880Y-111882656D01*
X166738063Y-111867739D01*
X166764568Y-111825556D01*
X166774891Y-111812612D01*
X166810112Y-111777391D01*
X166823056Y-111767068D01*
X166865239Y-111740563D01*
X166880156Y-111733380D01*
X166927179Y-111716926D01*
X166943315Y-111713242D01*
X166992817Y-111707666D01*
X167009379Y-111707666D01*
X167106131Y-111718567D01*
X167106134Y-111718566D01*
X167106135Y-111718567D01*
X167196920Y-111716482D01*
X167242315Y-111715440D01*
X167307709Y-111705014D01*
X167438114Y-111665638D01*
X167486602Y-111634475D01*
X167542339Y-111624419D01*
X167588862Y-111656720D01*
G37*
%TD.AperFunction*%
%TA.AperFunction,Conductor*%
G36*
X152715188Y-78004120D02*
G01*
X153161240Y-78014663D01*
X153164685Y-78014825D01*
X153608895Y-78046367D01*
X153612370Y-78046696D01*
X154054582Y-78099185D01*
X154058006Y-78099674D01*
X154497073Y-78172967D01*
X154497247Y-78172996D01*
X154500680Y-78173652D01*
X154936707Y-78267802D01*
X154939635Y-78268497D01*
X155871658Y-78510279D01*
X155874150Y-78510972D01*
X156797871Y-78785576D01*
X156800324Y-78786353D01*
X157713845Y-79093244D01*
X157716215Y-79094087D01*
X158618362Y-79432871D01*
X158620775Y-79433825D01*
X159510520Y-79804117D01*
X159512841Y-79805132D01*
X160164471Y-80103600D01*
X160388972Y-80206429D01*
X160391316Y-80207553D01*
X161252766Y-80639360D01*
X161255069Y-80640564D01*
X162100902Y-81102415D01*
X162103086Y-81103658D01*
X162875934Y-81561615D01*
X162932165Y-81594935D01*
X162934378Y-81596300D01*
X163745632Y-82116367D01*
X163747796Y-82117809D01*
X163809458Y-82160467D01*
X164540274Y-82666051D01*
X164542356Y-82667545D01*
X165285781Y-83221457D01*
X165315127Y-83243322D01*
X165317179Y-83244908D01*
X165942658Y-83746054D01*
X166068809Y-83847128D01*
X166071445Y-83849343D01*
X166308879Y-84058596D01*
X166486640Y-84215260D01*
X166489810Y-84218225D01*
X166642722Y-84369816D01*
X166867697Y-84592848D01*
X166882425Y-84607448D01*
X166885412Y-84610587D01*
X166964967Y-84699293D01*
X167254556Y-85022190D01*
X167257358Y-85025505D01*
X167601721Y-85458024D01*
X167604324Y-85461497D01*
X167922743Y-85913472D01*
X167925138Y-85917092D01*
X168137072Y-86258859D01*
X168216516Y-86386970D01*
X168218692Y-86390722D01*
X168258327Y-86463896D01*
X168482009Y-86876857D01*
X168483963Y-86880732D01*
X168702330Y-87347295D01*
X168718327Y-87381473D01*
X168720049Y-87385453D01*
X168900204Y-87837706D01*
X168924648Y-87899068D01*
X168926136Y-87903146D01*
X169100278Y-88427899D01*
X169101523Y-88432057D01*
X169244588Y-88966081D01*
X169245588Y-88970304D01*
X169357101Y-89511813D01*
X169357852Y-89516089D01*
X169437426Y-90063220D01*
X169437924Y-90067531D01*
X169485280Y-90618363D01*
X169485525Y-90622697D01*
X169500568Y-91177736D01*
X169500595Y-91179905D01*
X169500445Y-91246949D01*
X169500600Y-91249336D01*
X169500600Y-118759836D01*
X169500458Y-118762031D01*
X169500598Y-118830435D01*
X169500570Y-118832604D01*
X169485465Y-119386237D01*
X169485220Y-119390570D01*
X169437780Y-119941289D01*
X169437281Y-119945600D01*
X169357639Y-120492586D01*
X169356888Y-120496860D01*
X169245322Y-121038229D01*
X169244322Y-121042452D01*
X169101211Y-121576359D01*
X169099965Y-121580516D01*
X168925801Y-122105117D01*
X168924313Y-122109194D01*
X168719701Y-122622671D01*
X168717977Y-122626654D01*
X168483614Y-123127260D01*
X168481660Y-123131134D01*
X168218352Y-123617150D01*
X168216173Y-123620904D01*
X167924837Y-124090631D01*
X167922443Y-124094250D01*
X167604062Y-124546108D01*
X167601459Y-124549581D01*
X167257149Y-124981984D01*
X167254348Y-124985298D01*
X166885270Y-125396789D01*
X166882279Y-125399933D01*
X166489720Y-125789073D01*
X166486549Y-125792037D01*
X166071564Y-126157753D01*
X166068908Y-126159985D01*
X165317180Y-126762282D01*
X165315123Y-126763872D01*
X164542367Y-127339635D01*
X164540272Y-127341139D01*
X164011901Y-127706669D01*
X163747791Y-127889383D01*
X163745627Y-127890824D01*
X162934373Y-128410889D01*
X162932160Y-128412254D01*
X162103120Y-128903508D01*
X162100860Y-128904794D01*
X161255067Y-129366622D01*
X161252763Y-129367827D01*
X160391314Y-129799634D01*
X160388970Y-129800758D01*
X159512871Y-130202041D01*
X159510488Y-130203083D01*
X158620779Y-130573360D01*
X158618362Y-130574316D01*
X157716257Y-130913087D01*
X157713807Y-130913958D01*
X156800341Y-131220832D01*
X156797862Y-131221617D01*
X155874160Y-131496216D01*
X155871655Y-131496913D01*
X154939048Y-131738849D01*
X154936082Y-131739553D01*
X154500618Y-131833566D01*
X154497184Y-131834223D01*
X154057929Y-131907534D01*
X154054468Y-131908028D01*
X153612240Y-131960511D01*
X153608759Y-131960841D01*
X153164543Y-131992378D01*
X153161051Y-131992543D01*
X152715243Y-132003078D01*
X152713495Y-132003099D01*
X152643678Y-132003099D01*
X152643662Y-132003100D01*
X144288759Y-132003100D01*
X144287011Y-132003079D01*
X143840994Y-131992539D01*
X143837501Y-131992374D01*
X143393325Y-131960838D01*
X143389845Y-131960508D01*
X142947667Y-131908029D01*
X142944205Y-131907535D01*
X142504991Y-131834226D01*
X142501557Y-131833569D01*
X142066130Y-131739559D01*
X142063165Y-131738855D01*
X141130540Y-131496920D01*
X141128036Y-131496223D01*
X140204365Y-131221637D01*
X140201886Y-131220852D01*
X139288374Y-130913966D01*
X139285924Y-130913095D01*
X138383833Y-130574334D01*
X138381415Y-130573378D01*
X137491728Y-130203112D01*
X137489345Y-130202070D01*
X136613197Y-129800767D01*
X136610853Y-129799643D01*
X135749424Y-129367848D01*
X135747120Y-129366643D01*
X135077184Y-129000839D01*
X134901306Y-128904804D01*
X134899085Y-128903540D01*
X134126251Y-128445592D01*
X134070024Y-128412274D01*
X134067811Y-128410909D01*
X133256555Y-127890843D01*
X133254408Y-127889413D01*
X132461882Y-127341138D01*
X132459814Y-127339653D01*
X132358211Y-127263951D01*
X131878462Y-126906499D01*
X131687058Y-126763888D01*
X131685001Y-126762298D01*
X130933697Y-126160338D01*
X130931039Y-126158105D01*
X130515562Y-125791939D01*
X130512392Y-125788974D01*
X130169038Y-125448586D01*
X130119771Y-125399744D01*
X130116785Y-125396606D01*
X130071076Y-125345640D01*
X129936292Y-125195353D01*
X129747646Y-124985010D01*
X129744844Y-124981695D01*
X129400480Y-124549175D01*
X129397877Y-124545702D01*
X129079459Y-124093728D01*
X129077064Y-124090108D01*
X129062758Y-124067038D01*
X128785678Y-123620216D01*
X128783516Y-123616489D01*
X128520186Y-123130331D01*
X128518238Y-123126467D01*
X128510570Y-123110083D01*
X128283866Y-122625707D01*
X128282160Y-122621764D01*
X128077545Y-122108111D01*
X128076072Y-122104074D01*
X127909986Y-121603595D01*
X128676100Y-121603595D01*
X128676100Y-121603604D01*
X128696229Y-121833679D01*
X128696229Y-121833682D01*
X128696230Y-121833684D01*
X128756007Y-122056777D01*
X128853616Y-122266100D01*
X128986091Y-122455294D01*
X129149406Y-122618609D01*
X129338600Y-122751084D01*
X129547923Y-122848693D01*
X129771016Y-122908470D01*
X129886058Y-122918535D01*
X130001096Y-122928600D01*
X130001100Y-122928600D01*
X130001104Y-122928600D01*
X130103359Y-122919653D01*
X130231184Y-122908470D01*
X130454277Y-122848693D01*
X130663600Y-122751084D01*
X130852794Y-122618609D01*
X131016109Y-122455294D01*
X131148584Y-122266100D01*
X131246193Y-122056777D01*
X131305970Y-121833684D01*
X131317153Y-121705859D01*
X131326100Y-121603604D01*
X131326100Y-121603595D01*
X131311157Y-121432799D01*
X131305970Y-121373516D01*
X131246193Y-121150423D01*
X131148584Y-120941100D01*
X131016109Y-120751906D01*
X130852794Y-120588591D01*
X130663600Y-120456116D01*
X130454277Y-120358507D01*
X130231184Y-120298730D01*
X130231182Y-120298729D01*
X130231179Y-120298729D01*
X130001104Y-120278600D01*
X130001096Y-120278600D01*
X129771020Y-120298729D01*
X129771016Y-120298729D01*
X129771016Y-120298730D01*
X129547923Y-120358507D01*
X129547922Y-120358507D01*
X129547920Y-120358508D01*
X129547919Y-120358508D01*
X129338600Y-120456116D01*
X129338599Y-120456117D01*
X129149405Y-120588591D01*
X128986091Y-120751905D01*
X128935823Y-120823696D01*
X128853616Y-120941100D01*
X128756007Y-121150423D01*
X128696230Y-121373516D01*
X128696229Y-121373520D01*
X128676100Y-121603595D01*
X127909986Y-121603595D01*
X127901924Y-121579300D01*
X127900679Y-121575142D01*
X127843853Y-121363027D01*
X127757609Y-121041106D01*
X127756613Y-121036896D01*
X127747748Y-120993846D01*
X127645097Y-120495371D01*
X127644349Y-120491110D01*
X127625695Y-120362853D01*
X127564773Y-119943966D01*
X127564277Y-119939668D01*
X127561780Y-119910627D01*
X127555850Y-119841647D01*
X140650600Y-119841647D01*
X140650600Y-122231382D01*
X140650608Y-122231543D01*
X140650608Y-122315538D01*
X140682296Y-122637292D01*
X140745365Y-122954367D01*
X140745367Y-122954376D01*
X140745368Y-122954377D01*
X140835612Y-123251876D01*
X140839217Y-123263758D01*
X140839222Y-123263772D01*
X140962938Y-123562451D01*
X140962941Y-123562458D01*
X141115340Y-123847579D01*
X141115341Y-123847581D01*
X141119810Y-123854269D01*
X141294959Y-124116400D01*
X141500060Y-124366317D01*
X141500063Y-124366320D01*
X141500068Y-124366326D01*
X141614363Y-124480623D01*
X141614364Y-124480623D01*
X141672720Y-124538979D01*
X141672730Y-124538988D01*
X141876536Y-124742793D01*
X141898210Y-124795119D01*
X141898210Y-125036864D01*
X141908137Y-125104993D01*
X141908137Y-125104994D01*
X141959511Y-125210082D01*
X141959512Y-125210083D01*
X142042227Y-125292798D01*
X142147317Y-125344173D01*
X142215450Y-125354100D01*
X142215456Y-125354100D01*
X142981964Y-125354100D01*
X142981970Y-125354100D01*
X143050103Y-125344173D01*
X143155193Y-125292798D01*
X143237908Y-125210083D01*
X143289283Y-125104993D01*
X143299210Y-125036860D01*
X143299210Y-124688311D01*
X143304843Y-124659993D01*
X143320366Y-124622516D01*
X143320368Y-124622512D01*
X143349210Y-124477517D01*
X143349210Y-124329683D01*
X143320368Y-124184687D01*
X143312422Y-124165504D01*
X143304843Y-124147205D01*
X143299210Y-124118887D01*
X143299210Y-123770346D01*
X143299210Y-123770340D01*
X143299209Y-123770335D01*
X143903010Y-123770335D01*
X143903010Y-125036864D01*
X143912937Y-125104993D01*
X143912937Y-125104994D01*
X143964311Y-125210082D01*
X143964312Y-125210083D01*
X144047027Y-125292798D01*
X144152117Y-125344173D01*
X144220250Y-125354100D01*
X144220256Y-125354100D01*
X144986764Y-125354100D01*
X144986770Y-125354100D01*
X145054903Y-125344173D01*
X145159993Y-125292798D01*
X145242708Y-125210083D01*
X145294083Y-125104993D01*
X145304010Y-125036860D01*
X145304010Y-124803100D01*
X145325684Y-124750774D01*
X145378010Y-124729100D01*
X145617270Y-124729100D01*
X145669596Y-124750774D01*
X145691270Y-124803100D01*
X145669596Y-124855426D01*
X145626668Y-124898353D01*
X145566195Y-125017036D01*
X145566195Y-125017037D01*
X145550600Y-125115502D01*
X145550600Y-125291697D01*
X145566194Y-125390162D01*
X145566195Y-125390163D01*
X145597007Y-125450635D01*
X145626667Y-125508845D01*
X145720855Y-125603033D01*
X145739759Y-125612665D01*
X145739761Y-125612666D01*
X145776544Y-125655734D01*
X145772099Y-125712196D01*
X145739761Y-125744534D01*
X145720854Y-125754167D01*
X145626668Y-125848353D01*
X145566195Y-125967036D01*
X145566195Y-125967037D01*
X145550600Y-126065502D01*
X145550600Y-126241697D01*
X145566194Y-126340162D01*
X145566195Y-126340163D01*
X145566196Y-126340164D01*
X145626667Y-126458845D01*
X145720855Y-126553033D01*
X145839538Y-126613505D01*
X145938003Y-126629100D01*
X146264910Y-126629099D01*
X146317236Y-126650773D01*
X146647311Y-126980848D01*
X146648639Y-126982358D01*
X146651234Y-126984939D01*
X146651235Y-126984941D01*
X146683059Y-127016598D01*
X146688070Y-127022116D01*
X146732088Y-127075781D01*
X146740490Y-127086025D01*
X146748543Y-127098083D01*
X146785826Y-127167867D01*
X146791373Y-127181265D01*
X146814332Y-127256980D01*
X146817160Y-127271201D01*
X146825254Y-127353390D01*
X146825610Y-127360642D01*
X146825610Y-129151018D01*
X146840289Y-129224816D01*
X146894075Y-129305313D01*
X146896207Y-129308503D01*
X146979894Y-129364421D01*
X147053690Y-129379100D01*
X147053692Y-129379100D01*
X147348528Y-129379100D01*
X147348530Y-129379100D01*
X147422326Y-129364421D01*
X147487379Y-129320953D01*
X147542927Y-129309904D01*
X147569603Y-129320953D01*
X147571986Y-129322545D01*
X147629884Y-129361231D01*
X147703680Y-129375910D01*
X147703682Y-129375910D01*
X147998518Y-129375910D01*
X147998520Y-129375910D01*
X148072316Y-129361231D01*
X148132605Y-129320946D01*
X148188153Y-129309897D01*
X148214829Y-129320946D01*
X148214841Y-129320954D01*
X148279894Y-129364421D01*
X148353690Y-129379100D01*
X148353692Y-129379100D01*
X148648528Y-129379100D01*
X148648530Y-129379100D01*
X148722326Y-129364421D01*
X148784998Y-129322544D01*
X148840546Y-129311495D01*
X148867221Y-129322544D01*
X148929894Y-129364421D01*
X149003690Y-129379100D01*
X149003692Y-129379100D01*
X149298528Y-129379100D01*
X149298530Y-129379100D01*
X149372326Y-129364421D01*
X149456013Y-129308503D01*
X149511931Y-129224816D01*
X149526610Y-129151020D01*
X149526610Y-127406180D01*
X149511931Y-127332384D01*
X149456013Y-127248697D01*
X149372326Y-127192779D01*
X149298530Y-127178100D01*
X149029698Y-127178100D01*
X148977372Y-127156426D01*
X148955698Y-127104100D01*
X148961331Y-127075781D01*
X148982312Y-127025130D01*
X148987579Y-127014791D01*
X149062685Y-126892232D01*
X149069500Y-126882852D01*
X149164904Y-126771150D01*
X149168830Y-126766906D01*
X149284964Y-126650774D01*
X149337289Y-126629100D01*
X150200502Y-126629100D01*
X150252828Y-126650774D01*
X150266982Y-126670598D01*
X150311902Y-126762483D01*
X150394617Y-126845198D01*
X150499707Y-126896573D01*
X150567840Y-126906500D01*
X150567846Y-126906500D01*
X151834354Y-126906500D01*
X151834360Y-126906500D01*
X151902493Y-126896573D01*
X152007583Y-126845198D01*
X152090298Y-126762483D01*
X152141673Y-126657393D01*
X152151600Y-126589260D01*
X152151600Y-125822740D01*
X152141673Y-125754607D01*
X152090298Y-125649517D01*
X152007583Y-125566802D01*
X152007582Y-125566801D01*
X151902494Y-125515427D01*
X151834364Y-125505500D01*
X151834360Y-125505500D01*
X150567840Y-125505500D01*
X150567835Y-125505500D01*
X150499706Y-125515427D01*
X150499705Y-125515427D01*
X150394617Y-125566801D01*
X150307566Y-125653853D01*
X150305737Y-125652024D01*
X150265585Y-125677090D01*
X150253403Y-125678100D01*
X148838002Y-125678100D01*
X148739537Y-125693694D01*
X148739536Y-125693695D01*
X148620853Y-125754168D01*
X148526668Y-125848353D01*
X148466195Y-125967036D01*
X148466195Y-125967037D01*
X148450600Y-126065502D01*
X148450600Y-126241697D01*
X148466194Y-126340160D01*
X148466196Y-126340164D01*
X148473849Y-126355184D01*
X148478292Y-126411646D01*
X148466622Y-126433827D01*
X148415965Y-126499843D01*
X148415954Y-126499860D01*
X148364685Y-126588658D01*
X148319751Y-126623136D01*
X148263599Y-126615742D01*
X148229121Y-126570808D01*
X148226600Y-126551657D01*
X148226600Y-125451496D01*
X148226828Y-125445689D01*
X148231199Y-125390162D01*
X148236234Y-125326193D01*
X148238051Y-125314726D01*
X148243581Y-125291696D01*
X148265352Y-125201015D01*
X148268940Y-125189974D01*
X148313695Y-125081928D01*
X148318967Y-125071582D01*
X148380073Y-124971866D01*
X148386883Y-124962492D01*
X148462879Y-124873512D01*
X148471085Y-124865308D01*
X148559984Y-124789381D01*
X148569361Y-124782568D01*
X148669083Y-124721457D01*
X148679433Y-124716185D01*
X148684265Y-124714184D01*
X148735448Y-124712176D01*
X148739534Y-124713503D01*
X148739538Y-124713505D01*
X148838003Y-124729100D01*
X149179878Y-124729099D01*
X149179888Y-124729100D01*
X149188499Y-124729100D01*
X149322313Y-124729100D01*
X149322321Y-124729099D01*
X149664197Y-124729099D01*
X149762662Y-124713505D01*
X149881345Y-124653033D01*
X149975533Y-124558845D01*
X150036005Y-124440162D01*
X150051600Y-124341697D01*
X150051599Y-124165504D01*
X150046547Y-124133607D01*
X150036005Y-124067037D01*
X150036004Y-124067036D01*
X150020720Y-124037039D01*
X149975533Y-123948355D01*
X149881345Y-123854167D01*
X149810257Y-123817946D01*
X149767004Y-123795907D01*
X149730222Y-123752840D01*
X149726600Y-123729973D01*
X149726600Y-123304202D01*
X149748274Y-123251876D01*
X149768098Y-123237722D01*
X149859993Y-123192798D01*
X149942708Y-123110083D01*
X149994083Y-123004993D01*
X150004010Y-122936860D01*
X150004010Y-122222735D01*
X150250600Y-122222735D01*
X150250600Y-122989264D01*
X150260527Y-123057393D01*
X150260527Y-123057394D01*
X150311901Y-123162482D01*
X150311902Y-123162483D01*
X150394617Y-123245198D01*
X150499707Y-123296573D01*
X150567840Y-123306500D01*
X150676600Y-123306500D01*
X150728926Y-123328174D01*
X150750600Y-123380500D01*
X150750600Y-123426700D01*
X150728926Y-123479026D01*
X150676600Y-123500700D01*
X150567835Y-123500700D01*
X150499706Y-123510627D01*
X150499705Y-123510627D01*
X150394617Y-123562001D01*
X150311901Y-123644717D01*
X150260527Y-123749805D01*
X150260527Y-123749806D01*
X150250600Y-123817935D01*
X150250600Y-124584464D01*
X150260527Y-124652593D01*
X150260527Y-124652594D01*
X150311901Y-124757682D01*
X150311902Y-124757683D01*
X150394617Y-124840398D01*
X150499707Y-124891773D01*
X150567840Y-124901700D01*
X150567846Y-124901700D01*
X151834354Y-124901700D01*
X151834360Y-124901700D01*
X151902493Y-124891773D01*
X152007583Y-124840398D01*
X152090298Y-124757683D01*
X152141673Y-124652593D01*
X152151600Y-124584460D01*
X152151600Y-123817940D01*
X152141673Y-123749807D01*
X152090298Y-123644717D01*
X152007583Y-123562002D01*
X152007582Y-123562001D01*
X151902494Y-123510627D01*
X151834364Y-123500700D01*
X151834360Y-123500700D01*
X151725600Y-123500700D01*
X151673274Y-123479026D01*
X151651600Y-123426700D01*
X151651600Y-123380500D01*
X151673274Y-123328174D01*
X151725600Y-123306500D01*
X151834354Y-123306500D01*
X151834360Y-123306500D01*
X151902493Y-123296573D01*
X152007583Y-123245198D01*
X152090298Y-123162483D01*
X152141673Y-123057393D01*
X152151600Y-122989260D01*
X152151600Y-122222740D01*
X152141673Y-122154607D01*
X152090298Y-122049517D01*
X152007583Y-121966802D01*
X152007582Y-121966801D01*
X151902494Y-121915427D01*
X151834364Y-121905500D01*
X151834360Y-121905500D01*
X150567840Y-121905500D01*
X150567835Y-121905500D01*
X150499706Y-121915427D01*
X150499705Y-121915427D01*
X150394617Y-121966801D01*
X150311901Y-122049517D01*
X150260527Y-122154605D01*
X150260527Y-122154606D01*
X150250600Y-122222735D01*
X150004010Y-122222735D01*
X150004010Y-121670340D01*
X149994083Y-121602207D01*
X149947867Y-121507671D01*
X156591646Y-121507671D01*
X156591646Y-121507686D01*
X156611132Y-121966419D01*
X156669456Y-122421884D01*
X156766192Y-122870742D01*
X156881818Y-123248296D01*
X156896602Y-123296573D01*
X156900645Y-123309773D01*
X156900655Y-123309803D01*
X157071853Y-123735845D01*
X157071855Y-123735849D01*
X157278568Y-124145840D01*
X157459790Y-124440162D01*
X157519315Y-124536837D01*
X157792351Y-124906006D01*
X157862137Y-124985298D01*
X158095717Y-125250696D01*
X158095719Y-125250698D01*
X158427209Y-125568405D01*
X158427215Y-125568411D01*
X158784456Y-125856862D01*
X158784459Y-125856864D01*
X159164884Y-126113987D01*
X159565744Y-126337920D01*
X159984150Y-126527052D01*
X160417089Y-126680019D01*
X160861440Y-126795719D01*
X161314003Y-126873319D01*
X161771516Y-126912259D01*
X161771520Y-126912259D01*
X162230680Y-126912259D01*
X162230684Y-126912259D01*
X162688197Y-126873319D01*
X163140760Y-126795719D01*
X163585111Y-126680019D01*
X164018050Y-126527052D01*
X164436456Y-126337920D01*
X164837316Y-126113987D01*
X165217741Y-125856864D01*
X165532105Y-125603033D01*
X165574984Y-125568411D01*
X165574984Y-125568410D01*
X165574990Y-125568406D01*
X165832824Y-125321291D01*
X165906480Y-125250698D01*
X165906482Y-125250696D01*
X165906483Y-125250694D01*
X165906488Y-125250690D01*
X166209849Y-124906006D01*
X166482885Y-124536837D01*
X166723630Y-124145842D01*
X166930349Y-123735840D01*
X167101552Y-123309783D01*
X167236007Y-122870743D01*
X167332744Y-122421881D01*
X167391066Y-121966433D01*
X167392105Y-121941988D01*
X167410554Y-121507686D01*
X167410554Y-121507671D01*
X167391067Y-121048938D01*
X167391066Y-121048932D01*
X167391066Y-121048925D01*
X167332744Y-120593477D01*
X167236007Y-120144615D01*
X167101552Y-119705575D01*
X166930349Y-119279518D01*
X166891674Y-119202810D01*
X166723631Y-118869517D01*
X166554441Y-118594735D01*
X166482885Y-118478521D01*
X166209849Y-118109352D01*
X165906488Y-117764668D01*
X165906489Y-117764668D01*
X165906482Y-117764661D01*
X165906480Y-117764659D01*
X165574990Y-117446952D01*
X165574984Y-117446946D01*
X165217743Y-117158495D01*
X164851895Y-116911225D01*
X164837316Y-116901371D01*
X164837311Y-116901368D01*
X164837306Y-116901365D01*
X164436458Y-116677439D01*
X164436456Y-116677438D01*
X164018050Y-116488306D01*
X164018044Y-116488304D01*
X164018040Y-116488302D01*
X163585111Y-116335339D01*
X163585103Y-116335337D01*
X163140766Y-116219640D01*
X163108217Y-116214058D01*
X162688197Y-116142039D01*
X162688192Y-116142038D01*
X162688189Y-116142038D01*
X162230704Y-116103100D01*
X162230687Y-116103099D01*
X162230684Y-116103099D01*
X161771516Y-116103099D01*
X161771512Y-116103099D01*
X161771495Y-116103100D01*
X161314010Y-116142038D01*
X161314005Y-116142038D01*
X161314003Y-116142039D01*
X161087721Y-116180839D01*
X160861433Y-116219640D01*
X160417096Y-116335337D01*
X160417088Y-116335339D01*
X159984159Y-116488302D01*
X159565741Y-116677439D01*
X159164893Y-116901365D01*
X159164888Y-116901368D01*
X158784456Y-117158495D01*
X158427215Y-117446946D01*
X158427209Y-117446952D01*
X158095719Y-117764659D01*
X158095717Y-117764661D01*
X157792352Y-118109350D01*
X157519315Y-118478520D01*
X157278568Y-118869517D01*
X157071855Y-119279508D01*
X157071853Y-119279512D01*
X156900655Y-119705554D01*
X156900645Y-119705584D01*
X156766192Y-120144615D01*
X156669456Y-120593473D01*
X156611132Y-121048938D01*
X156591646Y-121507671D01*
X149947867Y-121507671D01*
X149942708Y-121497117D01*
X149859993Y-121414402D01*
X149859992Y-121414401D01*
X149754904Y-121363027D01*
X149686774Y-121353100D01*
X149686770Y-121353100D01*
X148920250Y-121353100D01*
X148920245Y-121353100D01*
X148852116Y-121363027D01*
X148852115Y-121363027D01*
X148747027Y-121414401D01*
X148664311Y-121497117D01*
X148612937Y-121602205D01*
X148612937Y-121602206D01*
X148603010Y-121670335D01*
X148603010Y-122936864D01*
X148612937Y-123004993D01*
X148612937Y-123004994D01*
X148664311Y-123110082D01*
X148751363Y-123197134D01*
X148749528Y-123198968D01*
X148774588Y-123239091D01*
X148775600Y-123251289D01*
X148775600Y-123729973D01*
X148753926Y-123782299D01*
X148735196Y-123795907D01*
X148620853Y-123854168D01*
X148526668Y-123948353D01*
X148523247Y-123953063D01*
X148520826Y-123951304D01*
X148491440Y-123978441D01*
X148349977Y-124037039D01*
X148349973Y-124037041D01*
X148171692Y-124139974D01*
X148008364Y-124265302D01*
X147973760Y-124299907D01*
X147973759Y-124299908D01*
X147935582Y-124338084D01*
X147893895Y-124379771D01*
X147893827Y-124379849D01*
X147862807Y-124410869D01*
X147737484Y-124574191D01*
X147737480Y-124574196D01*
X147737479Y-124574199D01*
X147680094Y-124673592D01*
X147634541Y-124752490D01*
X147555762Y-124942676D01*
X147555759Y-124942685D01*
X147502474Y-125141534D01*
X147502474Y-125141537D01*
X147475600Y-125345642D01*
X147475600Y-125448574D01*
X147475599Y-125508519D01*
X147475600Y-125508532D01*
X147475600Y-126591024D01*
X147453926Y-126643350D01*
X147401600Y-126665024D01*
X147349274Y-126643350D01*
X147341722Y-126634505D01*
X147285252Y-126556741D01*
X147255202Y-126526674D01*
X147253635Y-126524891D01*
X147216547Y-126487996D01*
X147216394Y-126487843D01*
X147175181Y-126446604D01*
X147174879Y-126446342D01*
X147151303Y-126422766D01*
X147129629Y-126370440D01*
X147135473Y-126346113D01*
X147134205Y-126345701D01*
X147136004Y-126340163D01*
X147136005Y-126340162D01*
X147151600Y-126241697D01*
X147151599Y-126065504D01*
X147136005Y-125967038D01*
X147136005Y-125967037D01*
X147136004Y-125967036D01*
X147134851Y-125964775D01*
X147075533Y-125848355D01*
X146981345Y-125754167D01*
X146962437Y-125744533D01*
X146925656Y-125701467D01*
X146930099Y-125645005D01*
X146962436Y-125612667D01*
X146981345Y-125603033D01*
X147075533Y-125508845D01*
X147136005Y-125390162D01*
X147151600Y-125291697D01*
X147151599Y-125115504D01*
X147149934Y-125104993D01*
X147136005Y-125017037D01*
X147136004Y-125017036D01*
X147134851Y-125014775D01*
X147075533Y-124898355D01*
X146981345Y-124804167D01*
X146962437Y-124794533D01*
X146925656Y-124751467D01*
X146930099Y-124695005D01*
X146962436Y-124662667D01*
X146981345Y-124653033D01*
X147075533Y-124558845D01*
X147136005Y-124440162D01*
X147151600Y-124341697D01*
X147151599Y-124165504D01*
X147146547Y-124133607D01*
X147136005Y-124067037D01*
X147136004Y-124067036D01*
X147120720Y-124037039D01*
X147075533Y-123948355D01*
X146981345Y-123854167D01*
X146910257Y-123817946D01*
X146862663Y-123793695D01*
X146764198Y-123778100D01*
X146764197Y-123778100D01*
X146413702Y-123778100D01*
X146413701Y-123778100D01*
X145369140Y-123778100D01*
X145316814Y-123756426D01*
X145295913Y-123714770D01*
X145294083Y-123702207D01*
X145242708Y-123597117D01*
X145159993Y-123514402D01*
X145159992Y-123514401D01*
X145054904Y-123463027D01*
X144986774Y-123453100D01*
X144986770Y-123453100D01*
X144220250Y-123453100D01*
X144220245Y-123453100D01*
X144152116Y-123463027D01*
X144152115Y-123463027D01*
X144047027Y-123514401D01*
X143964311Y-123597117D01*
X143912937Y-123702205D01*
X143912937Y-123702206D01*
X143903010Y-123770335D01*
X143299209Y-123770335D01*
X143289283Y-123702207D01*
X143237908Y-123597117D01*
X143155193Y-123514402D01*
X143155192Y-123514401D01*
X143050104Y-123463027D01*
X142981974Y-123453100D01*
X142981970Y-123453100D01*
X142740230Y-123453100D01*
X142687904Y-123431426D01*
X142677441Y-123420963D01*
X142674131Y-123417428D01*
X142524595Y-123246914D01*
X142518702Y-123239235D01*
X142394047Y-123052674D01*
X142389207Y-123044291D01*
X142362065Y-122989253D01*
X142301590Y-122866621D01*
X142297887Y-122810107D01*
X142335231Y-122767525D01*
X142388809Y-122762892D01*
X142391054Y-122763551D01*
X142391057Y-122763553D01*
X142475018Y-122788205D01*
X142529147Y-122804100D01*
X142529149Y-122804100D01*
X142673073Y-122804100D01*
X142673074Y-122804099D01*
X142684398Y-122800774D01*
X142811163Y-122763553D01*
X142811170Y-122763548D01*
X142815980Y-122761353D01*
X142816798Y-122763146D01*
X142847600Y-122754100D01*
X142924210Y-122754100D01*
X142976536Y-122775774D01*
X142998210Y-122828100D01*
X142998210Y-122936864D01*
X143008137Y-123004993D01*
X143008137Y-123004994D01*
X143059511Y-123110082D01*
X143059512Y-123110083D01*
X143142227Y-123192798D01*
X143247317Y-123244173D01*
X143315450Y-123254100D01*
X143315456Y-123254100D01*
X144081964Y-123254100D01*
X144081970Y-123254100D01*
X144150103Y-123244173D01*
X144255193Y-123192798D01*
X144337908Y-123110083D01*
X144389283Y-123004993D01*
X144399210Y-122936860D01*
X144399210Y-121670340D01*
X144399209Y-121670335D01*
X145003010Y-121670335D01*
X145003010Y-122936864D01*
X145012937Y-123004993D01*
X145012937Y-123004994D01*
X145064311Y-123110082D01*
X145064312Y-123110083D01*
X145147027Y-123192798D01*
X145252117Y-123244173D01*
X145320250Y-123254100D01*
X145320256Y-123254100D01*
X146086764Y-123254100D01*
X146086770Y-123254100D01*
X146154903Y-123244173D01*
X146259993Y-123192798D01*
X146342708Y-123110083D01*
X146394083Y-123004993D01*
X146404010Y-122936860D01*
X146404010Y-122853100D01*
X146425684Y-122800774D01*
X146478010Y-122779100D01*
X146524210Y-122779100D01*
X146576536Y-122800774D01*
X146598210Y-122853100D01*
X146598210Y-122936864D01*
X146608137Y-123004993D01*
X146608137Y-123004994D01*
X146659511Y-123110082D01*
X146659512Y-123110083D01*
X146742227Y-123192798D01*
X146847317Y-123244173D01*
X146915450Y-123254100D01*
X146915456Y-123254100D01*
X147681964Y-123254100D01*
X147681970Y-123254100D01*
X147750103Y-123244173D01*
X147855193Y-123192798D01*
X147937908Y-123110083D01*
X147989283Y-123004993D01*
X147999210Y-122936860D01*
X147999210Y-121670340D01*
X147989283Y-121602207D01*
X147937908Y-121497117D01*
X147855193Y-121414402D01*
X147855192Y-121414401D01*
X147750104Y-121363027D01*
X147681974Y-121353100D01*
X147681970Y-121353100D01*
X146915450Y-121353100D01*
X146915445Y-121353100D01*
X146847316Y-121363027D01*
X146847315Y-121363027D01*
X146742227Y-121414401D01*
X146659511Y-121497117D01*
X146608137Y-121602205D01*
X146608137Y-121602206D01*
X146598210Y-121670335D01*
X146598210Y-121754100D01*
X146576536Y-121806426D01*
X146524210Y-121828100D01*
X146478010Y-121828100D01*
X146425684Y-121806426D01*
X146404010Y-121754100D01*
X146404010Y-121670346D01*
X146404010Y-121670340D01*
X146394083Y-121602207D01*
X146342708Y-121497117D01*
X146259993Y-121414402D01*
X146259992Y-121414401D01*
X146154904Y-121363027D01*
X146086774Y-121353100D01*
X146086770Y-121353100D01*
X145320250Y-121353100D01*
X145320245Y-121353100D01*
X145252116Y-121363027D01*
X145252115Y-121363027D01*
X145147027Y-121414401D01*
X145064311Y-121497117D01*
X145012937Y-121602205D01*
X145012937Y-121602206D01*
X145003010Y-121670335D01*
X144399209Y-121670335D01*
X144389283Y-121602207D01*
X144337908Y-121497117D01*
X144255193Y-121414402D01*
X144255192Y-121414401D01*
X144150104Y-121363027D01*
X144081974Y-121353100D01*
X144081970Y-121353100D01*
X143315450Y-121353100D01*
X143315445Y-121353100D01*
X143247316Y-121363027D01*
X143247315Y-121363027D01*
X143142227Y-121414401D01*
X143059511Y-121497117D01*
X143008137Y-121602205D01*
X143008137Y-121602206D01*
X142998210Y-121670335D01*
X142998210Y-121779100D01*
X142976536Y-121831426D01*
X142924210Y-121853100D01*
X142847600Y-121853100D01*
X142816798Y-121844053D01*
X142815980Y-121845847D01*
X142811164Y-121843648D01*
X142811163Y-121843647D01*
X142811160Y-121843646D01*
X142673074Y-121803100D01*
X142673071Y-121803100D01*
X142529149Y-121803100D01*
X142529146Y-121803100D01*
X142391059Y-121843646D01*
X142391055Y-121843648D01*
X142265607Y-121924268D01*
X142209870Y-121934324D01*
X142163347Y-121902022D01*
X142151600Y-121862015D01*
X142151600Y-120603600D01*
X142695463Y-120603600D01*
X142715944Y-120746054D01*
X142715944Y-120746055D01*
X142715945Y-120746057D01*
X142751402Y-120823696D01*
X142775733Y-120876973D01*
X142869978Y-120985739D01*
X142869979Y-120985740D01*
X142869982Y-120985743D01*
X142949578Y-121036896D01*
X142987633Y-121061353D01*
X142991057Y-121063553D01*
X143078036Y-121089092D01*
X143129145Y-121104099D01*
X143129147Y-121104100D01*
X143129149Y-121104100D01*
X143273073Y-121104100D01*
X143273074Y-121104099D01*
X143411163Y-121063553D01*
X143411170Y-121063548D01*
X143415980Y-121061353D01*
X143416536Y-121062571D01*
X143449467Y-121052900D01*
X150214484Y-121052900D01*
X150266810Y-121074574D01*
X150280965Y-121094400D01*
X150311901Y-121157682D01*
X150311902Y-121157683D01*
X150394617Y-121240398D01*
X150499707Y-121291773D01*
X150567840Y-121301700D01*
X150567846Y-121301700D01*
X151834354Y-121301700D01*
X151834360Y-121301700D01*
X151902493Y-121291773D01*
X152007583Y-121240398D01*
X152090298Y-121157683D01*
X152141673Y-121052593D01*
X152151600Y-120984460D01*
X152151600Y-120217940D01*
X152141673Y-120149807D01*
X152090298Y-120044717D01*
X152007583Y-119962002D01*
X152007582Y-119962001D01*
X151902494Y-119910627D01*
X151834364Y-119900700D01*
X151834360Y-119900700D01*
X150567840Y-119900700D01*
X150567835Y-119900700D01*
X150499706Y-119910627D01*
X150499705Y-119910627D01*
X150394617Y-119962001D01*
X150311902Y-120044716D01*
X150279791Y-120110401D01*
X150237337Y-120147891D01*
X150213310Y-120151900D01*
X143445332Y-120151900D01*
X143414594Y-120145214D01*
X143411164Y-120143648D01*
X143411163Y-120143647D01*
X143411160Y-120143646D01*
X143273074Y-120103100D01*
X143273071Y-120103100D01*
X143129149Y-120103100D01*
X143129146Y-120103100D01*
X142991059Y-120143646D01*
X142991055Y-120143647D01*
X142869985Y-120221455D01*
X142869978Y-120221460D01*
X142775733Y-120330226D01*
X142715944Y-120461145D01*
X142695463Y-120603600D01*
X142151600Y-120603600D01*
X142151600Y-120005729D01*
X142151758Y-120000889D01*
X142155664Y-119941289D01*
X142166592Y-119774556D01*
X142167856Y-119764961D01*
X142211629Y-119544902D01*
X142214134Y-119535552D01*
X142219449Y-119519896D01*
X142286262Y-119323071D01*
X142289959Y-119314145D01*
X142389205Y-119112895D01*
X142394043Y-119104516D01*
X142518708Y-118917940D01*
X142524587Y-118910279D01*
X142674118Y-118739770D01*
X142677399Y-118736266D01*
X144078966Y-117334705D01*
X144131290Y-117313033D01*
X144183616Y-117334707D01*
X144196195Y-117351490D01*
X144215052Y-117385924D01*
X144248866Y-117435246D01*
X144252118Y-117440545D01*
X144283909Y-117486523D01*
X144287227Y-117491321D01*
X144287426Y-117491608D01*
X144289125Y-117494178D01*
X144317324Y-117538827D01*
X144319542Y-117542338D01*
X144319546Y-117542342D01*
X144325415Y-117548522D01*
X144332781Y-117557622D01*
X144340587Y-117569001D01*
X144344008Y-117573452D01*
X144395645Y-117648163D01*
X144395649Y-117648169D01*
X144618779Y-117912414D01*
X144618779Y-117912415D01*
X144866278Y-118153995D01*
X145135860Y-118370675D01*
X145135865Y-118370678D01*
X145425011Y-118560433D01*
X145425015Y-118560436D01*
X145731061Y-118721519D01*
X145731066Y-118721521D01*
X146051186Y-118852446D01*
X146051207Y-118852452D01*
X146051209Y-118852453D01*
X146382398Y-118951992D01*
X146382400Y-118951992D01*
X146382409Y-118951995D01*
X146721666Y-119019247D01*
X147065817Y-119053579D01*
X147156760Y-119053848D01*
X147163920Y-119054218D01*
X147166508Y-119054477D01*
X147166516Y-119054479D01*
X147166523Y-119054478D01*
X147166524Y-119054479D01*
X147178980Y-119054420D01*
X147238141Y-119054140D01*
X147239453Y-119054145D01*
X147305620Y-119055040D01*
X147305629Y-119055038D01*
X147309250Y-119054732D01*
X147309271Y-119054988D01*
X147316437Y-119054338D01*
X147317626Y-119054342D01*
X147317631Y-119054340D01*
X147318929Y-119054345D01*
X147323761Y-119054100D01*
X148733892Y-119054100D01*
X148776560Y-119054100D01*
X148776633Y-119054130D01*
X148776634Y-119054126D01*
X148807272Y-119054145D01*
X148807272Y-119054146D01*
X149016401Y-119054281D01*
X149016401Y-119054280D01*
X149016409Y-119054281D01*
X149433377Y-119021708D01*
X149433377Y-119021707D01*
X149433389Y-119021707D01*
X149846526Y-118956460D01*
X150253257Y-118858942D01*
X150651064Y-118729758D01*
X151037488Y-118569706D01*
X151410136Y-118379777D01*
X151766703Y-118161146D01*
X152104983Y-117915166D01*
X152422884Y-117643359D01*
X152568753Y-117497313D01*
X152568795Y-117497296D01*
X152568783Y-117497284D01*
X152837839Y-117228229D01*
X154444786Y-115621290D01*
X154445014Y-115621086D01*
X154488215Y-115577862D01*
X154488229Y-115577847D01*
X154488231Y-115577845D01*
X154502879Y-115563197D01*
X154504285Y-115561830D01*
X154976110Y-115115552D01*
X154979159Y-115112827D01*
X155474596Y-114694292D01*
X155477797Y-114691737D01*
X155995940Y-114301645D01*
X155999279Y-114299275D01*
X156538476Y-113938869D01*
X156541942Y-113936691D01*
X157100503Y-113607100D01*
X157104103Y-113605109D01*
X157680257Y-113307377D01*
X157683975Y-113305586D01*
X158275910Y-113040647D01*
X158279714Y-113039070D01*
X158885625Y-112807734D01*
X158889501Y-112806378D01*
X159507396Y-112609405D01*
X159511336Y-112608270D01*
X160139346Y-112446257D01*
X160143324Y-112445349D01*
X160779427Y-112318821D01*
X160783456Y-112318136D01*
X161425657Y-112227488D01*
X161429767Y-112227025D01*
X162075968Y-112172549D01*
X162080107Y-112172317D01*
X162729996Y-112154128D01*
X162732028Y-112154100D01*
X162809325Y-112154106D01*
X162809330Y-112154104D01*
X162813172Y-112154105D01*
X162813287Y-112154100D01*
X163921610Y-112154100D01*
X163973936Y-112175774D01*
X163995610Y-112228100D01*
X163995610Y-112877745D01*
X163995647Y-112883964D01*
X163995685Y-112887107D01*
X163995796Y-112893139D01*
X163997969Y-112981705D01*
X163999529Y-113004783D01*
X164000896Y-113025011D01*
X164000897Y-113025024D01*
X164000898Y-113025032D01*
X164003237Y-113046134D01*
X164009875Y-113089066D01*
X164045929Y-113270291D01*
X164046463Y-113271132D01*
X164051867Y-113292706D01*
X164056744Y-113312173D01*
X164063792Y-113335400D01*
X164063804Y-113335437D01*
X164080511Y-113382126D01*
X164080515Y-113382137D01*
X164148178Y-113545478D01*
X164148207Y-113545543D01*
X164169398Y-113590344D01*
X164169409Y-113590366D01*
X164180872Y-113611811D01*
X164206362Y-113654335D01*
X164305471Y-113802657D01*
X164331100Y-113837661D01*
X164344360Y-113854232D01*
X164372910Y-113886930D01*
X164405774Y-113921457D01*
X164432049Y-113949062D01*
X164443898Y-113961104D01*
X164449748Y-113966855D01*
X164449767Y-113966873D01*
X164461973Y-113978478D01*
X164471468Y-113987209D01*
X164489834Y-114004098D01*
X164492388Y-114006446D01*
X164562588Y-114060456D01*
X164599074Y-114083743D01*
X164677611Y-114124667D01*
X164677628Y-114124674D01*
X164677630Y-114124675D01*
X164761448Y-114159389D01*
X164761454Y-114159391D01*
X164761461Y-114159394D01*
X164845880Y-114185970D01*
X164888120Y-114195298D01*
X164953963Y-114203884D01*
X164975910Y-114206746D01*
X164978968Y-114206874D01*
X164990243Y-114207348D01*
X164990243Y-114207347D01*
X165009061Y-114208138D01*
X165018743Y-114208545D01*
X165018784Y-114208546D01*
X165020087Y-114208601D01*
X165021001Y-114208616D01*
X165027517Y-114208821D01*
X165029354Y-114208880D01*
X165031307Y-114208920D01*
X165034554Y-114208989D01*
X165045160Y-114209100D01*
X165045164Y-114209100D01*
X166616402Y-114209100D01*
X166616406Y-114209100D01*
X166623833Y-114209045D01*
X166627508Y-114208991D01*
X166635064Y-114208824D01*
X166635126Y-114208822D01*
X166635133Y-114208822D01*
X166708328Y-114206652D01*
X166708337Y-114206651D01*
X166708344Y-114206651D01*
X166766761Y-114201516D01*
X166795175Y-114197346D01*
X166852589Y-114185484D01*
X166959042Y-114156964D01*
X166995841Y-114147106D01*
X166995847Y-114147104D01*
X166995851Y-114147103D01*
X167058474Y-114125847D01*
X167088383Y-114113459D01*
X167147687Y-114084215D01*
X167276121Y-114010067D01*
X167325150Y-113977829D01*
X167348207Y-113960672D01*
X167393175Y-113922964D01*
X167445167Y-113873954D01*
X167455906Y-113863527D01*
X167461097Y-113858335D01*
X167471520Y-113847597D01*
X167520525Y-113795591D01*
X167558194Y-113750656D01*
X167575336Y-113727615D01*
X167596601Y-113695270D01*
X167643455Y-113663456D01*
X167699085Y-113674090D01*
X167719337Y-113693892D01*
X167721317Y-113696761D01*
X167721941Y-113697680D01*
X167756991Y-113750136D01*
X167759299Y-113752947D01*
X167759222Y-113753009D01*
X167764582Y-113759440D01*
X167772927Y-113771529D01*
X167819068Y-113812406D01*
X167819077Y-113812414D01*
X167822332Y-113815478D01*
X167854568Y-113847714D01*
X167868098Y-113856755D01*
X167876053Y-113862892D01*
X167900255Y-113884333D01*
X167939278Y-113904813D01*
X167946000Y-113908808D01*
X167969295Y-113924373D01*
X167969297Y-113924374D01*
X167969299Y-113924375D01*
X168000605Y-113937342D01*
X168006644Y-113940170D01*
X168050885Y-113963390D01*
X168076566Y-113969719D01*
X168076570Y-113969720D01*
X168087186Y-113973205D01*
X168096776Y-113977178D01*
X168096778Y-113977178D01*
X168096782Y-113977180D01*
X168147279Y-113987224D01*
X168150487Y-113987939D01*
X168216045Y-114004098D01*
X168216048Y-114004098D01*
X168216054Y-114004100D01*
X168216056Y-114004100D01*
X168386164Y-114004100D01*
X168386166Y-114004100D01*
X168386168Y-114004099D01*
X168386171Y-114004099D01*
X168413602Y-113997337D01*
X168451743Y-113987935D01*
X168454938Y-113987224D01*
X168505438Y-113977180D01*
X168515039Y-113973202D01*
X168525635Y-113969723D01*
X168551335Y-113963390D01*
X168595569Y-113940173D01*
X168601608Y-113937344D01*
X168632921Y-113924375D01*
X168656218Y-113908808D01*
X168662928Y-113904819D01*
X168701962Y-113884334D01*
X168726169Y-113862888D01*
X168734121Y-113856754D01*
X168747652Y-113847714D01*
X168779892Y-113815472D01*
X168783142Y-113812414D01*
X168829293Y-113771529D01*
X168837626Y-113759456D01*
X168842992Y-113753018D01*
X168842916Y-113752955D01*
X168845219Y-113750148D01*
X168845221Y-113750144D01*
X168845224Y-113750142D01*
X168880342Y-113697581D01*
X168880901Y-113696761D01*
X168925928Y-113631530D01*
X168951960Y-113562885D01*
X168952759Y-113560871D01*
X168974690Y-113507928D01*
X168975568Y-113503507D01*
X168978954Y-113491706D01*
X168986250Y-113472472D01*
X168992976Y-113417065D01*
X168993858Y-113411558D01*
X169001610Y-113372593D01*
X169001610Y-113350445D01*
X169002150Y-113341524D01*
X169006755Y-113303601D01*
X169006755Y-113303596D01*
X169002150Y-113265673D01*
X169001610Y-113256753D01*
X169001610Y-110858695D01*
X169002383Y-110848026D01*
X169004010Y-110836860D01*
X169004010Y-109570340D01*
X168994083Y-109502207D01*
X168942708Y-109397117D01*
X168859993Y-109314402D01*
X168859992Y-109314401D01*
X168754904Y-109263027D01*
X168686774Y-109253100D01*
X168686770Y-109253100D01*
X167920250Y-109253100D01*
X167920244Y-109253100D01*
X167920242Y-109253101D01*
X167891269Y-109257322D01*
X167836365Y-109243418D01*
X167807374Y-109194763D01*
X167806601Y-109184107D01*
X167806600Y-107428099D01*
X167828274Y-107375774D01*
X167880600Y-107354100D01*
X168750968Y-107354100D01*
X168750974Y-107354100D01*
X168781749Y-107351214D01*
X168911355Y-107305863D01*
X169021835Y-107224325D01*
X169103373Y-107113845D01*
X169148724Y-106984239D01*
X169151610Y-106953464D01*
X169151610Y-105653736D01*
X169148724Y-105622961D01*
X169140541Y-105599576D01*
X169103373Y-105493356D01*
X169103373Y-105493355D01*
X169021835Y-105382875D01*
X168911355Y-105301337D01*
X168911353Y-105301336D01*
X168781755Y-105255987D01*
X168781750Y-105255986D01*
X168776619Y-105255505D01*
X168750974Y-105253100D01*
X164651246Y-105253100D01*
X164629263Y-105255161D01*
X164620469Y-105255986D01*
X164620464Y-105255987D01*
X164490866Y-105301336D01*
X164380385Y-105382874D01*
X164380384Y-105382875D01*
X164298846Y-105493356D01*
X164275633Y-105559695D01*
X164245800Y-105597502D01*
X164242573Y-105599576D01*
X164242563Y-105599583D01*
X164189769Y-105645329D01*
X164189763Y-105645335D01*
X164095542Y-105754070D01*
X164035770Y-105884951D01*
X164035765Y-105884964D01*
X164016092Y-105951964D01*
X164016085Y-105951994D01*
X163995610Y-106094401D01*
X163995610Y-110579100D01*
X163973936Y-110631426D01*
X163921610Y-110653100D01*
X162653367Y-110653100D01*
X162653148Y-110653109D01*
X162386572Y-110653092D01*
X162386571Y-110653092D01*
X162386562Y-110653092D01*
X161761954Y-110685789D01*
X161699493Y-110689059D01*
X161015247Y-110760949D01*
X160335738Y-110868561D01*
X160335722Y-110868564D01*
X160335717Y-110868565D01*
X160335711Y-110868566D01*
X159662738Y-111011615D01*
X159662729Y-111011617D01*
X159662726Y-111011618D01*
X158998173Y-111189703D01*
X158343866Y-111402335D01*
X157701587Y-111648934D01*
X157701564Y-111648943D01*
X157073048Y-111928845D01*
X156460071Y-112241260D01*
X155864281Y-112585347D01*
X155287344Y-112960142D01*
X154730780Y-113364659D01*
X154730777Y-113364662D01*
X154196202Y-113797730D01*
X153685006Y-114258218D01*
X153441817Y-114501519D01*
X153441816Y-114501520D01*
X153428040Y-114515302D01*
X153428029Y-114515313D01*
X151567408Y-116375923D01*
X151566589Y-116376662D01*
X151509728Y-116433600D01*
X151507393Y-116435838D01*
X151265465Y-116657790D01*
X151260513Y-116661949D01*
X151151264Y-116745856D01*
X151096564Y-116760539D01*
X151047502Y-116732242D01*
X151032819Y-116677542D01*
X151039709Y-116654667D01*
X151040073Y-116653921D01*
X151040075Y-116653920D01*
X151093649Y-116544332D01*
X151104000Y-116473288D01*
X151104000Y-115133912D01*
X151104000Y-113774670D01*
X151104001Y-113774666D01*
X151104000Y-113726438D01*
X151104003Y-113726430D01*
X151104003Y-113695785D01*
X151104004Y-113695785D01*
X151104003Y-113566896D01*
X151104003Y-113564902D01*
X151104000Y-113564793D01*
X151104000Y-113033918D01*
X151104000Y-113033912D01*
X151093649Y-112962868D01*
X151040075Y-112853280D01*
X150953820Y-112767025D01*
X150953819Y-112767024D01*
X150918238Y-112749629D01*
X150884068Y-112715257D01*
X150820791Y-112583861D01*
X150734334Y-112446266D01*
X150683645Y-112365595D01*
X150522922Y-112164055D01*
X150491059Y-112132192D01*
X150491039Y-112132169D01*
X150434355Y-112075485D01*
X150429478Y-112070104D01*
X150359916Y-111985342D01*
X150351857Y-111973281D01*
X150328801Y-111930147D01*
X150328583Y-111929740D01*
X150323032Y-111873376D01*
X150325472Y-111866555D01*
X150367014Y-111766266D01*
X150401620Y-111592291D01*
X150401620Y-111014909D01*
X150367014Y-110840934D01*
X150365324Y-110836853D01*
X150299134Y-110677055D01*
X150283134Y-110653110D01*
X150200584Y-110529565D01*
X150075155Y-110404136D01*
X149927667Y-110305587D01*
X149927666Y-110305586D01*
X149927664Y-110305585D01*
X149763790Y-110237707D01*
X149763780Y-110237704D01*
X149647276Y-110214530D01*
X149589811Y-110203100D01*
X149412429Y-110203100D01*
X149363109Y-110212910D01*
X149238459Y-110237704D01*
X149238449Y-110237707D01*
X149074575Y-110305585D01*
X148927088Y-110404133D01*
X148801653Y-110529568D01*
X148703105Y-110677055D01*
X148635227Y-110840929D01*
X148635224Y-110840939D01*
X148606335Y-110986176D01*
X148600620Y-111014909D01*
X148600620Y-111592291D01*
X148605025Y-111614436D01*
X148635224Y-111766260D01*
X148635227Y-111766270D01*
X148703104Y-111930142D01*
X148703106Y-111930145D01*
X148703107Y-111930147D01*
X148786344Y-112054719D01*
X148796957Y-112079361D01*
X148830124Y-112224686D01*
X148893025Y-112404457D01*
X148908623Y-112449034D01*
X149011742Y-112663171D01*
X149011746Y-112663179D01*
X149102580Y-112807742D01*
X149138195Y-112864423D01*
X149286385Y-113050250D01*
X149286388Y-113050253D01*
X149312342Y-113076207D01*
X149312376Y-113076244D01*
X149367846Y-113131715D01*
X149372722Y-113137095D01*
X149464549Y-113248985D01*
X149472609Y-113261047D01*
X149539119Y-113385479D01*
X149544670Y-113398880D01*
X149585628Y-113533895D01*
X149588458Y-113548122D01*
X149601312Y-113678621D01*
X149602644Y-113692139D01*
X149603000Y-113699393D01*
X149603000Y-116473292D01*
X149613351Y-116544332D01*
X149613351Y-116544333D01*
X149666924Y-116653919D01*
X149666925Y-116653920D01*
X149753180Y-116740175D01*
X149862768Y-116793749D01*
X149933812Y-116804100D01*
X149933818Y-116804100D01*
X150773182Y-116804100D01*
X150773188Y-116804100D01*
X150844123Y-116793764D01*
X150899024Y-116807667D01*
X150928017Y-116856321D01*
X150914114Y-116911225D01*
X150894568Y-116929390D01*
X150720641Y-117040265D01*
X150715041Y-117043500D01*
X150425292Y-117194382D01*
X150419431Y-117197116D01*
X150117595Y-117322133D01*
X150111517Y-117324344D01*
X149799927Y-117422526D01*
X149793681Y-117424198D01*
X149474715Y-117494801D01*
X149468345Y-117495922D01*
X149144421Y-117538406D01*
X149137978Y-117538966D01*
X148811039Y-117553030D01*
X148807806Y-117553098D01*
X148726229Y-117553039D01*
X148725065Y-117553100D01*
X147330075Y-117553100D01*
X147329501Y-117553070D01*
X147325947Y-117553071D01*
X147325946Y-117553071D01*
X147247066Y-117553100D01*
X147246689Y-117553100D01*
X147245694Y-117553093D01*
X147244603Y-117553078D01*
X147244582Y-117553078D01*
X147240941Y-117552937D01*
X146997226Y-117537482D01*
X146988394Y-117536385D01*
X146750180Y-117492135D01*
X146741544Y-117489987D01*
X146510350Y-117417457D01*
X146502035Y-117414287D01*
X146281223Y-117314530D01*
X146273358Y-117310390D01*
X146066116Y-117184847D01*
X146058796Y-117179787D01*
X145868125Y-117030274D01*
X145861465Y-117024372D01*
X145766469Y-116929390D01*
X145690117Y-116853049D01*
X145684217Y-116846393D01*
X145651044Y-116804100D01*
X145538096Y-116660099D01*
X145533764Y-116653957D01*
X145526658Y-116642707D01*
X145525238Y-116640363D01*
X145435402Y-116485643D01*
X145430561Y-116475643D01*
X145429629Y-116473281D01*
X145361089Y-116299541D01*
X145357801Y-116288932D01*
X145341909Y-116219640D01*
X145315479Y-116104405D01*
X145313818Y-116093433D01*
X145299409Y-115902042D01*
X145299200Y-115896487D01*
X145299200Y-115881168D01*
X145299207Y-115881007D01*
X145299206Y-115877445D01*
X145299208Y-115877439D01*
X145299200Y-115803521D01*
X145299200Y-115133912D01*
X145299200Y-113629682D01*
X145299200Y-113386999D01*
X145299201Y-113386995D01*
X145299200Y-113310541D01*
X145299358Y-113305702D01*
X145299496Y-113303596D01*
X145314191Y-113079370D01*
X145315455Y-113069775D01*
X145321417Y-113039801D01*
X145359227Y-112849704D01*
X145361727Y-112840374D01*
X145433856Y-112627885D01*
X145437553Y-112618958D01*
X145523156Y-112445370D01*
X145565738Y-112408027D01*
X145586208Y-112404647D01*
X145586190Y-112404457D01*
X145589098Y-112404170D01*
X145589525Y-112404100D01*
X145589809Y-112404100D01*
X145589811Y-112404100D01*
X145763786Y-112369494D01*
X145927667Y-112301613D01*
X146075155Y-112203064D01*
X146200584Y-112077635D01*
X146299133Y-111930147D01*
X146367014Y-111766266D01*
X146401620Y-111592291D01*
X146401620Y-111014909D01*
X146367014Y-110840934D01*
X146365324Y-110836853D01*
X146299134Y-110677055D01*
X146283134Y-110653110D01*
X146200584Y-110529565D01*
X146075155Y-110404136D01*
X145927667Y-110305587D01*
X145927666Y-110305586D01*
X145927664Y-110305585D01*
X145763790Y-110237707D01*
X145763780Y-110237704D01*
X145647276Y-110214530D01*
X145589811Y-110203100D01*
X145412429Y-110203100D01*
X145363109Y-110212910D01*
X145238459Y-110237704D01*
X145238449Y-110237707D01*
X145074575Y-110305585D01*
X144927088Y-110404133D01*
X144801653Y-110529568D01*
X144703105Y-110677055D01*
X144635227Y-110840929D01*
X144635224Y-110840939D01*
X144600620Y-111014910D01*
X144600620Y-111126510D01*
X144583823Y-111173454D01*
X144442557Y-111345590D01*
X144442545Y-111345606D01*
X144262930Y-111614423D01*
X144262922Y-111614436D01*
X144110537Y-111899532D01*
X144110522Y-111899562D01*
X143986811Y-112198234D01*
X143986806Y-112198248D01*
X143892954Y-112507641D01*
X143829886Y-112824719D01*
X143829886Y-112824720D01*
X143819537Y-112929798D01*
X143812378Y-112955037D01*
X143808553Y-112962863D01*
X143808551Y-112962868D01*
X143798200Y-113033907D01*
X143798200Y-113144774D01*
X143798199Y-113144797D01*
X143798200Y-113234202D01*
X143798200Y-115462088D01*
X143776526Y-115514414D01*
X141672317Y-117618614D01*
X141672291Y-117618638D01*
X141614365Y-117676565D01*
X141500064Y-117790866D01*
X141294953Y-118040793D01*
X141115341Y-118309604D01*
X141115333Y-118309617D01*
X140962935Y-118594735D01*
X140962931Y-118594743D01*
X140839218Y-118893413D01*
X140839213Y-118893427D01*
X140745361Y-119202814D01*
X140682290Y-119519896D01*
X140650600Y-119841647D01*
X127555850Y-119841647D01*
X127516920Y-119388828D01*
X127516676Y-119384502D01*
X127501639Y-118829659D01*
X127501638Y-118829659D01*
X127501631Y-118829395D01*
X127501604Y-118827224D01*
X127501697Y-118785566D01*
X127501746Y-118763767D01*
X127501745Y-118763764D01*
X127501753Y-118760262D01*
X127501600Y-118757870D01*
X127501600Y-104777629D01*
X146025600Y-104777629D01*
X146025600Y-105229570D01*
X146064985Y-105679757D01*
X146064987Y-105679775D01*
X146064988Y-105679782D01*
X146112985Y-105951986D01*
X146143466Y-106124849D01*
X146260434Y-106561384D01*
X146415001Y-106986052D01*
X146415001Y-106986054D01*
X146415005Y-106986063D01*
X146415006Y-106986065D01*
X146606002Y-107395657D01*
X146606004Y-107395660D01*
X146606006Y-107395665D01*
X146831963Y-107787035D01*
X146831966Y-107787039D01*
X146831969Y-107787044D01*
X147091188Y-108157247D01*
X147381686Y-108503448D01*
X147701252Y-108823014D01*
X148047453Y-109113512D01*
X148417656Y-109372731D01*
X148417661Y-109372734D01*
X148417664Y-109372736D01*
X148809034Y-109598693D01*
X148809043Y-109598698D01*
X149218635Y-109789694D01*
X149643314Y-109944265D01*
X150079850Y-110061234D01*
X150524918Y-110139712D01*
X150567416Y-110143430D01*
X150975129Y-110179100D01*
X151019929Y-110179100D01*
X151072255Y-110200774D01*
X151093929Y-110253100D01*
X151072255Y-110305426D01*
X151061041Y-110314629D01*
X150927088Y-110404133D01*
X150801653Y-110529568D01*
X150703105Y-110677055D01*
X150635227Y-110840929D01*
X150635224Y-110840939D01*
X150606335Y-110986176D01*
X150600620Y-111014909D01*
X150600620Y-111592291D01*
X150605025Y-111614436D01*
X150635224Y-111766260D01*
X150635227Y-111766270D01*
X150703105Y-111930144D01*
X150796324Y-112069656D01*
X150801656Y-112077635D01*
X150927085Y-112203064D01*
X151074573Y-112301613D01*
X151074574Y-112301613D01*
X151074575Y-112301614D01*
X151190973Y-112349827D01*
X151238454Y-112369494D01*
X151412429Y-112404100D01*
X151412431Y-112404100D01*
X151589809Y-112404100D01*
X151589811Y-112404100D01*
X151763786Y-112369494D01*
X151927667Y-112301613D01*
X152075155Y-112203064D01*
X152200584Y-112077635D01*
X152299133Y-111930147D01*
X152367014Y-111766266D01*
X152401620Y-111592291D01*
X152401620Y-111014909D01*
X152367014Y-110840934D01*
X152365324Y-110836853D01*
X152299134Y-110677055D01*
X152283134Y-110653110D01*
X152200584Y-110529565D01*
X152075155Y-110404136D01*
X152075151Y-110404133D01*
X151927666Y-110305586D01*
X151866291Y-110280164D01*
X151826243Y-110240115D01*
X151826243Y-110183478D01*
X151866292Y-110143430D01*
X151881747Y-110138924D01*
X152322350Y-110061234D01*
X152758886Y-109944265D01*
X153183565Y-109789694D01*
X153593157Y-109598698D01*
X153984544Y-109372731D01*
X154354747Y-109113512D01*
X154700948Y-108823014D01*
X155020514Y-108503448D01*
X155311012Y-108157247D01*
X155570231Y-107787044D01*
X155796198Y-107395657D01*
X155987194Y-106986065D01*
X156141765Y-106561386D01*
X156258734Y-106124850D01*
X156337212Y-105679782D01*
X156376600Y-105229567D01*
X156376600Y-104777633D01*
X156364655Y-104641104D01*
X156337214Y-104327442D01*
X156337212Y-104327418D01*
X156258734Y-103882350D01*
X156141765Y-103445814D01*
X155987194Y-103021135D01*
X155796198Y-102611543D01*
X155796193Y-102611534D01*
X155570236Y-102220164D01*
X155570234Y-102220161D01*
X155570231Y-102220156D01*
X155311012Y-101849953D01*
X155020514Y-101503752D01*
X154700948Y-101184186D01*
X154354747Y-100893688D01*
X153984544Y-100634469D01*
X153984539Y-100634466D01*
X153984535Y-100634463D01*
X153593165Y-100408506D01*
X153593160Y-100408504D01*
X153593157Y-100408502D01*
X153183565Y-100217506D01*
X153183559Y-100217503D01*
X153183553Y-100217501D01*
X152758884Y-100062934D01*
X152482131Y-99988779D01*
X152322350Y-99945966D01*
X151877282Y-99867488D01*
X151877275Y-99867487D01*
X151877257Y-99867485D01*
X151427071Y-99828100D01*
X151427067Y-99828100D01*
X150982311Y-99828100D01*
X150929985Y-99806426D01*
X150908311Y-99754100D01*
X150929985Y-99701774D01*
X150941199Y-99692571D01*
X151075155Y-99603064D01*
X151200584Y-99477635D01*
X151299133Y-99330147D01*
X151367014Y-99166266D01*
X151401620Y-98992291D01*
X151401620Y-98801519D01*
X162695600Y-98801519D01*
X162695668Y-98809897D01*
X162695732Y-98813813D01*
X162695935Y-98822104D01*
X162697468Y-98869106D01*
X162697469Y-98869126D01*
X162702663Y-98926757D01*
X162702664Y-98926768D01*
X162706821Y-98954805D01*
X162706826Y-98954832D01*
X162718571Y-99011470D01*
X162718578Y-99011496D01*
X162743419Y-99104222D01*
X162743427Y-99104247D01*
X162764682Y-99166864D01*
X162777068Y-99196767D01*
X162806305Y-99256055D01*
X162849077Y-99330144D01*
X162854289Y-99339173D01*
X162886088Y-99387615D01*
X162902997Y-99410409D01*
X162903004Y-99410418D01*
X162903006Y-99410420D01*
X162940140Y-99454903D01*
X162961443Y-99477635D01*
X162972071Y-99488976D01*
X162977752Y-99494940D01*
X162980551Y-99497831D01*
X162980570Y-99497850D01*
X162986369Y-99503744D01*
X163540422Y-100057808D01*
X163541235Y-100058633D01*
X163608203Y-100127731D01*
X163613772Y-100134183D01*
X163733597Y-100290342D01*
X163738975Y-100298390D01*
X163835126Y-100464929D01*
X163839406Y-100473609D01*
X163852406Y-100504994D01*
X163912991Y-100651263D01*
X163916103Y-100660429D01*
X163965872Y-100846176D01*
X163967760Y-100855670D01*
X163993452Y-101050844D01*
X163994076Y-101059337D01*
X163994871Y-101109857D01*
X163994871Y-101109860D01*
X163995452Y-101118724D01*
X163995610Y-101123557D01*
X163995610Y-104379600D01*
X164007162Y-104487054D01*
X164018370Y-104538572D01*
X164018373Y-104538580D01*
X164052494Y-104641098D01*
X164052496Y-104641101D01*
X164052497Y-104641104D01*
X164090038Y-104699519D01*
X164130282Y-104762140D01*
X164176034Y-104814941D01*
X164176039Y-104814946D01*
X164176040Y-104814947D01*
X164284774Y-104909167D01*
X164415651Y-104968938D01*
X164415656Y-104968939D01*
X164415668Y-104968944D01*
X164482668Y-104988617D01*
X164482675Y-104988618D01*
X164482690Y-104988623D01*
X164482694Y-104988624D01*
X164625110Y-105009100D01*
X164625116Y-105009100D01*
X166839581Y-105009100D01*
X166839589Y-105009100D01*
X166939116Y-104999205D01*
X166986990Y-104989591D01*
X167082626Y-104960292D01*
X167206094Y-104886420D01*
X167260336Y-104842379D01*
X167260341Y-104842375D01*
X167319950Y-104777875D01*
X167371382Y-104754157D01*
X167374296Y-104754100D01*
X168750968Y-104754100D01*
X168750974Y-104754100D01*
X168781749Y-104751214D01*
X168911355Y-104705863D01*
X169021835Y-104624325D01*
X169103373Y-104513845D01*
X169148724Y-104384239D01*
X169151610Y-104353464D01*
X169151610Y-103053736D01*
X169148724Y-103022961D01*
X169148089Y-103021147D01*
X169103373Y-102893356D01*
X169103373Y-102893355D01*
X169021835Y-102782875D01*
X168911355Y-102701337D01*
X168911353Y-102701336D01*
X168781755Y-102655987D01*
X168781750Y-102655986D01*
X168776619Y-102655505D01*
X168750974Y-102653100D01*
X168750969Y-102653100D01*
X167691254Y-102653100D01*
X167638928Y-102631426D01*
X167617254Y-102579100D01*
X167623941Y-102548359D01*
X167666448Y-102455285D01*
X167666450Y-102455274D01*
X167666454Y-102455267D01*
X167686127Y-102388267D01*
X167686127Y-102388264D01*
X167686133Y-102388246D01*
X167686134Y-102388242D01*
X167706610Y-102245826D01*
X167706610Y-100791589D01*
X167728284Y-100739263D01*
X167780610Y-100717589D01*
X167813106Y-100725106D01*
X167852107Y-100744173D01*
X167920240Y-100754100D01*
X167920246Y-100754100D01*
X168686754Y-100754100D01*
X168686760Y-100754100D01*
X168754893Y-100744173D01*
X168859983Y-100692798D01*
X168942698Y-100610083D01*
X168994073Y-100504993D01*
X169004000Y-100436860D01*
X169004000Y-99170340D01*
X169004000Y-96830762D01*
X169004540Y-96821841D01*
X169006755Y-96803601D01*
X169006681Y-96802993D01*
X169004600Y-96785857D01*
X169004061Y-96776800D01*
X169004142Y-96738469D01*
X169004140Y-96738463D01*
X169004141Y-96738443D01*
X169004045Y-96737466D01*
X169004027Y-96737282D01*
X169004001Y-96737013D01*
X169003231Y-96733144D01*
X168990862Y-96670961D01*
X168989980Y-96665444D01*
X168986251Y-96634732D01*
X168986250Y-96634728D01*
X168983229Y-96626763D01*
X168979813Y-96614813D01*
X168977505Y-96603078D01*
X168977503Y-96603073D01*
X168977323Y-96602477D01*
X168977297Y-96602391D01*
X168977080Y-96601672D01*
X168950965Y-96538626D01*
X168950907Y-96538484D01*
X168937899Y-96506895D01*
X168936649Y-96503860D01*
X168935901Y-96501970D01*
X168928651Y-96482853D01*
X168925929Y-96475672D01*
X168925926Y-96475667D01*
X168905515Y-96446097D01*
X168904886Y-96445171D01*
X168886423Y-96417539D01*
X168886338Y-96417411D01*
X168848541Y-96360588D01*
X168848352Y-96360358D01*
X168848263Y-96360249D01*
X168847632Y-96359477D01*
X168847616Y-96359461D01*
X168847614Y-96359458D01*
X168846221Y-96358065D01*
X168837655Y-96347786D01*
X168829293Y-96335671D01*
X168811553Y-96319955D01*
X168783753Y-96295326D01*
X168780390Y-96292153D01*
X168748793Y-96260425D01*
X168748781Y-96260414D01*
X168734604Y-96250899D01*
X168726774Y-96244847D01*
X168716573Y-96235810D01*
X168701962Y-96222866D01*
X168663654Y-96202760D01*
X168656807Y-96198681D01*
X168634220Y-96183521D01*
X168634219Y-96183520D01*
X168634217Y-96183519D01*
X168602185Y-96170172D01*
X168596275Y-96167396D01*
X168551336Y-96143810D01*
X168526428Y-96137670D01*
X168515684Y-96134131D01*
X168512025Y-96132606D01*
X168506844Y-96130448D01*
X168506842Y-96130447D01*
X168506841Y-96130447D01*
X168506837Y-96130446D01*
X168455616Y-96120145D01*
X168452498Y-96119448D01*
X168386170Y-96103100D01*
X168386166Y-96103100D01*
X168301614Y-96103100D01*
X168233579Y-96102958D01*
X168233578Y-96102958D01*
X168231581Y-96102954D01*
X168228552Y-96103100D01*
X168216054Y-96103100D01*
X168151284Y-96119063D01*
X168147863Y-96119821D01*
X168098183Y-96129596D01*
X168087822Y-96133862D01*
X168077363Y-96137283D01*
X168050884Y-96143810D01*
X168007383Y-96166641D01*
X168001171Y-96169543D01*
X167970596Y-96182133D01*
X167970595Y-96182134D01*
X167946594Y-96198097D01*
X167940007Y-96202002D01*
X167900258Y-96222866D01*
X167876657Y-96243772D01*
X167868581Y-96249988D01*
X167855703Y-96258555D01*
X167822810Y-96291310D01*
X167819667Y-96294262D01*
X167772928Y-96335669D01*
X167769675Y-96340380D01*
X167765046Y-96347086D01*
X167760107Y-96353001D01*
X167760244Y-96353114D01*
X167757930Y-96355922D01*
X167722280Y-96409032D01*
X167721740Y-96409825D01*
X167676293Y-96475666D01*
X167676292Y-96475669D01*
X167650560Y-96543518D01*
X167649677Y-96545737D01*
X167627960Y-96597858D01*
X167627956Y-96597873D01*
X167626906Y-96603093D01*
X167623552Y-96614734D01*
X167615969Y-96634728D01*
X167609341Y-96689314D01*
X167608429Y-96694978D01*
X167600756Y-96733139D01*
X167600756Y-96733145D01*
X167600707Y-96756098D01*
X167600168Y-96764856D01*
X167595465Y-96803601D01*
X167595465Y-96803604D01*
X167599972Y-96840722D01*
X167600512Y-96849793D01*
X167600468Y-96871132D01*
X167601608Y-96876924D01*
X167603000Y-96891211D01*
X167603000Y-96973438D01*
X167581326Y-97025764D01*
X167529000Y-97047438D01*
X167476674Y-97025764D01*
X167463065Y-97007033D01*
X167406738Y-96896484D01*
X167387348Y-96861863D01*
X167387341Y-96861850D01*
X167377174Y-96845260D01*
X167355130Y-96812269D01*
X167355124Y-96812260D01*
X167208216Y-96610059D01*
X167186691Y-96582493D01*
X167175670Y-96569342D01*
X167175664Y-96569335D01*
X167152245Y-96543280D01*
X167130506Y-96520719D01*
X167066646Y-96454444D01*
X167059859Y-96447534D01*
X167059853Y-96447528D01*
X167059798Y-96447472D01*
X167056629Y-96444307D01*
X167049633Y-96437451D01*
X166998972Y-96388740D01*
X166998970Y-96388739D01*
X166998965Y-96388734D01*
X166980240Y-96370730D01*
X166954394Y-96347534D01*
X166941336Y-96336601D01*
X166913951Y-96315229D01*
X166897273Y-96303112D01*
X166815678Y-96243829D01*
X166815677Y-96243827D01*
X166755112Y-96199824D01*
X166755105Y-96199819D01*
X166722083Y-96177755D01*
X166709721Y-96170180D01*
X166705498Y-96167592D01*
X166670898Y-96148217D01*
X166497033Y-96059626D01*
X166460992Y-96043010D01*
X166443050Y-96035578D01*
X166405793Y-96021832D01*
X166220216Y-95961532D01*
X166181977Y-95950748D01*
X166163054Y-95946206D01*
X166124191Y-95938477D01*
X165930244Y-95907756D01*
X165895709Y-95903497D01*
X165878786Y-95902000D01*
X165878776Y-95901999D01*
X165878771Y-95901999D01*
X165868623Y-95901451D01*
X165844084Y-95900127D01*
X165748920Y-95898266D01*
X165748905Y-95898266D01*
X165748814Y-95898264D01*
X165748080Y-95898249D01*
X165746396Y-95898216D01*
X165741838Y-95898150D01*
X165739888Y-95898131D01*
X165739278Y-95898125D01*
X165739255Y-95898124D01*
X165739164Y-95898124D01*
X165734285Y-95898100D01*
X165734273Y-95898100D01*
X165417488Y-95898100D01*
X165337896Y-95904405D01*
X165337889Y-95904406D01*
X165337879Y-95904407D01*
X165299351Y-95910550D01*
X165299343Y-95910551D01*
X165299336Y-95910553D01*
X165221736Y-95929310D01*
X165221734Y-95929310D01*
X165221733Y-95929311D01*
X165092752Y-95993054D01*
X165092746Y-95993058D01*
X165039375Y-96029713D01*
X165039224Y-96029802D01*
X165035155Y-96032611D01*
X164929352Y-96130116D01*
X164929350Y-96130119D01*
X164855303Y-96253481D01*
X164855301Y-96253484D01*
X164828238Y-96317890D01*
X164828234Y-96317902D01*
X164791947Y-96457111D01*
X164791946Y-96457112D01*
X164791466Y-96461378D01*
X164787779Y-96477525D01*
X164771329Y-96524537D01*
X164764139Y-96539468D01*
X164737644Y-96581634D01*
X164727313Y-96594589D01*
X164692099Y-96629803D01*
X164679143Y-96640135D01*
X164636975Y-96666631D01*
X164622046Y-96673820D01*
X164575041Y-96690268D01*
X164558885Y-96693956D01*
X164509394Y-96699532D01*
X164492824Y-96699532D01*
X164443333Y-96693956D01*
X164427177Y-96690268D01*
X164380174Y-96673821D01*
X164365247Y-96666633D01*
X164358133Y-96662163D01*
X164350468Y-96657347D01*
X164350467Y-96657346D01*
X164323072Y-96640132D01*
X164310117Y-96629801D01*
X164273069Y-96592753D01*
X164264673Y-96582722D01*
X164264621Y-96582647D01*
X164255536Y-96569603D01*
X164155701Y-96465996D01*
X164137089Y-96451517D01*
X164100550Y-96423092D01*
X164099904Y-96422685D01*
X164098796Y-96422093D01*
X164069964Y-96405649D01*
X163975569Y-96351811D01*
X163942384Y-96343945D01*
X163835567Y-96318626D01*
X163765982Y-96312352D01*
X163765981Y-96312352D01*
X163765980Y-96312352D01*
X163694140Y-96316153D01*
X163622299Y-96319955D01*
X163622297Y-96319955D01*
X163486590Y-96367727D01*
X163486576Y-96367733D01*
X163424656Y-96400069D01*
X163307887Y-96484150D01*
X163307882Y-96484155D01*
X163252052Y-96537953D01*
X163245278Y-96544605D01*
X163241884Y-96548001D01*
X163235154Y-96554865D01*
X163168228Y-96624468D01*
X163145034Y-96650312D01*
X163134113Y-96663354D01*
X163112760Y-96690716D01*
X162997318Y-96849606D01*
X162975278Y-96882591D01*
X162965107Y-96899188D01*
X162945723Y-96933801D01*
X162857133Y-97107666D01*
X162840510Y-97143720D01*
X162833082Y-97161654D01*
X162819342Y-97198896D01*
X162759038Y-97384487D01*
X162748260Y-97422702D01*
X162743728Y-97441578D01*
X162735981Y-97480521D01*
X162705265Y-97674445D01*
X162701011Y-97708942D01*
X162699504Y-97725955D01*
X162697634Y-97760616D01*
X162695730Y-97858121D01*
X162695661Y-97862779D01*
X162695659Y-97862928D01*
X162695659Y-97862966D01*
X162695635Y-97865387D01*
X162695634Y-97865520D01*
X162695634Y-97865555D01*
X162695609Y-97870381D01*
X162695600Y-98801519D01*
X151401620Y-98801519D01*
X151401620Y-98414909D01*
X151392795Y-98370546D01*
X151403844Y-98314999D01*
X151408164Y-98309172D01*
X151505665Y-98190370D01*
X151664814Y-97952190D01*
X151799851Y-97699558D01*
X151909475Y-97434906D01*
X151981070Y-97198896D01*
X151992631Y-97160787D01*
X151992633Y-97160778D01*
X152003198Y-97107666D01*
X152048519Y-96879830D01*
X152076599Y-96594752D01*
X152076600Y-96451523D01*
X152076600Y-96397534D01*
X152076600Y-94866582D01*
X152084666Y-94832986D01*
X152086746Y-94828904D01*
X152101600Y-94735119D01*
X152101599Y-93572082D01*
X152101599Y-93572080D01*
X152900610Y-93572080D01*
X152900610Y-94735119D01*
X152915463Y-94828904D01*
X152915464Y-94828906D01*
X152966007Y-94928100D01*
X152973060Y-94941942D01*
X153062768Y-95031650D01*
X153175806Y-95089246D01*
X153269591Y-95104100D01*
X153332628Y-95104099D01*
X153332629Y-95104099D01*
X153426414Y-95089246D01*
X153426416Y-95089245D01*
X153441683Y-95081466D01*
X153539452Y-95031650D01*
X153629160Y-94941942D01*
X153686756Y-94828904D01*
X153701610Y-94735119D01*
X153701609Y-94453099D01*
X153723283Y-94400774D01*
X153775609Y-94379100D01*
X154524200Y-94379100D01*
X154576526Y-94400774D01*
X154598200Y-94453100D01*
X154598200Y-94636864D01*
X154608127Y-94704993D01*
X154608127Y-94704994D01*
X154659501Y-94810082D01*
X154659502Y-94810083D01*
X154742217Y-94892798D01*
X154847307Y-94944173D01*
X154915440Y-94954100D01*
X154915446Y-94954100D01*
X155684638Y-94954100D01*
X155684638Y-94954993D01*
X155735704Y-94971917D01*
X155739642Y-94975579D01*
X156017102Y-95253039D01*
X156017108Y-95253044D01*
X156051549Y-95287485D01*
X156113021Y-95334654D01*
X156201250Y-95402355D01*
X156216742Y-95414242D01*
X156397066Y-95518352D01*
X156589437Y-95598033D01*
X156790563Y-95651924D01*
X156997003Y-95679101D01*
X157101113Y-95679100D01*
X158105011Y-95679100D01*
X158159000Y-95679100D01*
X158208435Y-95679100D01*
X158212965Y-95679100D01*
X158212981Y-95679099D01*
X158302228Y-95679099D01*
X158302229Y-95679099D01*
X158587308Y-95651021D01*
X158868263Y-95595136D01*
X159142387Y-95511981D01*
X159407040Y-95402358D01*
X159659674Y-95267323D01*
X159897855Y-95108175D01*
X159897864Y-95108167D01*
X159898542Y-95107665D01*
X159898691Y-95107615D01*
X159899366Y-95107165D01*
X159899490Y-95107351D01*
X159942627Y-95093100D01*
X161419846Y-95093100D01*
X161419848Y-95093100D01*
X161478331Y-95081467D01*
X161544652Y-95037152D01*
X161588967Y-94970831D01*
X161600600Y-94912348D01*
X161600600Y-93094852D01*
X161588967Y-93036369D01*
X161544652Y-92970048D01*
X161522443Y-92955208D01*
X161478332Y-92925733D01*
X161478333Y-92925733D01*
X161449089Y-92919916D01*
X161419848Y-92914100D01*
X159602352Y-92914100D01*
X159573110Y-92919916D01*
X159543867Y-92925733D01*
X159477549Y-92970047D01*
X159477547Y-92970049D01*
X159433233Y-93036367D01*
X159421600Y-93094853D01*
X159421600Y-94479333D01*
X159399926Y-94531659D01*
X159390422Y-94539684D01*
X159313976Y-94593926D01*
X159306949Y-94598342D01*
X159101776Y-94711736D01*
X159094300Y-94715336D01*
X158877729Y-94805044D01*
X158869895Y-94807785D01*
X158644634Y-94872680D01*
X158636545Y-94874526D01*
X158405451Y-94913791D01*
X158397204Y-94914721D01*
X158183493Y-94926723D01*
X158161046Y-94927984D01*
X158156900Y-94928100D01*
X158002197Y-94928100D01*
X157949871Y-94906426D01*
X157928197Y-94854100D01*
X157940460Y-94815814D01*
X157940005Y-94815592D01*
X157941531Y-94812468D01*
X157941969Y-94811104D01*
X157942693Y-94810087D01*
X157942698Y-94810083D01*
X157994073Y-94704993D01*
X158004000Y-94636860D01*
X158004000Y-93370340D01*
X158004000Y-92978100D01*
X158025674Y-92925774D01*
X158078000Y-92904100D01*
X158870091Y-92904100D01*
X158870093Y-92904100D01*
X159005428Y-92877180D01*
X159132911Y-92824375D01*
X159247642Y-92747714D01*
X159345214Y-92650142D01*
X159421875Y-92535411D01*
X159474680Y-92407928D01*
X159501600Y-92272593D01*
X159501600Y-92134607D01*
X159474680Y-91999272D01*
X159421875Y-91871789D01*
X159345214Y-91757058D01*
X159247642Y-91659486D01*
X159132911Y-91582825D01*
X159132910Y-91582824D01*
X159132908Y-91582823D01*
X159005432Y-91530021D01*
X159005422Y-91530018D01*
X158914794Y-91511991D01*
X158870093Y-91503100D01*
X158870091Y-91503100D01*
X158015747Y-91503100D01*
X157963421Y-91481426D01*
X157951419Y-91469424D01*
X157841833Y-91415851D01*
X157770792Y-91405500D01*
X157770788Y-91405500D01*
X156431412Y-91405500D01*
X156431407Y-91405500D01*
X156360367Y-91415851D01*
X156360366Y-91415851D01*
X156250780Y-91469424D01*
X156164524Y-91555680D01*
X156110951Y-91665266D01*
X156110951Y-91665267D01*
X156100600Y-91736307D01*
X156100600Y-91954100D01*
X156078926Y-92006426D01*
X156026600Y-92028100D01*
X155764083Y-92028100D01*
X155730487Y-92020034D01*
X155726405Y-92017954D01*
X155632619Y-92003100D01*
X154469580Y-92003100D01*
X154375795Y-92017953D01*
X154375793Y-92017954D01*
X154262757Y-92075550D01*
X154173051Y-92165256D01*
X154115453Y-92278298D01*
X154100600Y-92372079D01*
X154100600Y-92435119D01*
X154115453Y-92528904D01*
X154115454Y-92528906D01*
X154118769Y-92535411D01*
X154173050Y-92641942D01*
X154262758Y-92731650D01*
X154375796Y-92789246D01*
X154469581Y-92804100D01*
X155632618Y-92804099D01*
X155632619Y-92804099D01*
X155726404Y-92789246D01*
X155728771Y-92788039D01*
X155730487Y-92787166D01*
X155764083Y-92779100D01*
X156156653Y-92779100D01*
X156208979Y-92800774D01*
X156250780Y-92842575D01*
X156360368Y-92896149D01*
X156431412Y-92906500D01*
X156529000Y-92906500D01*
X156581326Y-92928174D01*
X156603000Y-92980500D01*
X156603000Y-94598205D01*
X156581326Y-94650531D01*
X156529000Y-94672205D01*
X156476677Y-94650534D01*
X156476674Y-94650531D01*
X156470796Y-94644653D01*
X156470794Y-94644652D01*
X156467326Y-94641184D01*
X156467285Y-94641148D01*
X156020874Y-94194737D01*
X155999200Y-94142411D01*
X155999200Y-93370346D01*
X155999200Y-93370340D01*
X155989273Y-93302207D01*
X155937898Y-93197117D01*
X155855183Y-93114402D01*
X155855182Y-93114401D01*
X155750094Y-93063027D01*
X155681964Y-93053100D01*
X155681960Y-93053100D01*
X154915440Y-93053100D01*
X154915435Y-93053100D01*
X154847306Y-93063027D01*
X154847305Y-93063027D01*
X154742217Y-93114401D01*
X154659501Y-93197117D01*
X154608127Y-93302205D01*
X154608127Y-93302206D01*
X154598200Y-93370335D01*
X154598200Y-93554100D01*
X154576526Y-93606426D01*
X154524200Y-93628100D01*
X153773684Y-93628100D01*
X153721358Y-93606426D01*
X153700595Y-93565676D01*
X153695273Y-93532075D01*
X153686756Y-93478296D01*
X153686755Y-93478294D01*
X153686755Y-93478293D01*
X153631749Y-93370340D01*
X153629160Y-93365258D01*
X153539452Y-93275550D01*
X153426414Y-93217954D01*
X153426412Y-93217953D01*
X153426411Y-93217953D01*
X153332630Y-93203100D01*
X153269590Y-93203100D01*
X153175805Y-93217953D01*
X153175803Y-93217954D01*
X153062767Y-93275550D01*
X152973061Y-93365256D01*
X152915463Y-93478298D01*
X152900610Y-93572080D01*
X152101599Y-93572080D01*
X152100584Y-93565676D01*
X152086746Y-93478295D01*
X152086745Y-93478293D01*
X152031739Y-93370340D01*
X152029150Y-93365258D01*
X151939442Y-93275550D01*
X151826404Y-93217954D01*
X151826402Y-93217953D01*
X151826401Y-93217953D01*
X151732620Y-93203100D01*
X151669580Y-93203100D01*
X151575795Y-93217953D01*
X151575793Y-93217954D01*
X151462757Y-93275550D01*
X151373051Y-93365256D01*
X151315453Y-93478298D01*
X151300600Y-93572080D01*
X151300600Y-94735119D01*
X151315453Y-94828902D01*
X151315454Y-94828904D01*
X151317534Y-94832986D01*
X151325600Y-94866582D01*
X151325600Y-96449432D01*
X151325484Y-96453582D01*
X151312220Y-96689721D01*
X151311290Y-96697967D01*
X151272024Y-96929060D01*
X151270178Y-96937150D01*
X151205281Y-97162409D01*
X151202540Y-97170242D01*
X151112830Y-97386815D01*
X151109229Y-97394291D01*
X150995836Y-97599458D01*
X150991421Y-97606485D01*
X150956743Y-97655358D01*
X150908787Y-97685491D01*
X150868074Y-97680903D01*
X150763790Y-97637707D01*
X150763780Y-97637704D01*
X150647276Y-97614530D01*
X150589811Y-97603100D01*
X150412429Y-97603100D01*
X150363109Y-97612910D01*
X150238459Y-97637704D01*
X150238449Y-97637707D01*
X150074575Y-97705585D01*
X149927088Y-97804133D01*
X149801653Y-97929568D01*
X149703105Y-98077055D01*
X149635227Y-98240929D01*
X149635224Y-98240939D01*
X149600620Y-98414910D01*
X149600620Y-98992289D01*
X149635224Y-99166260D01*
X149635227Y-99166270D01*
X149703105Y-99330144D01*
X149786459Y-99454892D01*
X149801656Y-99477635D01*
X149927085Y-99603064D01*
X150074573Y-99701613D01*
X150074574Y-99701613D01*
X150074575Y-99701614D01*
X150201289Y-99754100D01*
X150238454Y-99769494D01*
X150238458Y-99769494D01*
X150238462Y-99769496D01*
X150247331Y-99771260D01*
X150294424Y-99802725D01*
X150305474Y-99858273D01*
X150274009Y-99905366D01*
X150245746Y-99916713D01*
X150079850Y-99945966D01*
X149962882Y-99977307D01*
X149643315Y-100062934D01*
X149218647Y-100217501D01*
X149218645Y-100217501D01*
X148809039Y-100408504D01*
X148809034Y-100408506D01*
X148417664Y-100634463D01*
X148417656Y-100634469D01*
X148193266Y-100791589D01*
X148047456Y-100893686D01*
X148047445Y-100893694D01*
X147701251Y-101184186D01*
X147381686Y-101503751D01*
X147091194Y-101849945D01*
X147091186Y-101849956D01*
X146831969Y-102220156D01*
X146831963Y-102220164D01*
X146606006Y-102611534D01*
X146606004Y-102611539D01*
X146606002Y-102611543D01*
X146586624Y-102653100D01*
X146415001Y-103021145D01*
X146415001Y-103021147D01*
X146260434Y-103445815D01*
X146143466Y-103882350D01*
X146064988Y-104327419D01*
X146064985Y-104327442D01*
X146025600Y-104777629D01*
X127501600Y-104777629D01*
X127501600Y-98414910D01*
X143600620Y-98414910D01*
X143600620Y-98992289D01*
X143635224Y-99166260D01*
X143635227Y-99166270D01*
X143703105Y-99330144D01*
X143786459Y-99454892D01*
X143801656Y-99477635D01*
X143927085Y-99603064D01*
X144074573Y-99701613D01*
X144074574Y-99701613D01*
X144074575Y-99701614D01*
X144201289Y-99754100D01*
X144238454Y-99769494D01*
X144412429Y-99804100D01*
X144412431Y-99804100D01*
X144589809Y-99804100D01*
X144589811Y-99804100D01*
X144763786Y-99769494D01*
X144927667Y-99701613D01*
X145075155Y-99603064D01*
X145200584Y-99477635D01*
X145299133Y-99330147D01*
X145367014Y-99166266D01*
X145401620Y-98992291D01*
X145401620Y-98414910D01*
X145600620Y-98414910D01*
X145600620Y-98992289D01*
X145635224Y-99166260D01*
X145635227Y-99166270D01*
X145703105Y-99330144D01*
X145786459Y-99454892D01*
X145801656Y-99477635D01*
X145927085Y-99603064D01*
X146074573Y-99701613D01*
X146074574Y-99701613D01*
X146074575Y-99701614D01*
X146201289Y-99754100D01*
X146238454Y-99769494D01*
X146412429Y-99804100D01*
X146412431Y-99804100D01*
X146589809Y-99804100D01*
X146589811Y-99804100D01*
X146763786Y-99769494D01*
X146927667Y-99701613D01*
X147075155Y-99603064D01*
X147200584Y-99477635D01*
X147299133Y-99330147D01*
X147367014Y-99166266D01*
X147401620Y-98992291D01*
X147401620Y-98414910D01*
X147600620Y-98414910D01*
X147600620Y-98992289D01*
X147635224Y-99166260D01*
X147635227Y-99166270D01*
X147703105Y-99330144D01*
X147786459Y-99454892D01*
X147801656Y-99477635D01*
X147927085Y-99603064D01*
X148074573Y-99701613D01*
X148074574Y-99701613D01*
X148074575Y-99701614D01*
X148201289Y-99754100D01*
X148238454Y-99769494D01*
X148412429Y-99804100D01*
X148412431Y-99804100D01*
X148589809Y-99804100D01*
X148589811Y-99804100D01*
X148763786Y-99769494D01*
X148927667Y-99701613D01*
X149075155Y-99603064D01*
X149200584Y-99477635D01*
X149299133Y-99330147D01*
X149367014Y-99166266D01*
X149401620Y-98992291D01*
X149401620Y-98414909D01*
X149367014Y-98240934D01*
X149299133Y-98077053D01*
X149200584Y-97929565D01*
X149075155Y-97804136D01*
X148927667Y-97705587D01*
X148927666Y-97705586D01*
X148927664Y-97705585D01*
X148763790Y-97637707D01*
X148763780Y-97637704D01*
X148647276Y-97614530D01*
X148589811Y-97603100D01*
X148412429Y-97603100D01*
X148363109Y-97612910D01*
X148238459Y-97637704D01*
X148238449Y-97637707D01*
X148074575Y-97705585D01*
X147927088Y-97804133D01*
X147801653Y-97929568D01*
X147703105Y-98077055D01*
X147635227Y-98240929D01*
X147635224Y-98240939D01*
X147600620Y-98414910D01*
X147401620Y-98414910D01*
X147401620Y-98414909D01*
X147367014Y-98240934D01*
X147299133Y-98077053D01*
X147200584Y-97929565D01*
X147075155Y-97804136D01*
X146927667Y-97705587D01*
X146927666Y-97705586D01*
X146927664Y-97705585D01*
X146763790Y-97637707D01*
X146763780Y-97637704D01*
X146647276Y-97614530D01*
X146589811Y-97603100D01*
X146412429Y-97603100D01*
X146363109Y-97612910D01*
X146238459Y-97637704D01*
X146238449Y-97637707D01*
X146074575Y-97705585D01*
X145927088Y-97804133D01*
X145801653Y-97929568D01*
X145703105Y-98077055D01*
X145635227Y-98240929D01*
X145635224Y-98240939D01*
X145600620Y-98414910D01*
X145401620Y-98414910D01*
X145401620Y-98414909D01*
X145367014Y-98240934D01*
X145299134Y-98077055D01*
X145298885Y-98076453D01*
X145298885Y-98019816D01*
X145314923Y-97995812D01*
X145675728Y-97635008D01*
X145678709Y-97632190D01*
X145839525Y-97488480D01*
X145845987Y-97483327D01*
X146020165Y-97359743D01*
X146027175Y-97355338D01*
X146214101Y-97252030D01*
X146221554Y-97248441D01*
X146418864Y-97166714D01*
X146426666Y-97163984D01*
X146631891Y-97104861D01*
X146639967Y-97103018D01*
X146850497Y-97067248D01*
X146858726Y-97066319D01*
X147074251Y-97054216D01*
X147078394Y-97054101D01*
X147136048Y-97054101D01*
X147136060Y-97054100D01*
X147192523Y-97054100D01*
X147215858Y-97054100D01*
X147215865Y-97054102D01*
X147246512Y-97054102D01*
X147246512Y-97054103D01*
X147397022Y-97054102D01*
X147696150Y-97020398D01*
X147989624Y-96953413D01*
X148167387Y-96891211D01*
X148273739Y-96853997D01*
X148273742Y-96853995D01*
X148273752Y-96853992D01*
X148544963Y-96723383D01*
X148799844Y-96563230D01*
X149035192Y-96375546D01*
X149119940Y-96290798D01*
X149119979Y-96290781D01*
X149121113Y-96289647D01*
X149125769Y-96287612D01*
X149139645Y-96271423D01*
X149143480Y-96267280D01*
X149226290Y-96184470D01*
X149372049Y-95994510D01*
X149491765Y-95787150D01*
X149583390Y-95565938D01*
X149645356Y-95334658D01*
X149676603Y-95097268D01*
X149676600Y-94977550D01*
X149676600Y-94966566D01*
X149676600Y-94866582D01*
X149684666Y-94832986D01*
X149686746Y-94828904D01*
X149701600Y-94735119D01*
X149701599Y-93572082D01*
X149700584Y-93565676D01*
X149686746Y-93478295D01*
X149686745Y-93478293D01*
X149631739Y-93370340D01*
X149629150Y-93365258D01*
X149539442Y-93275550D01*
X149426404Y-93217954D01*
X149426402Y-93217953D01*
X149426401Y-93217953D01*
X149332620Y-93203100D01*
X149269580Y-93203100D01*
X149175795Y-93217953D01*
X149175793Y-93217954D01*
X149062757Y-93275550D01*
X148973051Y-93365256D01*
X148915453Y-93478298D01*
X148900600Y-93572080D01*
X148900600Y-94735119D01*
X148915453Y-94828902D01*
X148915454Y-94828904D01*
X148917534Y-94832986D01*
X148925600Y-94866582D01*
X148925600Y-94919036D01*
X148925599Y-94919054D01*
X148925599Y-94974664D01*
X148925371Y-94980468D01*
X148912820Y-95140011D01*
X148911004Y-95151481D01*
X148874326Y-95304264D01*
X148870738Y-95315307D01*
X148810611Y-95460474D01*
X148805339Y-95470821D01*
X148723246Y-95604789D01*
X148716420Y-95614184D01*
X148614135Y-95733945D01*
X148606657Y-95741522D01*
X148424511Y-95901261D01*
X148416831Y-95907154D01*
X148215087Y-96041956D01*
X148206704Y-96046796D01*
X147989090Y-96154111D01*
X147980148Y-96157815D01*
X147750384Y-96235810D01*
X147741034Y-96238315D01*
X147503065Y-96285651D01*
X147493468Y-96286915D01*
X147248964Y-96302942D01*
X147244124Y-96303100D01*
X147022225Y-96303100D01*
X147022030Y-96303112D01*
X146922823Y-96303112D01*
X146618197Y-96337435D01*
X146618194Y-96337435D01*
X146618191Y-96337436D01*
X146319332Y-96405648D01*
X146319329Y-96405648D01*
X146319329Y-96405649D01*
X146285714Y-96417411D01*
X146029980Y-96506894D01*
X146029973Y-96506897D01*
X145753779Y-96639903D01*
X145494217Y-96802993D01*
X145254540Y-96994125D01*
X145241632Y-97007033D01*
X145181111Y-97067552D01*
X145181108Y-97067555D01*
X145181103Y-97067559D01*
X144664280Y-97584381D01*
X144611954Y-97606055D01*
X144597528Y-97604634D01*
X144589811Y-97603100D01*
X144412429Y-97603100D01*
X144363109Y-97612910D01*
X144238459Y-97637704D01*
X144238449Y-97637707D01*
X144074575Y-97705585D01*
X143927088Y-97804133D01*
X143801653Y-97929568D01*
X143703105Y-98077055D01*
X143635227Y-98240929D01*
X143635224Y-98240939D01*
X143600620Y-98414910D01*
X127501600Y-98414910D01*
X127501600Y-94133907D01*
X143203000Y-94133907D01*
X143203000Y-95473292D01*
X143213351Y-95544332D01*
X143213351Y-95544333D01*
X143266924Y-95653919D01*
X143266925Y-95653920D01*
X143353180Y-95740175D01*
X143462768Y-95793749D01*
X143533812Y-95804100D01*
X143533818Y-95804100D01*
X144373182Y-95804100D01*
X144373188Y-95804100D01*
X144444232Y-95793749D01*
X144449172Y-95791333D01*
X144505699Y-95787823D01*
X144521044Y-95795156D01*
X144544753Y-95810053D01*
X144544755Y-95810054D01*
X144544760Y-95810057D01*
X144765404Y-95916310D01*
X144996556Y-95997191D01*
X145151751Y-96032612D01*
X145218135Y-96047763D01*
X145257593Y-96071446D01*
X145269979Y-96085740D01*
X145269982Y-96085743D01*
X145348672Y-96136314D01*
X145367190Y-96148215D01*
X145391057Y-96163553D01*
X145459056Y-96183519D01*
X145529145Y-96204099D01*
X145529147Y-96204100D01*
X145529149Y-96204100D01*
X145673073Y-96204100D01*
X145673074Y-96204099D01*
X145683952Y-96200905D01*
X145811163Y-96163553D01*
X145932238Y-96085743D01*
X146026487Y-95976973D01*
X146086275Y-95846057D01*
X146106757Y-95703600D01*
X146106756Y-95703599D01*
X146107510Y-95698362D01*
X146108628Y-95698522D01*
X146118641Y-95664634D01*
X146201768Y-95536262D01*
X146301104Y-95340351D01*
X146318987Y-95293438D01*
X146319099Y-95293201D01*
X146321010Y-95288183D01*
X146321012Y-95288181D01*
X146340228Y-95237728D01*
X146373971Y-95149141D01*
X146425074Y-94966566D01*
X146427911Y-94951144D01*
X146434752Y-94930945D01*
X146486746Y-94828904D01*
X146501600Y-94735119D01*
X146501599Y-93572082D01*
X146500584Y-93565676D01*
X146486746Y-93478295D01*
X146486745Y-93478293D01*
X146431739Y-93370340D01*
X146429150Y-93365258D01*
X146339442Y-93275550D01*
X146226404Y-93217954D01*
X146226402Y-93217953D01*
X146226401Y-93217953D01*
X146132620Y-93203100D01*
X146069580Y-93203100D01*
X145975795Y-93217953D01*
X145975793Y-93217954D01*
X145862757Y-93275550D01*
X145773051Y-93365256D01*
X145715453Y-93478298D01*
X145700600Y-93572080D01*
X145700600Y-94733565D01*
X145699379Y-94746953D01*
X145687421Y-94811957D01*
X145685266Y-94820667D01*
X145639852Y-94965808D01*
X145636363Y-94974837D01*
X145561962Y-95135305D01*
X145556941Y-95144400D01*
X145531454Y-95183759D01*
X145490189Y-95214539D01*
X145391057Y-95243647D01*
X145391056Y-95243647D01*
X145335917Y-95279082D01*
X145281475Y-95289406D01*
X145235914Y-95280344D01*
X145226564Y-95277839D01*
X145058700Y-95220858D01*
X145049757Y-95217154D01*
X144890760Y-95138747D01*
X144882378Y-95133907D01*
X144736889Y-95036697D01*
X144705422Y-94989606D01*
X144704000Y-94975168D01*
X144704000Y-94133918D01*
X144704000Y-94133912D01*
X144693649Y-94062868D01*
X144640075Y-93953280D01*
X144553820Y-93867025D01*
X144553819Y-93867024D01*
X144444233Y-93813451D01*
X144373192Y-93803100D01*
X144373188Y-93803100D01*
X143533812Y-93803100D01*
X143533807Y-93803100D01*
X143462767Y-93813451D01*
X143462766Y-93813451D01*
X143353180Y-93867024D01*
X143266924Y-93953280D01*
X143213351Y-94062866D01*
X143213351Y-94062867D01*
X143203000Y-94133907D01*
X127501600Y-94133907D01*
X127501600Y-91157221D01*
X127501632Y-91155056D01*
X127501936Y-91144653D01*
X127517796Y-90602744D01*
X127518046Y-90598459D01*
X127566392Y-90049095D01*
X127566896Y-90044809D01*
X127647289Y-89499200D01*
X127648044Y-89494952D01*
X127648429Y-89493099D01*
X127760201Y-88955016D01*
X127761196Y-88950844D01*
X127904748Y-88418355D01*
X127905996Y-88414216D01*
X127909537Y-88403596D01*
X128080434Y-87891067D01*
X128081918Y-87887015D01*
X128087314Y-87873520D01*
X128286658Y-87374949D01*
X128288363Y-87371020D01*
X128491797Y-86937642D01*
X132400600Y-86937642D01*
X132400600Y-88069557D01*
X132400601Y-88069558D01*
X132406753Y-88126790D01*
X132455037Y-88256245D01*
X132455038Y-88256246D01*
X132529169Y-88355274D01*
X132537841Y-88366859D01*
X132629027Y-88435119D01*
X132648453Y-88449661D01*
X132648454Y-88449662D01*
X132749948Y-88487517D01*
X132777912Y-88497947D01*
X132835143Y-88504100D01*
X133704554Y-88504099D01*
X133756880Y-88525773D01*
X133802284Y-88571177D01*
X133802285Y-88571180D01*
X133823958Y-88592852D01*
X133823958Y-88592853D01*
X133883978Y-88652872D01*
X133926107Y-88695001D01*
X133966157Y-88727868D01*
X134149441Y-88878285D01*
X134361034Y-89019666D01*
X134389666Y-89038797D01*
X134389668Y-89038798D01*
X134607625Y-89155298D01*
X134644467Y-89174990D01*
X134911390Y-89285552D01*
X135187865Y-89369419D01*
X135187867Y-89369419D01*
X135187869Y-89369420D01*
X135463861Y-89424317D01*
X135471230Y-89425783D01*
X135758754Y-89454100D01*
X135850483Y-89454100D01*
X137843871Y-89454100D01*
X137896197Y-89475774D01*
X137917871Y-89528100D01*
X137896197Y-89580426D01*
X137878754Y-89593362D01*
X137707540Y-89684877D01*
X137707538Y-89684878D01*
X137469357Y-89844025D01*
X137247925Y-90025746D01*
X137247916Y-90025755D01*
X137157049Y-90116620D01*
X137157050Y-90116621D01*
X137116683Y-90156989D01*
X137116682Y-90156990D01*
X136592235Y-90681436D01*
X136539909Y-90703110D01*
X135635142Y-90703110D01*
X135635141Y-90703111D01*
X135577909Y-90709263D01*
X135448454Y-90757547D01*
X135448453Y-90757548D01*
X135337844Y-90840348D01*
X135337838Y-90840354D01*
X135255038Y-90950963D01*
X135255037Y-90950964D01*
X135206754Y-91080417D01*
X135206753Y-91080422D01*
X135200600Y-91137652D01*
X135200600Y-92269567D01*
X135200601Y-92269568D01*
X135206753Y-92326800D01*
X135255037Y-92456255D01*
X135255038Y-92456256D01*
X135255039Y-92456257D01*
X135337841Y-92566869D01*
X135337844Y-92566871D01*
X135448453Y-92649671D01*
X135448454Y-92649672D01*
X135554961Y-92689396D01*
X135577912Y-92697957D01*
X135635143Y-92704110D01*
X136567056Y-92704109D01*
X136567057Y-92704109D01*
X136567057Y-92704108D01*
X136624288Y-92697957D01*
X136689017Y-92673814D01*
X136753745Y-92649672D01*
X136753745Y-92649671D01*
X136753747Y-92649671D01*
X136864359Y-92566869D01*
X136947161Y-92456257D01*
X136955046Y-92435118D01*
X136978558Y-92372079D01*
X136995447Y-92326798D01*
X137001600Y-92269567D01*
X137001599Y-91364798D01*
X137023272Y-91312474D01*
X137676247Y-90659499D01*
X137679227Y-90656682D01*
X137855571Y-90499093D01*
X137862050Y-90493926D01*
X138053243Y-90358269D01*
X138060253Y-90353864D01*
X138265448Y-90240458D01*
X138272901Y-90236869D01*
X138489495Y-90147154D01*
X138497291Y-90144426D01*
X138722590Y-90079519D01*
X138730650Y-90077680D01*
X138961766Y-90038412D01*
X138969992Y-90037485D01*
X139206289Y-90024215D01*
X139210431Y-90024100D01*
X140680351Y-90024100D01*
X140680567Y-90024084D01*
X140751909Y-90024081D01*
X141001941Y-89995880D01*
X141247238Y-89939835D01*
X141484707Y-89856650D01*
X141702935Y-89751436D01*
X141711342Y-89747383D01*
X141711346Y-89747380D01*
X141711358Y-89747375D01*
X141856999Y-89655748D01*
X141924327Y-89613390D01*
X141924328Y-89613388D01*
X141924333Y-89613386D01*
X142120950Y-89456372D01*
X142199180Y-89378026D01*
X142199195Y-89378041D01*
X142199216Y-89377989D01*
X142217818Y-89359389D01*
X142244605Y-89332602D01*
X142244605Y-89332600D01*
X142249908Y-89327298D01*
X142249918Y-89327284D01*
X142345416Y-89231781D01*
X142345487Y-89231720D01*
X142349195Y-89228011D01*
X142349198Y-89228010D01*
X142389290Y-89187915D01*
X142418849Y-89158421D01*
X142418849Y-89158420D01*
X142421979Y-89155298D01*
X142422493Y-89154711D01*
X142659657Y-88917538D01*
X142674248Y-88906210D01*
X142755881Y-88857834D01*
X142766011Y-88852834D01*
X142859512Y-88815257D01*
X142870289Y-88811856D01*
X142916132Y-88801157D01*
X142944523Y-88800131D01*
X142969581Y-88804100D01*
X144132618Y-88804099D01*
X144132619Y-88804099D01*
X144226404Y-88789246D01*
X144226406Y-88789245D01*
X144228519Y-88788168D01*
X144339442Y-88731650D01*
X144429150Y-88641942D01*
X144486746Y-88528904D01*
X144501600Y-88435119D01*
X144501599Y-88372082D01*
X144500771Y-88366855D01*
X144486746Y-88278295D01*
X144486745Y-88278293D01*
X144441111Y-88188733D01*
X144429150Y-88165258D01*
X144339442Y-88075550D01*
X144327635Y-88069534D01*
X144290852Y-88026469D01*
X144295295Y-87970006D01*
X144327635Y-87937665D01*
X144339442Y-87931650D01*
X144429150Y-87841942D01*
X144486746Y-87728904D01*
X144501600Y-87635119D01*
X144501599Y-87572082D01*
X144498793Y-87554367D01*
X144486746Y-87478295D01*
X144486745Y-87478293D01*
X144456870Y-87419661D01*
X144429150Y-87365258D01*
X144339442Y-87275550D01*
X144226404Y-87217954D01*
X144226402Y-87217953D01*
X144226401Y-87217953D01*
X144132620Y-87203100D01*
X144132619Y-87203100D01*
X143603828Y-87203100D01*
X143603827Y-87203100D01*
X143088911Y-87203100D01*
X143088899Y-87203099D01*
X143056017Y-87203099D01*
X143055995Y-87203090D01*
X142931978Y-87203093D01*
X142805471Y-87219751D01*
X142746809Y-87227476D01*
X142746806Y-87227476D01*
X142746804Y-87227477D01*
X142746802Y-87227477D01*
X142566408Y-87275816D01*
X142393861Y-87347290D01*
X142393852Y-87347295D01*
X142232124Y-87440671D01*
X142232107Y-87440682D01*
X142083957Y-87554361D01*
X142083950Y-87554367D01*
X142058085Y-87580229D01*
X142058006Y-87580300D01*
X141283096Y-88355219D01*
X141283034Y-88355274D01*
X141241202Y-88397103D01*
X141236937Y-88401046D01*
X141140118Y-88483734D01*
X141130724Y-88490559D01*
X141024657Y-88555555D01*
X141014311Y-88560826D01*
X140899387Y-88608428D01*
X140888344Y-88612016D01*
X140767389Y-88641054D01*
X140755920Y-88642871D01*
X140628843Y-88652872D01*
X140623037Y-88653100D01*
X135905291Y-88653100D01*
X135901142Y-88652984D01*
X135712933Y-88642415D01*
X135667808Y-88639880D01*
X135659563Y-88638951D01*
X135431218Y-88600154D01*
X135423128Y-88598308D01*
X135200565Y-88534190D01*
X135192732Y-88531449D01*
X134978756Y-88442818D01*
X134971279Y-88439218D01*
X134768562Y-88327181D01*
X134761535Y-88322766D01*
X134572633Y-88188733D01*
X134566146Y-88183559D01*
X134391994Y-88027929D01*
X134388977Y-88025077D01*
X134346085Y-87982185D01*
X134346031Y-87982138D01*
X134223273Y-87859380D01*
X134201599Y-87807054D01*
X134201599Y-86937642D01*
X134201598Y-86937641D01*
X134195447Y-86880412D01*
X134187277Y-86858507D01*
X134147162Y-86750954D01*
X134147161Y-86750953D01*
X134136540Y-86736765D01*
X134064359Y-86640341D01*
X133953747Y-86557539D01*
X133953746Y-86557538D01*
X133953745Y-86557537D01*
X133824292Y-86509254D01*
X133824289Y-86509253D01*
X133824288Y-86509253D01*
X133767057Y-86503100D01*
X132835142Y-86503100D01*
X132835141Y-86503101D01*
X132777909Y-86509253D01*
X132648454Y-86557537D01*
X132648453Y-86557538D01*
X132537844Y-86640338D01*
X132537838Y-86640344D01*
X132455038Y-86750953D01*
X132455037Y-86750954D01*
X132406754Y-86880407D01*
X132406753Y-86880412D01*
X132400600Y-86937642D01*
X128491797Y-86937642D01*
X128522727Y-86871751D01*
X128524650Y-86867950D01*
X128787791Y-86383277D01*
X128789948Y-86379567D01*
X129080986Y-85911113D01*
X129083362Y-85907528D01*
X129401290Y-85456909D01*
X129403878Y-85453458D01*
X129501081Y-85331507D01*
X137100610Y-85331507D01*
X137100610Y-86170892D01*
X137110961Y-86241932D01*
X137110961Y-86241933D01*
X137164534Y-86351519D01*
X137164535Y-86351520D01*
X137250790Y-86437775D01*
X137360378Y-86491349D01*
X137431422Y-86501700D01*
X137431428Y-86501700D01*
X138770792Y-86501700D01*
X138770798Y-86501700D01*
X138841842Y-86491349D01*
X138897690Y-86464047D01*
X138907566Y-86459219D01*
X138940066Y-86451700D01*
X139362154Y-86451700D01*
X139394654Y-86459219D01*
X139440616Y-86481688D01*
X139460378Y-86491349D01*
X139531422Y-86501700D01*
X139531428Y-86501700D01*
X140870792Y-86501700D01*
X140870798Y-86501700D01*
X140941842Y-86491349D01*
X141051430Y-86437775D01*
X141088431Y-86400774D01*
X141140757Y-86379100D01*
X141437917Y-86379100D01*
X141477924Y-86390847D01*
X141583435Y-86458655D01*
X141591057Y-86463553D01*
X141685719Y-86491348D01*
X141729145Y-86504099D01*
X141729147Y-86504100D01*
X141729149Y-86504100D01*
X141873073Y-86504100D01*
X141873074Y-86504099D01*
X141876473Y-86503101D01*
X142011163Y-86463553D01*
X142124296Y-86390846D01*
X142164303Y-86379100D01*
X142838117Y-86379100D01*
X142871713Y-86387166D01*
X142874934Y-86388807D01*
X142875796Y-86389246D01*
X142969581Y-86404100D01*
X144132618Y-86404099D01*
X144132619Y-86404099D01*
X144226404Y-86389246D01*
X144226406Y-86389245D01*
X144245431Y-86379551D01*
X144339442Y-86331650D01*
X144429150Y-86241942D01*
X144486746Y-86128904D01*
X144501600Y-86035119D01*
X144501599Y-85972082D01*
X144493625Y-85921734D01*
X144486746Y-85878295D01*
X144486745Y-85878293D01*
X144435345Y-85777417D01*
X144429150Y-85765258D01*
X144369318Y-85705426D01*
X144347644Y-85653100D01*
X144369318Y-85600774D01*
X144421644Y-85579100D01*
X144748753Y-85579100D01*
X144758413Y-85579733D01*
X144770447Y-85581317D01*
X144801408Y-85585394D01*
X144820056Y-85590391D01*
X144855608Y-85605118D01*
X144872327Y-85614772D01*
X144904424Y-85639401D01*
X144915646Y-85650050D01*
X145016404Y-85768022D01*
X145023230Y-85777417D01*
X145105326Y-85911388D01*
X145110593Y-85921725D01*
X145157562Y-86035120D01*
X145170721Y-86066890D01*
X145174309Y-86077934D01*
X145210986Y-86230718D01*
X145212802Y-86242188D01*
X145225371Y-86401943D01*
X145225599Y-86407747D01*
X145225599Y-86463896D01*
X145225610Y-86464047D01*
X145225610Y-88560846D01*
X145225608Y-88560850D01*
X145225608Y-88734728D01*
X145249726Y-88979609D01*
X145253686Y-89019809D01*
X145266681Y-89085138D01*
X145309570Y-89300757D01*
X145309571Y-89300762D01*
X145309572Y-89300764D01*
X145378142Y-89526807D01*
X145392728Y-89574891D01*
X145490033Y-89809807D01*
X145502350Y-89839541D01*
X145529963Y-89891201D01*
X145637378Y-90092162D01*
X145637380Y-90092165D01*
X145637383Y-90092169D01*
X145637386Y-90092175D01*
X145796535Y-90330356D01*
X145796538Y-90330360D01*
X145796539Y-90330361D01*
X145886156Y-90439560D01*
X145902597Y-90493759D01*
X145895195Y-90519489D01*
X145880830Y-90548336D01*
X145880827Y-90548346D01*
X145825571Y-90742547D01*
X145825570Y-90742553D01*
X145806942Y-90943596D01*
X145806942Y-90943603D01*
X145825570Y-91144646D01*
X145825571Y-91144652D01*
X145880827Y-91338853D01*
X145880829Y-91338858D01*
X145970830Y-91519606D01*
X145970832Y-91519609D01*
X146092508Y-91680735D01*
X146092509Y-91680736D01*
X146170919Y-91752215D01*
X146241726Y-91816765D01*
X146413397Y-91923059D01*
X146601674Y-91995998D01*
X146601675Y-91995998D01*
X146601677Y-91995999D01*
X146719128Y-92017954D01*
X146800147Y-92033099D01*
X146800148Y-92033099D01*
X146800153Y-92033100D01*
X146800155Y-92033100D01*
X147002065Y-92033100D01*
X147002067Y-92033100D01*
X147200543Y-91995999D01*
X147388823Y-91923059D01*
X147560494Y-91816765D01*
X147709710Y-91680736D01*
X147721393Y-91665266D01*
X147831387Y-91519609D01*
X147831389Y-91519606D01*
X147831388Y-91519606D01*
X147831390Y-91519605D01*
X147921391Y-91338859D01*
X147976648Y-91144653D01*
X147982601Y-91080417D01*
X147995278Y-90943603D01*
X147995278Y-90943596D01*
X147976649Y-90742553D01*
X147976648Y-90742547D01*
X147959260Y-90681436D01*
X147921391Y-90548341D01*
X147831390Y-90367595D01*
X147831389Y-90367594D01*
X147831389Y-90367593D01*
X147831387Y-90367590D01*
X147709711Y-90206464D01*
X147709710Y-90206463D01*
X147611156Y-90116620D01*
X147560494Y-90070435D01*
X147548841Y-90063220D01*
X147522553Y-90046943D01*
X147388823Y-89964141D01*
X147291054Y-89926265D01*
X147200544Y-89891201D01*
X147200546Y-89891201D01*
X147002072Y-89854100D01*
X147002067Y-89854100D01*
X146800153Y-89854100D01*
X146800147Y-89854100D01*
X146601674Y-89891201D01*
X146507784Y-89927574D01*
X146451162Y-89926265D01*
X146420701Y-89901392D01*
X146310773Y-89746462D01*
X146306359Y-89739436D01*
X146192968Y-89534270D01*
X146189379Y-89526820D01*
X146118169Y-89354904D01*
X146118169Y-89298267D01*
X146158217Y-89258219D01*
X146214855Y-89258219D01*
X146236387Y-89271898D01*
X146241726Y-89276765D01*
X146413397Y-89383059D01*
X146601674Y-89455998D01*
X146601675Y-89455998D01*
X146601677Y-89455999D01*
X146707466Y-89475774D01*
X146800147Y-89493099D01*
X146800148Y-89493099D01*
X146800153Y-89493100D01*
X146800155Y-89493100D01*
X147002065Y-89493100D01*
X147002067Y-89493100D01*
X147200543Y-89455999D01*
X147341024Y-89401576D01*
X147397645Y-89402884D01*
X147420081Y-89418253D01*
X147602299Y-89600471D01*
X147602513Y-89600721D01*
X147626166Y-89624359D01*
X147626171Y-89624370D01*
X147645709Y-89643895D01*
X147645709Y-89643896D01*
X147657551Y-89655731D01*
X147657561Y-89655754D01*
X147657568Y-89655748D01*
X147681680Y-89679860D01*
X147681792Y-89679958D01*
X147706703Y-89704854D01*
X147843557Y-89809807D01*
X147992935Y-89896007D01*
X148152283Y-89961981D01*
X148318876Y-90006600D01*
X148489867Y-90029102D01*
X148576100Y-90029100D01*
X148631614Y-90029100D01*
X149917143Y-90029100D01*
X149917167Y-90029101D01*
X149923114Y-90029100D01*
X149923118Y-90029102D01*
X149947968Y-90029101D01*
X149947992Y-90029110D01*
X149978632Y-90029109D01*
X149978632Y-90029110D01*
X150053240Y-90029107D01*
X150200618Y-90005760D01*
X150342529Y-89959647D01*
X150475480Y-89891901D01*
X150596197Y-89804193D01*
X150627277Y-89773112D01*
X150627280Y-89773110D01*
X150648952Y-89751436D01*
X150648953Y-89751437D01*
X150688207Y-89712182D01*
X150688207Y-89712180D01*
X150693799Y-89706589D01*
X150693814Y-89706569D01*
X150730651Y-89669734D01*
X150751260Y-89643892D01*
X150806289Y-89574888D01*
X150874744Y-89489048D01*
X150997699Y-89293364D01*
X151097972Y-89085145D01*
X151097972Y-89085142D01*
X151097975Y-89085138D01*
X151167934Y-88885204D01*
X151174301Y-88867007D01*
X151225726Y-88641695D01*
X151251601Y-88412041D01*
X151251600Y-88296488D01*
X151251600Y-88240974D01*
X151251600Y-88103595D01*
X165176110Y-88103595D01*
X165176110Y-88103604D01*
X165196239Y-88333679D01*
X165196239Y-88333682D01*
X165196240Y-88333684D01*
X165256017Y-88556777D01*
X165353626Y-88766100D01*
X165486101Y-88955294D01*
X165649416Y-89118609D01*
X165838610Y-89251084D01*
X166047933Y-89348693D01*
X166271026Y-89408470D01*
X166382845Y-89418253D01*
X166501106Y-89428600D01*
X166501110Y-89428600D01*
X166501114Y-89428600D01*
X166619375Y-89418253D01*
X166731194Y-89408470D01*
X166954287Y-89348693D01*
X167163610Y-89251084D01*
X167352804Y-89118609D01*
X167516119Y-88955294D01*
X167648594Y-88766100D01*
X167746203Y-88556777D01*
X167805980Y-88333684D01*
X167824081Y-88126790D01*
X167826110Y-88103604D01*
X167826110Y-88103595D01*
X167814379Y-87969511D01*
X167805980Y-87873516D01*
X167746203Y-87650423D01*
X167648594Y-87441100D01*
X167516119Y-87251906D01*
X167352804Y-87088591D01*
X167163610Y-86956116D01*
X166954287Y-86858507D01*
X166731194Y-86798730D01*
X166731192Y-86798729D01*
X166731189Y-86798729D01*
X166501114Y-86778600D01*
X166501106Y-86778600D01*
X166271030Y-86798729D01*
X166271026Y-86798729D01*
X166271026Y-86798730D01*
X166047933Y-86858507D01*
X166047932Y-86858507D01*
X166047930Y-86858508D01*
X166047929Y-86858508D01*
X165838610Y-86956116D01*
X165838609Y-86956117D01*
X165649415Y-87088591D01*
X165486101Y-87251905D01*
X165442552Y-87314100D01*
X165353626Y-87441100D01*
X165263153Y-87635120D01*
X165256019Y-87650419D01*
X165256018Y-87650420D01*
X165196239Y-87873520D01*
X165176110Y-88103595D01*
X151251600Y-88103595D01*
X151251600Y-85972079D01*
X154100600Y-85972079D01*
X154100600Y-86035119D01*
X154115453Y-86128904D01*
X154115454Y-86128906D01*
X154173045Y-86241932D01*
X154173050Y-86241942D01*
X154262758Y-86331650D01*
X154375796Y-86389246D01*
X154469581Y-86404100D01*
X154989752Y-86404099D01*
X154989762Y-86404100D01*
X154998373Y-86404100D01*
X156026600Y-86404100D01*
X156078926Y-86425774D01*
X156100600Y-86478100D01*
X156100600Y-86770892D01*
X156110951Y-86841932D01*
X156110951Y-86841933D01*
X156164524Y-86951519D01*
X156164525Y-86951520D01*
X156250780Y-87037775D01*
X156360368Y-87091349D01*
X156431412Y-87101700D01*
X156431418Y-87101700D01*
X157770782Y-87101700D01*
X157770788Y-87101700D01*
X157841832Y-87091349D01*
X157951420Y-87037775D01*
X158037675Y-86951520D01*
X158091249Y-86841932D01*
X158101600Y-86770888D01*
X158101600Y-85931512D01*
X158091249Y-85860468D01*
X158037675Y-85750880D01*
X157951420Y-85664625D01*
X157951419Y-85664624D01*
X157841833Y-85611051D01*
X157770792Y-85600700D01*
X157770788Y-85600700D01*
X156431412Y-85600700D01*
X156431407Y-85600700D01*
X156431402Y-85600701D01*
X156401838Y-85605008D01*
X156381513Y-85605148D01*
X156365956Y-85603100D01*
X156314648Y-85603100D01*
X156314647Y-85603100D01*
X156261927Y-85603100D01*
X156204344Y-85603099D01*
X156204343Y-85603099D01*
X156198386Y-85603099D01*
X156198374Y-85603100D01*
X154469580Y-85603100D01*
X154375795Y-85617953D01*
X154375793Y-85617954D01*
X154262757Y-85675550D01*
X154173051Y-85765256D01*
X154115453Y-85878298D01*
X154100600Y-85972079D01*
X151251600Y-85972079D01*
X151251600Y-85830765D01*
X151251601Y-85830740D01*
X151251601Y-85824792D01*
X151251602Y-85824789D01*
X151251601Y-85799933D01*
X151251608Y-85799915D01*
X151251607Y-85750880D01*
X151251606Y-85656791D01*
X151222239Y-85433748D01*
X151164011Y-85216446D01*
X151077918Y-85008603D01*
X150965433Y-84813775D01*
X150828480Y-84635296D01*
X150792414Y-84599230D01*
X150792306Y-84599103D01*
X150764600Y-84571407D01*
X150764590Y-84571398D01*
X150707088Y-84513896D01*
X150707035Y-84513849D01*
X150706489Y-84513303D01*
X150706470Y-84513286D01*
X150678030Y-84484846D01*
X150642482Y-84449298D01*
X150548390Y-84372079D01*
X154100600Y-84372079D01*
X154100600Y-84435119D01*
X154115453Y-84528904D01*
X154115454Y-84528906D01*
X154162343Y-84620929D01*
X154173050Y-84641942D01*
X154262758Y-84731650D01*
X154375796Y-84789246D01*
X154469581Y-84804100D01*
X155632618Y-84804099D01*
X155632619Y-84804099D01*
X155726404Y-84789246D01*
X155726406Y-84789245D01*
X155730714Y-84787050D01*
X155839442Y-84731650D01*
X155929150Y-84641942D01*
X155986746Y-84528904D01*
X156001600Y-84435119D01*
X156001599Y-84372082D01*
X155992409Y-84314056D01*
X155986746Y-84278295D01*
X155986745Y-84278293D01*
X155954627Y-84215260D01*
X155929150Y-84165258D01*
X155927140Y-84163248D01*
X155926410Y-84161487D01*
X155925726Y-84160545D01*
X155925952Y-84160380D01*
X155905466Y-84110922D01*
X155927140Y-84058596D01*
X156056637Y-83929100D01*
X156400345Y-83585392D01*
X156562364Y-83423374D01*
X156614690Y-83401700D01*
X157770782Y-83401700D01*
X157770788Y-83401700D01*
X157841832Y-83391349D01*
X157951420Y-83337775D01*
X158037675Y-83251520D01*
X158091249Y-83141932D01*
X158101600Y-83070888D01*
X158101600Y-82231512D01*
X158091249Y-82160468D01*
X158037675Y-82050880D01*
X157951420Y-81964625D01*
X157951419Y-81964624D01*
X157841833Y-81911051D01*
X157770792Y-81900700D01*
X157770788Y-81900700D01*
X156431412Y-81900700D01*
X156431407Y-81900700D01*
X156360367Y-81911051D01*
X156360366Y-81911051D01*
X156250780Y-81964624D01*
X156164524Y-82050880D01*
X156110951Y-82160466D01*
X156110951Y-82160467D01*
X156100600Y-82231507D01*
X156100600Y-82792410D01*
X156078926Y-82844736D01*
X155956121Y-82967540D01*
X155903795Y-82989214D01*
X155863788Y-82977467D01*
X155811164Y-82943647D01*
X155811160Y-82943646D01*
X155673074Y-82903100D01*
X155673071Y-82903100D01*
X155529149Y-82903100D01*
X155529146Y-82903100D01*
X155391059Y-82943646D01*
X155391055Y-82943647D01*
X155269985Y-83021455D01*
X155269978Y-83021460D01*
X155175733Y-83130226D01*
X155115944Y-83261145D01*
X155095463Y-83403600D01*
X155115944Y-83546054D01*
X155115944Y-83546055D01*
X155115945Y-83546057D01*
X155159144Y-83640648D01*
X155176634Y-83678946D01*
X155178655Y-83735547D01*
X155161647Y-83762013D01*
X154942235Y-83981426D01*
X154889909Y-84003100D01*
X154469580Y-84003100D01*
X154375795Y-84017953D01*
X154375793Y-84017954D01*
X154262757Y-84075550D01*
X154173051Y-84165256D01*
X154115453Y-84278298D01*
X154100600Y-84372079D01*
X150548390Y-84372079D01*
X150422945Y-84269129D01*
X150264484Y-84163248D01*
X150186805Y-84111344D01*
X150186803Y-84111343D01*
X149936343Y-83977470D01*
X149673955Y-83868785D01*
X149402176Y-83786341D01*
X149123640Y-83730937D01*
X148897528Y-83708667D01*
X148841001Y-83703100D01*
X148841000Y-83703100D01*
X148711185Y-83703100D01*
X148658859Y-83681426D01*
X148637185Y-83629100D01*
X148658859Y-83576774D01*
X148677589Y-83563166D01*
X148686974Y-83558383D01*
X148739442Y-83531650D01*
X148829150Y-83441942D01*
X148835166Y-83430135D01*
X148878233Y-83393353D01*
X148934696Y-83397797D01*
X148967034Y-83430135D01*
X148973050Y-83441942D01*
X149062758Y-83531650D01*
X149175796Y-83589246D01*
X149269581Y-83604100D01*
X149332618Y-83604099D01*
X149332619Y-83604099D01*
X149426404Y-83589246D01*
X149426406Y-83589245D01*
X149443025Y-83580777D01*
X149539442Y-83531650D01*
X149629150Y-83441942D01*
X149686746Y-83328904D01*
X149701600Y-83235119D01*
X149701600Y-82666787D01*
X149701600Y-81485743D01*
X149701601Y-81442514D01*
X149701601Y-81411865D01*
X149701600Y-81411861D01*
X149701600Y-81384571D01*
X149701593Y-81384473D01*
X149701593Y-81376973D01*
X149701594Y-81354725D01*
X149678678Y-81180650D01*
X149633237Y-81011054D01*
X149588729Y-80903600D01*
X150395453Y-80903600D01*
X150415934Y-81046054D01*
X150415934Y-81046055D01*
X150415935Y-81046057D01*
X150425511Y-81067025D01*
X150475723Y-81176974D01*
X150507525Y-81213674D01*
X150525600Y-81262134D01*
X150525600Y-81940616D01*
X150517535Y-81974209D01*
X150515455Y-81978289D01*
X150515454Y-81978295D01*
X150500600Y-82072080D01*
X150500600Y-83235119D01*
X150515453Y-83328904D01*
X150515454Y-83328906D01*
X150563589Y-83423374D01*
X150573050Y-83441942D01*
X150662758Y-83531650D01*
X150775796Y-83589246D01*
X150869581Y-83604100D01*
X150932618Y-83604099D01*
X150932619Y-83604099D01*
X151026404Y-83589246D01*
X151026406Y-83589245D01*
X151043025Y-83580777D01*
X151139442Y-83531650D01*
X151229150Y-83441942D01*
X151235166Y-83430135D01*
X151278233Y-83393353D01*
X151334696Y-83397797D01*
X151367034Y-83430135D01*
X151373050Y-83441942D01*
X151462758Y-83531650D01*
X151575796Y-83589246D01*
X151669581Y-83604100D01*
X151732618Y-83604099D01*
X151732619Y-83604099D01*
X151826404Y-83589246D01*
X151826406Y-83589245D01*
X151843025Y-83580777D01*
X151939442Y-83531650D01*
X152029150Y-83441942D01*
X152035166Y-83430135D01*
X152078233Y-83393353D01*
X152134696Y-83397797D01*
X152167034Y-83430135D01*
X152173050Y-83441942D01*
X152262758Y-83531650D01*
X152375796Y-83589246D01*
X152469581Y-83604100D01*
X152532618Y-83604099D01*
X152532619Y-83604099D01*
X152626404Y-83589246D01*
X152626406Y-83589245D01*
X152643025Y-83580777D01*
X152739442Y-83531650D01*
X152829150Y-83441942D01*
X152886746Y-83328904D01*
X152901600Y-83235119D01*
X152901599Y-82072082D01*
X152901104Y-82068959D01*
X152886746Y-81978295D01*
X152886744Y-81978289D01*
X152884665Y-81974209D01*
X152876600Y-81940616D01*
X152876600Y-81462134D01*
X152894675Y-81413674D01*
X152926476Y-81376974D01*
X152926475Y-81376974D01*
X152926477Y-81376973D01*
X152986265Y-81246057D01*
X153006747Y-81103600D01*
X152986265Y-80961143D01*
X152926477Y-80830227D01*
X152832228Y-80721457D01*
X152756034Y-80672490D01*
X152711154Y-80643647D01*
X152711150Y-80643646D01*
X152573064Y-80603100D01*
X152573061Y-80603100D01*
X152429139Y-80603100D01*
X152429136Y-80603100D01*
X152291049Y-80643646D01*
X152291045Y-80643648D01*
X152190607Y-80708195D01*
X152134870Y-80718251D01*
X152088347Y-80685949D01*
X152076600Y-80645942D01*
X152076600Y-80462134D01*
X152094675Y-80413674D01*
X152126476Y-80376974D01*
X152126475Y-80376974D01*
X152126477Y-80376973D01*
X152186265Y-80246057D01*
X152206747Y-80103600D01*
X152186265Y-79961143D01*
X152126477Y-79830227D01*
X152032228Y-79721457D01*
X151975282Y-79684860D01*
X151911154Y-79643647D01*
X151911150Y-79643646D01*
X151773064Y-79603100D01*
X151773061Y-79603100D01*
X151629139Y-79603100D01*
X151629136Y-79603100D01*
X151491049Y-79643646D01*
X151491045Y-79643647D01*
X151369975Y-79721455D01*
X151369968Y-79721460D01*
X151275723Y-79830226D01*
X151215934Y-79961145D01*
X151195453Y-80103600D01*
X151215934Y-80246054D01*
X151215934Y-80246055D01*
X151215935Y-80246057D01*
X151275723Y-80376973D01*
X151275724Y-80376974D01*
X151275866Y-80377138D01*
X151275905Y-80377257D01*
X151278584Y-80381425D01*
X151277520Y-80382108D01*
X151293749Y-80430878D01*
X151268395Y-80481523D01*
X151214655Y-80499406D01*
X151179931Y-80487848D01*
X151111154Y-80443647D01*
X151111150Y-80443646D01*
X150973064Y-80403100D01*
X150973061Y-80403100D01*
X150829139Y-80403100D01*
X150829136Y-80403100D01*
X150691049Y-80443646D01*
X150691045Y-80443647D01*
X150569975Y-80521455D01*
X150569968Y-80521460D01*
X150475723Y-80630226D01*
X150415934Y-80761145D01*
X150395453Y-80903600D01*
X149588729Y-80903600D01*
X149566048Y-80848841D01*
X149563049Y-80843647D01*
X149478263Y-80696791D01*
X149478262Y-80696790D01*
X149478260Y-80696786D01*
X149371377Y-80557490D01*
X149349803Y-80535915D01*
X149349772Y-80535880D01*
X148520884Y-79706982D01*
X148499210Y-79654656D01*
X148499210Y-79033918D01*
X148499210Y-79033912D01*
X148488859Y-78962868D01*
X148435285Y-78853280D01*
X148349030Y-78767025D01*
X148349029Y-78767024D01*
X148239443Y-78713451D01*
X148168402Y-78703100D01*
X148168398Y-78703100D01*
X147329022Y-78703100D01*
X147329017Y-78703100D01*
X147257977Y-78713451D01*
X147257976Y-78713451D01*
X147148390Y-78767024D01*
X147062134Y-78853280D01*
X147008561Y-78962866D01*
X147008561Y-78962867D01*
X146998210Y-79033907D01*
X146998210Y-80373292D01*
X147008561Y-80444332D01*
X147008561Y-80444333D01*
X147062134Y-80553919D01*
X147062135Y-80553920D01*
X147148390Y-80640175D01*
X147257978Y-80693749D01*
X147329022Y-80704100D01*
X147329028Y-80704100D01*
X148168392Y-80704100D01*
X148168398Y-80704100D01*
X148239442Y-80693749D01*
X148282927Y-80672489D01*
X148339456Y-80668979D01*
X148367753Y-80686642D01*
X148374481Y-80693369D01*
X148383518Y-80702407D01*
X148405194Y-80754732D01*
X148383522Y-80807058D01*
X148352043Y-80825736D01*
X148291048Y-80843646D01*
X148291045Y-80843647D01*
X148169975Y-80921455D01*
X148169968Y-80921460D01*
X148075723Y-81030226D01*
X148015934Y-81161145D01*
X147995453Y-81303600D01*
X148015934Y-81446054D01*
X148075723Y-81576974D01*
X148091856Y-81595592D01*
X148101599Y-81606836D01*
X148107525Y-81613674D01*
X148125600Y-81662134D01*
X148125600Y-81940616D01*
X148117535Y-81974209D01*
X148115455Y-81978289D01*
X148115454Y-81978295D01*
X148100600Y-82072080D01*
X148100600Y-83235119D01*
X148115453Y-83328904D01*
X148115454Y-83328906D01*
X148163589Y-83423374D01*
X148173050Y-83441942D01*
X148262758Y-83531650D01*
X148324612Y-83563166D01*
X148361394Y-83606233D01*
X148356951Y-83662695D01*
X148313883Y-83699478D01*
X148291016Y-83703100D01*
X147772938Y-83703100D01*
X147765686Y-83702744D01*
X147755497Y-83701740D01*
X147695059Y-83695787D01*
X147680833Y-83692957D01*
X147667486Y-83688908D01*
X147616421Y-83673417D01*
X147603026Y-83667869D01*
X147543667Y-83636141D01*
X147531605Y-83628082D01*
X147479587Y-83585392D01*
X147469329Y-83575134D01*
X147384164Y-83471360D01*
X147376105Y-83459299D01*
X147366828Y-83441943D01*
X147312825Y-83340910D01*
X147307277Y-83327516D01*
X147299599Y-83302207D01*
X147298873Y-83299814D01*
X147296598Y-83266758D01*
X147301610Y-83235119D01*
X147301609Y-82072082D01*
X147301114Y-82068959D01*
X147286756Y-81978295D01*
X147286755Y-81978293D01*
X147256880Y-81919661D01*
X147229160Y-81865258D01*
X147139452Y-81775550D01*
X147026414Y-81717954D01*
X147026412Y-81717953D01*
X147026411Y-81717953D01*
X146932630Y-81703100D01*
X146869590Y-81703100D01*
X146775805Y-81717953D01*
X146775803Y-81717954D01*
X146662767Y-81775550D01*
X146573060Y-81865257D01*
X146567039Y-81877075D01*
X146523971Y-81913857D01*
X146467508Y-81909412D01*
X146435171Y-81877075D01*
X146429149Y-81865257D01*
X146339443Y-81775551D01*
X146339442Y-81775550D01*
X146226404Y-81717954D01*
X146226402Y-81717953D01*
X146226401Y-81717953D01*
X146132620Y-81703100D01*
X146069580Y-81703100D01*
X145975795Y-81717953D01*
X145975793Y-81717954D01*
X145862757Y-81775550D01*
X145773050Y-81865257D01*
X145767034Y-81877065D01*
X145723967Y-81913847D01*
X145667504Y-81909403D01*
X145635166Y-81877065D01*
X145629149Y-81865257D01*
X145539443Y-81775551D01*
X145539442Y-81775550D01*
X145426404Y-81717954D01*
X145426402Y-81717953D01*
X145426401Y-81717953D01*
X145332620Y-81703100D01*
X145269580Y-81703100D01*
X145175795Y-81717953D01*
X145175793Y-81717954D01*
X145062757Y-81775550D01*
X144973051Y-81865256D01*
X144915453Y-81978298D01*
X144900600Y-82072080D01*
X144900600Y-83235119D01*
X144915453Y-83328904D01*
X144915454Y-83328906D01*
X144949686Y-83396088D01*
X144957396Y-83422431D01*
X144978443Y-83636130D01*
X145033846Y-83914662D01*
X145033847Y-83914667D01*
X145033848Y-83914669D01*
X145109862Y-84165256D01*
X145116289Y-84186441D01*
X145116294Y-84186455D01*
X145224970Y-84448824D01*
X145224973Y-84448831D01*
X145358840Y-84699280D01*
X145358843Y-84699286D01*
X145358848Y-84699294D01*
X145516630Y-84935434D01*
X145696798Y-85154971D01*
X145739562Y-85197735D01*
X145761258Y-85219431D01*
X145761318Y-85219499D01*
X145764580Y-85222761D01*
X145764582Y-85222764D01*
X145793953Y-85252134D01*
X145815627Y-85304458D01*
X145814706Y-85314620D01*
X145811609Y-85353970D01*
X145811553Y-85355417D01*
X145811496Y-85355414D01*
X145811496Y-85355416D01*
X145811464Y-85355413D01*
X145810738Y-85355385D01*
X145789936Y-85405606D01*
X145737610Y-85427280D01*
X145685284Y-85405606D01*
X145673526Y-85390283D01*
X145672030Y-85387693D01*
X145647263Y-85355416D01*
X145626255Y-85328037D01*
X145526280Y-85197744D01*
X145526275Y-85197739D01*
X145526272Y-85197735D01*
X145483282Y-85154744D01*
X145483272Y-85154732D01*
X145479797Y-85151256D01*
X145479796Y-85151255D01*
X145441621Y-85113079D01*
X145419953Y-85091410D01*
X145419943Y-85091406D01*
X145411208Y-85082671D01*
X145403443Y-85074906D01*
X145403441Y-85074904D01*
X145399973Y-85071437D01*
X145399932Y-85071401D01*
X145387475Y-85058944D01*
X145387470Y-85058939D01*
X145387467Y-85058936D01*
X145387465Y-85058935D01*
X145263571Y-84968920D01*
X145127123Y-84899394D01*
X145127121Y-84899393D01*
X145106825Y-84892798D01*
X144981467Y-84852064D01*
X144981465Y-84852063D01*
X144888272Y-84837300D01*
X144830206Y-84828102D01*
X144830203Y-84828101D01*
X144830197Y-84828101D01*
X144807599Y-84828101D01*
X144807581Y-84828100D01*
X144803055Y-84828100D01*
X144753633Y-84828100D01*
X144699644Y-84828099D01*
X144699643Y-84828099D01*
X144693686Y-84828099D01*
X144693674Y-84828100D01*
X144421644Y-84828100D01*
X144369318Y-84806426D01*
X144347644Y-84754100D01*
X144369318Y-84701774D01*
X144371812Y-84699280D01*
X144429150Y-84641942D01*
X144486746Y-84528904D01*
X144501600Y-84435119D01*
X144501599Y-84372082D01*
X144492409Y-84314056D01*
X144486746Y-84278295D01*
X144486745Y-84278293D01*
X144454627Y-84215260D01*
X144429150Y-84165258D01*
X144339442Y-84075550D01*
X144226404Y-84017954D01*
X144226402Y-84017953D01*
X144226401Y-84017953D01*
X144132620Y-84003100D01*
X144132619Y-84003100D01*
X144000600Y-84003100D01*
X143948274Y-83981426D01*
X143926600Y-83929100D01*
X143926600Y-83892801D01*
X143933287Y-83862060D01*
X143935632Y-83856926D01*
X143986265Y-83746057D01*
X144006747Y-83603600D01*
X143986265Y-83461143D01*
X143926477Y-83330227D01*
X143852552Y-83244912D01*
X143832231Y-83221460D01*
X143832229Y-83221459D01*
X143832228Y-83221457D01*
X143775282Y-83184860D01*
X143711154Y-83143647D01*
X143711150Y-83143646D01*
X143573064Y-83103100D01*
X143573061Y-83103100D01*
X143429139Y-83103100D01*
X143429136Y-83103100D01*
X143291049Y-83143646D01*
X143291045Y-83143647D01*
X143169975Y-83221455D01*
X143169968Y-83221460D01*
X143075723Y-83330226D01*
X143015934Y-83461145D01*
X142995453Y-83603600D01*
X143015934Y-83746054D01*
X143015934Y-83746055D01*
X143015935Y-83746057D01*
X143075723Y-83876973D01*
X143078900Y-83880640D01*
X143096788Y-83934376D01*
X143071438Y-83985024D01*
X143022977Y-84003100D01*
X142969580Y-84003100D01*
X142875795Y-84017953D01*
X142875793Y-84017954D01*
X142762757Y-84075550D01*
X142673051Y-84165256D01*
X142615453Y-84278298D01*
X142600600Y-84372079D01*
X142600600Y-84435119D01*
X142600601Y-84435120D01*
X142614266Y-84521406D01*
X142601044Y-84576478D01*
X142552752Y-84606070D01*
X142497680Y-84592848D01*
X142488859Y-84585314D01*
X142325683Y-84422141D01*
X142304010Y-84369816D01*
X142304010Y-83370346D01*
X142304010Y-83370340D01*
X142294083Y-83302207D01*
X142242708Y-83197117D01*
X142159993Y-83114402D01*
X142159992Y-83114401D01*
X142155004Y-83110840D01*
X142156416Y-83108860D01*
X142124818Y-83073087D01*
X142128322Y-83016559D01*
X142162304Y-82982572D01*
X142249030Y-82940175D01*
X142335285Y-82853920D01*
X142388859Y-82744332D01*
X142399210Y-82673288D01*
X142399210Y-81333912D01*
X142388859Y-81262868D01*
X142335285Y-81153280D01*
X142249030Y-81067025D01*
X142249029Y-81067024D01*
X142139443Y-81013451D01*
X142068402Y-81003100D01*
X142068398Y-81003100D01*
X141229022Y-81003100D01*
X141229017Y-81003100D01*
X141157977Y-81013451D01*
X141157976Y-81013451D01*
X141048390Y-81067024D01*
X140962134Y-81153280D01*
X140908561Y-81262866D01*
X140908561Y-81262867D01*
X140898210Y-81333907D01*
X140898210Y-82673292D01*
X140908561Y-82744332D01*
X140908561Y-82744333D01*
X140962134Y-82853919D01*
X141048390Y-82940175D01*
X141089913Y-82960474D01*
X141127403Y-83002927D01*
X141123894Y-83059455D01*
X141089914Y-83093436D01*
X141047026Y-83114402D01*
X140964311Y-83197117D01*
X140912937Y-83302205D01*
X140912937Y-83302206D01*
X140903010Y-83370335D01*
X140903010Y-84636864D01*
X140912937Y-84704993D01*
X140912937Y-84704994D01*
X140964311Y-84810082D01*
X140964312Y-84810083D01*
X141047027Y-84892798D01*
X141152117Y-84944173D01*
X141220250Y-84954100D01*
X141764917Y-84954100D01*
X141817242Y-84975774D01*
X142068681Y-85227208D01*
X142068739Y-85227275D01*
X142072413Y-85230949D01*
X142072414Y-85230950D01*
X142089466Y-85248001D01*
X142089487Y-85248050D01*
X142158838Y-85317398D01*
X142169476Y-85328036D01*
X142251590Y-85387693D01*
X142276246Y-85405606D01*
X142304253Y-85425953D01*
X142370547Y-85459729D01*
X142426359Y-85488165D01*
X142463144Y-85531231D01*
X142458701Y-85587693D01*
X142415635Y-85624478D01*
X142392766Y-85628100D01*
X142164303Y-85628100D01*
X142124296Y-85616353D01*
X142011164Y-85543647D01*
X142011160Y-85543646D01*
X141873074Y-85503100D01*
X141873071Y-85503100D01*
X141729149Y-85503100D01*
X141729146Y-85503100D01*
X141591059Y-85543646D01*
X141591055Y-85543647D01*
X141477924Y-85616353D01*
X141437917Y-85628100D01*
X141275610Y-85628100D01*
X141223284Y-85606426D01*
X141201610Y-85554100D01*
X141201610Y-85331518D01*
X141201610Y-85331512D01*
X141191259Y-85260468D01*
X141137685Y-85150880D01*
X141051430Y-85064625D01*
X141051429Y-85064624D01*
X140941843Y-85011051D01*
X140870802Y-85000700D01*
X140870798Y-85000700D01*
X140539600Y-85000700D01*
X140487274Y-84979026D01*
X140473231Y-84959429D01*
X140465707Y-84944172D01*
X140404586Y-84820227D01*
X140400883Y-84811286D01*
X140400475Y-84810083D01*
X140346976Y-84652479D01*
X140344473Y-84643135D01*
X140340056Y-84620929D01*
X140311760Y-84478663D01*
X140310496Y-84469066D01*
X140309201Y-84449298D01*
X140299367Y-84299234D01*
X140299210Y-84294417D01*
X140299210Y-83370346D01*
X140299210Y-83370340D01*
X140289283Y-83302207D01*
X140237908Y-83197117D01*
X140155193Y-83114402D01*
X140155192Y-83114401D01*
X140050104Y-83063027D01*
X139981974Y-83053100D01*
X139981970Y-83053100D01*
X139215450Y-83053100D01*
X139215445Y-83053100D01*
X139147316Y-83063027D01*
X139147315Y-83063027D01*
X139042227Y-83114401D01*
X138959511Y-83197117D01*
X138908137Y-83302205D01*
X138908137Y-83302206D01*
X138898210Y-83370335D01*
X138898210Y-84213808D01*
X138898201Y-84213954D01*
X138898199Y-84327494D01*
X138898210Y-84327521D01*
X138898210Y-84636864D01*
X138908137Y-84704993D01*
X138908137Y-84704995D01*
X138932974Y-84755799D01*
X138939071Y-84773863D01*
X138972655Y-84942715D01*
X138961605Y-84998264D01*
X138914513Y-85029729D01*
X138867577Y-85023632D01*
X138841843Y-85011051D01*
X138770802Y-85000700D01*
X138770798Y-85000700D01*
X137431422Y-85000700D01*
X137431417Y-85000700D01*
X137360377Y-85011051D01*
X137360376Y-85011051D01*
X137250790Y-85064624D01*
X137164534Y-85150880D01*
X137110961Y-85260466D01*
X137110961Y-85260467D01*
X137100610Y-85331507D01*
X129501081Y-85331507D01*
X129747612Y-85022207D01*
X129750387Y-85018928D01*
X130118789Y-84608480D01*
X130121722Y-84605400D01*
X130513480Y-84217217D01*
X130516609Y-84214292D01*
X130931258Y-83848930D01*
X130931946Y-83848332D01*
X130931953Y-83848326D01*
X130933806Y-83846790D01*
X131685074Y-83244863D01*
X131687016Y-83243362D01*
X132459859Y-82667532D01*
X132461872Y-82666086D01*
X133254476Y-82117759D01*
X133256538Y-82116386D01*
X134067852Y-81596284D01*
X134070012Y-81594952D01*
X134899143Y-81103647D01*
X134901278Y-81102432D01*
X135747159Y-80640558D01*
X135749416Y-80639378D01*
X136610924Y-80207545D01*
X136613180Y-80206462D01*
X137489383Y-79805137D01*
X137491700Y-79804125D01*
X138381454Y-79433832D01*
X138383824Y-79432895D01*
X139285966Y-79094117D01*
X139288364Y-79093264D01*
X140201959Y-78786353D01*
X140204319Y-78785606D01*
X141128093Y-78510992D01*
X141130526Y-78510315D01*
X142064032Y-78268154D01*
X142066966Y-78267457D01*
X142501626Y-78173620D01*
X142505037Y-78172969D01*
X142944313Y-78099655D01*
X142947755Y-78099164D01*
X143390027Y-78046678D01*
X143393478Y-78046351D01*
X143837757Y-78014813D01*
X143841195Y-78014651D01*
X144287010Y-78004120D01*
X144288756Y-78004100D01*
X144354087Y-78004101D01*
X144354091Y-78004100D01*
X152648408Y-78004100D01*
X152713441Y-78004100D01*
X152715188Y-78004120D01*
G37*
%TD.AperFunction*%
%TD*%
%TA.AperFunction,Conductor*%
%TO.N,NetMOS.D.1_C*%
G36*
X165736697Y-96403624D02*
G01*
X165739019Y-96403669D01*
X165834208Y-96405531D01*
X165851157Y-96407031D01*
X166045092Y-96437750D01*
X166063994Y-96442287D01*
X166249585Y-96502592D01*
X166267536Y-96510028D01*
X166441399Y-96598617D01*
X166457975Y-96608774D01*
X166518551Y-96652786D01*
X166616824Y-96724186D01*
X166629882Y-96735119D01*
X166648607Y-96753123D01*
X166699335Y-96801899D01*
X166702633Y-96805193D01*
X166766494Y-96871469D01*
X166788233Y-96894030D01*
X166799257Y-96907184D01*
X166946172Y-97109395D01*
X166956339Y-97125985D01*
X167069292Y-97347669D01*
X167076738Y-97365646D01*
X167153620Y-97602265D01*
X167158162Y-97621186D01*
X167197260Y-97868053D01*
X167198766Y-97885145D01*
X167201089Y-98010108D01*
X167201110Y-98012413D01*
X167201110Y-102245826D01*
X167181425Y-102312865D01*
X167128621Y-102358620D01*
X167124569Y-102360384D01*
X167027035Y-102400783D01*
X167027034Y-102400783D01*
X167027034Y-102400784D01*
X166963525Y-104383570D01*
X166941705Y-104449945D01*
X166887463Y-104493986D01*
X166839589Y-104503600D01*
X164625110Y-104503600D01*
X164558071Y-104483915D01*
X164512316Y-104431111D01*
X164501110Y-104379600D01*
X164501110Y-101108836D01*
X164500309Y-101101901D01*
X164498990Y-101018004D01*
X164498990Y-101018000D01*
X164463979Y-100752035D01*
X164394550Y-100492915D01*
X164291894Y-100245075D01*
X164157765Y-100012754D01*
X164157764Y-100012752D01*
X163994461Y-99799931D01*
X163994456Y-99799926D01*
X163901084Y-99703585D01*
X163343725Y-99146214D01*
X163340926Y-99143323D01*
X163308986Y-99109239D01*
X163292077Y-99086445D01*
X163244088Y-99003316D01*
X163231703Y-98973416D01*
X163206856Y-98880673D01*
X163202699Y-98852636D01*
X163201166Y-98805622D01*
X163201100Y-98801579D01*
X163201110Y-97870398D01*
X163201134Y-97867977D01*
X163203038Y-97770505D01*
X163204541Y-97753528D01*
X163235257Y-97559604D01*
X163239794Y-97540708D01*
X163300100Y-97355111D01*
X163307534Y-97337164D01*
X163396124Y-97163301D01*
X163406283Y-97146723D01*
X163521704Y-96987861D01*
X163532617Y-96974827D01*
X163599483Y-96905287D01*
X163602792Y-96901976D01*
X163658649Y-96848152D01*
X163720582Y-96815809D01*
X163790169Y-96822084D01*
X163845317Y-96864985D01*
X163849683Y-96871469D01*
X163871294Y-96905862D01*
X163998848Y-97033416D01*
X164089190Y-97090182D01*
X164146170Y-97125985D01*
X164151588Y-97129389D01*
X164201126Y-97146723D01*
X164321855Y-97188968D01*
X164321860Y-97188969D01*
X164501106Y-97209165D01*
X164501110Y-97209165D01*
X164501114Y-97209165D01*
X164680359Y-97188969D01*
X164680362Y-97188968D01*
X164680365Y-97188968D01*
X164850632Y-97129389D01*
X165003372Y-97033416D01*
X165130926Y-96905862D01*
X165226899Y-96753122D01*
X165286478Y-96582855D01*
X165294268Y-96513717D01*
X165321334Y-96449303D01*
X165378928Y-96409748D01*
X165417488Y-96403600D01*
X165734273Y-96403600D01*
X165736697Y-96403624D01*
G37*
%TD.AperFunction*%
%TD*%
M02*
